<?xml version="1.0" encoding="UTF-8"?>
<svg id="Capa_1" data-name="Capa 1" xmlns="http://www.w3.org/2000/svg" viewBox="0 0 4405.38 2171.64">
  <defs>
    <style>
      .cls-1 {
        fill: #45b1ff;
      }

      .cls-1, .cls-2, .cls-3, .cls-4, .cls-5, .cls-6, .cls-7, .cls-8, .cls-9, .cls-10 {
        stroke-width: 0px;
      }

      .cls-2 {
        fill: #232020;
      }

      .cls-3 {
        fill: #a1d3f4;
      }

      .cls-4 {
        fill: #73a561;
      }

      .cls-5 {
        fill: #01e78d;
      }

      .cls-6 {
        fill: #242021;
      }

      .cls-7 {
        fill: #8bce75;
      }

      .cls-8 {
        fill: #a1d3f5;
      }

      .cls-9 {
        fill: #231f20;
      }

      .cls-10 {
        fill: #fff;
      }
    </style>
  </defs>
  <path class="cls-9" d="M2082.6,1087.86c-2.01-15.17-4.61-30.28-5.89-45.51-2.12-25.22-2.82-50.5-1.96-75.85.86-25.33,2.98-50.48,7.37-75.47,3.62-20.62,5.09-41.77,11.99-61.6,16.86-48.48,35.55-96.13,66.55-137.9,23.82-32.1,51.02-60.6,84.53-82.64,24.63-16.2,51.4-27.67,79.77-35.78,26.68-7.63,53.89-12.29,81.39-15.01,29.81-2.95,59.72-4.57,89.73-3.12,12.62.61,25.26.3,37.83,2.31,23.76,3.79,45.28,13.09,65.27,26.07,17.67,11.48,34.61,24.2,46.9,41.49,10.37,14.6,19.38,30.25,28.12,45.92,13.7,24.56,23.55,50.74,28.81,78.4,3.23,16.98,13.58,28.54,26.71,38.21,7.21,5.3,15.73,7.26,24.62,6.28,6.29-.69,9.83,2.11,12.78,7.26,7.7,13.49,6.99,28.58-2.49,41.26-6.03,8.07-13.27,14.88-21.78,20.33-10.09,6.46-20.6,12.12-31.24,17.61-35.89,18.51-74.03,31.22-112.27,43.62-12.96,4.21-26.31,3.54-39.41.38-6.44-1.55-12.08-1.19-18.13,1.82-11.68,5.82-24.25,6.71-37.02,4.61-4.26-.7-8.41-2.09-12.67-2.76-13.66-2.14-25.52-8.09-34.62-18.29-12.83-14.38-28.43-14.64-44.89-9.75-14.77,4.38-28.09,12.23-40.65,20.97-9.52,6.63-13.58,17.5-15.72,28.24-7.95,39.94-14.04,80.27-6.93,120.89,2.24,12.81,1.67,25.7,4.45,38.36,5.28,24.1,17.84,44.01,33.19,62.87,15.6,19.16,36.52,29.57,58.4,38.73,16.61,6.96,33.88,11.81,51.91,13.38,17.73,1.54,34.56-.5,48.83-12.69,17.9-15.29,14.03-42.84-7.5-52.59-6.41-2.9-9.03-2.11-10.85,5.05-4.7,18.5-18.22,27.63-35,32.01-28.48,7.44-53.37.9-72.97-22.11-9.14-10.73-15.56-23.11-22.03-35.49-4.32-8.27-2.82-17.21-1.63-25.53,2.21-15.43-.52-30.58-.65-45.85-.15-18.26-2.74-36.59,2.35-54.64,4.98-17.61,15.41-31.5,29.29-42.97,4.99-4.13,11.05-6.41,17.46-6.69,13.3-.58,26.61-.78,39.92-.83,3.61-.01,7.48.44,10.8,1.77,15.84,6.32,31.62,1.94,47.26-.23,26.76-3.72,53.5-6.83,80.55-4.6,17.91,1.48,35.77,4.33,53.7,4.74,13.93.32,27.92-.21,41.89.19.66.02,1.41.09,1.98-.16,18.46-7.94,37.4-2.92,56.17-2.05,6.72.31,6.7.5,6.35-5.94-1.94-35.31-2.04-70.66,2.17-105.76,3.45-28.69,7.87-57.32,14.36-85.53,3.07-13.32,9.9-25.37,14.23-38.29,14.76-44.06,36.88-84.12,65.75-120.38,32.48-40.79,71.84-73.02,120.58-92.59,30.73-12.33,62.85-19.65,95.7-23.74,30.08-3.74,60.27-6.06,90.57-5.72,18.28.2,36.62-.1,54.8,2.73,22.72,3.54,43.44,12.19,62.75,24.41,18.39,11.63,35.68,24.76,48.87,42.24,10.61,14.06,19.18,29.55,27.8,44.91,14.1,25.12,24.34,51.82,29.79,80.14,3.33,17.3,13.67,29.22,27.41,38.82,6.74,4.71,14.6,6.88,22.74,5.88,7.65-.94,11.58,2.46,14.87,8.79,7.28,14,5.25,27.04-3.26,39.49-5.31,7.77-12.15,14.22-20,19.35-9.73,6.35-20.04,11.74-30.21,17.37-33.09,18.34-69.31,28.74-104.35,42.1-17.17,6.55-35.01,7.56-52.97,2.92-3.56-.92-6.89-1.72-10.56.27-19.58,10.64-39.74,8.16-60.19,2.72-11.34-3.02-21.14-8.53-28.76-17.05-13.14-14.68-29.04-14.8-45.82-9.66-14.4,4.41-27.24,12.35-39.78,20.54-5.11,3.34-8.2,8.67-10.79,14.15-3.87,8.18-6.3,16.86-7.73,25.73-2.12,13.14-3.79,26.36-5.4,39.57-2.87,23.61-3.31,47.44,1.26,70.68,2.52,12.82,1.51,25.73,4.44,38.39,5.39,23.34,17.48,42.77,32.3,61.15,15.69,19.46,36.72,30.37,59.01,39.56,16.96,6.99,34.52,11.96,52.9,13.49,17.8,1.48,34.35-1.17,48.68-13.21,21.63-18.17,7.59-46.11-8.92-52.49-5.59-2.16-8.32-1.51-9.84,4.27-3.15,11.94-9.54,20.86-20.42,27.02-13.63,7.71-28.2,9.8-43.4,8.48-22.32-1.94-37.85-14.88-50.45-32.2-5.89-8.09-10.22-17.12-15.19-25.76-4.81-8.36-4.17-17.7-2.68-26.38,2.71-15.75-.47-31.21-.47-46.79,0-18.26-2.74-36.61,2.32-54.67,4.94-17.64,15.35-31.52,29.22-43.01,4.71-3.9,10.38-6.38,16.43-6.62,14.28-.56,28.57-1.68,42.88-.88,2.97.16,6.09.5,8.83,1.56,16.5,6.36,32.81,1.59,49.17-.54,26.43-3.44,52.87-6.63,79.61-4.13,17.57,1.64,35.11,4.22,52.71,4.62,13.93.32,27.92-.17,41.88.22,1.63.05,3.34-.25,4.92-.72,24.6-7.4,48.56-3.33,72.29,4.13,6.05,1.9,6.79,1.72,6.94-4.8.95-41.26,2.74-82.54-1.77-123.73-.47-4.33-.09-8.47.87-12.81,2.11-9.53.24-19.26.29-28.9.21-40.81,4.19-80.99,18.36-119.69,7.41-20.24,16.62-39.2,33.1-53.82,11.78-10.45,20.78-23.35,30.67-35.45,24.34-29.79,53.23-53.98,87.8-71.05,22.52-11.12,46.28-18.18,71.13-22.25,41.48-6.79,81.46-.26,121.01,11.73,15.25,4.62,30.45,9.42,45.72,13.9,35.36,10.38,63.39,31.66,88.69,57.31,16.22,16.45,27.13,36.92,41.04,55.11,27.19,35.55,44.13,76.44,61.87,116.94,13.48,30.77,26.89,61.57,40.05,92.48,12.76,29.98,26.68,59.52,36.26,90.77,8.89,28.99,15.31,58.55,20.72,88.39,6.43,35.44,9.95,71.19,13.3,106.97,2.98,31.84,4.34,63.64-2.86,95.35-6.79,29.87-17.93,57.76-33.99,83.73-8.95,14.47-19.27,27.91-30.27,40.92-19.16,22.67-43.66,37.76-69.8,50.64-30.59,15.08-62.84,25.5-95.92,33.48-29.43,7.1-59.26,11.74-89.24,15.99-35.98,5.1-72.24,6.4-108.3,10.19-.33.03-.67.02-1,.09-34.6,6.78-65.68-5.18-96.21-18.76-44.88-19.96-77.14-54.09-101.85-95.4-25.33-42.37-41.16-88.51-49.48-137.2-5.32-31.12-10.64-62.24-16.03-93.35-.6-3.47-.97-7.12-3.32-9.94-3.15.78-2.5,3.13-2.75,4.91-2.16,15.2-6.06,29.89-11.35,44.34-13.86,37.85-23.61,76.95-34.29,115.77-6.54,23.76-15.14,46.84-24.55,69.63-18.29,44.32-47.37,80.16-86.01,108.03-26.14,18.85-53.05,36.65-80.06,54.24-11.79,7.68-25.37,11.65-39.47,13.14-20.87,2.21-41.75,4.41-62.65,6.38-11.11,1.05-21.83-2.08-32.49-4.38-27.29-5.89-53.95-14.13-80.46-22.85-3.87-1.27-7.47-2.73-10.57-5.35-9.45-7.98-19.74-14.78-30.72-20.34-19.48-9.86-36.97-22.39-52.84-37.3-14.81-13.91-30.14-27.3-44.37-41.77-39.59-40.26-70.2-86.75-93.55-138.06-7.86-17.28-14-35.23-19.36-53.44-1-3.41-1.47-7.23-4.6-9.67-3.03.59-2.04,3.09-2.22,4.8-1.28,12.07-5.87,23.2-9.85,34.46-12.33,34.86-21.57,70.61-31.45,106.19-11.15,40.13-24.56,79.52-46.39,115.48-15.09,24.85-35.06,45.15-57.35,63.39-23.98,19.62-51.1,34.74-76.09,52.9-19.79,14.38-41.68,21.46-65.93,22.9-15.95.95-31.83,3.09-47.72,4.88-11.53,1.3-22.55-1.78-33.51-4.13-27.94-5.99-55.22-14.53-82.4-23.34-2.91-.94-5.72-2.08-7.98-4-11.74-9.98-24.88-17.77-38.45-24.9-15.72-8.27-29.91-18.63-42.88-30.73-15.35-14.3-31.22-28.08-46.01-42.94-40.81-40.99-72.22-88.51-95.86-141.22-12.17-27.12-20.33-55.6-28.31-84.13-8.71-16.14-9.35-34.44-13.97-51.68-1.15-4.28,3.15-8.25,0-12.32h0c-2.37-3.78.52-8.35-1.87-12.11Z"/>
  <path class="cls-9" d="M2100.33,1210.1c1.77,17.91,3.5,35.82,5.31,53.72,2.28,22.56,4.35,45.25,2.63,67.83-2.75,36.2-12.86,70.52-30.23,102.62-14.88,27.5-33.3,52.34-56.28,73.46-15.27,14.04-33.62,23.85-52.19,32.94-31.22,15.29-64.04,25.93-97.84,33.9-29.49,6.96-59.31,11.65-89.31,15.85-35.01,4.9-70.25,6.36-105.34,9.85-2.65.26-5.33.41-7.94.88-15.02,2.75-29.73,1.3-44.38-2.64-32.47-8.74-62.84-21.92-89.2-43.08-24.4-19.58-43.65-43.75-59.67-70.5-4.6-7.69-8.58-15.76-12.62-23.78-1.49-2.96-3.2-5.55-6.81-9.26,1.71,17.46,2.67,33.05,4.9,48.44,3.09,21.29,1.89,42.54,1.18,63.85-.63,18.97-1.25,37.91-5.76,56.51-2.7,11.14-6.92,21.52-13.35,30.97-4.94,7.26-10.97,13.43-19.14,17.06-15.44,6.85-30.9,3.92-43.19-7.84-9.7-9.29-15.01-21.02-18.88-33.54-1.62-5.24-2.68-10.59-10.19-9.48-1.11.17-2.54-.78-3.62-1.51-21.28-14.49-45.89-20.71-69.98-28.23-35.17-10.98-70.91-20.23-104.98-34.62-15.38-6.5-28.98-14.74-37.09-30.19-3.33-6.35-9.4-10.17-15.37-13.95-18.58-11.77-38.31-21.49-57.62-31.94-12.63-6.84-22.97-15.57-29.98-28.27-3.84-6.96-8.55-13.45-12.6-20.3-2.11-3.57-4.29-3.98-6.97-.99-2.44,2.72-4.91,5.44-6.44,8.85-.86,1.93-1.11,3.58.11,5.59,7.26,11.96,9.32,25.61,11.57,38.98,5.82,34.6,6.91,69.56,6.24,104.59-.21,11,.03,21.97.8,32.96.79,11.38-1.56,22.59-3.65,33.67-3.87,20.57-8.39,41.02-12.87,61.46-3.74,17.06-21.74,31.43-39.09,31.76-11.47.22-22.55-2.02-33.31-5.56-11.71-3.85-21.11-11.1-28.08-21.38-8.61-12.7-17.85-24.74-30.43-34.05-6.38-4.72-10.67-11.81-15.67-18.03-20.52-25.5-38.15-52.91-51.76-82.65-12.93-28.25-22.27-57.76-24.83-88.97-1.22-14.84-6.02-28.74-11.19-42.34-11.28-29.63-19.62-60.05-27.13-90.77-2.69-10.99-6.14-21.79-9.27-32.67-.45-1.57-.83-3.29-2.92-3.61-7.75,35.08-22.45,68.01-31.4,102.73-7.64,29.63-15.15,59.32-25.66,88.14-9.96,27.29-21,54.04-37.47,78.16-20.21,29.59-46.66,52.76-75.96,72.85-20.01,13.73-40.26,27.12-60.47,40.56-12.68,8.44-26.76,13.58-41.76,15.5-19.16,2.46-38.48,3.69-57.65,6.13-13.57,1.72-26.58-.88-39.54-3.71-27.61-6.04-54.63-14.23-81.44-23.15-3.21-1.07-6.42-2.09-8.93-4.27-11.4-9.89-24.34-17.4-37.58-24.4-16.3-8.61-31.02-19.37-44.47-31.93-15.09-14.09-30.74-27.63-45.27-42.28-40.49-40.79-71.93-87.92-95.28-140.35-15.62-35.08-25.8-71.96-34.65-109.26-7.08-29.82-12.01-60-15.09-90.44-4.33-42.85-4.56-85.88.38-128.65,3.32-28.68,7.9-57.3,14.38-85.5,2.99-13,9.69-24.75,13.93-37.35,15-44.68,37.4-85.35,66.85-122.05,32.2-40.13,71.1-71.88,119.16-91.26,30.07-12.12,61.46-19.5,93.63-23.6,30.75-3.92,61.58-6.54,92.61-6.02,18.62.31,37.28-.21,55.8,2.73,23.41,3.72,44.69,12.78,64.43,25.51,17.98,11.6,35.18,24.57,47.63,42.15,10.54,14.87,19.69,30.81,28.55,46.78,13.64,24.59,23.13,50.85,28.63,78.48,3.5,17.6,14.68,29.35,29.06,38.7,6.1,3.97,13.11,5.28,20.1,4.52,7.48-.81,12.06,1.81,15.06,8.47,1,2.23,2.23,4.71,5.43,5.86.43-9.01-1.3-17.47-2.11-25.97-3.74-39.47-7.63-78.93-11.42-118.4-1.13-11.72-4.13-22.86-9.5-33.38-1.66-3.25-2.92-6.74-4.07-10.21-2.85-8.59-6.61-16.64-12.38-23.71-9.4-11.53-15.9-24.78-19.39-39.03-4.81-19.66.38-42,21.52-50.21,9.77-3.8,19.7-1.91,29.49.23,11.15,2.43,21.46,7.16,31.31,12.73,5.16,2.92,10.36,4.05,16.21,3.79,19.66-.87,39.21-2.87,58.6-6.15,6.84-1.16,13.52-3.39,20.2-5.41,24.22-7.34,49.11-8.48,74.16-8.2,16.28.18,32.56.4,48.84.83,22.83.6,44.48,7.7,66.52,12.58,12.66,2.8,25.36,5.32,38.24,6.84,2.28.27,4.65.11,6.96-.12,16.25-1.63,32.67-2.32,48.66-5.33,11.82-2.22,23.55-3.11,35.45-3.83,23.13-1.39,43.73,5.11,63.47,16.96,24.04,14.43,45.43,31.51,60.81,55.16,17.92,27.56,31.31,57.03,37.2,89.73,5.95,33.04,13.95,65.69,15.22,99.5,1.57,41.77,0,83.15-10.35,123.91-3.95,15.56-13.43,27.79-24.38,38.31-24.25,23.3-43.2,50.58-62.42,77.79-3.42,4.84-3.56,8.76-.71,13.65,6.96,11.97,16.72,21.54,26.51,31.01,11.94,11.55,24,22.77,40.25,28.83,7.86,2.93,14.33,9.53,21.55,14.28,11.69,7.69,23.6,15.15,37.2,18.91,31.49,8.72,57.11,27.86,83.08,46.37,4.21,3,7.72,6.97,11.56,10.5,1.65-1.63.67-3.59.12-5.35-7.57-24.27-9.95-49.52-14.28-74.41-5.64-32.41-11.22-64.84-18.01-97.05-4.76-22.56-6.31-45.45-6.52-68.48-.36-39.65,2.84-79.25,1.68-118.91-.26-8.98-.82-17.96-1.28-26.93-1.9-36.55-.83-73.08,2.05-109.51,2.35-29.69,10.46-58.07,21.75-85.68,5.42-13.27,13.05-24.69,23.09-34.58,11.88-11.72,22.57-24.42,32.93-37.47,29.59-37.27,65.95-65.7,110.63-82.62,36.35-13.76,73.98-19.33,112.76-14.11,44.74,6.02,87.35,20,129.25,36.13,16.9,6.51,30.53,18.71,44.67,29.83,21.57,16.96,36.78,39.25,52.07,61.48,6.21,9.03,11.83,18.49,18.5,27.15,14.57,18.93,23.96,40.61,33.81,62.03,26.27,57.13,50.28,115.26,75.34,172.93,10.23,23.53,18.48,47.8,25.07,72.62,5.49,13.14,8.22,27,11.49,40.8,3.99,16.82,3.4,34.12,7.02,50.95,1.44,6.69,2.35,13.64,3.02,20.54Z"/>
  <path class="cls-9" d="M2917.49,1807.21c3.25-13.15,11.51-22.18,22.59-29.28,8.97-5.75,17.15-12.66,24.82-20.07,10.56-10.2,22.05-19.27,33.62-28.25,2.88-2.24,5.89-4.37,8.43-6.96,7.02-7.17,16.42-8.92,25.44-9.86,10.15-1.05,17.31,5.3,22.68,13.68,7.54,11.76,14.89,23.6,20.01,36.68.95,2.42,1.98,4.92,4.51,6.26.52-.41,1.45-.83,1.42-1.17-1.28-16.01,3.92-31.62,2.54-47.72-.8-9.35,10.68-19.7,20.3-19.21,14.34.72,28.23,4.32,41.74,8.95,17.63,6.04,36.03,8.94,53.87,14.09,1.2.35,2.58.89,3.98-.38.34-3.43-1.87-6.19-3.62-8.76-12.11-17.87-17.09-38-19.68-59.05-1.86-15.18-3.41-30.4-5.36-45.57-2.64-20.61,6.85-37.33,31.36-35.39,1.97.16,4.1.59,5.91.06,18.17-5.29,36.94-4.44,55.49-5.26,23.32-1.03,46.56-1.88,69.02-9.17,4.74-1.54,9.24.24,13.38,2.45,4.74,2.53,9.17,5.83,12.2,10.18,6.07,8.72,12.53,17.41,16.87,26.99,3.52,7.76,3.62,16.89,1.69,25.52-1.09,4.86-2.08,9.99-4.46,14.25-7.56,13.51-8.99,28.47-10.9,43.26-1.45,11.21-1.72,22.57-2.45,33.87-.13,1.99-.02,3.99.06,5.98.09,2.05.45,4.41,2.23,5.32,2.64,1.35,4.28-1.13,5.75-2.79,7.48-8.49,14.73-17.13,21.35-26.35,6.75-9.4,5.86-20.21,7.17-30.62,3.1-24.62-1.81-49.17-1.04-73.8.33-10.68,2.05-20.42,10.28-28.13,6.1-5.71,13.59-8.21,21.35-10.28,24.13-6.45,48.62-11.2,73.16-15.73,10.89-2.01,20.97-6.45,31.43-9.75,5.74-1.81,11.5-3.15,17.46-4.1,14.67-2.34,25.03,6.9,28.69,20.33,1.28,4.69.36,9.98,3.32,14.17,4.34-.38,5.71-3.78,7.78-6.21,10.93-12.83,23.67-23.64,38.74-30.99,13.19-6.44,27.71-9.88,42.13-11.94,43.2-6.18,86.71-9.76,130.16-13.78,15.23-1.41,29.88,1.98,44.08,6.53,25.91,8.3,51.7,16.81,76.17,29.23,24.17,12.27,41.23,31.02,55.14,53.4,6.63,10.66,12.3,21.86,18.02,34.49,2.67-4.07,2.94-7.71,3.31-11.03,1.77-15.76,7.49-30.31,13.33-44.83,2.39-5.96,6.77-10.75,11.24-15.18,8.09-7.99,14.88-17.06,22.3-25.6,27.2-31.31,60.89-49.79,102.9-52.27,15.84-.94,31.17.89,46.32,5.1,13.11,3.64,26.13,7.53,39.09,11.72,24.87,8.04,43.39,24.27,58.83,44.35,20.76,27.01,37.12,56.57,49.92,88.21,10.97,27.12,22.98,53.8,34.42,80.73,10.49,24.71,15.8,50.82,19.9,77.15,3.48,22.38,5.31,44.96,7.09,67.56,2.36,29.93-5.1,57.17-19.15,83.27-21.03,39.07-55.34,59.94-96.37,72.11-36.61,10.86-74.15,15.79-112.12,18.18-4.65.29-9.36.55-13.91,1.47-22.78,4.61-43.48-2.09-63.56-11.69-12.38-5.92-23.52-13.79-33.24-23.58-2.27-2.29-4.8-4.32-7.73-6.94-1.13,7.15,1.84,12.68,2.49,18.54.29,2.62.88,5.28,1.81,7.75,5.2,13.84.18,25.29-8.12,36.05-2.66,3.46-5.58,6.43-9.62,8.47-14.55,7.35-28.98,14.94-43.4,22.55-2.14,1.13-4.34,1.59-6.67,1.83-21.54,2.22-43.05,5.66-64.64,6.3-17.74.52-35.6-1.2-53.2-5.23-25.57-5.85-51.37-10.59-77.57-13.06-25.65-2.41-49.06,3.42-69.94,18.02-13.53,9.46-27.71,10.27-41.58,3.95-27.27-12.42-53.89-26.29-74.98-48.44-7.19-7.55-12.63-16.12-15.95-26.17-4.55-13.74-1.79-27.07,1.73-40.23,5.84-21.86,12.36-43.54,18.56-65.3,4.55-15.98,8.14-32.21,13.7-47.94,7.35-20.8,16.61-40.65,27.63-59.7,1.31-2.27,3.23-4.21,4.96-6.22,15.24-17.58,33.95-30.58,53.92-42.26,17.22-10.07,33.02-22.38,48.97-34.36,9.71-7.3,9.66-12.75.39-20.81-13.48-11.73-29.52-10.75-41.73,2.29-3.65,3.9-5.6,8.12-5.16,13.47.22,2.65.18,5.33.3,7.99.41,8.83-2.68,16.33-8.68,22.67-10.37,10.94-22.84,19.32-34.84,28.26-1.7,1.26-3.59,2-5.58.96-18.81-9.87-39.48-16.24-56.42-29.61-14.29-11.29-24.94-25.78-34.85-40.84-1.27-1.93-1.91-4.31-3.94-5.68-.47-.32-1.2-.24-1.82-.34,0,6.51-.3,13.04.05,19.53,1.64,30.43-.68,60.59-7.5,90.22-3.06,13.31-4.03,26.11-.88,39.41,5.31,22.41,6.92,45.38,9.3,68.2,1.1,10.59,1.98,21.2,4.32,31.6,4.29,19.05,3.24,38.48,3.17,57.7-.05,11.76-3.64,23.57-6.21,35.23-2.36,10.72-5.55,21.25-8.25,31.89-.67,2.63-1.17,5.14-3.9,6.57-20.22,10.58-40.41,21.22-61.22,32.15-2.34-6.08-2.05-11.44-2.82-16.58-1.27-8.47-3.9-16.01-11.19-21.46-5.93-4.45-9.5-11.12-13.73-17.02-15.68-21.9-31.43-43.75-47.55-65.34-11.75-15.73-19.45-33.01-20.1-53.23-.38-11.85-1.27-23.86-5.69-36.29-8.17,5.76-17.28,5.25-25.9,6.43-28.02,3.82-56.1,7.23-84.21,10.26-9.9,1.07-19.98,1.14-29.94.75-16.97-.68-29.69-8.64-37.47-24.01-7.36-14.54-14.66-29.11-21.1-44.1-1.03-2.41-1.95-4.99-4.47-6.62-3.54,1.15-3.33,4.73-4.16,7.25-5.83,17.63-11.91,35.18-16.94,53.09-1.83,6.51.99,10.32,5.39,13.65,7.67,5.82,15.19,12,23.49,16.79,20.24,11.68,33.08,29.47,42.66,49.98,4.53,9.69,8.86,18.52,18.71,24.78,11.29,7.18,13.43,19.57,10,32.07-2.09,7.61-1.17,13.91,1.96,21.08,2.99,6.86,3.97,14.73,5.09,22.26,1.32,8.89,1.87,17.89,2.7,26.85.46,4.95.33,9.96,4.76,13.65,2.31,1.93,1.62,4.79.91,7.48-2.12,8.03-4.22,16.07-6.13,24.15-.98,4.17-3.41,5.97-7.58,6.61-12.82,1.97-25.51.78-37.28-4.04-19.99-8.19-37.94-19.44-48.5-39.51-1.75-3.32-4.63-5.53-7.92-7.39-8.69-4.92-17.38-9.67-27.21-12.17-9.86-2.51-16.48-9.62-22.33-17.48-4.36-5.87-4.6-6.04-8.89.04-7.31,10.36-15.32,20.15-23.44,29.85-7.06,8.42-14.62,16.31-23.42,23.07-5.45,4.19-11.2,8.42-14.39,15.01-1.35,2.78-3.75,4.56-6.85,5.4-1.91.52-3.9,1.15-5.53,2.23-14.85,9.79-32,12.52-48.91,15.76-12.69,2.44-25.27.7-37.18-4.14-14.16-5.75-21.84-25.39-15.82-39.6,1.42-3.36,3.28-6.55,5-9.78,1.8-3.35,3.91-5.56,7.63-2.02,2.49,2.37,4.09,1.16,5.14-1.57,5.45-14.26,11.37-28.42,13.55-43.63,1.36-9.54-.54-19.22.46-28.91,2.33-22.56,9.73-42.99,25.37-59.53,6.81-7.2,14.25-13.92,21.25-21.02,5.7-5.77,5.55-5.86.62-12.33-9.91-12.99-20.84-25.11-31.75-37.24-10.73-11.93-21.42-23.8-23.36-40.8-.41-3.58-3.16-5.75-6.45-6.98-7.24-2.71-13.78-6.69-19.88-11.34-3.32-2.54-5.72-3.22-9.6-.38-4.06,2.96-4.72,5.63-3.1,10.05,7.57,20.71,12.33,42.18,15.66,63.9,4.1,26.67,7.32,53.52,7.95,80.51.76,32.4-10.61,61.12-28.61,87.73-21.01,31.05-51.91,46.83-86.28,57.46-36.17,11.19-73.43,16.07-111.09,18.4-5.98.37-12.05.58-17.89,1.76-22.57,4.55-42.76-2.77-62.44-12.26-30.53-14.72-50.46-39.68-64.73-69.49-10.97-22.91-18.5-46.93-21.7-72.36-2.15-17.11-5.48-34.12-9.34-50.94-6.39-27.89-7.44-56.09-6.14-84.44.96-21-.34-41.94-.4-62.9-.07-27.25-.67-54.61,7.53-81.19,5.38-17.46,12.56-33.54,26.77-45.89,4.96-4.31,8.61-10.12,12.93-15.19,41.62-48.82,93.29-66.08,155.61-49.22,13.45,3.64,26.88,7.56,39.92,12.41,22.84,8.49,40.13,24.39,54.74,43.47,22.01,28.74,38.57,60.48,52.08,93.95,4.2,10.41,8.96,20.6,13.47,30.89.68.03,1.36.07,2.04.1Z"/>
  <path class="cls-9" d="M1348.61,287.14c7.2,24.35,9.67,48.57,16.13,71.89-1.1,17.52,3.4,34.14,7.19,51.03,3.04,13.56-1.34,26.93-6.45,39.67-5.04,12.56-12.72,24.34-11.04,38.82.3,2.57-1.21,4.41-2.97,6.03-2.47,2.28-5.28,3.9-8.44,5.17-20.77,8.4-26.34,7.03-40.49-10.1-5.09-6.16-9.92-12.41-13.62-19.59-3.41-6.62-5.64-13.32-5.93-20.81-.28-7.31-1.17-14.61-1.9-21.9-.36-3.56-1.84-6.67-5.76-7.17-4.2-.54-5.5,2.81-6.84,5.98-3.83,9.04-3.26,18.95-5.66,28.28-1.91,7.44-2.29,15.07-1.6,22.78,1.06,11.87-4.46,21.96-9.44,32.09-1.46,2.98-4.08,5.21-7.19,6.7-10.82,5.18-22.49,6.18-34.15,6.02-5.56-.08-9.61-4.04-12.05-9.3-1.78-3.82-4.05-3.71-6.8-.65-4.23,4.71-8.84,9.02-14.03,12.71-16.69,11.87-35.98,15.39-55.71,16.24-8.22.35-16.18-3.55-23.52-7.57-5.75-3.16-7.65-8.58-5.98-14.52,2.37-8.44.91-16.47-1.03-24.59-1.94-8.1-3.83-16.19-4.35-24.54-.13-2.06-.65-4.34-3.08-4.46-2.46-.12-2.91,2.24-3.52,4.17-4.11,13-8.38,25.95-12.35,38.99-2.15,7.05-4.94,13.83-8.31,20.31-5.66,10.88-17.49,11.66-25.19,2.05-3.87-4.84-5.88-10.57-7.12-16.36-1.79-8.36-5.55-15.6-10.36-22.44-4.16-5.92-8.38-11.81-13.26-18.69-3.85,9.28-7.36,17.65-8.95,26.7-1.61,9.17-2.96,18.38-4.74,27.52-1.5,7.73-5.09,14.36-11.3,19.48-2.13,1.76-4.37,3.37-7.04,3.47-12.93.46-25.33,5.45-38.59,3.87-7.7-.92-14.26-3.31-19.48-8.81-4.84-5.1-10.05-9.74-15.68-13.87-4.86-3.56-7.49-7.78-7.88-14.11-.83-13.29-2.32-26.56-3.94-39.79-.77-6.28.94-10.33,7.27-12.12,1.89-.54,3.48-2.08,5.37-2.62,5.63-1.61,7.96-5.6,8.55-11.03,3.56-32.74,7.01-65.5,10.73-98.23,1.77-15.57,2.06-31.2,2.67-46.83.3-7.82-3.13-14.21-6.55-20.62-3.47-6.5-4.4-12.88-2.72-20.17,1.62-7.08,5.47-12.09,11.34-15.66,15.95-9.68,30.71-21.05,45.74-32.03,7.59-5.54,15.58-10.16,24.33-13.5,20.21-7.69,39.8,6.25,38.85,28.18-.34,7.88,1.26,14.69,5.88,21.15-.73-10.26.97-20.32,1.06-30.44.04-4.42.57-8.66,2.5-12.62,5.19-10.65,18.29-14.13,26.63-5.71,11.31,11.44,24.49,17.07,40.06,19.97,19.91,3.7,30.93,17.9,37.35,36.32,4.75,13.65,5.25,28.1,8.47,42.03.51,2.19.1,4.7,2.62,6.79,3.84-6.38,3.1-13.43,3.45-20.14.21-3.94-.24-8.06-1.19-11.9-4.21-17.18-2.49-33.74,4.88-49.68,6.97-15.07,12.03-31.01,21.61-44.91,4.03-5.85,8.34-9.19,15.48-8.45,3.3.34,6.84-.15,9.89.86,16.08,5.35,32.69,8.65,49.01,13.02,8.68,2.32,15.65,6.47,21.69,13.15,10.91,12.08,23.68,22.49,32.44,36.5.87,1.39,2.03,2.71,3.33,3.7,2.2,1.68,3.96.81,3.93-1.81-.05-4.31-.1-8.76-1.12-12.9-2.25-9.1-3.33-18.34-4.32-27.6-1.4-13.06,5.78-22.74,18.88-24.86,7.88-1.27,15.88-2.06,23.85-2.49,20.27-1.09,40.39-4.82,60.8-3.6,7.73.46,15.27-1.09,22.79-2.49,23.52-4.37,46.99-9.03,70.53-13.31,6.79-1.23,13.72-3.02,20.57.57,1.58.83,3.92.41,5.88.25,15.27-1.29,30.53-2.57,45.78-4.02,8.97-.86,17.92-1.64,26.93-1.17,11.76.61,23.12-1.68,34.6-3.93,24.14-4.74,48.35-9.16,72.66-12.88,13.27-2.03,24.48,7.12,23.78,20.49-1.01,19.34,4.71,38.45,1.02,57.77-.54,2.81-.34,5.56,1.93,8.33,7.37,8.99,5.12,18.32-5.67,22.89-9.38,3.97-19.08,5.72-28.92.62-4.11-2.13-8.58-3.62-12.95-5.2-7.82-2.82-10.46-.77-9.97,7.43.52,8.69,2.43,17.12,4.74,25.45,8.5,30.68,10.72,62.28,13.79,93.75,1.04,10.63,3.15,21.04,4.99,31.51,2.95,16.74,5.66,33.46,3.28,50.61-.93,6.69-2.4,13.14-5.58,18.99-3.97,7.29-8.18,14.49-12.89,21.32-6.11,8.86-14.47,10.04-23.26,4.03-13.18-9.01-27.6-15.99-40.62-25.34-8.22-5.9-13.82-13.19-17.02-22.63-8.71-25.72-13.27-52.16-14.62-79.27-.58-11.74.96-23.28,1.61-34.9.66-11.71.45-23.29-1.72-34.83-2.04-10.81-1.72-21.92-4.16-32.7-1.4-6.21-5.96-9.36-13.9-9.13-6,.17-9.39,3.61-9.94,10.07-.73,8.52-1.4,9.22-9.24,7.67-12.68-2.52-25.22-5.85-38.41-3.78-3.56.56-7.19-.54-10.63-2.15-4.81-2.25-9.76-4.27-14.76-6.07-7.61-2.74-10.26-.46-9.67,7.85.61,8.68,2.52,17.11,4.83,25.44,8.49,30.68,10.69,62.29,13.74,93.75,1,10.31,3.08,20.38,4.84,30.53,2.91,16.75,5.7,33.44,3.51,50.59-.99,7.73-2.95,15.03-6.67,21.77-3.53,6.4-7.36,12.65-11.46,18.7-6.36,9.37-14.63,10.63-23.95,4.39-13.53-9.07-28.24-16.25-41.43-25.93-7.57-5.56-12.8-12.47-15.76-21.2-8.83-26.02-13.63-52.77-14.81-80.24-.44-10.39.49-20.64,1.33-30.92,1.08-13.36.88-26.59-1.62-39.81-1.98-10.47-1.74-21.25-4.03-31.71-1.29-5.89-6.49-9.24-14.19-8.84-5.87.3-9.11,3.81-9.61,10.41-.61,8.04-1.6,9.02-9.55,7.22-5.17-1.17-10.3-1.92-16.49-2.41Z"/>
  <path class="cls-9" d="M2272.96,340.5c-2.92,1.49-2.79,4.55-3.75,6.84-7.22,17.31-19.19,29.77-35.79,38.72-14.69,7.92-29.2,15.79-45.68,19.36-20.28,4.4-40.26,3.84-59.92-3.13-4.7-1.67-9.3-3.61-14.02-5.2-13.21-4.46-22.61-13.33-30.32-24.71-14.87-21.96-22.8-46.37-26.69-72.33-.44-2.96-.87-5.93-1.41-8.87-.11-.58-.72-1.06-1.17-1.7-3.25-.38-3.42,2.44-4.21,4.38-2.59,6.41-6.8,11.36-12.65,15-7.96,4.95-13.56,4.22-19.76-3.22-2.48-2.98-4.8-3.82-8.61-2.67-7.95,2.41-16.04,4.41-24.13,6.33-4.84,1.14-5.69,4.15-4.34,8.21.94,2.82,2.02,5.7,3.62,8.19,12.8,19.92,13.87,42.12,11.64,64.55-.89,8.9-.79,17.45,2.22,25.52,5.8,15.57,1.84,27.98-10.31,38.41-5.95,5.1-12.9,4.58-19.67,2.51-4.42-1.35-8.78-3.33-12.68-5.8-8.33-5.28-17.69-5.27-26.92-6.11-3.49-.32-6.65,1.22-9.41,2.94-8.49,5.28-16.59,3.82-24.42-1.05-8.04-5-14.76-11.86-19.46-19.78-4.83-8.12-4.89-17.84-3.08-27.17.88-4.55,2.06-9.19,4-13.36,4.23-9.08,2.56-18.06,1.16-27.36-2.65-17.69-7.42-35.11-6.56-53.29.75-15.95,1.38-31.88,4.43-47.61,1.47-7.57,1.33-15.24.86-22.88-.65-10.63-1.93-21.25-2.01-31.87-.07-9.86-4.14-17.07-11.4-23.22-13.06-11.07-17.57-27.21-11.51-43.02,3.33-8.69,9.62-14.97,18.9-17.81,6.77-2.07,13.79-2.97,20.71-2.6,16.72.9,33.26-.6,49.82-2.27,13.97-1.41,27.03-6.77,40.81-9.17,11.77-2.05,23.44-4.92,35.31-6.2,15.89-1.73,31.31-.26,43.91,11.29,2.9,2.65,6.12,3.82,9.98,3.69,8.94-.3,17.83-.52,26.06-4.92,15.81-8.44,42.07-.59,44.73,23.09,1.99,17.66,7.13,34.51,10.74,51.74,1.38,6.56,2.68,13.17,2.46,19.79-.55,16.56,1.34,33.19-2.87,49.69-2.35,9.22.87,18.46,4.97,27.04,2.96,6.19,8.67,8.1,14.71,8.74,4.78.51,6.95-3.23,8.28-7.22,2.51-7.53,1.75-15.22.2-22.72-1.14-5.51-3.02-10.93-5.08-16.19-14.74-37.72-19.67-76.45-12.42-116.5.36-1.96.52-3.96.8-5.93,2.23-16.01,10.89-26.78,26.18-32.18,7.87-2.78,15.92-5.07,24.16-6.06,7.67-.92,14.53-2.22,21.1-7.27,5.35-4.11,12.83-3.22,19.16-.17,8.56,4.13,17.06,3.94,26.17,1.83,24.31-5.64,48.7-6.56,73.06.32,8.46,2.39,17.28,2.2,25.73.08,25.51-6.39,46.66,8.14,58.13,25.46,8.45,12.75,12.36,27.14,14.53,42.1,2.88,19.83,4.62,39.55-.22,59.47-1.85,7.59-5.72,13.36-10.73,18.7-5.03,5.35-9.67,10.97-14.11,16.82-3.2,4.22-3.23,7.33.79,11.12,9.57,9.03,20.59,15.81,32.62,20.65,10.01,4.03,19.07,9.42,27.54,15.89,8.24,6.29,11.16,15.82,12.8,25.28,3.2,18.45,3.51,37.09.49,55.67-.98,6.03-3.11,11.53-7.18,16.18-9.13,10.42-23.72,10.27-30.24-1.8-5.41-10.02-13.57-13.86-23.33-16.78-11.13-3.33-22.23-6.82-33.24-10.54-7.6-2.57-14.31-6.23-19.62-12.92-5.67-7.14-14.68-10.13-22.63-14.22-3-1.54-4.26.78-3.95,3.57,1.03,9.28.47,18.65,1.28,27.89,1.31,14.99-2.72,29.06-5.91,43.29-1.23,5.48-5.75,9.18-10.95,10.83-10.21,3.24-20.23,1.82-27.93-5.75-7.78-7.65-14.74-16.21-21.45-24.86-8.19-10.56-14.45-22.27-18.45-35.14-.81-2.62-.93-5.88-3.89-7.61Z"/>
  <path class="cls-9" d="M2580.98,102.64c.66-.27,1.6-.34,1.78-.76,8.74-19.56,25.23-32.37,40.47-46.18,5.01-4.54,11.5-6.6,18.3-7.26,5.64-.55,11.28-1.58,16.91-1.55,25.22.13,47.3-9.63,68.85-21.25,3.51-1.89,6.92-4.01,10.53-5.69,24.28-11.31,45.83-4.43,64.64,11.78,13.34,11.49,24.18,25.6,31.92,41.73.82,1.71,1.26,4.33,3.87,3.43,2.34-.81,1.77-3.39,1.52-5.24-.3-2.28-1.14-4.49-1.78-6.72-.73-2.56-1.7-5.06-2.22-7.66-4.89-24.5,3.36-37.4,24.12-49.14,5.17-2.92,11.13-3.16,16.56-1.57,9.54,2.8,19.09,5.9,28.12,10.02,16.72,7.62,23.79,21.56,21,39.9-2.35,15.44-4.27,30.99-7.67,46.21-4.57,20.47-13.84,38.77-28.88,53.84-7.57,7.58-16.42,10.85-27.12,9.68-11.32-1.24-16.83-8.12-15.32-19.75,1.17-9.02.28-16.77-3.34-25.48-.74,6.34-.81,11.48-2.46,16.38-6.96,20.64-29.45,26.31-44.27,10.42-7.37-7.91-15.75-11.68-26.12-12.59-12.03-1.07-23.95.08-35.9,1.17-2.47.23-4.59.91-5.38,3.6-.74,2.53.3,4.66,1.93,6.39,2.08,2.21,4.72,3.6,7.63,4.55,5.37,1.76,10.71,3.61,16.01,5.55,8.56,3.13,12.21,8.59,10.98,17.63-.9,6.58-2.74,13.01-5.86,19-2.43,4.67-5.86,7.56-11.15,9.1-13.98,4.08-18.38,10.25-18.62,24.56-.11,6.66-.19,13.33-.18,19.99.01,7.98,2.22,9.42,9.55,7.45,20.91-5.61,27.88-21.86,25.37-38.4-1.46-9.63.74-16.15,8.83-21.03.84-.51,1.51-1.31,2.21-2.02,11.07-11.17,23.92-13.81,39.36-10.56,37.68,7.93,53.61,42.92,50.37,71.03-1.44,12.51-7.76,22.79-14.82,32.33-18.07,24.45-38.85,46.46-62.92,65.2-5.88,4.58-12.86,5.72-19.9,4.99-21.47-2.24-42.53,1.69-63.7,3.74-6.92.67-13.7,2.58-20.71,2.96-6.09.33-12.24.14-17.62-2.53-18.42-9.16-37.33-17.66-51.73-33.15-7.51-8.07-13.94-16.92-19.59-26.36-1.18-1.98-1.93-4.28-4.26-5.4-2.96.45-2.11,2.91-2.28,4.66-1.02,10.6-2.23,21.19-2.73,31.82-.23,4.95-1.68,9.09-4.48,12.93-4.91,6.75-10.53,12.89-16.46,18.75-4.99,4.94-11,7.58-18.03,7.07-5.61-.41-11.38-.72-16.7-2.33-6.56-1.98-10.05-7.21-10.9-14.18-1.18-9.58-2.66-19.11-3.87-28.69-.59-4.67-1.7-9.06-3.81-13.33-1.76-3.56-3.28-7.41-3.94-11.3-2.67-15.68-10.45-29.39-16.59-43.71-3.47-8.1-5.89-16.36-5.86-25.05.05-12.39-1.97-24.57-2.9-36.86-.53-7.06-3.95-13.37-6.22-19.95-4.67-13.52-10.46-26.71-14.29-40.46-6.73-24.11-1.85-45.44,17.72-62.48,6.53-5.68,14.33-5.87,21.7-4.84,8.88,1.23,15.33-.88,21.3-7.45,5.46-6.01,12.61-9.78,20.9-10.68,16.23-1.76,32.46-3.45,48.7-5.1,1.2-.12,2.65-.34,3.68,1.96-5.7,4.25-12.39,6.91-18.75,10.09-11.9,5.95-12.05,5.91-5.54,16.99,4.49,7.65,5.98,16.18,7.91,24.6.43,1.88.03,4.06,2.12,5.21Z"/>
  <path class="cls-9" d="M2956.19,184.26c-22.22-28.87-27.05-60.6-25.15-93.94.46-8.02,4.17-15.41,7.26-22.75,6.86-16.29,13.9-32.48,27.85-44.41,13.89-11.89,28.76-20.99,47.75-22.52,22.6-1.83,45.13.16,65.88,7.83,35.28,13.04,51.78,37.72,52.7,73.54.43,16.62-4.36,32.2-9.42,47.7-2.14,6.54-7.4,10.02-13.64,12.13-2.79.94-5.69,1.59-8.75,2.43,1.25,4.77,5.26,6.4,8.23,8.77,7.01,5.6,11.64,12.63,14.55,21.03,7.07,20.42,9.4,41.02,7.39,62.84-1.45,15.73-7.9,29.4-12,44-1.21,4.29-4.41,8.21-7.31,11.81-13.19,16.37-26.79,32.37-46.91,40.79-3.99,1.67-8.13,4.22-12.2,4.2-16.04-.08-31.31,5.54-47.25,5.81-3.7.06-7.26-.23-10.8-1.47-19.91-7-38.21-17.08-55.4-29.19-4.07-2.87-7.52-6.81-9.1-11.68-5.57-17.12-10.57-34.4-9.78-52.7.55-12.7,4.6-24.82,6.54-37.29.33-2.09,1.47-4.04,3.18-4.9,10.4-5.22,14.39-17.5,26.38-22.03Z"/>
  <path class="cls-4" d="M2100.33,1210.1c-4.38-9.93-4-20.8-5.79-31.19-4.23-24.58-8.55-49.1-14.94-73.22-.68-2.58-1.34-5.16-.8-7.87.67,1.08,1.46,2.1,1.99,3.25.53,1.15.69,3.11,2.06,2.89,1.96-.32.82-2.71,1.62-3.97.56.79,1.49,1.52,1.61,2.37,2.83,19.19,7.15,38.05,12.28,56.74.42,1.52.07,3.25.08,4.88-1.28.29-3.67-4.35-3.62.08.07,6.19,2.04,12.32,2.8,18.53,1.12,9.15,3.74,18.16,2.7,27.52Z"/>
  <path class="cls-4" d="M2082.6,1087.86c3.1,3.65,1.93,7.96,1.87,12.1-3.58-3.57-2.16-7.92-1.87-12.1Z"/>
  <path class="cls-1" d="M4194.26,1086.47c2.98,37.14-5.1,72.21-20.16,105.83-13.92,31.09-33.6,58.31-58.69,81.26-15.09,13.81-33.48,22.92-51.97,31.36-36.53,16.68-74.97,27.17-114.27,35.02-30.41,6.07-61.07,9.99-91.87,12.99-30.5,2.97-61.02,5.79-91.58,7.92-11.36.79-22.14-3.94-32.96-7.08-50-14.55-87.18-45.72-115.08-88.96-17.47-27.07-29.33-56.55-39.2-87.09-9.26-28.67-13.37-58.26-18.2-87.79-3.69-22.62-8.18-45.11-12.39-67.65-1.42-7.61-1.61-7.87,6.34-9.69,4.51-1.03,4.07-3.14,2.9-6.45-6.3-17.91-12.42-35.87-18.72-53.78-1.23-3.5-1.84-6.95-1.93-10.7-.67-28,.76-55.95,1.5-83.92.76-29,.05-57.96-1.86-86.89-.33-5-.49-9.96.12-14.96.97-7.94.58-15.87.43-23.87-.9-48.71,4.73-96.32,26.11-140.94,1.14-2.37,2.53-4.79,4.37-6.63,23.57-23.58,42.63-51.17,66.26-74.67,32.83-32.64,72.33-52.99,117.75-61.08,30.86-5.5,61.63-3.4,91.91,5.19,24.59,6.98,49.2,13.75,73.46,21.93,16.14,5.44,30,14.16,43.4,24.07,18.92,13.99,34.61,31.04,47.69,50.62,11.81,17.69,24.29,34.93,36.06,52.63,10.91,16.41,18.23,34.73,26.29,52.58,22.6,50.01,43.88,100.59,65.54,151,11.19,26.04,21.85,52.22,29.28,79.56,6.98,25.7,12.23,51.79,16.53,78.1,5.06,30.92,8.39,62.01,11.24,93.17.88,9.61,1.14,19.27,1.69,28.91Z"/>
  <path class="cls-1" d="M2101.04,988.49c.77-30.82,1.99-62.71,8.02-94.24,3-15.67,5.03-31.52,8.25-47.14,4.12-19.99,13.56-38.19,20.75-57.11,20.47-53.86,52.33-100.16,95.65-138.29,28.96-25.49,62.52-42.53,99.58-52.87,50.8-14.17,102.75-17.9,155.2-17.04,16.97.28,33.92.03,50.62,4.28,25.43,6.47,46.84,19.97,66.99,36.21,16.25,13.1,26.06,30.83,36.61,48.11,17.69,28.97,29.98,60.01,35.85,93.53,1.48,8.44,6.55,15.16,11.38,21.95,12.19,17.14,27.77,29.37,48.7,34.03,5.44,1.21,6.23,3.07,3.08,7.34-4,5.42-9.31,9.52-14.88,13.2-7.78,5.15-16.07,9.39-24.33,13.73-35.48,18.65-73.23,31.5-111.23,43.66-9.41,3.01-19.35,2.8-28.41-1-9.22-3.87-18.18-3.1-25.84,1.56-16.69,10.17-32.81,5.45-48.97-.08-6.99-2.39-11.95-8.37-17.17-13.45-15.07-14.65-33.4-16.58-52.85-13.87-22.35,3.11-41.42,14.17-59.86,26.18-14.33,9.33-21.9,23.7-26.95,39.64-4.87,15.35-5.58,31.39-8.19,47.11-5.62,33.86-4.61,67.64,1.34,101.35.29,1.63.31,3.32.33,4.98.33,33.79,13.84,62.56,33.84,88.84,7.89,10.37,17.07,19.57,26.43,28.59,8.57,8.25,19.4,12.89,29.78,18.05,20.27,10.08,41.33,18.13,63.74,22.25,18.91,3.48,37.76,3.45,56.43-1.26,17.54-4.42,31.19-14.67,41.24-29.53,18.87-27.9,5.32-61.2-15.15-77.48-13.42-10.67-27.53-14.31-43.56-6.53-3,1.45-6.77.23-9.53,2.54-4.87,4.08-7.84,9.2-7.06,15.7.97,8.03-3.13,12.51-9.89,15.37-19.07,8.05-39.03,4.5-52.96-14.7-5.06-6.97-9.13-14.65-13.65-22.01-2.42-3.93-2.76-8.45-1.88-12.61,3.84-18.3.16-36.51-.15-54.75-.2-11.97-1.33-23.89-.14-35.92,1.41-14.23,9.25-24.65,18.51-34.42,2.59-2.74,6.17-3.8,10-3.9,7.98-.21,15.96-.41,23.93-.79,7.8-.37,15.35.61,22.27,4.3,4.81,2.57,9.7,1.88,14.64,1.32,22.47-2.57,44.97-4.96,67.39-7.92,19-2.5,37.87-1.16,56.78.54,12.59,1.14,25.25,4.24,37.7,3.47,21.47-1.32,42.95,2.5,64.57-3,13.56-3.45,28.47-.94,42.45,3,4.84,1.36,6.87,4.3,7.41,9.29,2.4,22.15,6.19,44.08,11.6,65.71.78,3.13,2.19,6.55-.94,9.34-10.38,9.27-13.76,21.84-15.53,34.78-1.51,10.99-4.61,21.42-8.33,31.74-13.44,37.29-23.74,75.5-33.86,113.79-6.73,25.45-15.94,50.09-26,74.4-17.77,42.93-47.8,75.75-85.34,102.04-21.78,15.25-44.26,29.5-66.3,44.38-9.63,6.5-20.38,10-31.62,11.45-18.5,2.39-37.09,3.98-55.66,5.79-13.89,1.35-27.12-2.66-40.31-5.84-21.29-5.12-42.25-11.5-63.06-18.35-3.57-1.18-6.75-2.72-9.68-4.95-10.9-8.27-22.38-15.69-34.55-21.89-17.99-9.16-33.65-21.34-48.17-35.21-18.78-17.94-39.02-34.37-55.82-54.33-32.32-38.4-59.41-80.1-77.96-126.9-12.03-30.36-20.73-61.78-28.12-93.61-6.63-28.57-11.02-57.5-14.32-86.55-2.06-18.16-1.92-36.57-2.83-56.01Z"/>
  <path class="cls-1" d="M2851.19,1083.75c-3.4-10.17-6.37-19.28-9.49-28.34-7.91-22.99-14.12-46.78-24.37-68.68-8.74-18.66-6.86-37.6-7.89-56.49-1.96-36,.76-71.86,7.16-107.39,2.89-16.03,5.05-32.21,8.48-48.12,4.43-20.58,13.86-39.5,21.49-58.96,22.69-57.88,57.63-107.14,106.72-145.74,26.49-20.83,56.61-34.58,89.04-43.51,50.53-13.91,102.13-17.54,154.25-16.68,16.98.28,33.92.13,50.6,4.42,25.76,6.62,47.36,20.39,67.63,37.08,15.32,12.61,24.72,29.42,34.8,45.8,17.97,29.17,30.5,60.51,36.52,94.34,1.5,8.45,6.19,15.28,11.08,22.07,12.48,17.35,28.16,29.94,49.56,34.44,4.69.99,5.57,3.1,2.84,6.89-4.13,5.75-9.6,10.22-15.61,13.84-7.97,4.81-16.13,9.31-24.36,13.67-35.14,18.58-72.62,31.23-110.29,43.36-9.4,3.03-19.29,2.94-28.42-.74-9.86-3.97-18.93-2.62-27.77,1.9-20.65,10.57-39.15,5.09-56.87-7.03-2.45-1.68-4.61-3.84-6.71-5.97-15.61-15.8-34.73-17.77-55.39-14.55-22.01,3.43-40.68,14.33-58.81,26.16-14.01,9.13-21.48,23.29-26.44,38.86-5.09,15.97-5.69,32.71-8.45,49.08-5.61,33.23-4.37,66.33,1.43,99.38.23,1.31.35,2.65.36,3.97.28,40.62,18.67,73.21,44.43,103.03,23.29,26.96,54.52,39.52,86.83,50.43,24.36,8.23,49.35,10.89,74.7,5.48,23.64-5.04,41.26-18.28,50.67-40.89,9.07-21.82,1.94-40.99-11.42-58.61-5.54-7.3-13.37-11.96-21.22-16.36-6.76-3.79-14.13-3.19-21.46-1.98-5.91.98-11.4,3.47-17.11,5.11-6.11,1.75-8.86,7.71-9.21,14.15-.25,4.56,1.01,9.28-3.03,13.1-4.82,4.56-10.68,6.83-16.94,7.84-17.33,2.79-31.46-2.94-42.14-16.89-5.66-7.4-10.21-15.53-14.71-23.67-2.22-4.02-2.36-8.56-1.46-12.69,3.79-17.3.19-34.52-.06-51.77-.18-12.63-1.64-25.18-.35-37.91,1.45-14.25,9.03-24.73,18.27-34.54,2.61-2.77,6.15-4.34,9.91-4.03,7.7.64,15.28-.72,22.92-.94,8.47-.25,16.66.61,24.22,4.58,4.85,2.54,9.78,1.54,14.68.99,22.81-2.56,45.64-5.02,68.4-7.97,18.34-2.38,36.53-.67,54.8.54,19.21,1.27,38.22,5.42,57.68,3.26,7.56-.84,15.24,1.03,22.94.73,5.38-.21,10.65-.83,15.79-2.13,15.96-4.05,31.68-1.94,47.35,1.5,8.4,1.85,13.82,6.48,16.38,15.34,3.23,11.14,7.87,21.78,8.19,33.72.2,7.61,1.85,15.17,2.79,22.77.37,2.98.81,5.98-2.31,8.06-13.93,9.29-19.13,23.51-21.12,39.1-1.45,11.34-4.74,22.09-8.59,32.7-13.41,36.95-23.32,74.93-33.64,112.81-8.59,31.5-19.5,62.22-34.15,91.53-16.01,32.04-39.64,57.58-68.23,78.38-24.99,18.17-51,34.95-76.65,52.19-9.3,6.25-19.93,9.33-30.88,10.66-18.51,2.26-37.09,4.03-55.67,5.7-13.85,1.25-27.08-2.78-40.29-5.98-20.96-5.08-41.61-11.37-62.11-18.12-3.55-1.17-6.84-2.48-9.75-4.79-11.53-9.14-24.11-16.72-37.09-23.46-15.22-7.9-28.74-17.97-41.27-29.52-9.79-9.03-19.56-18.1-29.36-27.13-48.51-44.73-84.13-98.37-109.33-159.08-8.16-19.67-13.88-40.24-19.92-60.66-1.15-3.88,0-5.64,3.9-6.04,4.24-.44,8.46-1.03,13.57-1.67Z"/>
  <path class="cls-1" d="M2081.19,1301.02c2.86,27.02-1.82,53.17-9.69,78.77-13.02,42.33-36.62,78.31-68.82,108.4-14.92,13.95-33.44,22.89-51.86,31.45-27.26,12.66-55.82,21.6-84.99,28.69-48.33,11.74-97.46,17.86-146.98,21.55-20.26,1.51-40.47,3.61-60.69,5.59-13.32,1.3-25.63-3.13-38.02-6.69-52.64-15.12-90.82-48.68-119.02-94.58-15.41-25.08-26.06-52.24-35.24-80.16-10.57-32.15-14.26-65.55-20.18-98.59-5.63-31.38-10.86-62.84-17.78-94-4.13-18.59-4.3-37.63-4.48-56.62-.33-34.98,2.18-69.91,1.74-104.91-.22-17.99-1.05-35.93-2.14-53.88-.06-1-.35-2.02-.22-2.99,2.57-18.86-.07-37.81,1.13-56.74.95-14.94,1.17-29.92,3.15-44.8,3.59-26.97,12.28-52.37,23.35-77.05,1.06-2.37,2.88-4.52,4.73-6.4,19.64-19.96,36.59-42.27,55.25-63.07,24.15-26.93,53.03-47.48,87.01-60.17,36.25-13.53,73.59-18.17,111.86-10.6,35.91,7.11,70.79,18.01,105.14,30.49,12.91,4.69,23.57,13.6,34.59,21.66,21.88,16,37.83,37.21,52.71,59.43,8.88,13.26,17.93,26.41,27.1,39.47,10.22,14.54,16.87,30.93,24.2,46.91,23.98,52.31,46.41,105.31,68.92,158.27,8.47,19.91,16.96,39.77,23.67,60.37,9.09,27.92,15.42,56.51,20.5,85.36,5.99,34.09,10.36,68.42,13.07,102.94.84,10.62,1.32,21.26,1.97,31.89Z"/>
  <path class="cls-1" d="M1286.71,1017.13c-.15,27.77-3.16,53.8-8.52,79.66-2.78,13.41-9.69,24.38-19.15,33.21-29.8,27.8-51.5,61.8-74.55,94.81-3.01,4.31-3.08,7.98-1.08,12.91,7.01,17.27,17.48,32.01,30.53,45.14,10.11,10.17,20.42,20.1,31.69,28.99,1.57,1.24,3.1,2.64,4.88,3.46,21.49,9.99,39.88,25.21,60.91,35.96,7.41,3.79,14.92,7.4,23.15,9.08,11.65,2.38,21.62,8.49,31.61,14.4,10.59,6.27,20.7,13.36,31.24,19.72,14.62,8.82,21.98,22.51,27.28,38.05,4.8,14.08,5.74,28.69,7.3,43.24,1.5,13.92,2.68,27.87,4.33,41.77,1.27,10.69.18,21.33-.3,31.95-.85,18.93-.31,37.99-3.85,56.74-2.17,11.52-5.13,22.76-13.04,31.98-7.96,9.28-14.12,9.31-21.95-.18-4.97-6.02-7.45-13.33-9.79-20.61-1.94-6.04-4.2-11.87-7.69-17.23-4.09-6.27-9.85-9.84-17.11-10.71-3.7-.44-7.3-.97-10.54-2.75-23.56-12.91-49.43-19.51-74.84-27.3-28.89-8.87-58.01-17-86.18-28.05-5.87-2.3-11.6-5.01-17.24-7.84-5.45-2.74-9.94-6.75-12.85-12.19-5.7-10.63-14.53-18.06-24.48-24.4-17.15-10.93-35.13-20.4-53.25-29.57-12.77-6.46-23.22-14.7-30.21-27.72-6.58-12.27-14.77-23.68-22.33-35.41-4.81-7.48-4.76-7.03-12.68-4.65-8.03,2.42-14.38,6.66-18.98,13.62-4.04,6.12-10.09,10.58-13.85,17-7.11,12.14-8.75,24.26-1.02,36.75,5.78,9.33,6.8,20.17,8.68,30.53,5.31,29.28,5.68,58.97,5.82,88.64.05,9.66-.45,19.35.04,28.98.97,19.13-1.31,37.82-5.76,56.4-3.48,14.54-6.11,29.29-9.54,43.85-2.19,9.29-7.77,13.63-17.22,12.99-14.97-1.01-28.41-4.62-37.44-18.86-8.36-13.18-18.94-24.7-31.19-34.81-10.26-8.47-17.56-19.96-25.35-30.73-20.98-28.99-38.07-60.08-49.1-94.27-4.92-15.25-8.91-30.79-9.74-46.82-.6-11.52-3.78-22.28-7.22-33.04-5.07-15.83-10.27-31.62-16.6-47.02-4.32-10.51-5.92-21.83-8.96-32.73-6.44-23.08-12.56-46.26-18.82-69.39-.43-1.6-1.1-3.16-1.38-4.78-1.4-8.18-.72-9.04,7.6-10.03.99-.12,2-.12,2.99-.27,5.81-.87,6.2-1.44,4.29-6.94-9.48-27.38-18.7-54.86-28.65-82.07-4-10.94-3.97-22.24-5.17-33.41-4.94-46.06-9.64-92.15-14.11-138.25-4.98-51.41-9.72-102.84-14.35-154.28-1.68-18.72-5.73-36.58-13.32-53.98-6.42-14.71-12.74-29.17-22.71-41.92-4.92-6.3-7.66-13.95-10.11-21.6-1.15-3.61-1.41-7.17-.8-10.84,1.1-6.65,4.15-9.16,10.83-9.01,5.75.13,11.15,1.84,16.45,3.8,3.73,1.38,7.7,2.69,10.85,5.01,15.56,11.45,33.17,10.31,50.84,8.71,17.22-1.56,34.41-3.34,51.43-6.66,4.97-.97,9.58-2.67,14.34-4.14,16.64-5.15,33.68-7.95,51.1-8.03,23.61-.1,47.22-.18,70.81,1.09,17.06.91,33.4,5.8,49.9,9.7,15.85,3.75,31.75,7.35,47.94,9.07,13,1.38,25.86-1.95,38.81-2.78,20.26-1.3,40.19-5.63,60.53-6.28,12.59-.41,24.26,1.92,35.52,7.94,16.83,9,33.05,18.83,46.24,32.73,20.73,21.85,34.7,47.8,43.66,76.39,8.57,27.35,12.22,55.83,17.54,83.88,4.04,21.27,3.23,43.14,3.87,63.39Z"/>
  <path class="cls-1" d="M402.34,792.18c17.83.96,36.51-.14,54.99,3.24,28.72,5.24,52.48,19.84,74.77,37.89,15.71,12.71,25.42,29.7,35.66,46.39,17.92,29.2,30.58,60.5,36.63,94.33,1.45,8.1,5.77,14.71,10.41,21.31,12.5,17.78,28.16,30.85,49.99,35.44,5.21,1.1,5.87,3.22,2.56,7.66-4.02,5.41-9.3,9.54-14.92,13.14-9.81,6.28-20.33,11.3-30.6,16.77-29.52,15.74-61.46,25.21-92.53,36.95-14.69,5.55-29.43,7.09-44.73,1.15-7.31-2.84-15.08-.46-22.21,2.87-21.6,10.07-43.82,7.47-60.55-9.3-13.75-13.78-29.68-19.78-48.46-19.1-13.43.48-26.35,3.98-38.4,9.91-9.85,4.84-19.64,9.93-28.9,15.8-15.03,9.53-23.54,24.06-28.83,40.7-4.87,15.34-5.47,31.41-8.17,47.12-5.89,34.21-4.71,68.3,1.36,102.34.23,1.3.29,2.66.29,3.98-.06,33.12,13.11,61.4,32.24,87.4,8.31,11.3,18.14,21.29,28.36,30.88,8.65,8.12,19.49,12.75,29.9,17.88,20.3,10.01,41.35,18.08,63.78,22.14,19.28,3.49,38.47,3.35,57.4-1.78,16.71-4.54,29.77-14.61,39.49-28.79,19.01-27.75,5.8-61.18-14.64-77.66-13.25-10.68-27.37-14.77-43.48-6.85-.88.43-1.89.65-2.85.9-10.39,2.64-14.33,6.77-13.89,17.15.36,8.48-3.59,12.86-10.68,16-16.27,7.23-37.42,4.92-51.59-13.87-5.4-7.16-9.89-14.93-14.27-22.77-2.44-4.37-2.75-9.06-1.98-13.6,3.71-21.65-.14-43.18-.79-64.74-.25-8.34-.22-16.6.42-24.93,1.07-13.89,8.64-24.17,17.48-33.89,2.82-3.1,6.5-4.47,10.71-4.61,8.64-.3,17.29-.7,25.93-1.12,6.79-.33,13.32.86,19.36,3.87,4.38,2.18,8.69,2.43,13.5,2.09,21.6-1.54,42.9-5.49,64.42-7.71,21.64-2.23,43.14-1.56,64.78.34,17.5,1.54,34.95,5.17,52.73,2.89,4.23-.54,8.63.25,12.95.42,10.68.43,21.35.64,31.61-3.06,5.56-2.01,11.25-.87,16.85-.67,9.64.34,19.28.91,28.61,3.83,6.26,1.96,10.08,5.76,11.17,12.52,3.23,20.01,6.47,40.03,11,59.8.76,3.31,1.64,6.47-1.69,9.06-11.87,9.22-16.65,22.21-18.39,36.43-2.29,18.74-9.93,35.83-15.79,53.46-11.12,33.49-19.58,67.73-29.07,101.68-5.74,20.53-13.32,40.47-21.18,60.27-16.28,41.03-42.47,74.61-78.11,100.38-25.58,18.5-52.04,35.79-78.36,53.25-9.27,6.15-20.05,8.99-31.06,10.25-17.87,2.06-35.79,3.67-53.68,5.6-10.5,1.13-20.54-1.61-30.56-3.73-25.37-5.38-50.04-13.33-74.74-21.15-2.95-.93-5.43-2.49-7.8-4.31-10.07-7.71-20.65-14.67-31.93-20.45-19.13-9.79-36.1-22.41-51.54-37.33-17.95-17.36-37.5-33.08-53.76-52.18-33.23-39.03-61.21-81.45-79.68-129.4-16.78-43.55-29.09-88.48-35.74-134.81-2.17-15.14-5.32-30.18-6.56-45.39-1.63-19.9-2.46-39.92-2.49-59.89-.09-47.17,7.26-93.52,16.88-139.55,1.71-8.18,4.9-15.84,8.15-23.52,3.88-9.18,7.02-18.67,10.59-27.98,20.88-54.46,52.54-101.59,96.26-140.32,25.47-22.56,54.65-38.76,87.04-49.28,44.08-14.32,89.43-20.1,135.58-20.79,6.66-.1,13.31-.6,20.73-.94Z"/>
  <path class="cls-5" d="M699.15,1038.99c2.05,1.12,1.71,3.28,1.9,5.14,4.07,40.11,8.12,80.21,12.12,120.33.9,9.01.8,8.89-7.76,7.49-13.83-2.25-27.82-2.39-41.78-2.85-2.26-.07-4.74.37-6.81,1.28-8.56,3.74-17.38,4.1-26.44,2.78-1.96-.28-3.99-.3-5.97-.15-25.42,1.95-50.43-2.78-75.62-4.53-20.69-1.44-41.23.02-61.79,2.29-15.54,1.72-30.88,4.99-46.53,5.82-3.69.2-7.36.7-10.86-.65-9.83-3.8-20.03-4.54-30.43-4.19-8.65.29-17.31.17-25.95.52-14.11.56-23.9,8.57-32.65,18.81-15.61,18.26-21.31,39.39-19.97,63.01.95,16.61.6,33.27,2.37,49.86,1.14,10.66-2.56,21.14-1.82,31.85.23,3.31-.21,6.69,1.31,9.81,9.23,18.9,19.25,36.98,36.3,50.55,21.69,17.26,61.03,15.98,82.1-1.35,6.47-5.32,9.95-12.29,12.45-20.05,2.6-8.07,5.04-9.11,12.27-5.41,16.48,8.43,27.3,34.76,6.91,51.69-9.3,7.72-19.77,12.07-31.76,13.03-19.95,1.6-39.02-2.55-57.71-8.95-9.44-3.23-18.55-7.26-27.58-11.54-42.57-20.17-66.23-54.94-77.23-99.56-.08-.32-.2-.66-.18-.98,1.48-22.39-6.6-43.89-5.81-66.33.62-17.67,1.3-35.22,4.31-52.68,1.81-10.46,2.28-21.09,4.83-31.5,4.06-16.6,11.33-30.07,27.59-38.04,12.84-6.29,25-13.94,39.5-15.98,12.09-1.7,22.91.09,32.06,9.37,21.7,22.01,48.44,27.36,78.02,22.44.33-.05.71-.04.97-.2,11.91-7.28,24.43-5.82,37.33-3.32,13.46,2.61,26.59-.52,39.18-5.08,28.14-10.19,56.63-19.66,83.97-31.71,18.39-8.1,36.59-17.42,52.97-29.54,10.33-7.64,19.08-16.59,23.52-29.03.43-1.2.79-2.59,2.65-2.43Z"/>
  <path class="cls-10" d="M3856.64,1900.05c26.54-1.26,52.32,3.29,77.78,10.3,2.23.61,4.51,1.37,6.78,1.4,5.84.08,10.78,1.84,15.69,5.24,11.48,7.96,23.68,3.78,35.54.66,7.39-1.94,14.51-4.89,21.89-6.89,6.25-1.7,7.23-.98,9.57,5.28,2.56,6.86,4.52,13.64,3.47,21.33-3.48,25.34,4.92,49.39,8.91,73.9,1.65,10.15.08,14.6-8.89,19.38-7.04,3.75-14.24,7.21-21.15,11.19-11.17,6.44-23.03,9.88-35.97,10.26-7.97.23-15.91,1.51-23.87,2.3-6.92.68-13.84,2.25-20.76-.15-.9-.31-2.02-.26-2.98-.08-17.63,3.35-34.24-2.61-50.99-6.05-31.33-6.44-62.71-11.66-94.83-11.04-14.99.29-28.7,5.24-41.98,11.55-6.89,3.28-13.67,6.95-20.04,11.13-5,3.28-9.72,3.93-15.03,1.57-.3-.13-.65-.17-.95-.32-23.3-11.4-46.73-22.51-65.24-41.53-9.9-10.17-13.32-21.31-9.65-35.47,6.51-25.12,14.61-49.78,21.22-74.85,5.76-21.89,11.79-43.57,20.82-64.42,8.98-20.74,19.61-40.04,38.56-53.49,3.25-2.3,6.12-5.24,9.58-7.12,26.4-14.32,50.13-32.57,74.08-50.45,11.73-8.76,13.36-22.23,14.32-35.62.14-2-1.08-3.73-2.14-5.48-8.36-13.77-19.32-24.78-34.65-30.28-17.58-6.3-34.08-2.31-49.49,7.25-5.11,3.17-9.27,7.53-13.49,11.82-8.74,8.88-10.21,20.11-9.26,31.48.59,7.04-1.78,11.48-6.92,15.29-.27.2-.48.47-.73.68-13.35,11.51-13.31,11.42-29.31,4.38-36.64-16.11-57.82-45.01-66.63-83.03-4.08-17.62.81-34.99,7.56-51.59,7.64-18.78,20.14-33.54,36.76-44.96,7.52-5.17,16.02-7.87,24.7-10.36,24.18-6.95,49.15-8.32,73.94-10.99,18.88-2.04,37.81-3.63,56.67-5.86,16.45-1.95,32.47-.69,48.23,4.45,23.34,7.6,46.67,14.96,68.91,25.76,19.31,9.38,34.12,22.89,45.4,40.68,13.25,20.89,23.99,42.72,28.66,67.46,6.36,33.62,2.6,65.57-12.73,96.1-4.42,8.81-11.92,15.13-19.23,21.44-16.71,14.43-36.29,24.5-55.02,35.86-15.91,9.64-32.12,18.74-47.44,29.39-12.23,8.5-16.48,21.49-20.24,34.43-2.83,9.75,5.56,18.34,15.63,18.08,4.98-.13,9.97-.02,14.95-.02Z"/>
  <path class="cls-10" d="M2580.03,1880.86c-.2-17.63.04-35.25-.27-52.89-.49-28.8-2.33-57.87,6.88-86.04,4.01-12.27,9.83-22.95,19.37-31.99,7.67-7.28,13.73-16.23,20.9-24.07,22.14-24.23,49.58-37.55,82.5-38.98,10.68-.46,21.27,1.01,31.56,3.75,11.86,3.16,23.56,6.93,35.35,10.37,22.72,6.63,39.02,21.37,53.29,39.75,23.11,29.77,38.07,63.66,52.43,97.99,8.33,19.91,16.91,39.72,25.54,59.5,8.71,19.97,13.31,41.07,17.41,62.31,5.26,27.18,8.3,54.7,9.14,82.29.83,27.43-8.69,52.05-24.4,74.59-15.4,22.1-36.92,34.93-61.65,43.46-37.41,12.9-76.14,18.62-115.47,21.03-4.98.31-10.01.58-14.9,1.49-20.56,3.81-38.75-2.88-56.12-12.68-24.95-14.07-39.98-36.54-50.87-62.13-8.09-19.02-13.61-38.72-16.46-59.38-3.03-22.01-7.19-43.91-12.02-65.64-4.6-20.73-2.27-41.78-2.22-62.71Z"/>
  <path class="cls-10" d="M4024.72,1726.82c-.37-16.91-.6-32.57-.71-48.19-.18-25.52-1.9-51.28,4.91-76.43,4.15-15.32,10-29.45,22.62-40.17,8.11-6.9,13.24-16.6,20.67-24.3,22.26-23.04,48.95-36.23,81.14-37.69,10.72-.49,21.29.96,31.61,3.61,11.57,2.97,22.98,6.55,34.45,9.91,23.34,6.83,40.33,21.74,54.97,40.79,22.78,29.63,37.67,63.2,51.93,97.25,8.47,20.22,17.16,40.35,25.92,60.45,8.71,19.98,13.18,41.11,17.27,62.35,5.17,26.85,8.06,54.04,8.99,81.29.94,27.5-8.6,52.1-24.21,74.64-15.53,22.42-37.39,35.32-62.51,43.91-37.46,12.81-76.18,18.46-115.51,20.86-3.99.24-8,.48-11.94,1.11-32.17,5.15-57.73-8.07-80.13-29.27-12.49-11.82-20.64-26.8-27.95-42.21-2.53-5.33-1.24-11.14-2.49-16.68-1.83-8.13-2.86-16.35-10.06-21.98-1.97-1.54-1.95-4.07-2.29-6.4-4.46-30.92-10.76-61.52-16.22-92.26-3.09-17.4-1.14-35.22-.9-52.86.04-2.99.35-5.98.45-7.71Z"/>
  <path class="cls-10" d="M3273.44,1596.65c20.66-.45,38.88-1.47,56.73-6.29,9.23-2.49,9.41-2.08,14.37,5.96,1.56,2.54,2.73,5.42,4.68,7.6,7.03,7.83,6.49,16.45,2.39,25.02-14.07,29.42-14.85,61.01-15.44,92.6-.21,11.44,3.73,22.29,7.17,33.06,1.78,5.56,6.15,9.52,10.9,12.68,5.22,3.49,11.06,3.42,15.6-1.18,19.18-19.42,38.78-38.56,51.72-63.11,1.89-3.59,2.76-7.38,3.07-11.47.8-10.62,2-21.2,2.94-31.81.98-11.01-1.45-21.89-1.3-32.91.14-9.64-.68-19.29-.89-28.94-.22-10.26,1.01-12.2,10.9-14.85,23.47-6.29,47.2-11.55,71.22-15.23,13.01-1.99,24.61-8.03,37.11-11.35,1.6-.43,3.12-1.16,4.69-1.72,3.6-1.28,5.88-.23,6.25,3.78.58,6.24,1.63,12.28-.55,18.7-10.84,32.02-13.9,64.86-10.02,98.49,2.33,20.18,3.74,40.44,3.09,60.82-.66,20.69-2,41.39-7.58,61.27-4.78,17.01-4.36,33.65-.64,50.31,5.17,23.17,7.12,46.71,9.62,70.2,1.31,12.25,3.68,24.38,4.98,36.57,1.75,16.45,3.48,33.1.45,49.73-2.56,14.07-5.04,28.13-8.52,42.02-1.3,5.2-3.12,9.36-8.59,11.21-1.85.62-3.42,2.03-5.19,2.95-9.21,4.79-8.57,4.15-16.04-3.63-24.76-25.84-42.42-57.01-64.55-84.81-9.61-12.07-16.44-25.39-16.86-41.74-.36-13.91-1.91-27.9-6.52-41.32-2.61-7.62-5.46-15.05-11-21.03-7.98-8.62-15.89-9.99-24.36-2.05-9.02,8.45-19.41,10.43-30.85,11.61-25.5,2.64-50.92,6.03-76.41,8.74-8.53.91-17.11,1.93-25.81-.23-4.64-1.15-7.86-3.2-10.1-7.18-8.98-15.95-17.36-32.33-23.57-49.45-3.89-10.72-4.48-22.67-.04-34.25,4.39-11.46,7.64-23.35,11.84-34.89,4.15-11.4,2.75-22.4-1.99-32.98-4.74-10.58-9.8-20.99-16.09-30.86-7.05-11.06-10.7-23.68-12.35-36.64-2.1-16.52-3.53-33.14-5.16-49.72-.65-6.63-.41-5.98,6.56-7.45,18.98-4.01,38.19-5.34,57.48-6.19,2.99-.13,5.99-.02,6.64-.02Z"/>
  <path class="cls-10" d="M3110.87,1849.2c2.02-3.92.65-7.54.2-11.05-3.72-29.5-4.14-59.07-1.98-88.7.22-2.98.86-5.92,1.23-8.89,1.42-11.25,1.59-11.82,12.67-8.42,26.67,8.18,53.88,14.28,80.77,21.6,6.59,1.79,7.02,2.47,5.04,8.91-2.63,8.56-5.47,17.07-8.28,25.58-1.05,3.19-2.79,5.9-5.07,8.47-12.43,14.02-22.32,29.3-28.29,47.51-5.88,17.93-10.98,36.13-17.57,53.83-2.64,7.11-1.51,13.35,2.73,19.76,6.15,9.32,13.49,16.91,22.96,23.06,9.17,5.95,18.09,12.42,26.93,18.89,10.37,7.6,16.27,19.06,22.4,30.08,1.45,2.6,2.74,5.36,3.65,8.19,3.58,11.16,9.55,20.34,20.31,25.86,3.49,1.79,4.46,4.78,3.34,8.43-3.88,12.73-2.06,24.49,3.49,36.71,4.81,10.59,3.56,22.9,5.34,34.39.79,5.11-5.18,8.78-1.88,14.19,2.35,3.86,4.32,8.08,4.72,12.57-2.02,1.76-4.15,1.74-5.98,1.08-14.28-5.11-27.38-12.05-36.84-24.44-.6-.79-1.41-1.59-1.61-2.5-2.59-11.48-12.29-16.09-21.1-21.11-8.89-5.06-17.8-10.38-28.1-12.42-4.13-.82-7.1-3.42-9.52-6.79-4.54-6.3-7.55-13.22-9.2-20.82-2.59-12-10.56-17.85-22.4-19.2-6.75-.77-7.83-.22-9.84,6.61-1.03,3.51-1.84,7.09-2.52,10.68-1.39,7.41-4.89,13.26-10.47,18.61-11.29,10.85-20.77,23.42-30.24,35.85-8.75,11.49-19.18,21.29-29.71,30.89-6.8,6.2-15.81,10.05-24.72,12.36-6.99,1.81-14.38,2.5-21.51,4.16-1.9.44-3.99.4-5.96.18-2.35-.25-4.11-1.95-2.35-4.01,4.74-5.54,4.97-11.9,4.96-18.67,0-3.96,2.53-7.48,4.02-11.18,6.86-17.04,11.55-34.53,10.44-53.17-.47-8,.06-15.97,1.97-23.81,3.63-14.83,9.88-27.74,22.03-38.07,10.58-9,19.32-20.11,29.79-29.44,5.43-4.84,4.66-12.51-.65-19.89-13.04-18.11-27.56-35.01-42.45-51.6-4.44-4.95-8.84-9.96-12.83-15.26-3.21-4.26-5.37-9.07-6.07-14.58-1.4-11.04-7.52-19.42-17.22-24.14-9.32-4.54-18.05-9.79-26.47-15.75-3.53-2.5-7.4-4.46-11.67-5.45-3.58-.82-3.75-3.11-2.88-6.09,1.19-4.08,3.86-7.12,7.23-9.28,14.92-9.59,27.78-21.62,40.86-33.44,10.12-9.15,20.98-17.42,32.33-25.03,6.23-4.18,6.42-4.16,10.74,2.21,10.49,15.49,16.86,33.11,25.47,49.57,5.23,10,10.1,20.18,14.97,30.36,2.85,5.95,7.07,10.51,13.04,13.21,7.16,3.24,13.71,8.02,21.71,9.4Z"/>
  <path class="cls-5" d="M3863.16,1872.18c.08-4,2.45-4.77,4.31-6.05,16.95-11.7,35.22-21.22,52.77-31.92,12.47-7.6,25.24-14.76,36.88-23.62,15.09-11.49,29.18-23.99,37.42-41.51,2.62.55,2.69,2.44,2.7,3.89.06,22.82,7.05,44.58,10.28,66.91,1.75,12.12,4.23,24.14,6.08,36.25,1.07,7,.83,7.21-5.92,8.56-8.51,1.7-16.57,4.86-24.78,7.51-10.33,3.33-11.26,3.27-16.6-6.29-2.17-3.88-4.65-5.71-8.74-3.85-7.78,3.53-15.33,2.45-23.27.29-23.1-6.28-46.68-9.67-71.12-10.17Z"/>
  <path class="cls-8" d="M1059.16,227.55c2.08.39,2.54.33,2.72.53,9.71,10.88,23.01,14.01,36.44,16.35,16.65,2.9,24.92,13.42,28.87,28.95,5.62,22.06,7.27,44.64,9.58,67.15.58,5.64.92,11.31,2.84,16.69,1.05,2.96.82,5.74.33,8.79-.63,3.91-.5,7.95-.58,11.93-.18,9.05,3.1,16.15,11.53,20.4,5.08,2.57,7.15,7.08,9.2,12.33,7.37,18.88,14.99,37.71,23.6,56.04,4.7,10,4,17.68-2.88,26.29-10.9,13.64-24.3,22.44-41.51,25.35-6.49,1.1-12.83,3.57-19.66,1.47-3.23-.99-5.31-2.21-5.28-5.99.14-17.14-6.5-33.26-7.62-50.22-.33-4.93-2.86-8.97-6.26-12.16-8.78-8.25-12.83-18.19-12.48-30.22.12-4.13-.86-8.29-1.37-12.68-4.97,1.04-5.47,4.77-7,7.5-8.61,15.45-15.51,31.53-19.68,48.85-2.64,10.97-6.61,21.62-10.08,32.38-.68,2.13-1.03,4.68-4.43,5.32-1.35-7.29-5.29-13.39-9.55-19.26-9-12.38-16.06-25.91-23.7-39.11-2-3.46-3.96-6.84-8.86-7.01-7.27-.26-9.85,1.04-12.59,8.45-8.78,23.7-16.58,47.65-19.99,72.86-1.47,10.9-2.14,11.07-12.9,12.81q-24.66,3.99-43.18-12.86c-2.62-2.38-4.34-4.84-4.55-8.45-.25-4.32-.48-8.7-1.38-12.91-1.95-9.12-1.19-16.23,8.6-21.15,5.86-2.95,9.02-9.17,9.76-16.49,2.26-22.16,5.21-44.26,7.64-66.41,2.14-19.5,4.02-39.02,5.83-58.55.98-10.59-.12-21.25.76-31.89.68-8.22-3.3-15.44-6.9-22.62-4.29-8.54-3.8-10.13,4.36-15.27,14.62-9.22,28.56-19.41,42.32-29.85,5.61-4.25,11.67-7.63,18.22-10.16,6.28-2.43,11.33-.42,11.36,6.07.08,17.18,7.76,33.88,2.92,51.38-1.03,3.71-.59,7.98-.16,11.92,1,9.29,1.55,18.56,1.53,27.91-.01,8.28,2.63,15.71,9.56,21,8.64,6.59,19.01,2.63,19.7-8.14.82-12.81,3.68-24.93,8.62-36.71,6.37-15.18,6.14-31.24,5.27-47.21-.42-7.7,1.5-15.03,1.03-23.43Z"/>
  <path class="cls-8" d="M1240.27,470.17c2.62,8.68-1.8,15.93-3.8,23.55-1.35,5.16-14.3,9.53-18.97,7.02-1.69-.91-2.15-2.4-2.08-4.15.43-12.05-4.99-22.6-8.7-33.58-.53-1.57-1.92-3.08-1.86-4.58.4-10.49-5.78-18.04-11.19-25.95-4.37-6.38-7.44-13.12-8.44-21.01-.97-7.6-3.91-14.47-9.01-20.73-5.64-6.94-8.72-15.58-11.89-23.98-1.27-3.36-.33-5.02,3.23-5.44,4.14-.49,5.21-3.5,5.66-7.08,2.33-18.82,4.96-37.61,6.98-56.47.92-8.63-.56-17.3-2.14-25.83-1.6-8.68-2.13-17.41,1.14-25.63,6-15.12,11.31-30.56,19.56-44.71,2.2-3.78,4.67-6.41,9.61-4.4,14.83,6.04,30.92,7.45,46.08,12.36,4.3,1.39,7.69,3.55,10.88,6.64,13.9,13.45,26.83,27.72,38.32,43.33,5.49,7.46,11.24,14.71,16.65,22.25,9.66,13.47,13.89,28.44,16.2,44.35.43,2.95,1.15,5.85,1.66,8.79,2.45,13.98,7.72,27.44,6.1,42.15-1,9.05,2.32,17.81,5.3,26.23,4.8,13.59,1.19,26.07-3.26,38.76-4.16,11.85-11.5,22.51-12.49,35.6-.44,5.9-7,7.93-11.12,3.43-9.17-10.03-18.4-20.01-19.09-35.05-.51-10.93-1.49-21.93-4.17-32.66-.57-2.3-.9-4.53-2.62-6.29-12.9-13.28-35.14-10.82-44.68,5.07-1.52,2.53-2.65,5.4-3.43,8.26-4.49,16.38-6.84,33.11-8.4,49.77Z"/>
  <path class="cls-8" d="M1720.96,223.61c-6.12-.89-12.1-3.7-17.9-6.66-5.42-2.76-10.54-3.47-16.19-1-3.03,1.33-6.29,2.19-9.49,3.09-8.34,2.35-11.33,5.59-10.8,14.03.88,13.94,1.98,27.92,5.85,41.44,3.3,11.52,5.42,23.3,7.59,35.04,3.45,18.69,4.34,37.69,6.4,56.55,1.48,13.57,3.23,27.06,6.27,40.39,2.91,12.76,3.12,25.74,1.61,38.73-1.01,8.67-6.42,15.16-10.94,22.09-1.7,2.61-3.88,2.17-6.09,1.05-13.08-6.63-25.39-14.53-36.96-23.5-2.79-2.16-4.52-5.71-5.68-9.25-7.97-24.48-13.51-49.47-13.58-75.3-.04-13.95,1.5-27.9,2.05-41.86.39-9.98-.73-19.81-2.62-29.7-2.37-12.39-3.65-25.04-4.54-37.65-.49-6.94-3.79-10.96-9.39-13.99-9.67-5.23-20.35-6.18-30.92-6.39-6.22-.13-10.77,4.39-14.81,9.13-1.92,2.25-3.85,7.22-7.4,4.92-3.54-2.28-7.85-5.26-7.99-10.63-.04-1.66.06-3.34.31-4.98,1.74-11.66.72-23.22-.82-34.82-2.42-18.25.74-21.93,18.58-21.58,4.02.08,7.97-.04,11.93-.52,14.56-1.75,29.16-2.72,43.82-2.59,9.4.08,18.54-1.72,27.69-3.41,22.19-4.11,44.35-8.37,66.53-12.57.98-.19,1.95-.43,2.94-.58,3.64-.56,5.79.66,5.8,4.69.08,21.8,4.25,43.64-1.23,65.82Z"/>
  <path class="cls-8" d="M1518.5,241.84c-5.42-.36-9.88-2.69-14.11-5.04-5.15-2.86-10.01-2.87-15.26-.77-3.09,1.23-6.29,2.2-9.49,3.09-8.75,2.45-11.6,5.81-11.04,14.83.74,11.96,1.33,24.08,4.61,35.6,9.08,31.9,12.28,64.65,15.33,97.46,1.23,13.26,3.13,26.4,6.1,39.41,2.91,12.77,3.16,25.73,1.7,38.73-1.02,9.07-6.65,15.8-11.53,22.89-1.81,2.64-4.31,1.22-6.24.08-9.14-5.42-19.15-9.5-27.13-16.72-3.46-3.13-8.14-4.42-11.01-8.44-3.03-4.22-3.89-9.1-5.49-13.8-10.34-30.39-13.68-61.49-10.62-93.45,1.55-16.23,1.4-32.43-2.05-48.65-2.56-11.99-3.53-24.38-4.41-36.66-.45-6.21-3.5-9.72-8.3-12.57-9.81-5.83-20.86-6.69-31.77-6.97-6.19-.16-10.87,4.2-14.82,9.06-2.86,3.53-5.68,7.08-11.55,6.15-8.34-1.32-10.8-3.14-9.77-11.58.87-7.07-.04-13.92-.43-20.89-.51-9.05-3.62-17.58-4.72-26.48-1.33-10.72-.72-11.8,9.72-12.5,23.55-1.56,47.01-4.6,70.66-4.67,12.73-.04,25.1-2.36,37.55-4.73,17.93-3.4,36.05-5.8,53.78-10.28,2.29-.58,4.36.08,4.59,2.42,2.08,21.33,9.16,42.25,5.72,64.47Z"/>
  <path class="cls-8" d="M2478.57,366.05c-3.51-7.94-9.69-11.2-17.24-14.11-13.98-5.4-28.41-9.22-42.58-13.93-7.07-2.35-13.65-5-18.15-11.47-3.13-4.5-8.18-6.91-12.97-9.07-10.71-4.84-18.73-11.99-24.24-22.57-4.21-8.07-7.35-8.42-15.1-4.19-10.81,5.9-15.31,17.12-11.1,28.8,1.86,5.15,2.12,10.45,2.59,15.71,1.54,17.25,3.05,34.53-1.57,51.63-.69,2.54-.34,5.7-3.33,6.71-3.16,1.07-4.64-1.78-6.36-3.74-10.74-12.23-22.47-23.72-28.74-39.24-3.12-7.73-6.27-15.45-6.77-23.9-.32-5.4-1.85-10.51-3.73-15.49-10.52-27.91-15.07-57.16-19.69-86.41-1.15-7.27-1.07-14.6-.96-21.94.26-17.04-1.45-33.87-4.99-50.56-1.44-6.81-1.77-13.85-2.6-20.79-.42-3.58.77-6.49,3.46-8.91,2.47-2.23,4.71-4.72,7.18-6.96,3.57-3.24,6.69-6.52,5.05-12.02-1.15-3.87,1.25-5.25,4.59-6.14,21.64-5.77,43.36-6.65,65.05-.62,11.88,3.31,23.86,3.58,35.56.74,13.74-3.34,24.03,1.51,33.1,10.94,5.38,5.6,9.15,12.33,11.36,19.69,6.08,20.28,9.14,40.9,6.31,62.14-1.04,7.79-3.19,14.69-9.24,20.31-8.6,7.99-14.49,18.19-21.31,27.63-2.58,3.58-2.67,6.95-.8,11.15,5.52,12.42,14.97,21.2,26.02,28.21,9.21,5.85,18.33,12.14,29.12,15.13,1.89.52,3.51,1.91,5.36,2.66,12.96,5.27,18.1,15.3,19.03,28.84.67,9.66.85,19.29.86,28.94,0,4.3-.68,8.44-3.14,12.84Z"/>
  <path class="cls-8" d="M2067.7,135.07c13.24-.51,26.16,0,37.82-7.33,5.21-3.28,11.45-.87,14.39,4.56.93,1.72,1.74,3.73,1.84,5.64.95,18.12,8.02,35.02,10.45,52.77,2.52,18.42,3.61,37-.32,55.56-4.18,19.69-.08,38.2,13.25,53.07,8.82,9.84,21.87,12.69,34.94,9.53,11.5-2.78,17.23-11.52,19.88-22.76,4.19-17.73.36-34.66-6.36-50.64-6.29-14.99-8.64-30.63-11.9-46.23-4.67-22.35-1.35-44.4,1.84-66.43,1.12-7.72,5.81-13.25,13.83-15.44,7.71-2.1,15.3-4.57,23.28-5.63,4.59-.61,7.68.64,9.77,4.85,2.88,5.8,6.97,10.58,4.57,18.47-1.71,5.64,1.56,12.41,3.81,18.24,5.76,14.93,5.86,30.68,7.33,46.2,2.29,24.2,3.41,48.49,3.9,72.8.1,4.99.26,9.99.25,14.98-.02,6.69,1.05,13.11,2.59,19.68,5.71,24.38,2.29,47.44-18.4,63.27-25.96,19.86-55.18,33.15-89.1,25.35-16.62-3.82-34.23-7.88-44.37-24.05-6.14-9.8-11.71-19.82-15.52-31.06-8.82-26.05-12.9-52.98-16.37-79.97-2.24-17.43-2.99-35.21-2.49-52.78.24-8.52-.44-17.92,4.89-25.99,2.7-4.09,2.86-9.78.11-13.39-5.42-7.12-5.05-14.62-3.92-23.27Z"/>
  <path class="cls-8" d="M2027.74,118.98c-1.1,4.11-1.9,6.94-2.63,9.79-1.37,5.36-1.08,10.48,1.75,15.42,4.14,7.2,8.21,14.44,12.1,21.78,5.46,10.3,8.68,20.91,2.78,32.71-14.83-11.69-31.78-11-49.07-7.45-6.84,1.41-13.64,3.04-20.39,4.85-12.74,3.42-17.8,12.06-14.8,24.88,4.01,17.17,6.55,19.33,24.13,20,9.68.37,19.21.72,27.27,7.38,3.68,3.04,8.94,2.13,13.26,4.02,4.81,2.11,7.77,4.49,6.3,10.5-1.39,5.65.22,11.21,2.27,16.58.59,1.55.84,3.33-.61,4.63-1.51,1.36-3.12.6-4.57-.22-8.29-4.65-16.28-3.51-24.88-.14-8,3.14-16.62,4.7-25,6.84-10.33,2.63-15.71,9.22-16.04,19.78-.3,9.57,1.73,18.7,6.96,26.63,10.23,15.5,10.66,32.73,8.88,50.03-1.28,12.51-.3,24.5,2.91,36.47.6,2.24,1.67,4.34,1.24,6.78-.83,4.68-4.08,6.79-8.65,5.34-1.88-.6-3.72-1.49-5.41-2.53-10.89-6.67-23.08-7.96-35.41-8.79-6.16-.42-11.98.81-17.35,3.66-4.63,2.46-7.71.95-11.51-2.21-9.45-7.87-12.29-16.93-7.21-28.29.68-1.51.85-3.28,1.68-4.68,6.62-11.31,3.82-23.26,2.27-35.03-1.08-8.22-2.62-16.4-4.45-24.48-3.2-14.16-3.02-28.4-1.59-42.69,1.06-10.56,1.1-21.2,3.83-31.62,1.96-7.45.77-15.26.42-22.9-.54-11.93-1.65-23.84-1.92-35.78-.33-14.68-6.6-26.12-17.61-35.34-6.47-5.42-8.62-12.7-6.12-20.34,1.33-4.07,4.68-5.71,8.3-6.26,4.58-.7,9.28-.74,13.93-.81,18.61-.28,37.33,0,55.67-3.33,15.34-2.78,30.21-7.99,45.65-10.52,10.71-1.75,21.2-5.29,33.58-4.65Z"/>
  <path class="cls-5" d="M2046.23,244.22c-7.56-7.53-15.96-11.3-25.1-13.66-1.27-.33-2.72-.51-3.72-1.25-9.62-7.08-20.68-8.57-32.16-8.62-1.31,0-2.7-.11-3.91-.55-.8-.29-1.6-1.15-1.96-1.96-.66-1.51.46-2.93,1.6-3.13,11.06-1.95,21.69-6.66,33.26-5.37,3.86.43,6.6,1.62,7.72,6.2,1.56,6.36,5.8,9.94,13.01,9.98,12.99.08,14.78,2.97,11.24,18.35Z"/>
  <path class="cls-8" d="M2603.78,256.64c.09-18.72,7.17-33.26,20.25-44.93,6.2-5.54,12.59-10.91,19.19-15.97,7.74-5.93,10.2-13.01,7.97-22.7-4.27-18.59-10.01-36.56-19.73-53.02-4.46-7.55-9.95-13.96-19.96-14.73-5.73-.44-6.25-2.36-2.44-6.88,8.39-9.96,17.87-18.83,28.05-26.96,2.46-1.96,5.25-2.79,8.3-3.06,4.65-.42,9.29-1.26,13.93-1.24,28.22.1,53.35-9.96,77.51-23.29,1.16-.64,2.47-1.06,3.56-1.8,18.44-12.44,33.42-7.14,46.68,3.83,12.55,10.4,22.78,23.28,29.51,38.49,5.69,12.85,5.57,26.59,5.94,40.23.05,1.9-.8,3.9-1.55,5.72-2.8,6.81-6.08,7.77-10.71,1.93-9.76-12.29-23.15-15.99-37.65-17.48-15-1.54-29.98-.45-44.84,1.64-18.31,2.57-26,24.36-14.71,40.67,5.23,7.55,12.78,11.28,21.08,14.29,3.38,1.23,8.71.55,9.07,6.06.35,5.37-4.48,5.8-7.99,7.47-19,9.02-27.06,22.86-25.84,44.09.32,5.65.34,11.26-.32,16.94-2.35,20.11,12.25,33.17,32.23,29.1,27.26-5.55,45.01-26.61,44.55-54.61-.16-9.95,4.7-14.56,12.36-18.14,1.46-.68,3.29-1.46,4.74-1.17,10.77,2.17,22.17,3.95,29.71,12.67,12.78,14.8,18.2,35.14,5.55,53.01-17.42,24.62-36.85,47.16-61.23,65.19-4.13,3.05-8.52,3.61-13.21,3.18-23.47-2.13-46.5,1.62-69.47,5.42-12.45,2.06-23.74,1.25-34.08-6.69-3.39-2.6-7.52-4.21-11.24-6.39-23.33-13.62-38.48-33.32-44.16-59.91-.83-3.87-.78-7.93-1.05-10.95Z"/>
  <path class="cls-8" d="M2569.68,243.42c3.05,24.97-2.85,53.27-4.6,81.8-.7,11.43-9.64,16.92-16.65,23.63-2.91,2.79-8.19.52-9.74-3.61-1.15-3.06-1.71-6.44-2.03-9.72-1.18-12.29-2.98-24.37-7.93-35.87-2.09-4.85-3.43-10.1-4.58-15.28-2.78-12.51-9.38-23.45-14.36-35.02-2.98-6.94-4.44-13.86-4.91-21.19-.32-4.98-.92-9.97-.9-14.95.08-25.67-10.38-48.55-18.91-71.94-3.79-10.4-6.59-20.83-5.41-32.12.9-8.67,6.23-14.45,11.78-20.21,2.35-2.44,5.56-2.07,8.51-1.54,13.89,2.5,25.71-.92,35.08-11.82.86-1,1.91-1.86,2.98-2.64,4.75-3.47,6.76-3.44,9.69,1.3,4.71,7.62,8.96,15.39,10.7,24.5,6.37,33.4,10.19,67.13,12.71,100.98.98,13.19-.76,26.58-1.41,43.69Z"/>
  <path class="cls-3" d="M2869.24,143.82c-.56-.92-1.16-1.46-1.2-2.04-1.54-21.24-7.24-41.99-7.74-63.34-.2-8.42-1.15-16.55-4.19-24.45-3.21-8.36-1.1-15.71,5.12-21.89,4.47-4.44,9.21-7.07,15.94-3.77,5.63,2.76,12.01,3.96,17.72,6.59,8.83,4.07,10.64,8.54,10.14,18.2-.82,15.69-5.08,30.8-7.62,46.17-2.33,14.11-9.32,26.99-18.91,38-2.31,2.65-4.37,5.99-9.27,6.55Z"/>
  <path class="cls-5" d="M2592.52,216.31c-2.2-37.06-6.41-71.62-11.03-106.42,3.9.34,3.61,2.86,4.45,4.47,3.75,7.16,9.86,10.65,17.72,10.93,5.3.18,8.29,2.81,10.97,7.19,7.58,12.39,11.28,26.19,15.56,39.82,1.4,4.46.05,7.38-3.49,10.37-8.12,6.86-17.07,12.81-23.93,21.1-2.93,3.54-5.81,7.11-10.24,12.54Z"/>
  <path class="cls-8" d="M3023.28,20.49c16.71.08,33.51,1.63,49.04,7.25,21.98,7.95,36.8,23.07,39.13,48.07,1.37,14.69-1.98,28.36-6.43,42.03-1.26,3.87-3.23,5.31-7.4,4.29-6.18-1.52-11.95-4.03-17.79-6.41-2.75-1.12-3.68-3.48-4.45-6.18-1.18-4.15-2.88-8.05-5.53-11.62-7.25-9.8-14.21-12.3-25.93-8.81-10.2,3.04-15.63,10.12-16.26,21.21-.84,14.7.67,17.3,14.57,23.35,20.68,8.99,38.82,21.71,55.33,36.93,2.78,2.56,4.84,5.58,6.03,9.05,5.74,16.82,8.6,33.75,7.12,51.91-1.17,14.4-6.82,26.91-10.8,40.18-.28.94-.72,1.88-1.28,2.69-11.97,17.46-25.34,33.38-45.76,41.51-1.24.49-2.61,1.4-3.77,1.21-13.3-2.23-25.14,5.39-38.15,5.54-5.11.06-9.86-.18-14.6-1.99-14.07-5.34-26.95-12.88-39.65-20.82-5.03-3.15-8.13-7.23-9.96-13.05-2.71-8.63-4.28-17.42-5.86-26.25-2.31-12.89,2.49-25,4.3-37.44.22-1.49,1.32-3.29,2.57-4.12,4.51-3.03,7.7-7.31,11.39-11.13,3.42-3.54,5.63-3.14,7.46,1.2,1.28,3.05,2.17,6.31,2.95,9.54,3.96,16.48,14.06,27.53,29.64,33.76,7.47,2.99,15.12,2.67,22.41-.13,13.22-5.08,18.99-14.77,17.81-28.99-.28-3.31-1.14-6.56-1.58-9.86-1.59-11.89-8.3-19.11-19.7-22.52-8.57-2.57-16.97-5.72-25.38-8.71-23.48-8.34-34.38-27-38.63-50.35-1.54-8.48-2.21-17.06-2.8-25.68-.63-9.25.41-17.89,4.19-26.23,4.11-9.08,7.25-18.85,12.76-27.01,13.01-19.29,30.08-32.78,55.02-32.39Z"/>
  <path class="cls-5" d="M3019.4,223.43c-.08,6.59-6.59,11.29-11.93,9.87-10.21-2.72-19.99-15.74-19.65-26.1.08-2.49,1.5-3.98,3.7-3.43,8.28,2.08,16.68,4.28,23.83,9.02,3.77,2.5,2.02,8.12,4.05,10.64Z"/>
  <path class="cls-7" d="M3054.58,113.1c-.4,1.21-.77,2.6-2.48,2.43-2.2-.22-3.64-1.54-3.96-3.68-.31-2.06,1.06-3.12,2.92-2.89,2.21.27,3.36,1.86,3.52,4.15Z"/>
  <path class="cls-9" d="M3937.9,874.98c-.86,15.29-1.44,30.61-4.41,45.69-1.89,9.57-6.53,18.11-10.68,26.81-4.75,9.94-10.58,19.2-16.78,28.32-17.65,25.96-49.58,29.65-73.06,22.99-9.8-2.78-18.25-7.84-25.4-15.15-3.95-4.04-8.17-7.83-12.2-11.79-17.57-17.25-26.32-38.94-30.94-62.54-4.14-21.18-7.71-42.47-11.7-63.68-1.94-10.33-.89-20.65.08-30.88,1.59-16.87,3.46-33.81,7.55-50.26,9.3-37.42,44.81-60.4,81.89-47.28,52.68,18.62,85.31,55.07,92.3,111.95,1.87,15.21,3.32,30.47,3.35,45.83Z"/>
  <path class="cls-9" d="M1824.73,1089c-.24,15.66-1.48,31.23-4.29,46.66-.3,1.63-.61,3.28-1.2,4.81-7.54,19.68-17.14,38.11-30.05,54.99-20.18,26.39-69.77,27.71-92.64,5.04-4.96-4.92-10.07-9.69-15.02-14.63-15.88-15.83-24.57-35.5-29.06-56.99-4.89-23.41-8.8-47.02-13.12-70.54-1.65-8.99-.43-17.97.37-26.9,1.49-16.56,3.5-33.07,7.11-49.33,5.45-24.54,19.2-42.06,43.41-50.41,11.64-4.01,23.83-4.84,35.36-.94,32.36,10.94,59.89,28.97,78.05,58.76,9.99,16.39,15.26,34.7,17.74,53.67,1.98,15.19,3.53,30.45,3.34,45.82Z"/>
  <path class="cls-9" d="M998.92,945.4c7.32,0,14.65.18,21.96-.06,5.67-.18,10.99-1.48,16.21-4.25,18.84-10.02,44.68,1.28,51.11,21.65,7.06,22.36,1.49,42.61-9.38,62.19-8.43,15.19-19.33,28.66-29.45,42.67-1.34,1.86-3.06,3.64-4.99,4.85-18.23,11.56-36.1,23.77-56.27,31.87-15.55,6.24-19.46,4.8-28.26-9.64-11.64-19.11-19.11-40.18-28.24-60.46-6.01-13.33-10.75-27.2-15.35-41.1-1.7-5.12-2.9-10.19-3.31-15.54-.96-12.51-1.11-12.67,10.25-18.28,12.89-6.37,26.28-10.96,40.86-12.1,11.62-.91,23.19-2.2,34.87-1.8Z"/>
  <path class="cls-9" d="M2810.78,1915.42c-.51,3.09-.55,7.6-2.05,11.55-4.7,12.45-10.22,24.42-18.99,34.81-13.39,15.85-41.14,17.24-56.19,5.26-10.35-8.24-17.9-18.51-24.44-29.82-14.51-25.13-19.12-53.02-21.47-81.16-1.18-14.1,1.56-28.63,5.58-42.33,6.87-23.39,31.97-35.5,55.26-26.26,29.68,11.78,48.43,33.16,52.57,65.68,1.68,13.2,3.7,26.34,6.73,39.29,1.68,7.19,1.86,14.5,2.99,22.97Z"/>
  <path class="cls-9" d="M4131.78,1706.36c1.12-11.41,1.77-25.83,5.85-39.54,7.07-23.7,32.79-35.61,56.23-25.9,30.37,12.58,48.54,34.97,52.01,68.35,1.31,12.57,3.77,24.96,6.49,37.29.43,1.94.8,3.9,1.19,5.86,5.07,25.21-5.19,45.65-20.96,63.76-12.71,14.6-37.97,16.18-53.82,4.53-11.51-8.46-19.15-19.91-26.16-32.18-10.79-18.89-14.93-39.58-18.42-60.57-1.03-6.23-2.39-12.42-2.41-21.61Z"/>
  <path class="cls-6" d="M1243.28,284.39c8.01,9.93,14.82,18.01,21.22,26.4,5.24,6.86,10.07,14.02,14.94,21.15,5.33,7.81,3.48,15.04-4.73,19.97-8.02,4.81-16.82,6.07-25.88,5.68-4.62-.2-9.33-.89-13.77-2.15-8.46-2.41-16.21-11.33-13.07-22.41,4.67-16.47,13.47-30.96,21.29-48.63Z"/>
  <path class="cls-2" d="M2382.46,167.66c-.91,11.02-8.18,21.65-18.01,30.46-5.39,4.83-12.06,8.3-18.91,10.98-8.05,3.14-12.41,1.68-16.38-6.11-5.88-11.55-11.35-23.32-14.92-35.85-2.79-9.81-1.31-12.83,8.4-16.71,6.19-2.47,12.46-4.23,19.36-4.02,5.87.17,11.67-.19,17.65-1.87,12.84-3.61,22.78,5.79,22.81,23.12Z"/>
  <path class="cls-5" d="M3910.7,866.68c-.18,16.82-.76,28.45-2.35,39.99-.77,5.6-1.94,11.11-4.23,16.36-5.75,13.15-11.99,26.05-20.82,37.44-13.35,17.23-38.66,19.47-54.84,4.97-12.14-10.89-24.36-21.71-30.34-37.65-2.92-7.79-5.98-15.51-7.44-23.74-3.78-21.27-7.55-42.53-11.25-63.81-.45-2.61-.75-5.3-.63-7.94.93-20.31,3.26-40.5,7.76-60.3,5.05-22.23,22.11-33.76,43.35-30.26.98.16,2.03.18,2.93.55,32.81,13.58,59.97,32.57,70.31,69.33,5.57,19.83,7.05,39.9,7.54,55.06Z"/>
  <path class="cls-5" d="M1794.31,1087.57c-.62,8.88-1.39,17.5-1.79,26.14-1.1,23.74-12.25,43.3-25.31,61.62-12.83,17.99-37.78,19.41-53.91,4.31-11.5-10.77-23.24-21.35-28.69-37.04-2.28-6.56-5.13-13.04-6.41-19.82-4.31-22.84-8.36-45.74-11.83-68.73-1.75-11.58.41-23.27,1.84-34.82,1.31-10.55,2.64-21.17,4.98-31.51,3.43-15.13,11.19-26.88,26.98-30.87,6.1-1.54,12.5-1.89,18.23.37,22.41,8.86,42.29,21.67,56.32,42.3,9.06,13.32,13.38,28.72,16.06,44.54,2.44,14.46,3.4,29.08,3.54,43.52Z"/>
  <path class="cls-5" d="M1005.12,972.58c14.75-.94,29.77.26,43.98-6.46,6.56-3.1,12.41.97,14.08,8.12,1.7,7.24,1.74,14.27-1.09,21.51-7.86,20.15-20.05,37.48-33.86,53.82-1.27,1.5-2.88,2.78-4.53,3.86-11.7,7.61-23.56,14.95-36.02,21.26-5.9,2.99-7.08,2.81-9.89-3.34-7.32-16.02-14.47-32.12-21.34-48.33-4.54-10.72-8.66-21.63-12.66-32.56-3.4-9.28-3.16-9.61,5.89-12.8,14.37-5.06,29.38-5.3,44.36-5.56,3.66-.06,7.32.3,11.09.47Z"/>
  <path class="cls-5" d="M2783.24,1912.92c-.65,11.72-6.57,22.71-15.59,31.92-4.74,4.84-13.71,4.11-19.17-.82-4.67-4.22-8.78-8.92-12.23-14.36-11.65-18.38-16.2-38.84-20.06-59.92-2.74-14.96-.09-29.07,1.99-43.47.41-2.86,1.78-5.78,3.36-8.24,4.03-6.27,9.32-8.01,16.37-5.32,20.59,7.88,33.65,22.06,36.39,44.55,1.73,14.17,4.48,28.15,7.29,42.14.78,3.9.99,7.91,1.65,13.51Z"/>
  <path class="cls-5" d="M4227.86,1768.04c-2.41,10.69-6.99,21.33-15.52,29.69-5.23,5.13-13.93,4.19-19.97-.96-8.32-7.09-13.02-16.61-18.25-25.9-8.39-14.89-9.51-31.63-13.42-47.7-3.7-15.18-.69-29.82,2.13-44.39,2.58-13.33,11.55-17.15,23.73-11.27,16.45,7.93,28.19,19.77,31.31,38.62,3.03,18.33,6.19,36.64,9.26,54.97.33,1.97.43,3.97.73,6.94Z"/>
  <path class="cls-5" d="M2351.19,166.66c2.89.66,7.08-2.17,8.9,1.23,1.69,3.14-1.73,5.98-3.55,8.58-2.86,4.08-6.29,9.39-11.1,8.93-4.72-.45-5.26-6.97-6.97-11.14-2.41-5.86-1.89-6.49,4.61-7.12,2.63-.25,5.27-.32,8.11-.49Z"/>
</svg>