<svg xmlns="http://www.w3.org/2000/svg" width="45.16" height="53.032" viewBox="0 0 45.16 53.032">
  <g id="surface1" transform="translate(0 0.001)">
    <path id="Pfad_11792" data-name="Pfad 11792" d="M130.546,158.457a10.1,10.1,0,1,0,10.1,10.1A10.116,10.116,0,0,0,130.546,158.457Zm6,8.2-7.239,7.239a1.556,1.556,0,0,1-2.2,0l-2.766-2.766a1.556,1.556,0,0,1,2.2-2.2l1.666,1.666,6.139-6.139a1.556,1.556,0,0,1,2.2,2.2Zm0,0" transform="translate(-107.966 -142.045)" fill="#6a6a6a"/>
    <path id="Pfad_11793" data-name="Pfad 11793" d="M45.107,14.388l0-.041c-.023-.509-.038-1.048-.048-1.648a5.621,5.621,0,0,0-5.292-5.506A21.81,21.81,0,0,1,24.921.936L24.887.9a3.394,3.394,0,0,0-4.612,0L20.24.936A21.812,21.812,0,0,1,5.4,7.193,5.62,5.62,0,0,0,.1,12.7c-.009.6-.025,1.135-.048,1.648l0,.1C-.065,20.66-.213,28.4,2.376,35.422A26.705,26.705,0,0,0,8.783,45.4a33.516,33.516,0,0,0,12.538,7.416,3.877,3.877,0,0,0,.514.14,3.8,3.8,0,0,0,1.492,0,3.88,3.88,0,0,0,.516-.141A33.537,33.537,0,0,0,36.367,45.4a26.744,26.744,0,0,0,6.407-9.982C45.372,28.37,45.225,20.617,45.107,14.388ZM22.58,39.732A13.216,13.216,0,1,1,35.8,26.516,13.231,13.231,0,0,1,22.58,39.732Zm0,0" transform="translate(0 0)" fill="#6a6a6a"/>
  </g>
</svg>
