<svg xmlns="http://www.w3.org/2000/svg" width="47.402" height="53.032" viewBox="0 0 47.402 53.032">
  <g id="binance" transform="translate(-30.057 -12)">
    <path id="Pfad_11807" data-name="Pfad 11807" d="M273.774,133.888a1.654,1.654,0,0,0-.134.109l-5.024,5.023c-.055.055-.112.109-.154.149l-5.3-5.3,5.3-5.3c.019.017.069.056.114.1l5.148,5.151a.322.322,0,0,0,.048.033C273.774,133.861,273.774,133.875,273.774,133.888Z" transform="translate(-196.314 -98.167)" fill="#6a6a6a"/>
    <path id="Pfad_11808" data-name="Pfad 11808" d="M93.316,31.853l-5.322-5.322c.06-.107,14.3-14.37,14.512-14.531l14.546,14.545c-.06.107-5.046,5.116-5.307,5.319l-9.219-9.219-9.209,9.208Z" transform="translate(-48.794)" fill="#6a6a6a"/>
    <path id="Pfad_11809" data-name="Pfad 11809" d="M93.256,186.285l9.219,9.219c.366-.333.694-.683,1.034-1.019s.682-.681,1.022-1.021l1.022-1.022,1.022-1.022,1.036-1.036,1.022-1.022,1.022-1.022,1.022-1.022,1.039-1.039,5.311,5.3-14.54,14.539L87.945,191.581l5.311-5.3Z" transform="translate(-48.752 -146.773)" fill="#6a6a6a"/>
    <path id="Pfad_11810" data-name="Pfad 11810" d="M151.429,138.837l-5.369-5.368,5.364-5.364,5.368,5.368Z" transform="translate(-97.695 -97.78)" fill="#6a6a6a"/>
    <path id="Pfad_11811" data-name="Pfad 11811" d="M30.056,133.862l5.278-5.278,5.283,5.283-5.277,5.278Z" transform="translate(0 -98.183)" fill="#6a6a6a"/>
    <path id="Pfad_11812" data-name="Pfad 11812" d="M110.619,337.894H80.947a.947.947,0,1,1,0-1.894h29.672a.947.947,0,0,1,0,1.894Z" transform="translate(-42.061 -272.863)" fill="#6a6a6a"/>
  </g>
</svg>
