<svg xmlns="http://www.w3.org/2000/svg" width="40.619" height="53.031" viewBox="0 0 40.619 53.031">
  <g id="fire-flame_1_" data-name="fire-flame (1)" transform="translate(-10.506 -4.006)">
    <path id="Pfad_11823" data-name="Pfad 11823" d="M49.941,27.494a.958.958,0,0,0-1.8-.057A7.393,7.393,0,0,1,46,30.08a1.188,1.188,0,0,1-1.146.237,1.093,1.093,0,0,1-.767-.975C43.227,8.612,27.621,4.076,27.47,4.038A.953.953,0,0,0,26.381,5.4c3.239,5.862-.246,10.142-.341,10.265a14.837,14.837,0,0,0-3.371,5.53,21.975,21.975,0,0,0-1.108,4.943c-.053.227-.183.3-.417.208a14.861,14.861,0,0,1-2.86-2.159,1.845,1.845,0,0,0-2.822.407C10.6,32.864,9.307,39.862,11.618,45.4c2.292,5.492,7.651,8.494,12.538,10.132a15.579,15.579,0,0,1-1.648-2.642,18.97,18.97,0,0,1-1.572-11.837.929.929,0,0,1,.625-.729.943.943,0,0,1,.937.189l1.629,1.468c.085-3.617,1.326-10.435,8.939-13.863a.955.955,0,0,1,1.326.966l-.331,3.106a2.407,2.407,0,0,0,.445,1.723,12.672,12.672,0,0,1,2.453,5.379l.8-.625a1.562,1.562,0,0,1,2.377.2c2.265,3.169,5.807,12.382-1.6,17.216,17.43-5.138,11.81-28.273,11.4-28.589Z" transform="translate(0)" fill="#6a6a6a"/>
    <path id="Pfad_11824" data-name="Pfad 11824" d="M41.5,51.6c1.042-3.57-.7-7.708-2.045-9.839l-1.515,1.174a1.329,1.329,0,0,1-2.121-1.042,10.042,10.042,0,0,0-2.169-5.369,4.32,4.32,0,0,1-.8-3.049l.142-1.345c-7.595,4.517-6.222,13.324-6.2,13.409a.953.953,0,0,1-1.572.862l-1.97-1.771a16.36,16.36,0,0,0,2.765,10.8,16.355,16.355,0,0,0,2.51,2.623,21.176,21.176,0,0,0,6.657.369L36.844,56.8A8.909,8.909,0,0,0,41.5,51.6Z" transform="translate(-0.672 -1.492)" fill="#6a6a6a"/>
  </g>
</svg>
