<svg xmlns="http://www.w3.org/2000/svg" width="60.572" height="53.031" viewBox="0 0 60.572 53.031">
  <g id="layer1" transform="translate(-98.102 -117.944)">
    <g id="Gruppe_7573" data-name="Gruppe 7573" transform="translate(98.101 117.944)">
      <path id="path23264" d="M98.418,124.777c-.2.017-.317.249-.317.681v1.781c0,6.335,9.59,11.471,21.419,11.471a37.073,37.073,0,0,0,9.809-1.271c.61-.168.707-.659.254-1.1a16.887,16.887,0,0,1-3.169-3.372,1.839,1.839,0,0,0-1.692-.836,41.3,41.3,0,0,1-5.324.34,33.974,33.974,0,0,1-15.961-3.608,17.7,17.7,0,0,1-4.43-3.744c-.233-.242-.436-.355-.591-.341Z" transform="translate(-98.101 -85.679)" fill="#6a6a6a"/>
      <path id="path23267" d="M98.1,123.891v1.785c0,6.336,9.59,11.471,21.419,11.471a39.251,39.251,0,0,0,4.39-.246.9.9,0,0,0,.769-1.23,13.823,13.823,0,0,1-.879-3.692,1.081,1.081,0,0,0-1.175-1.041c-1.049.081-2.02.123-3.108.123a34.589,34.589,0,0,1-16.093-3.608,19.881,19.881,0,0,1-4.414-3.9.831.831,0,0,0-.613-.338c-.177.017-.295.243-.295.675Z" transform="translate(-98.101 -93.051)" fill="#6a6a6a"/>
      <path id="path23270" d="M119.52,117.945c-11.829,0-21.419,5.135-21.419,11.471V132.7c0,6.336,9.59,11.471,21.419,11.471a38.389,38.389,0,0,0,7.447-.727,4.076,4.076,0,0,0,1.867-1.112,18.942,18.942,0,0,1,9.505-5.636,3.278,3.278,0,0,0,2.091-1.563,6.466,6.466,0,0,0,.5-2.433v-3.28c0-6.335-9.588-11.47-21.415-11.471Z" transform="translate(-98.101 -117.944)" fill="#6a6a6a"/>
    </g>
    <path id="path23273" d="M119.031,121.653a15.9,15.9,0,1,0,15.9,15.9,15.9,15.9,0,0,0-15.9-15.9Zm-.017,5.362v0a1.856,1.856,0,0,1,1.852,1.849v.384a5.365,5.365,0,0,1,2.818,2.276,1.854,1.854,0,1,1-3.174,1.917,1.746,1.746,0,0,0-1.5-.8,1.544,1.544,0,1,0,0,3.069,5.362,5.362,0,0,1,5.413,5.255,5.285,5.285,0,0,1-3.561,4.93v.375a1.857,1.857,0,1,1-3.713,0v-.373a5.369,5.369,0,0,1-2.81-2.273,1.854,1.854,0,1,1,3.174-1.917,1.745,1.745,0,0,0,1.5.8,1.548,1.548,0,1,0,0-3.081,5.357,5.357,0,0,1-5.422-5.241,5.292,5.292,0,0,1,3.561-4.93v-.393a1.856,1.856,0,0,1,1.861-1.852Z" transform="translate(23.741 17.516)" fill="#6a6a6a"/>
    <path id="path23276" d="M98.1,122.134v1.56c0,6.336,9.591,11.47,21.42,11.47,1.135,0,2.249-.052,3.336-.142a1.558,1.558,0,0,0,1.31-1.245,8.551,8.551,0,0,1,1.073-4.286c.161-.343.011-.56-.371-.508a37.467,37.467,0,0,1-5.348.387,35.185,35.185,0,0,1-16.4-3.665,21,21,0,0,1-4.487-3.783c-.3-.3-.532-.217-.532.211Z" transform="translate(0 17.937)" fill="#6a6a6a"/>
  </g>
</svg>
