<svg xmlns="http://www.w3.org/2000/svg" width="53.33" height="53.032" viewBox="0 0 53.33 53.032">
  <g id="_20_Exchange" data-name="20 Exchange" transform="translate(-1.832 -2)">
    <path id="Pfad_11815" data-name="Pfad 11815" d="M43.027,28c-20.034.1-20.036,29.947,0,30.051C63.059,57.95,63.061,28.1,43.027,28Zm0,25.632c-14.142-.074-14.141-21.141,0-21.213C57.168,32.493,57.167,53.56,43.026,53.632Z" transform="translate(-3.039 -3.02)" fill="#6a6a6a"/>
    <path id="Pfad_11816" data-name="Pfad 11816" d="M57.806,14.219c-1.921-3.311-5.65-5.451-11.092-6.367V4.126A.89.89,0,0,0,45.206,3.5l-8.018,8.018a.889.889,0,0,0,0,1.25l8.018,8.017a.89.89,0,0,0,1.509-.625V16.416a6.165,6.165,0,0,1,3.71,1.291c2.939,2,5.513,5.763,5.739,8.379a.888.888,0,0,0,1.7.249c1.289-3.258,2.324-8-.06-12.115Z" transform="translate(-4.076 -0.145)" fill="#6a6a6a"/>
    <path id="Pfad_11817" data-name="Pfad 11817" d="M23.881,47.747l-8.018-8.018a.889.889,0,0,0-1.509.625V44.1c-4.348.058-9.162-6.225-9.45-9.669a.888.888,0,0,0-1.7-.249C1.914,37.44.878,42.187,3.263,46.3c1.921,3.311,5.651,5.451,11.092,6.367V56.39a.889.889,0,0,0,1.509.625L23.881,49a.889.889,0,0,0,0-1.25Z" transform="translate(0 -3.674)" fill="#6a6a6a"/>
    <path id="Pfad_11818" data-name="Pfad 11818" d="M44.768,46H43v2.652h1.768C47.419,48.652,47.419,46,44.768,46Z" transform="translate(-4.781 -5.11)" fill="#6a6a6a"/>
    <path id="Pfad_11819" data-name="Pfad 11819" d="M44.768,41H43v2.652h1.549C47.419,43.652,47.419,41,44.768,41Z" transform="translate(-4.781 -4.529)" fill="#6a6a6a"/>
    <path id="Pfad_11820" data-name="Pfad 11820" d="M43.846,34.987c-11.707-.159-11.707,17.86,0,17.7C55.553,52.846,55.553,34.826,43.846,34.987ZM47.92,47.955a3.281,3.281,0,0,1-2.306,1.1v.966a.884.884,0,0,1-1.768,0V49.14h-.884v.884a.884.884,0,0,1-1.768,0V49.14h-.908a.884.884,0,1,1,0-1.768V40.3a.884.884,0,1,1,0-1.768h.908V37.65a.884.884,0,0,1,1.768,0v.884h.884V37.65a.884.884,0,0,1,1.768,0v.959a2.754,2.754,0,0,1,2.012,1.013,2.459,2.459,0,0,1-1.335,3.986,2.668,2.668,0,0,1,1.628,4.347Z" transform="translate(-3.86 -3.831)" fill="#6a6a6a"/>
    <path id="Pfad_11821" data-name="Pfad 11821" d="M17.84,8.987c-11.775.307-11.773,17.4,0,17.7C29.615,26.381,29.613,9.292,17.84,8.987Zm.579,13.557v1.378H17.265v-1.37a3.018,3.018,0,0,1-2.8-2.629l1.782-.464a1.549,1.549,0,0,0,1.64,1.5,1.085,1.085,0,0,0,.959-1.816,5.588,5.588,0,0,0-1.363-.618A8.105,8.105,0,0,1,16,17.879a2.79,2.79,0,0,1,1.269-5.062V11.753h1.153v1.063A2.79,2.79,0,0,1,20.92,15l-1.588.652q-.464-1.341-1.438-1.34a1.007,1.007,0,0,0-.794,1.692c.473.381,2.318.927,2.831,1.284,2.342,1.362,1.265,5.231-1.513,5.253Z" transform="translate(-0.834 -0.811)" fill="#6a6a6a"/>
    <path id="Pfad_11822" data-name="Pfad 11822" d="M17.026,2c-20.032.629-20.037,29.42,0,30.051C37.057,31.423,37.062,2.632,17.026,2Zm0,25.632c-14.144-.446-14.14-20.769,0-21.213C31.169,6.865,31.166,27.188,17.026,27.632Z" transform="translate(-0.02)" fill="#6a6a6a"/>
  </g>
</svg>
