<svg xmlns="http://www.w3.org/2000/svg" width="38.008" height="53.031" viewBox="0 0 38.008 53.031">
  <g id="_x33_5" transform="translate(-4.9 -1.501)">
    <path id="Pfad_11825" data-name="Pfad 11825" d="M42.277,14.795,30.013,2.177a2.174,2.174,0,0,0-2.055-.619L6.611,6.42A2.174,2.174,0,0,0,5.086,9.425L18.872,41.04H17.354a5.056,5.056,0,0,0-5.068,5.068v4.037H10.268a2.194,2.194,0,0,0,0,4.388H38.677a2.194,2.194,0,0,0,0-4.388H36.659V46.108a5.07,5.07,0,0,0-5.067-5.068h-.117L42.7,17.292A2.226,2.226,0,0,0,42.277,14.795ZM31.648,17.2,29.725,19.06l.464,2.63a1.7,1.7,0,0,1-.707,1.7,1.724,1.724,0,0,1-1.834.155l-2.365-1.237-2.365,1.237A1.738,1.738,0,0,1,20.4,21.689l.442-2.63-1.9-1.856a1.734,1.734,0,0,1-.442-1.79,1.692,1.692,0,0,1,1.392-1.171l2.652-.4,1.171-2.387a1.743,1.743,0,0,1,1.569-.972,1.768,1.768,0,0,1,1.569.972l1.171,2.387,2.652.4a1.747,1.747,0,0,1,.972,2.961Z" fill="#6a6a6a"/>
  </g>
</svg>
