<svg xmlns="http://www.w3.org/2000/svg" width="53.445" height="53" viewBox="0 0 53.445 53">
  <g id="Layer_x0020_1" transform="translate(-13.707 -14.316)">
    <g id="_680532832" transform="translate(13.708 14.317)">
      <path id="_680534752" d="M75.081,110.259a1.133,1.133,0,0,1-.321-.046,1.117,1.117,0,0,1-.748-1.395l1.235-4.08a1.117,1.117,0,0,1,2.139.648l-1.236,4.08A1.118,1.118,0,0,1,75.081,110.259Zm-5.812.5a1.119,1.119,0,0,1-1.07-1.441l1.235-4.08a1.118,1.118,0,0,1,2.139.648l-1.235,4.08A1.117,1.117,0,0,1,69.27,110.759ZM57.492,89.165a1.132,1.132,0,0,1-.321-.046,1.117,1.117,0,0,1-.748-1.395l1.235-4.08a1.118,1.118,0,0,1,2.139.648l-1.236,4.08A1.118,1.118,0,0,1,57.492,89.165Zm-5.812.5a1.119,1.119,0,0,1-1.07-1.441l1.236-4.08a1.117,1.117,0,0,1,2.138.648l-1.234,4.08A1.117,1.117,0,0,1,51.681,89.666Z" transform="translate(-37.069 -57.759)" fill="#6a6a6a" fill-rule="evenodd"/>
      <path id="_680534920" d="M114.584,65.24a16.2,16.2,0,0,0-5.953,5.436,10.159,10.159,0,0,0,2.893,4.848l13.5-7.792a10.16,10.16,0,0,0-2.751-4.929,13.176,13.176,0,0,0-4.953,1.1A22.018,22.018,0,0,0,114.584,65.24Zm3.353,1.86a.652.652,0,0,1-.188-1.276,8.728,8.728,0,0,1,4.174-.357.653.653,0,0,1-.293,1.272,7.64,7.64,0,0,0-3.5.334A.687.687,0,0,1,117.937,67.1Zm-3.508,1.2a.652.652,0,0,1-.029.922,7.632,7.632,0,0,0-2.041,2.868.656.656,0,0,1-.624.458.638.638,0,0,1-.193-.029.652.652,0,0,1-.432-.811,8.737,8.737,0,0,1,2.4-3.437A.652.652,0,0,1,114.429,68.3Z" transform="translate(-73.878 -45.051)" fill="#6a6a6a" fill-rule="evenodd"/>
      <path id="_680534632" d="M96.445,47.146,85.74,59.739l7.132-1.3a10.981,10.981,0,0,1,1.6-2.245l.043-.048c3.275-3.6,9.3-6.632,13.493-6.445l4.7-5.524Z" transform="translate(-59.368 -33.241)" fill="#6a6a6a" fill-rule="evenodd"/>
      <path id="_680534704" d="M91.3,89.014l1.39,2.408.743-.429L92.2,88.85Z" transform="translate(-62.895 -61.562)" fill="#6a6a6a" fill-rule="evenodd"/>
      <path id="_680535112" d="M95.689,98.032a5.175,5.175,0,0,0,.972,3.076l2.823-1.63a5.173,5.173,0,0,0-2.177-2.38Z" transform="translate(-65.675 -66.791)" fill="#6a6a6a" fill-rule="evenodd"/>
      <path id="_680534104" d="M28.07,78.586l-1.615.933a5.159,5.159,0,0,0,.972,3.075l2.822-1.629A5.219,5.219,0,0,0,28.07,78.586Z" transform="translate(-21.788 -55.056)" fill="#6a6a6a" fill-rule="evenodd"/>
      <path id="_680533792" d="M22.068,70.5l1.39,2.408.743-.429-1.237-2.143Z" transform="translate(-19.007 -49.825)" fill="#6a6a6a" fill-rule="evenodd"/>
      <path id="_680533744" d="M27.208,28.633,16.5,41.225l.863-.158.059-.011,2.21-.4.04-.007,3.96-.724c2.307-4.436,9.845-8.831,14.915-8.745l.221.007,4.7-5.524Z" transform="translate(-15.479 -21.506)" fill="#6a6a6a" fill-rule="evenodd"/>
      <path id="_680534128" d="M135.57,16.607l-1.925,1.036,1.925,1.037a.9.9,0,0,1,.364.364l1.036,1.925,1.038-1.925a.89.89,0,0,1,.364-.364l1.926-1.037-1.925-1.036a.9.9,0,0,1-.364-.365l-1.037-1.925-1.036,1.925a.905.905,0,0,1-.364.365Z" transform="translate(-89.734 -14.317)" fill="#6a6a6a" fill-rule="evenodd"/>
      <path id="_680533936" d="M107.6,23.545l-1.925,1.037L107.6,25.62a.882.882,0,0,1,.364.364L109,27.909l1.036-1.925a.892.892,0,0,1,.364-.364l1.925-1.037L110.4,23.545a.892.892,0,0,1-.364-.364L109,21.256l-1.038,1.925A.88.88,0,0,1,107.6,23.545Z" transform="translate(-72.006 -18.715)" fill="#6a6a6a" fill-rule="evenodd"/>
      <path id="_680533840" d="M115.689,114.9l-1.925,1.036,1.925,1.037a.882.882,0,0,1,.364.364l1.038,1.925,1.036-1.925a.891.891,0,0,1,.364-.364l1.926-1.037L118.49,114.9a.905.905,0,0,1-.364-.365l-1.035-1.925-1.038,1.925a.893.893,0,0,1-.364.365Z" transform="translate(-77.132 -76.624)" fill="#6a6a6a" fill-rule="evenodd"/>
      <path id="_680533768" d="M143.444,100.605l-1.927,1.036,1.927,1.037a.9.9,0,0,1,.364.364l1.036,1.925,1.037-1.925a.892.892,0,0,1,.364-.364l1.925-1.037-1.925-1.036a.9.9,0,0,1-.364-.364l-1.037-1.925-1.036,1.925a.911.911,0,0,1-.364.364Z" transform="translate(-94.725 -67.563)" fill="#6a6a6a" fill-rule="evenodd"/>
      <path id="_680533720" d="M135.609,136.828a.9.9,0,0,1-.364.364l-1.925,1.037,1.925,1.036a.911.911,0,0,1,.364.364l1.036,1.925,1.037-1.925a.911.911,0,0,1,.364-.364l1.925-1.036-1.925-1.037a.9.9,0,0,1-.364-.364l-1.037-1.925Z" transform="translate(-89.528 -90.754)" fill="#6a6a6a" fill-rule="evenodd"/>
      <path id="_680533456" d="M36.37,109.722,19.9,111.056l.734.507.025.017,5.207,3.6a11.251,11.251,0,0,1,2.974-.467q.273-.009.552-.009c4.433,0,9.87,1.789,12.768,4.418q.314.285.587.583l7.228-.586Z" transform="translate(-17.63 -74.793)" fill="#6a6a6a" fill-rule="evenodd"/>
      <path id="_680533192" d="M43.357,127.619a16.181,16.181,0,0,0-8.052-.366,10.144,10.144,0,0,0-1.382,5.473l15.052,4.033a10.1,10.1,0,0,0,1.539-5.431,16.189,16.189,0,0,0-7.157-3.709Zm-7.029,2.117A8.714,8.714,0,0,1,40.452,129a.652.652,0,1,1-.041,1.3,7.7,7.7,0,0,0-3.469.583.653.653,0,0,1-.614-1.152Zm11.506,4.229a.651.651,0,0,1-.553-.306,7.677,7.677,0,0,0-2.714-2.242.652.652,0,1,1,.616-1.15,8.721,8.721,0,0,1,3.2,2.7.652.652,0,0,1-.553,1Z" transform="translate(-26.496 -85.68)" fill="#6a6a6a" fill-rule="evenodd"/>
      <path id="_680533312" d="M17,130.048l-1.8-.482a5.159,5.159,0,0,0-1.487,2.862l3.148.843A5.229,5.229,0,0,0,17,130.048Z" transform="translate(-13.708 -87.371)" fill="#6a6a6a" fill-rule="evenodd"/>
      <path id="_680533552" d="M20.742,119.143l-.72,2.686.829.222.641-2.39Z" transform="translate(-17.71 -80.765)" fill="#6a6a6a" fill-rule="evenodd"/>
      <path id="_680533120" d="M45.348,46.727A16.19,16.19,0,0,0,39.4,52.163a10.131,10.131,0,0,0,2.893,4.847l13.495-7.792a10.14,10.14,0,0,0-2.751-4.928A16.159,16.159,0,0,0,45.348,46.727Zm-3.473,6.467a8.738,8.738,0,0,1,2.4-3.436.653.653,0,0,1,.894.951,7.648,7.648,0,0,0-2.042,2.868.655.655,0,0,1-.623.458.632.632,0,0,1-.193-.029A.65.65,0,0,1,41.875,53.195ZM48.7,48.587a.653.653,0,0,1-.188-1.278,8.744,8.744,0,0,1,4.174-.357.653.653,0,0,1-.292,1.272,7.644,7.644,0,0,0-3.5.334.637.637,0,0,1-.189.028Z" transform="translate(-29.991 -33.316)" fill="#6a6a6a" fill-rule="evenodd"/>
    </g>
  </g>
</svg>
