<svg xmlns="http://www.w3.org/2000/svg" width="44.189" height="53.032" viewBox="0 0 44.189 53.032">
  <g id="chess" transform="translate(-2 0.002)">
    <path id="Pfad_11813" data-name="Pfad 11813" d="M33.473,25.544a12.629,12.629,0,0,0-.4,9.81H25.188a10.218,10.218,0,0,1,.42-5.413c.619-1.723,1.547-3.491,2.1-5.391.552-1.878-.022-3.756-.53-5.767a15.394,15.394,0,0,1-1.37,5.48c-.751,1.723-1.878,3.226-2.828,5.016a13.1,13.1,0,0,0-1.436,6.01v.066H8.594a31.323,31.323,0,0,1,6.032-14.516c-5.354.453-7.55,1.24-9.39-.442a3.777,3.777,0,0,1-1.215-2.784c0-2.209-.2-6.279,4.286-7.579L19.4,6.52V1.659A1.657,1.657,0,0,1,22.05.334l4.927,3.69a17.253,17.253,0,0,1,6.5,21.52Z" transform="translate(2.442 0)" fill="#6a6a6a"/>
    <path id="Pfad_11814" data-name="Pfad 11814" d="M41.771,23.024v-1.1c0-2.086-1.653-4.419-3.867-4.419H10.286c-2.214,0-3.867,2.333-3.867,4.419v1.1C3.5,23.024,2,24.8,2,26.89V30.2a1.658,1.658,0,0,0,1.657,1.657H44.533A1.658,1.658,0,0,0,46.19,30.2V26.89C46.19,24.8,44.685,23.024,41.771,23.024Z" transform="translate(0 21.168)" fill="#6a6a6a"/>
  </g>
</svg>
