<svg id="brain" xmlns="http://www.w3.org/2000/svg" width="53" height="53" viewBox="0 0 53 53">
  <g id="Gruppe_7532" data-name="Gruppe 7532" transform="translate(0 0)">
    <path id="Pfad_11794" data-name="Pfad 11794" d="M52.171,16.811a.828.828,0,1,0,0-1.656H47.037V11.594h5.134A.83.83,0,0,0,53,10.766a.782.782,0,0,0-.828-.828H47.037V9.606A3.8,3.8,0,0,0,43.228,5.8H42.9V.828A.83.83,0,0,0,42.068,0a.782.782,0,0,0-.828.828V5.962H37.6V.828A.83.83,0,0,0,36.768,0a.782.782,0,0,0-.828.828V5.962H32.3V.828a.828.828,0,1,0-1.656,0V5.962H27.328V.828A.83.83,0,0,0,26.5,0a.782.782,0,0,0-.828.828V5.962H22.028V.828a.828.828,0,1,0-1.656,0V5.962H16.728V.828a.828.828,0,1,0-1.656,0V5.962H11.594V.828a.828.828,0,0,0-1.656,0V5.962H9.606A3.8,3.8,0,0,0,5.8,9.772V10.1H.828A.83.83,0,0,0,0,10.931a.782.782,0,0,0,.828.828H5.962V15.4H.828a.828.828,0,1,0,0,1.656H5.962V20.7H.828a.828.828,0,1,0,0,1.656H5.962v3.312H.828a.828.828,0,0,0,0,1.656H5.962v3.644H.828a.828.828,0,1,0,0,1.656H5.962v3.644H.828a.828.828,0,1,0,0,1.656H5.962v3.478H.828a.828.828,0,1,0,0,1.656H5.962v.331A3.8,3.8,0,0,0,9.772,47.2H10.1v4.969a.828.828,0,0,0,1.656,0V47.037H15.4v5.134a.828.828,0,1,0,1.656,0V47.037H20.7v5.134a.828.828,0,0,0,1.656,0V47.037h3.312v5.134A.83.83,0,0,0,26.5,53a.782.782,0,0,0,.828-.828V47.037h3.644v5.134a.828.828,0,0,0,1.656,0V47.037h3.644v5.134A.83.83,0,0,0,37.1,53a.782.782,0,0,0,.828-.828V47.037h3.478v5.134a.83.83,0,0,0,.828.828.782.782,0,0,0,.828-.828V47.037h.331A3.853,3.853,0,0,0,47.2,43.228V42.9h4.969a.828.828,0,1,0,0-1.656H47.037V37.6h5.134a.828.828,0,0,0,0-1.656H47.037V32.3h5.134a.828.828,0,1,0,0-1.656H47.037V27.328h5.134a.828.828,0,0,0,0-1.656H47.037V22.028h5.134a.828.828,0,0,0,0-1.656H47.037V16.728h5.134ZM25.92,38.425a2.466,2.466,0,0,1-4.886.5,2.446,2.446,0,0,1-1.077.166,2.969,2.969,0,0,1-2.981-2.981,3.994,3.994,0,0,1-4.058-3.975,4.513,4.513,0,0,1,.414-1.822,4.712,4.712,0,0,1-1.9-3.892,4.946,4.946,0,0,1,1.9-3.892,3.472,3.472,0,0,1-.414-1.822,4.048,4.048,0,0,1,4.058-3.975,3.111,3.111,0,0,1,3.064-3.064,4.847,4.847,0,0,1,1.077.166,2.278,2.278,0,0,1,.662-1.242,2.383,2.383,0,0,1,1.739-.745A2.44,2.44,0,0,1,26,14.326v24.1Zm13.83-8.033a3.472,3.472,0,0,1,.414,1.822,4.048,4.048,0,0,1-4.058,3.975,2.969,2.969,0,0,1-2.981,2.981A4.846,4.846,0,0,1,32.048,39a2.561,2.561,0,0,1-2.4,1.987,2.44,2.44,0,0,1-2.484-2.484V14.575a2.44,2.44,0,0,1,2.484-2.484,2.383,2.383,0,0,1,1.739.745,2.278,2.278,0,0,1,.662,1.242,2.446,2.446,0,0,1,1.077-.166,2.988,2.988,0,0,1,2.981,3.064,3.994,3.994,0,0,1,4.058,3.975,4.513,4.513,0,0,1-.414,1.822,4.712,4.712,0,0,1,1.9,3.892,4.627,4.627,0,0,1-1.9,3.727Z" transform="translate(0 0)" fill="#6a6a6a"/>
    <path id="Pfad_11795" data-name="Pfad 11795" d="M44.651,26.469l-.083-.083-.083.083a4.2,4.2,0,0,1-1.325.745c-.083,0-.166.083-.248.083a.623.623,0,0,1-.58-.414.582.582,0,0,1,.331-.828,4.538,4.538,0,0,0,1.325-.828h.083v-.083a2.186,2.186,0,0,0,.58-1.573A2.532,2.532,0,0,0,42,21.086a2.45,2.45,0,0,0-.828.166h-.248a.716.716,0,0,1-.5-.248.616.616,0,0,1-.083-.745,2.418,2.418,0,0,0,.166-.745,1.572,1.572,0,0,0-1.573-1.573,1.729,1.729,0,0,0-1.325.662.59.59,0,0,1-.5.248H36.95a.623.623,0,0,1-.414-.58v-.994a.9.9,0,0,0-.331-.745,1.233,1.233,0,0,0-.745-.331,1.1,1.1,0,0,0-1.077,1.077v2.484h.083a3.29,3.29,0,0,1,1.9,1.408.686.686,0,0,1-.248.911.5.5,0,0,1-.331.083.625.625,0,0,1-.58-.331,1.7,1.7,0,0,0-.662-.662L34.3,21v4.886h.166a4.328,4.328,0,0,1,3.064,2.236,1.05,1.05,0,0,1,.083.5.827.827,0,0,1-.331.414c-.083.248-.166.248-.248.248a.838.838,0,0,1-.58-.331,3.118,3.118,0,0,0-1.822-1.573l-.166-.083v6.956l.248-.166a2.969,2.969,0,0,1,1.739-.662h.166a.669.669,0,0,1,.58.745.64.64,0,0,1-.662.58v.166l-.083-.166c-.662,0-1.573.828-1.987,1.408v5.134a1.077,1.077,0,0,0,2.153,0V40.3a.623.623,0,0,1,.414-.58H37.2a.5.5,0,0,1,.5.248,1.609,1.609,0,0,0,1.325.662,1.629,1.629,0,0,0,1.573-1.573,1.56,1.56,0,0,0-.166-.662.8.8,0,0,1,.083-.745.59.59,0,0,1,.5-.248h.248a2.942,2.942,0,0,0,.828.166,2.466,2.466,0,0,0,1.987-4.141l-.083-.083a6.259,6.259,0,0,0-1.739-1.573.649.649,0,0,1-.083-.911.59.59,0,0,1,.5-.248c.166,0,.248.083.414.166a8.962,8.962,0,0,1,1.573,1.408l.083.083.083-.083a3.549,3.549,0,0,0,1.408-2.65,3.993,3.993,0,0,0-1.573-3.064Zm-5.217,9.523c-.083,0-.166.083-.248.083a.623.623,0,0,1-.58-.414.528.528,0,0,1,0-.5.647.647,0,0,1,.331-.331c.745-.331.828-1.573.828-2.07a.662.662,0,0,1,1.325,0S41.173,35.247,39.434,35.992Zm1.656-9.855a.827.827,0,0,1-.414.331h-.166a.6.6,0,0,1-.58-.5c-.414-1.325-2.4-1.325-2.484-1.325a.653.653,0,0,1-.662-.662.566.566,0,0,1,.58-.58c.331,0,3.147.083,3.727,2.236A.528.528,0,0,1,41.091,26.137Z" transform="translate(-5.896 -2.784)" fill="#6a6a6a"/>
    <path id="Pfad_11796" data-name="Pfad 11796" d="M26.1,16.4a.9.9,0,0,0-.745.331,1.05,1.05,0,0,0-.331.745v.994a.623.623,0,0,1-.414.58h-.166a.5.5,0,0,1-.5-.248,1.609,1.609,0,0,0-1.325-.662,1.629,1.629,0,0,0-1.573,1.573,1.56,1.56,0,0,0,.166.662.8.8,0,0,1-.083.745.59.59,0,0,1-.5.248h-.166a2.942,2.942,0,0,0-.828-.166,2.64,2.64,0,0,0-2.65,2.484,2.63,2.63,0,0,0,.662,1.656,5.169,5.169,0,0,0,1.325.828.6.6,0,0,1,.331.828.623.623,0,0,1-.58.414.3.3,0,0,1-.248-.083c-.5-.248-.911-.5-1.325-.745l-.083-.083-.083.083A3.423,3.423,0,0,0,15.5,29.319a3.087,3.087,0,0,0,1.408,2.65l.083.083.083-.083c.414-.414.994-.911,1.573-1.408a.633.633,0,0,1,.414-.166.59.59,0,0,1,.5.248.656.656,0,0,1-.083.911,6.522,6.522,0,0,0-1.739,1.656.081.081,0,0,1-.083.083,2.186,2.186,0,0,0-.58,1.573,2.532,2.532,0,0,0,2.65,2.484,2.45,2.45,0,0,0,.828-.166H20.8a.716.716,0,0,1,.5.248.616.616,0,0,1,.083.745,2.418,2.418,0,0,0-.166.745A1.629,1.629,0,0,0,22.787,40.5a1.729,1.729,0,0,0,1.325-.662.59.59,0,0,1,.5-.248h.166a.623.623,0,0,1,.414.58v.994a1.077,1.077,0,0,0,2.153,0V36.026c-.414-.5-1.325-1.408-1.987-1.408h-.166a.7.7,0,0,1-.662-.58.8.8,0,0,1,.58-.745h.166a3.046,3.046,0,0,1,1.739.662l.248.166V27.166l-.166.083a3.118,3.118,0,0,0-1.822,1.573.817.817,0,0,1-.745.5.5.5,0,0,1-.331-.083.666.666,0,0,1-.248-.911,4.328,4.328,0,0,1,3.064-2.236h.166V21.2l-.248.166a2.52,2.52,0,0,0-.662.662.7.7,0,0,1-.58.331.5.5,0,0,1-.331-.083.666.666,0,0,1-.248-.911,3.29,3.29,0,0,1,1.9-1.408h.083V17.477A.94.94,0,0,0,26.1,16.4ZM22.953,35.7a.623.623,0,0,1-.58.414.3.3,0,0,1-.248-.083c-1.739-.745-1.573-3.23-1.573-3.312a.622.622,0,0,1,.58-.58v-.166l.083.166a.587.587,0,0,1,.58.662v.083c0,.166,0,1.656.828,1.987a.647.647,0,0,1,.331.331A.528.528,0,0,1,22.953,35.7Zm1.159-11.014a3.6,3.6,0,0,0-1.077.166,2.059,2.059,0,0,0-1.408,1.159.71.71,0,0,1-.58.5h-.166a.827.827,0,0,1-.414-.331,1.05,1.05,0,0,1-.083-.5c.58-1.987,2.981-2.236,3.727-2.236a.633.633,0,0,1,.414.166.7.7,0,0,1,.166.5c.083.331-.166.58-.58.58Z" transform="translate(-2.664 -2.819)" fill="#6a6a6a"/>
  </g>
</svg>
