<svg xmlns="http://www.w3.org/2000/svg" width="53.693" height="53.032" viewBox="0 0 53.693 53.032">
  <path id="digital-marketing" d="M31.97,37.631H15.827A2.83,2.83,0,0,0,13,40.455v8.21a2.83,2.83,0,0,0,2.824,2.824h8.224a.319.319,0,0,1,.211.075l4.778,3.929a.331.331,0,0,0,.542-.256V51.82a.332.332,0,0,1,.331-.331H31.97a2.83,2.83,0,0,0,2.824-2.824v-8.21a2.83,2.83,0,0,0-2.824-2.824Zm-7.8,10.7H17.043a.663.663,0,0,1,0-1.326H24.17a.663.663,0,1,1,0,1.326Zm6.585-3.107H17.043a.663.663,0,0,1,0-1.326H30.755a.663.663,0,1,1,0,1.326Zm0-3.107H17.043a.663.663,0,0,1,0-1.326H30.755a.663.663,0,1,1,0,1.326Zm24.292-3.266a1.1,1.1,0,0,0-.772,1.337l4.06,15.151a1.092,1.092,0,1,0,2.109-.565l-4.06-15.151a1.1,1.1,0,0,0-1.337-.772Zm-8.6,14.537-1.491-5.565c-1.387.41-2.8.725-4.2,1.1a2.907,2.907,0,0,0,1.5,5.613c1.4-.375,2.781-.809,4.187-1.147Zm-.23-5.974,1.526,5.7a16.012,16.012,0,0,1,8.792.629L53.515,42.471a16.013,16.013,0,0,1-7.3,4.941Zm13.073-2.078.218,0a.874.874,0,0,1,.846.655l.343,1.279a.874.874,0,0,1-.405.99l-.188.111ZM45.9,54.893c-.817.217-1.628.456-2.442.686L45.775,59.6A1.229,1.229,0,0,0,47.9,58.371L45.9,54.893ZM62.305,50.2a.66.66,0,0,1,.658-1.144l2.613,1.508a.66.66,0,0,1-.658,1.144Zm-.882-6.9a.661.661,0,0,1-1.145-.663l1.508-2.613a.661.661,0,1,1,1.145.663Zm1.869,3.267A.662.662,0,1,1,62.95,45.3l2.914-.781a.662.662,0,1,1,.342,1.279Zm-8.424-9.044V20.83A4.839,4.839,0,0,0,50.038,16H29a4.839,4.839,0,0,0-4.83,4.83V36.3h7.8a4.156,4.156,0,0,1,4.15,4.15v8.21a4.156,4.156,0,0,1-4.15,4.15H30.907v2.423a1.659,1.659,0,0,1-2.71,1.28L24.17,53.2v11A4.839,4.839,0,0,0,29,69.032H50.038a4.839,4.839,0,0,0,4.83-4.83V54.574a16.192,16.192,0,0,0-7.632-.01l1.816,3.145a2.555,2.555,0,0,1-4.425,2.555l-2.511-4.35a4.239,4.239,0,0,1-1.7-8.273c1.589-.426,3.2-.772,4.77-1.277a15.22,15.22,0,0,0,7.29-4.709l.615-.785-.091-.34a2.427,2.427,0,0,1,1.873-3ZM37.617,64.272h4.578a.663.663,0,1,1,0,1.326H37.617a.663.663,0,0,1,0-1.326Zm11.97-32.391a2.877,2.877,0,0,1-2.873,2.873H32.324a2.877,2.877,0,0,1-2.873-2.873V22.83a2.877,2.877,0,0,1,2.873-2.873H46.713a2.877,2.877,0,0,1,2.873,2.873v9.052Zm-2.873-10.6H32.324a1.551,1.551,0,0,0-1.547,1.547v9.052a1.551,1.551,0,0,0,1.547,1.547H46.713a1.551,1.551,0,0,0,1.547-1.547V22.83a1.551,1.551,0,0,0-1.547-1.547ZM42.732,28.6c-1.182.686-2.369,1.366-3.553,2.05a1.435,1.435,0,0,1-2.154-1.241V25.3a1.436,1.436,0,0,1,2.154-1.242l3.552,2.052a1.433,1.433,0,0,1,0,2.483Zm-.663-1.145a.112.112,0,0,0,0-.2q-1.776-1.025-3.553-2.05a.109.109,0,0,0-.166.1v4.1a.11.11,0,0,0,.166.1l3.552-2.052Z" transform="translate(-13.004 -16)" fill="#6a6a6a" fill-rule="evenodd"/>
</svg>
