<svg xmlns="http://www.w3.org/2000/svg" width="52.17" height="53.032" viewBox="0 0 52.17 53.032">
  <g id="nft" transform="translate(-3.004 -2.229)">
    <path id="path3439" d="M41.99,94.088l.119.229a3.349,3.349,0,0,0,4.516,1.439l2.995-1.544-.138-.124Z" transform="translate(-17.347 -40.872)" fill="#6a6a6a"/>
    <path id="path3441" d="M58.617,94.207a3.358,3.358,0,0,0,4.6-.118H58.486Z" transform="translate(-24.687 -40.873)" fill="#6a6a6a"/>
    <path id="path3443" d="M51.622,4.272l-.12-.231A3.359,3.359,0,0,0,46.984,2.6L44.124,4.08l.214.191Z" transform="translate(-18.297 0)" fill="#6a6a6a"/>
    <path id="path3445" d="M10.254,20.265a3.347,3.347,0,0,0-1.444,4.51L15.2,37.152V17.706Z" transform="translate(-2.417 -6.887)" fill="#6a6a6a"/>
    <path id="path3447" d="M37.6,5.018a3.352,3.352,0,0,0-4.6.114h4.727Z" transform="translate(-13.345 -0.86)" fill="#6a6a6a"/>
    <path id="path3449" d="M3.854,35.763A3.362,3.362,0,0,0,4.117,40.5l8.67,7.765V46.546l-6.8-13.164Z" transform="translate(0 -13.862)" fill="#6a6a6a"/>
    <path id="path3451" d="M50.157,34.524l-6.691-3.863a3.259,3.259,0,0,0-3.252,0l-6.69,3.862A3.261,3.261,0,0,0,31.9,37.34v7.724a3.261,3.261,0,0,0,1.626,2.816l6.69,3.863a3.261,3.261,0,0,0,3.252,0l6.69-3.862a3.261,3.261,0,0,0,1.626-2.816V37.341A3.259,3.259,0,0,0,50.157,34.524Zm-11.34,8.888a.555.555,0,0,1-.4.532.555.555,0,0,1-.623-.228l-1.874-2.862v2.558a.555.555,0,0,1-1.11,0V38.992a.555.555,0,0,1,1.02-.3l1.874,2.862V38.993a.555.555,0,1,1,1.11,0Zm4.235-2.765a.555.555,0,0,1,0,1.11H41.395v1.655a.555.555,0,0,1-1.11,0V38.992a.555.555,0,0,1,.555-.555h2.212a.555.555,0,0,1,0,1.11H41.395v1.1Zm5.262-1.1H47.3v3.864a.555.555,0,0,1-1.11,0V39.547H45.172a.555.555,0,0,1,0-1.11h3.142a.555.555,0,0,1,0,1.11Z" transform="translate(-12.857 -12.458)" fill="#6a6a6a"/>
    <path id="path3453" d="M87.875,47.428l-8.881-7.953v1.9l.577,1.116,6.3,12.19,2.262-2.528a3.352,3.352,0,0,0-.256-4.729Z" transform="translate(-33.812 -16.573)" fill="#6a6a6a"/>
    <path id="path3455" d="M49.453,7.911H25.98a3.355,3.355,0,0,0-3.351,3.351v1.169s0,0,0,0V35.078s0,0,0,0v16.2a3.355,3.355,0,0,0,3.351,3.351h6.461l.019,0H48.512l.017,0h.924A3.355,3.355,0,0,0,52.8,51.282v-1.15c0-.007,0-.014,0-.021V24.186c0-.007,0-.012,0-.018V11.263A3.355,3.355,0,0,0,49.453,7.911ZM48.214,49.035H27.22a.555.555,0,1,1,0-1.11H48.214a.555.555,0,0,1,0,1.11Zm.555-13.9a4.375,4.375,0,0,1-2.181,3.778L39.9,42.774a4.376,4.376,0,0,1-4.362,0l-6.69-3.863a4.374,4.374,0,0,1-2.181-3.778V27.411a4.375,4.375,0,0,1,2.181-3.778l6.69-3.862a4.377,4.377,0,0,1,4.362,0l6.691,3.863a4.374,4.374,0,0,1,2.181,3.778v7.724ZM48.214,14.62H27.22a.555.555,0,0,1,0-1.11H48.214a.555.555,0,0,1,0,1.11Z" transform="translate(-8.732 -2.528)" fill="#6a6a6a"/>
    <path id="path3457" d="M79.009,47.291l-.015-.029V66.708l4.953-2.558a3.356,3.356,0,0,0,1.438-4.516Z" transform="translate(-33.812 -20.037)" fill="#6a6a6a"/>
  </g>
</svg>
