<svg xmlns="http://www.w3.org/2000/svg" width="52.08" height="53" viewBox="0 0 52.08 53">
  <g id="handshake" transform="translate(-3.234 -8.125)">
    <g id="Gruppe_7537" data-name="Gruppe 7537" transform="translate(12.08 18.717)">
      <g id="Gruppe_7536" data-name="Gruppe 7536" transform="translate(0 0)">
        <g id="Gruppe_7535" data-name="Gruppe 7535">
          <g id="Gruppe_7534" data-name="Gruppe 7534">
            <g id="Gruppe_7533" data-name="Gruppe 7533">
              <path id="Pfad_11797" data-name="Pfad 11797" d="M42.51,45.034a1.97,1.97,0,0,1-3.2-.087,3.632,3.632,0,0,1-.3,4.11,2,2,0,0,1-3.235-.1,3.6,3.6,0,0,1-.28,4.125,1.969,1.969,0,0,1-3.145-.014A3.662,3.662,0,0,1,32,57.119a2.054,2.054,0,0,1-3.358-.245L27.02,54.523l.5-.548a4.2,4.2,0,0,0,.313-4.889A2.521,2.521,0,0,0,26,47.86a1.487,1.487,0,0,0-.358,0,4.231,4.231,0,0,0,.056-.649,4.057,4.057,0,0,0-.638-2.336,2.585,2.585,0,0,0-1.836-1.226,1.487,1.487,0,0,0-.358,0A3.2,3.2,0,0,0,22.935,43a4.118,4.118,0,0,0-.649-2.351,2.391,2.391,0,0,0-2.183-1.2,4.23,4.23,0,0,0,.056-.649,4.05,4.05,0,0,0-.638-2.351,2.313,2.313,0,0,0-3.805-.4l-.425.461-4.152-7.528,9.357-13.513,5.16,3.072a2.181,2.181,0,0,0-.28.317l-3.951,5.076a2.6,2.6,0,0,0-.1,2.87c1.589,2.423,4.365,3,6.458,1.341l2.093-1.658a1.551,1.551,0,0,1,2.328.433l10.51,13.816A3.732,3.732,0,0,1,42.51,45.034Z" transform="translate(-11.138 -15.469)" fill="#6a6a6a"/>
            </g>
          </g>
        </g>
      </g>
    </g>
    <g id="Gruppe_7554" data-name="Gruppe 7554" transform="translate(15.819 39.916)">
      <g id="Gruppe_7541" data-name="Gruppe 7541">
        <g id="Gruppe_7540" data-name="Gruppe 7540">
          <g id="Gruppe_7539" data-name="Gruppe 7539">
            <g id="Gruppe_7538" data-name="Gruppe 7538">
              <path id="Pfad_11798" data-name="Pfad 11798" d="M18.641,32.26a2.231,2.231,0,0,1-.56,1.5l-.705.764-.291.317a1.362,1.362,0,0,1-1.153.49,1.558,1.558,0,0,1-1.074-.721,2.425,2.425,0,0,1,.19-2.87l.492-.548.5-.548a1.39,1.39,0,0,1,1.018-.476,1.484,1.484,0,0,1,1.209.707A2.509,2.509,0,0,1,18.641,32.26Z" transform="translate(-14.478 -30.169)" fill="#6a6a6a"/>
            </g>
          </g>
        </g>
      </g>
      <g id="Gruppe_7545" data-name="Gruppe 7545" transform="translate(2.778 4.211)">
        <g id="Gruppe_7544" data-name="Gruppe 7544">
          <g id="Gruppe_7543" data-name="Gruppe 7543">
            <g id="Gruppe_7542" data-name="Gruppe 7542">
              <path id="Pfad_11799" data-name="Pfad 11799" d="M21.121,35.123v.058a2.317,2.317,0,0,1-.56,1.5l-.672.721-.325.361a1.347,1.347,0,0,1-1.153.476,1.433,1.433,0,0,1-1.074-.721,2.462,2.462,0,0,1,.179-2.87l.269-.288.727-.793a1.413,1.413,0,0,1,1.03-.476,1.432,1.432,0,0,1,1.2.707A2.414,2.414,0,0,1,21.121,35.123Z" transform="translate(-16.96 -33.089)" fill="#6a6a6a"/>
            </g>
          </g>
        </g>
      </g>
      <g id="Gruppe_7549" data-name="Gruppe 7549" transform="translate(5.548 8.408)">
        <g id="Gruppe_7548" data-name="Gruppe 7548">
          <g id="Gruppe_7547" data-name="Gruppe 7547">
            <g id="Gruppe_7546" data-name="Gruppe 7546">
              <path id="Pfad_11800" data-name="Pfad 11800" d="M23.591,38.033v.058a2.339,2.339,0,0,1-.548,1.5l-.6.649-.4.433a1.348,1.348,0,0,1-1.153.49,1.513,1.513,0,0,1-1.074-.721,2.48,2.48,0,0,1,.179-2.87l.358-.375.649-.707A1.389,1.389,0,0,1,22.013,36c.045,0,.09.014.134.014a1.514,1.514,0,0,1,1.074.721A2.367,2.367,0,0,1,23.591,38.033Z" transform="translate(-19.435 -35.999)" fill="#6a6a6a"/>
            </g>
          </g>
        </g>
      </g>
      <g id="Gruppe_7553" data-name="Gruppe 7553" transform="translate(8.319 12.619)">
        <g id="Gruppe_7552" data-name="Gruppe 7552">
          <g id="Gruppe_7551" data-name="Gruppe 7551">
            <g id="Gruppe_7550" data-name="Gruppe 7550">
              <path id="Pfad_11801" data-name="Pfad 11801" d="M26.071,41.01a2.317,2.317,0,0,1-.56,1.5L25,43.073l-.481.519a1.347,1.347,0,0,1-1.153.476,1.453,1.453,0,0,1-1.074-.707,2.458,2.458,0,0,1,.179-2.87l.425-.462.571-.62a1.389,1.389,0,0,1,1.018-.49h.134a1.532,1.532,0,0,1,1.086.736A2.349,2.349,0,0,1,26.071,41.01Z" transform="translate(-21.911 -38.919)" fill="#6a6a6a"/>
            </g>
          </g>
        </g>
      </g>
    </g>
    <g id="Gruppe_7558" data-name="Gruppe 7558" transform="translate(23.001 18.212)">
      <g id="Gruppe_7557" data-name="Gruppe 7557">
        <g id="Gruppe_7556" data-name="Gruppe 7556">
          <g id="Gruppe_7555" data-name="Gruppe 7555">
            <path id="Pfad_11802" data-name="Pfad 11802" d="M45.5,29.036l-5.126,9.042L33.546,28.56l-1.668-2.437a2.972,2.972,0,0,0-1.556-1.182,2.413,2.413,0,0,0-2.2.461l-2.082,1.673a3.337,3.337,0,0,1-5.014-1.038.817.817,0,0,1,.034-.923l3.94-5.091a4.236,4.236,0,0,1,.627-.649,3.816,3.816,0,0,1,.963-.62l8.1-3.634Z" transform="translate(-20.895 -15.119)" fill="#6a6a6a"/>
          </g>
        </g>
      </g>
    </g>
    <g id="Gruppe_7565" data-name="Gruppe 7565" transform="translate(36.428 8.125)">
      <g id="Gruppe_7561" data-name="Gruppe 7561" transform="translate(12.204 16.942)">
        <g id="Gruppe_7560" data-name="Gruppe 7560">
          <g id="Gruppe_7559" data-name="Gruppe 7559">
            <path id="Pfad_11803" data-name="Pfad 11803" d="M44.588,19.872a1.055,1.055,0,1,0,.794,1.022A.931.931,0,0,0,44.588,19.872Z" transform="translate(-43.796 -19.872)" fill="#6a6a6a"/>
          </g>
        </g>
      </g>
      <g id="Gruppe_7564" data-name="Gruppe 7564">
        <g id="Gruppe_7563" data-name="Gruppe 7563">
          <g id="Gruppe_7562" data-name="Gruppe 7562">
            <path id="Pfad_11804" data-name="Pfad 11804" d="M51.171,23.092,40.162,8.907a1.764,1.764,0,0,0-2.931,0L33.5,13.717a3.241,3.241,0,0,0,0,3.777L44.507,31.679a1.764,1.764,0,0,0,2.931,0l3.733-4.81A3.241,3.241,0,0,0,51.171,23.092Zm-5.283,5.46a2.244,2.244,0,0,1-1.912-2.463,2.245,2.245,0,0,1,1.912-2.465A2.244,2.244,0,0,1,47.8,26.089,2.244,2.244,0,0,1,45.888,28.552Z" transform="translate(-32.891 -8.125)" fill="#6a6a6a"/>
          </g>
        </g>
      </g>
    </g>
    <g id="Gruppe_7572" data-name="Gruppe 7572" transform="translate(3.234 8.182)">
      <g id="Gruppe_7568" data-name="Gruppe 7568" transform="translate(5.331 17.865)">
        <g id="Gruppe_7567" data-name="Gruppe 7567">
          <g id="Gruppe_7566" data-name="Gruppe 7566">
            <path id="Pfad_11805" data-name="Pfad 11805" d="M8.79,20.552a1.054,1.054,0,0,0,0,2.042,1.054,1.054,0,0,0,0-2.042Z" transform="translate(-7.997 -20.552)" fill="#6a6a6a"/>
          </g>
        </g>
      </g>
      <g id="Gruppe_7571" data-name="Gruppe 7571" transform="translate(0 0)">
        <g id="Gruppe_7570" data-name="Gruppe 7570">
          <g id="Gruppe_7569" data-name="Gruppe 7569">
            <path id="Pfad_11806" data-name="Pfad 11806" d="M21.576,14.062,16.942,8.733a1.481,1.481,0,0,0-2.452.179L3.675,24.524a2.711,2.711,0,0,0,.139,3.16l4.634,5.329a1.481,1.481,0,0,0,2.452-.179L21.715,17.222A2.711,2.711,0,0,0,21.576,14.062ZM9.358,29.513A2.244,2.244,0,0,1,7.445,27.05a2.244,2.244,0,0,1,1.913-2.463A2.244,2.244,0,0,1,11.27,27.05,2.244,2.244,0,0,1,9.358,29.513Z" transform="translate(-3.234 -8.165)" fill="#6a6a6a"/>
          </g>
        </g>
      </g>
    </g>
  </g>
</svg>
