<svg fill="none" height="60" viewBox="0 0 60 60" width="60" xmlns="http://www.w3.org/2000/svg" xmlns:xlink="http://www.w3.org/1999/xlink"><linearGradient id="a" gradientUnits="userSpaceOnUse" x1="50.2941" x2=".557081" y1="58" y2="4.23192"><stop offset="0" stop-color="#4190ff"/><stop offset="1" stop-color="#00c2ff"/></linearGradient><path d="m51.2306 27.5363 3.1428 1.8807c.6023.3657.8119 1.1493.4452 1.7762-.131.1829-.2881.3135-.4714.4441l-24.3307 14.5494-24.31751-14.5755-.02619-.0262c-.62857-.3918-.83809-1.1754-.47143-1.8023.10476-.209.2619-.3396.44524-.4702l3.14281-1.9068 21.16168 12.6687 21.1616-12.6687zm0 12.2769 3.1428 1.8807c.6023.3657.8119 1.1493.4452 1.7762-.131.1829-.2881.3135-.4714.4441l-22.9688 13.7397v-.0261c-.8381.4963-1.8857.4963-2.6976 0l-22.97658-13.7658-.02619-.0262c-.62856-.3918-.83808-1.1754-.47142-1.8023.10476-.209.2619-.3396.44523-.4702l3.14282-1.9068 21.16164 12.6687 21.1616-12.6687zm-19.8338-36.30835 22.9687 13.73975c.6024.3656.8119 1.1493.4452 1.7762-.1309.1828-.288.3134-.4714.444l-24.3306 14.5495-24.33067-14.5756-.02619-.0261c-.62856-.3918-.83808-1.1754-.47142-1.8024.10476-.2089.2619-.3395.44523-.4701l22.96875-13.74496h-.0262c.8119-.52242 1.8595-.52242 2.6976-.02612z" fill="url(#a)"/></svg>