<svg fill="none" height="60" viewBox="0 0 60 60" width="60" xmlns="http://www.w3.org/2000/svg" xmlns:xlink="http://www.w3.org/1999/xlink"><linearGradient id="a" gradientUnits="userSpaceOnUse" x1="10.8621" x2="58.9281" y1="4.48" y2="41.4679"><stop offset="0" stop-color="#f3c555"/><stop offset="1" stop-color="#ffa800"/></linearGradient><path d="m29.5782 1.18424 21.3896 4.79012c1.1724.26319 2.0322 1.31597 2.0322 2.55298v26.28516-.0263c0 5.2639-2.6314 10.1856-6.9823 13.1333l-16.4916 11.0805-16.4917-11.1068-.0261-.0263c-4.35087-2.9478-6.98225-7.8695-6.98225-13.1597v-26.31146h-.02605c0-1.23701.8337-2.3161 2.03215-2.5793l21.38965-4.81644zm0 15.79166h-.0261c-2.8919 0-5.2106 2.3424-5.2106 5.2638 0 1.8687.99 3.6058 2.5792 4.5533v11.212h5.2107v-11.2383-.0264c2.475-1.4738 3.3348-4.6848 1.9019-7.2115-.938-1.6318-2.6575-2.6582-4.5333-2.6319z" fill="url(#a)"/></svg>