<svg xmlns="http://www.w3.org/2000/svg" xmlns:xlink="http://www.w3.org/1999/xlink" width="463" height="463" viewBox="0 0 463 463">
  <defs>
    <clipPath id="clip-path">
      <rect id="Rechteck_2964" data-name="Rechteck 2964" width="191.973" height="79.704" transform="translate(0)" fill="#fff"/>
    </clipPath>
  </defs>
  <g id="Gruppe_7582" data-name="Gruppe 7582" transform="translate(-3275 -2825)">
    <g id="Gruppe_7498" data-name="Gruppe 7498" transform="translate(3275 2825)">
      <circle id="Ellipse_3" data-name="Ellipse 3" cx="231.5" cy="231.5" r="231.5" transform="translate(0 0)" fill="#2ab0c1" opacity="0.401"/>
      <circle id="Ellipse_2" data-name="Ellipse 2" cx="213" cy="213" r="213" transform="translate(18 19)" fill="#6decfc" opacity="0.471"/>
      <circle id="Ellipse_1" data-name="Ellipse 1" cx="195.5" cy="195.5" r="195.5" transform="translate(36 36)" fill="#6eecfc" opacity="0.998"/>
    </g>
    <g id="_baseasset_img_media-kit_logo-black-v3" transform="translate(3410.513 3089.387)" clip-path="url(#clip-path)">
      <path id="Pfad_11776" data-name="Pfad 11776" d="M171.36,52.056a14.291,14.291,0,0,0,4.74-4.192,10.952,10.952,0,0,0,1.992-6.4,12,12,0,0,0-4.908-10.254c-3.217-2.358-7.643-3.552-13.159-3.552H140.078V78.844h20.744c5.809,0,10.461-1.351,13.824-4.017a13.55,13.55,0,0,0,5.111-11.192,11.55,11.55,0,0,0-2.4-7.376,13.969,13.969,0,0,0-5.994-4.2ZM150.873,36.881h8.285c2.6,0,4.56.5,5.835,1.494a4.675,4.675,0,0,1,1.871,3.928,4.809,4.809,0,0,1-1.871,4c-1.274.991-3.236,1.494-5.835,1.494h-8.285Zm15.6,31c-1.436,1.151-3.629,1.733-6.517,1.733h-9.081V57.089h9.081c2.886,0,5.082.563,6.523,1.669a5.281,5.281,0,0,1,2.124,4.455,5.614,5.614,0,0,1-2.131,4.671Z" transform="translate(-140.078 -13.38)" fill="#0d0e0e"/>
      <path id="Pfad_11777" data-name="Pfad 11777" d="M235.019,52.668H224.152V90.944h10.867Z" transform="translate(-180.756 -25.483)" fill="#0d0e0e"/>
      <path id="Pfad_11778" data-name="Pfad 11778" d="M420.85,57.764a17.532,17.532,0,0,0-6.407-4.772,20.779,20.779,0,0,0-8.451-1.688,20.045,20.045,0,0,0-10.115,2.544,18.425,18.425,0,0,0-6.956,7,20.357,20.357,0,0,0-2.514,10.162,22.087,22.087,0,0,0,2.438,10.434,17.259,17.259,0,0,0,6.928,7.005,21.21,21.21,0,0,0,10.366,2.469,19.97,19.97,0,0,0,12.109-3.587,17.538,17.538,0,0,0,6.431-9.569h-10.94a7.606,7.606,0,0,1-2.547,3.375,8.929,8.929,0,0,1-5.27,1.468,7.564,7.564,0,0,1-7.586-5.213,14.875,14.875,0,0,1-.818-3.453h27.352l.054-.34a20.558,20.558,0,0,0-.371-8.693A18.693,18.693,0,0,0,420.85,57.764Zm-23.161,9.083a15.629,15.629,0,0,1,.679-2.329,8.427,8.427,0,0,1,2.864-3.921,7.619,7.619,0,0,1,4.545-1.328,7.3,7.3,0,0,1,5.465,2.156,8.484,8.484,0,0,1,2.219,5.422H397.689Z" transform="translate(-259.26 -24.823)" fill="#0d0e0e"/>
      <path id="Pfad_11779" data-name="Pfad 11779" d="M235.024,27.652H223.7v9.226h11.321Z" transform="translate(-180.539 -13.379)" fill="#0d0e0e"/>
      <path id="Pfad_11780" data-name="Pfad 11780" d="M334.532,56.35a13.547,13.547,0,0,0-4.491-3.568,16.086,16.086,0,0,0-7.053-1.478,15.892,15.892,0,0,0-8.649,2.378,16.25,16.25,0,0,0-5.862,6.616,21.813,21.813,0,0,0-2.106,9.8,20.211,20.211,0,0,0,2.218,9.621,17.208,17.208,0,0,0,6.077,6.715,15.944,15.944,0,0,0,8.686,2.45,13.758,13.758,0,0,0,6.559-1.557,11.71,11.71,0,0,0,3.826-3.221v4.168a7.972,7.972,0,0,1-2.015,5.887c-1.339,1.321-3.376,1.988-6.055,1.988a8.373,8.373,0,0,1-5.393-1.556,5.618,5.618,0,0,1-2.158-4.3H307.64a12.825,12.825,0,0,0,2.425,7.444,14.825,14.825,0,0,0,6.4,5.05,23.342,23.342,0,0,0,9.28,1.75c5.818,0,10.45-1.462,13.764-4.343,3.334-2.9,5.025-6.954,5.025-12.055V52.007h-10Zm-1.913,18.829a7.849,7.849,0,0,1-2.895,3.31,8.185,8.185,0,0,1-4.419,1.165,7.254,7.254,0,0,1-5.85-2.561,10.43,10.43,0,0,1-2.218-7,10.443,10.443,0,0,1,2.218-7,7.351,7.351,0,0,1,5.85-2.561,7.819,7.819,0,0,1,6.068,2.6,10.362,10.362,0,0,1,2.29,7.031,11.461,11.461,0,0,1-1.045,5.017Z" transform="translate(-220.536 -24.823)" fill="#0d0e0e"/>
      <path id="Pfad_11781" data-name="Pfad 11781" d="M488.251,49.719V40.565h-7.844V27.652H469.613V40.565h-6.7v9.154h6.7V64.7c0,8.331,1.641,14.453,11.87,14.264l6.421-.126V70.258h-3.186c-4.546,0-4.293-2.651-4.293-7.573l-.018-12.966h7.845Z" transform="translate(-296.277 -13.379)" fill="#0d0e0e"/>
      <path id="Pfad_11782" data-name="Pfad 11782" d="M277.506,49.719V40.565h-7.844V27.652H258.867V40.565h-6.7v9.154h6.7V64.7c0,8.331,1.641,14.453,11.87,14.264l6.421-.126V70.258h-3.186c-4.546,0-4.293-2.651-4.293-7.573l-.018-12.966h7.845Z" transform="translate(-194.311 -13.379)" fill="#0d0e0e"/>
    </g>
    <path id="Pfad_11783" data-name="Pfad 11783" d="M53.653,45.528H88.891l36.049,35.818a5.979,5.979,0,0,1,.023,8.462L78.733,136.27h-36.3L53.408,125.6,93.7,85.563,53.919,45.525" transform="translate(3445.605 2949.181)" fill="#0d0e0e"/>
    <path id="Pfad_11784" data-name="Pfad 11784" d="M73.052,90.748H37.814L1.766,54.93a5.979,5.979,0,0,1-.024-8.462L47.972,0h36.3L73.3,10.671,33,50.709,72.786,90.748" transform="translate(3440.689 2943.907)" fill="#0d0e0e"/>
  </g>
</svg>
