<svg xmlns="http://www.w3.org/2000/svg" width="463" height="463" viewBox="0 0 463 463">
  <g id="Gruppe_7581" data-name="Gruppe 7581" transform="translate(-6529 -1862)">
    <g id="Gruppe_6259" data-name="Gruppe 6259" transform="translate(1010)">
      <g id="Gruppe_6253" data-name="Gruppe 6253" transform="translate(4200 1760)">
        <g id="Gruppe_6239" data-name="Gruppe 6239" transform="translate(1307 83)">
          <circle id="Ellipse_3" data-name="Ellipse 3" cx="231.5" cy="231.5" r="231.5" transform="translate(12 19)" fill="#55a49f" opacity="0.548"/>
          <circle id="Ellipse_2" data-name="Ellipse 2" cx="213" cy="213" r="213" transform="translate(30 37)" fill="#55a49f" opacity="0.548"/>
          <circle id="Ellipse_1" data-name="Ellipse 1" cx="195.5" cy="195.5" r="195.5" transform="translate(48 55)" fill="#55a49f" opacity="0.998"/>
        </g>
      </g>
    </g>
    <g id="bitmart-seeklogo.com" transform="translate(6652.293 1963.509)">
      <path id="Pfad_992" data-name="Pfad 992" d="M189.277,126a78.346,78.346,0,0,0,16.885-48.712C206.161,33.807,170.93,0,127.464,0H31.9V9.835h93.445c38.414,0,69.557,29.745,69.557,68.159a69.279,69.279,0,0,1-13.693,41.458Z" transform="translate(-2.386)" fill="#fff"/>
      <path id="Pfad_993" data-name="Pfad 993" d="M180.663,119.565A56.919,56.919,0,0,0,140.047,22.78H59.24v9.844h82.907a46.373,46.373,0,0,1,29.875,81.862Z" transform="translate(-4.431 -1.704)" fill="#fff"/>
      <path id="Pfad_994" data-name="Pfad 994" d="M166.664,113.736c13.3-5.81,23.472-18.467,23.472-33.15,0-20.179-19.17-36.536-39.349-36.536H80.5v5.616h69.566c16.654,0,33.02,13.536,33.02,30.217,0,13.517-10.714,24.98-23.657,28.82Z" transform="translate(-6.021 -3.295)" fill="#fff"/>
      <path id="Pfad_995" data-name="Pfad 995" d="M1.52,270.37H16.98V280.2H1.52Z" transform="translate(-0.114 -20.224)" fill="#fff"/>
      <path id="Pfad_996" data-name="Pfad 996" d="M18.23,249.1H80.061v7.022H18.23Z" transform="translate(-1.364 -18.633)" fill="#fff"/>
      <path id="Pfad_997" data-name="Pfad 997" d="M18.23,202.02H84.28v5.625H18.23Z" transform="translate(-1.364 -15.111)" fill="#fff"/>
      <path id="Pfad_998" data-name="Pfad 998" d="M103.29,202.02h42.161v5.625H103.29Z" transform="translate(-7.726 -15.111)" fill="#fff"/>
      <path id="Pfad_999" data-name="Pfad 999" d="M31.9,180.75H54.382v5.625H31.9Z" transform="translate(-2.386 -13.52)" fill="#fff"/>
      <path id="Pfad_1000" data-name="Pfad 1000" d="M69.87,180.75h73.072v5.625H69.87Z" transform="translate(-5.226 -13.52)" fill="#fff"/>
      <path id="Pfad_1001" data-name="Pfad 1001" d="M95.69,85.06h47.777v5.625H95.69Z" transform="translate(-7.158 -6.362)" fill="#fff"/>
      <path id="Pfad_1002" data-name="Pfad 1002" d="M34.94,44.05h26.7v5.625H34.94Z" transform="translate(-2.614 -3.295)" fill="#fff"/>
      <path id="Pfad_1003" data-name="Pfad 1003" d="M42.53,66.83H140.9v5.625H42.53Z" transform="translate(-3.181 -4.999)" fill="#fff"/>
      <path id="Pfad_1004" data-name="Pfad 1004" d="M15.19,85.06H75.615v5.625H15.19Z" transform="translate(-1.136 -6.362)" fill="#fff"/>
      <path id="Pfad_1005" data-name="Pfad 1005" d="M33.42,257.034v9.835h106.8c43.484,0,78.7-33.825,78.7-77.291a78.7,78.7,0,0,0-78.7-78.7H71.362v8.438h66.753a69.564,69.564,0,0,1,69.557,69.557c0,38.433-31.142,68.169-69.557,68.169Z" transform="translate(-2.5 -8.294)" fill="#fff"/>
      <path id="Pfad_1006" data-name="Pfad 1006" d="M51.64,133.66V143.5H154.226a46.376,46.376,0,0,1,.009,92.751H93.8V247.5h58.288a56.918,56.918,0,0,0,0-113.837Z" transform="translate(-3.863 -9.998)" fill="#fff"/>
      <path id="Pfad_1007" data-name="Pfad 1007" d="M77.291,156.45v5.616h79.4c16.654,0,33.02,13.536,33.02,30.217,0,16.654-16.33,30.217-33.02,30.217H0v7.022H157.4c20.179,0,39.349-16.358,39.349-36.536S177.574,156.45,157.4,156.45Z" transform="translate(0 -11.702)" fill="#fff"/>
    </g>
  </g>
</svg>
