<svg xmlns="http://www.w3.org/2000/svg" width="463" height="463" viewBox="0 0 463 463">
  <g id="Gruppe_7501" data-name="Gruppe 7501" transform="translate(-5021 -3333)">
    <g id="Gruppe_7500" data-name="Gruppe 7500" transform="translate(712 759)">
      <g id="Gruppe_6254" data-name="Gruppe 6254" transform="translate(2990 2472)">
        <g id="Gruppe_6239" data-name="Gruppe 6239" transform="translate(1307 83)">
          <circle id="Ellipse_3" data-name="Ellipse 3" cx="231.5" cy="231.5" r="231.5" transform="translate(12 19)" opacity="0.548"/>
          <circle id="Ellipse_2" data-name="Ellipse 2" cx="213" cy="213" r="213" transform="translate(30 37)" opacity="0.548"/>
          <circle id="Ellipse_1" data-name="Ellipse 1" cx="195.5" cy="195.5" r="195.5" transform="translate(48 55)" opacity="0.998"/>
        </g>
      </g>
    </g>
    <g id="_38540428-b30a-494f-bb35-54e18468e4c5" data-name="38540428-b30a-494f-bb35-54e18468e4c5" transform="translate(5127.576 3444.576)">
      <path id="Pfad_3768" data-name="Pfad 3768" d="M240.86,54.237l.991,6a112.722,112.722,0,0,1,1.085,16.85A155.424,155.424,0,0,1,238.483,114a138.509,138.509,0,0,1-20.618,45.928c-11.111,15.977-27.173,31.717-50.584,44.325l-2.874,1.521-2.864-1.546C138.132,191.6,122.07,175.887,110.959,159.9A138.519,138.519,0,0,1,90.348,114a155.483,155.483,0,0,1-4.46-36.945,112.8,112.8,0,0,1,1.085-16.85l.991-6a3.767,3.767,0,0,0-7.434-1.224l-.991,6A119.825,119.825,0,0,0,78.35,77.059,162.98,162.98,0,0,0,83.043,115.8a146.038,146.038,0,0,0,21.736,48.388c11.725,16.879,28.744,33.471,53.19,46.654l4.649,2.508a3.752,3.752,0,0,0,3.568,0l4.649-2.508c24.452-13.177,41.465-29.769,53.191-46.649a146.027,146.027,0,0,0,21.736-48.388,162.982,162.982,0,0,0,4.693-38.749,120.167,120.167,0,0,0-1.184-18.074l-.991-6a3.767,3.767,0,1,0-7.434,1.229l.015.02Z" transform="translate(-39.476 -24.875)" fill="#fff" fill-rule="evenodd"/>
      <path id="Pfad_3769" data-name="Pfad 3769" d="M134.248,25.288,190.159,8.21,247.314,25.66a3.762,3.762,0,1,0,2.2-7.2L191.255.683a3.747,3.747,0,0,0-2.2,0l-56.992,17.4a3.762,3.762,0,0,0,2.2,7.2l-.015,0Z" transform="translate(-65.228)" fill="#fff" fill-rule="evenodd"/>
      <path id="Pfad_3770" data-name="Pfad 3770" d="M83.063,55.375l80.165,156.44a3.761,3.761,0,0,0,6.666.059l48.879-91.419.074-.144,31.286-65.02a3.761,3.761,0,1,0-6.78-3.261L212.1,116.951l-45.455,85.017L89.763,51.946a3.761,3.761,0,1,0-6.7,3.43h0Z" transform="translate(-41.647 -24.908)" fill="#fff" fill-rule="evenodd"/>
      <path id="Pfad_3771" data-name="Pfad 3771" d="M79.784,193.843h89.135a3.761,3.761,0,0,0,0-7.523H79.784a3.761,3.761,0,0,0,0,7.523M30.578,305.9H5.185a1.665,1.665,0,0,0-1.655,1.655v20.383A1.67,1.67,0,0,0,5.185,329.6H30.578v3.439H5.185A5.075,5.075,0,0,1,.09,327.942V307.558a5.075,5.075,0,0,1,5.095-5.095H30.578Zm47.69-3.439V305.9H53.811v10.1H73.47v3.469H53.811v10.1H78.268v3.439h-27.9V302.464Z" transform="translate(0 -93.722)" fill="#fff" fill-rule="evenodd"/>
      <path id="Pfad_3772" data-name="Pfad 3772" d="M228.312,425.855v8.96a5.075,5.075,0,0,1-5.095,5.095h-4.668l9.594,11.4H223.6l-9.555-11.4h-11.23a16.3,16.3,0,0,1-1.655-.168v11.552H197.72V420.76H223.2a5.075,5.075,0,0,1,5.095,5.095Zm-25.5,10.576H223.2a1.6,1.6,0,0,0,1.616-1.616v-8.96a1.636,1.636,0,0,0-.466-1.17,1.532,1.532,0,0,0-1.145-.5H202.815a1.665,1.665,0,0,0-1.655,1.655v8.96a1.526,1.526,0,0,0,.5,1.145,1.626,1.626,0,0,0,1.16.481Z" transform="translate(-99.689 -211.979)" fill="#fff"/>
      <path id="Pfad_3773" data-name="Pfad 3773" d="M296.3,420.68h30.577v3.439H313.333v27.133h-3.439V424.119H296.3Zm49.087,30.572V420.68h3.439v30.572Zm49.34-30.572h4.416l-12.8,15.274,12.826,15.289h-4.46l-11.4-13.544h-9.852v13.544h-3.469V420.68h3.469v13.544h9.852Z" transform="translate(-149.414 -211.938)" fill="#fff" fill-rule="evenodd"/>
    </g>
  </g>
</svg>
