<svg xmlns="http://www.w3.org/2000/svg" width="463" height="463" viewBox="0 0 463 463">
  <g id="Gruppe_7599" data-name="Gruppe 7599" transform="translate(-5969 -2623)">
    <g id="Gruppe_7504" data-name="Gruppe 7504" transform="translate(4650 2521)">
      <g id="Gruppe_6239" data-name="Gruppe 6239" transform="translate(1307 83)">
        <circle id="Ellipse_3" data-name="Ellipse 3" cx="231.5" cy="231.5" r="231.5" transform="translate(12 19)" fill="#8cc63f" opacity="0.548"/>
        <circle id="Ellipse_2" data-name="Ellipse 2" cx="213" cy="213" r="213" transform="translate(30 37)" fill="#cdfe2b" opacity="0.548"/>
        <circle id="Ellipse_1" data-name="Ellipse 1" cx="195.5" cy="195.5" r="195.5" transform="translate(48 55)" fill="#8cc63f" opacity="0.998"/>
      </g>
    </g>
    <g id="coingecko-1" transform="translate(5984.107 2640.469)">
      <path id="Pfad_11848" data-name="Pfad 11848" d="M411.17,213.536c.474,107.368-86.179,194.793-193.547,195.272s-194.8-86.171-195.28-193.539,86.162-194.8,193.531-195.288,194.811,86.179,195.3,193.555Z" transform="translate(0 0)" fill="#8dc63f"/>
      <path id="Pfad_11849" data-name="Pfad 11849" d="M389.028,206.081A179.769,179.769,0,1,1,208.439,27.131a179.769,179.769,0,0,1,180.589,178.95Z" transform="translate(7.496 7.496)" fill="#f9e988"/>
      <path id="Pfad_11850" data-name="Pfad 11850" d="M118.85,33.6a98.324,98.324,0,0,1,34.557,0,105.147,105.147,0,0,1,33,11.061c10.242,5.633,19.112,13.274,27.92,20.484s17.6,14.5,25.953,22.533A131.591,131.591,0,0,1,262.4,114.413a151.58,151.58,0,0,1,15.507,31.238,141.935,141.935,0,0,1,6.371,68.356h-1.147A320.6,320.6,0,0,0,266.3,149.769a251.819,251.819,0,0,0-13.212-29.989,298.347,298.347,0,0,0-17.493-28.063,102.112,102.112,0,0,0-23.475-23.7C203,61.523,192.511,57.3,182.351,53.309s-20.32-7.968-30.87-11.02-21.345-5.326-32.59-7.538Z" transform="translate(101.182 12.68)" fill="#fff"/>
      <path id="Pfad_11851" data-name="Pfad 11851" d="M283.073,101.5c-13.048-3.79-26.629-9.136-40.272-14.544-.778-3.441-3.831-7.723-9.976-12.946-8.952-7.764-25.749-7.559-40.272-4.1-16.019-3.769-31.853-5.1-47.114-1.454C21.2,102.669,91.669,186.306,46.03,270.291c6.493,13.765,76.488,94.227,177.762,72.576,0,0-34.618-83.227,43.529-123.171C330.719,187.187,376.542,127,283.073,101.5Z" transform="translate(24.836 48.575)" fill="#8bc53f"/>
      <path id="Pfad_11852" data-name="Pfad 11852" d="M176.956,114.027a7.538,7.538,0,1,1-7.559-7.477A7.538,7.538,0,0,1,176.956,114.027Z" transform="translate(146.295 90.763)" fill="#fff"/>
      <path id="Pfad_11853" data-name="Pfad 11853" d="M117.56,69.511c9.054.655,41.808,11.348,50.248,17.084C160.823,66.111,137.081,63.448,117.56,69.511Z" transform="translate(99.829 48.937)" fill="#009345"/>
      <path id="Pfad_11854" data-name="Pfad 11854" d="M157.416,111.093A34.823,34.823,0,1,1,122.593,76.27,34.823,34.823,0,0,1,157.416,111.093Z" transform="translate(68.597 59.016)" fill="#fff"/>
      <path id="Pfad_11855" data-name="Pfad 11855" d="M141.776,105.928A24.458,24.458,0,1,1,117.318,81.49a24.458,24.458,0,0,1,24.458,24.438Z" transform="translate(73.934 64.489)" fill="#58595b"/>
      <path id="Pfad_11856" data-name="Pfad 11856" d="M327.6,125.543c-28.166,19.849-60.2,34.823-105.637,34.823-21.263,0-25.564-22.533-39.616-11.512-7.272,5.715-32.775,18.436-53.156,17.534S75.93,153.5,66.814,110.18C63.189,153.5,61.324,185.418,45.06,222,77.466,273.89,154.712,313.9,224.809,296.689c-7.518-52.6,38.449-104.142,64.361-130.5,9.791-9.976,28.678-26.281,38.428-40.723Z" transform="translate(23.819 94.568)" fill="#8bc53f"/>
      <path id="Pfad_11857" data-name="Pfad 11857" d="M249.675,118.54a126.49,126.49,0,0,1-29.743,19.071,189.067,189.067,0,0,1-33.389,12.168c-11.471,2.97-23.475,5.2-35.622,4.1s-24.581-5.244-32.59-14.339l.389-.451c9.914,6.412,21.242,8.665,32.549,8.993a153.633,153.633,0,0,0,34.229-2.847,187.025,187.025,0,0,0,33.266-10.242,124.955,124.955,0,0,0,30.542-16.879Z" transform="translate(100.637 102.882)" fill="#58595b"/>
    </g>
  </g>
</svg>
