<svg xmlns="http://www.w3.org/2000/svg" width="463" height="463" viewBox="0 0 463 463">
  <g id="Gruppe_6250" data-name="Gruppe 6250" transform="translate(-1319 -102)">
    <g id="Gruppe_6239" data-name="Gruppe 6239" transform="translate(1307 83)">
      <circle id="Ellipse_3" data-name="Ellipse 3" cx="231.5" cy="231.5" r="231.5" transform="translate(12 19)" fill="#2b6aff" opacity="0.548"/>
      <circle id="Ellipse_2" data-name="Ellipse 2" cx="213" cy="213" r="213" transform="translate(30 37)" fill="#2b6afe" opacity="0.548"/>
      <circle id="Ellipse_1" data-name="Ellipse 1" cx="195.5" cy="195.5" r="195.5" transform="translate(48 55)" fill="#2b6aff" opacity="0.998"/>
    </g>
    <path id="coinmarketcap-seeklogo.com_2" data-name="coinmarketcap-seeklogo.com 2" d="M-30.512-115.375a16.421,16.421,0,0,1-16.7,1.113C-53.358-117.76-56.7-125.923-56.7-137v-34.083c0-16.379-6.467-27.987-17.333-31.167-18.287-5.354-31.962,17.068-37.21,25.5l-32.386,52.422V-188.31c-.371-14.736-5.142-23.587-14.258-26.238-5.99-1.749-15-1.06-23.746,12.3L-254.037-86.01a127.2,127.2,0,0,1-14.577-59.684c0-70.073,55.974-127.054,124.987-127.054S-18.48-215.767-18.48-145.694v.742c.689,13.516-3.71,24.33-12.032,29.577ZM9.507-145.694v-.689C8.924-231.722-59.559-301-143.626-301S-296.6-231.351-296.6-145.694-228.011,9.612-143.626,9.612a151.23,151.23,0,0,0,104-41.45,14.249,14.249,0,0,0,.742-19.983,13.738,13.738,0,0,0-19.4-.954l-.053.053a123.691,123.691,0,0,1-174.865-4.611c-1.166-1.219-2.279-2.438-3.392-3.71l65.144-104.792v48.341c0,23.216,9.011,30.743,16.538,32.969s19.135.689,31.22-18.976l36.044-58.306c1.113-1.855,2.173-3.5,3.18-4.876v29.63c0,21.732,8.693,39.065,24.011,47.652a44.033,44.033,0,0,0,44.843-1.8c16.8-10.919,25.973-30.69,25.019-54.49Z" transform="translate(1694.047 479.194)" fill="#fff"/>
  </g>
</svg>
