<svg xmlns="http://www.w3.org/2000/svg" width="463" height="463" viewBox="0 0 463 463">
  <g id="Gruppe_7595" data-name="Gruppe 7595" transform="translate(-3414 -3747)">
    <g id="Gruppe_7594" data-name="Gruppe 7594" transform="translate(1461)">
      <g id="Gruppe_7589" data-name="Gruppe 7589" transform="translate(-2068 1124)">
        <g id="Gruppe_6344" data-name="Gruppe 6344" transform="translate(-3518 761)">
          <g id="Gruppe_6343" data-name="Gruppe 6343" transform="translate(7539 1862)">
            <g id="Gruppe_6239" data-name="Gruppe 6239" transform="translate(0 0)">
              <path id="Pfad_11790" data-name="Pfad 11790" d="M231.5,0C359.354,0,463,103.646,463,231.5S359.354,463,231.5,463,0,359.354,0,231.5,103.646,0,231.5,0Z" fill="rgba(8,102,255,0.55)"/>
              <circle id="Ellipse_2" data-name="Ellipse 2" cx="213" cy="213" r="213" transform="translate(18 18)" fill="#0866ff" opacity="0.601"/>
              <circle id="Ellipse_1" data-name="Ellipse 1" cx="195.5" cy="195.5" r="195.5" transform="translate(36 36)" fill="#0866ff" opacity="0.998"/>
            </g>
          </g>
        </g>
      </g>
    </g>
    <g id="bio-facebook" transform="translate(4458.824 3775.133)">
      <g id="Gruppe_1122" data-name="Gruppe 1122" transform="translate(-850.474 117.123)">
        <path id="Pfad_707" data-name="Pfad 707" d="M850.4,476.885h74.284L920.7,504.65h-70.31Zm13.054-10.164c0-28.185,10.3-40.6,38.694-40.6h22.537v28.949H902.952a5.915,5.915,0,0,0-5.22,2.606,11.762,11.762,0,0,0-1.78,6.764v134.17H863.479Z" transform="translate(-850.387 -426.124)" fill="#fff"/>
      </g>
    </g>
  </g>
</svg>
