<svg xmlns="http://www.w3.org/2000/svg" width="463" height="463" viewBox="0 0 463 463">
  <g id="Gruppe_7587" data-name="Gruppe 7587" transform="translate(-2927 -3449)">
    <g id="Gruppe_7583" data-name="Gruppe 7583" transform="translate(-4016 826)">
      <g id="Gruppe_7505" data-name="Gruppe 7505" transform="translate(-91 762)">
        <g id="Gruppe_6261" data-name="Gruppe 6261" transform="translate(505 -1)">
          <g id="Gruppe_6259" data-name="Gruppe 6259" transform="translate(1010)">
            <g id="Gruppe_6253" data-name="Gruppe 6253" transform="translate(4200 1760)">
              <g id="Gruppe_6239" data-name="Gruppe 6239" transform="translate(1307 83)">
                <circle id="Ellipse_3" data-name="Ellipse 3" cx="231.5" cy="231.5" r="231.5" transform="translate(12 19)" fill="#3c3bfb" opacity="0.548"/>
                <circle id="Ellipse_2" data-name="Ellipse 2" cx="213" cy="213" r="213" transform="translate(30 37)" fill="#3c3bfb" opacity="0.548"/>
                <circle id="Ellipse_1" data-name="Ellipse 1" cx="195.5" cy="195.5" r="195.5" transform="translate(48 55)" fill="#5e38f4" opacity="0.998"/>
              </g>
            </g>
          </g>
        </g>
      </g>
    </g>
    <path id="Pfad_11840" data-name="Pfad 11840" d="M134.778,295.8l9.1,28.162a1.046,1.046,0,0,0,1.99,0l9.1-28.162a48.242,48.242,0,0,1,31.113-31.113l28.162-9.1a1.046,1.046,0,0,0,0-1.99l-28.162-9.1a48.242,48.242,0,0,1-31.113-31.113l-9.1-28.162a1.046,1.046,0,0,0-1.99,0l-9.1,28.162A48.24,48.24,0,0,1,103.665,244.5L75.5,253.6a1.046,1.046,0,0,0,0,1.99l28.162,9.1A48.287,48.287,0,0,1,134.778,295.8Z" transform="translate(2928.65 3419)" fill="#fff"/>
    <path id="Pfad_11841" data-name="Pfad 11841" d="M354.216,295.8l9.1,28.162a1.046,1.046,0,0,0,1.99,0l9.1-28.162a48.241,48.241,0,0,1,31.112-31.113l28.162-9.1a1.046,1.046,0,0,0,0-1.99l-28.162-9.1a48.241,48.241,0,0,1-31.112-31.113l-9.1-28.162a1.046,1.046,0,0,0-1.99,0l-9.1,28.162A48.242,48.242,0,0,1,323.1,244.5l-28.162,9.1a1.046,1.046,0,0,0,0,1.99l28.162,9.1A48.287,48.287,0,0,1,354.216,295.8Z" transform="translate(2879.167 3419)" fill="#fff"/>
  </g>
</svg>
