<svg xmlns="http://www.w3.org/2000/svg" width="463" height="463" viewBox="0 0 463 463">
  <g id="Gruppe_7666" data-name="Gruppe 7666" transform="translate(19109 -2340)">
    <g id="Gruppe_7665" data-name="Gruppe 7665" transform="translate(-22384 -485)">
      <g id="Gruppe_7498" data-name="Gruppe 7498" transform="translate(3275 2825)">
        <circle id="Ellipse_3" data-name="Ellipse 3" cx="231.5" cy="231.5" r="231.5" transform="translate(0 0)" fill="#17e6a1" opacity="0.401"/>
        <path id="Pfad_11933" data-name="Pfad 11933" d="M213,0C330.637,0,426,95.363,426,213S330.637,426,213,426,0,330.637,0,213,95.363,0,213,0Z" transform="translate(18 19)" fill="#2354e6" opacity="0.786"/>
        <circle id="Ellipse_1" data-name="Ellipse 1" cx="195.5" cy="195.5" r="195.5" transform="translate(36 36)" fill="#fff" opacity="0.998"/>
      </g>
    </g>
    <g id="LOGO_1" transform="translate(-19308.172 2298.329)">
      <path id="Pfad_4013" data-name="Pfad 4013" d="M430.671,345.04a71.869,71.869,0,1,1,0-143.738V142.5A130.671,130.671,0,1,0,561.342,273.171h-58.8A71.869,71.869,0,0,1,430.671,345.04Z" transform="translate(0)" fill="#2354e6"/>
      <rect id="Rechteck_2922" data-name="Rechteck 2922" width="71.958" height="71.958" transform="translate(430.473 201.015)" fill="#17e6a1"/>
    </g>
  </g>
</svg>
