<svg xmlns="http://www.w3.org/2000/svg" width="463" height="463" viewBox="0 0 463 463">
  <g id="Gruppe_7584" data-name="Gruppe 7584" transform="translate(-4021 -2623)">
    <g id="Gruppe_6344" data-name="Gruppe 6344" transform="translate(-3518 761)">
      <g id="Gruppe_6343" data-name="Gruppe 6343" transform="translate(7539 1862)">
        <g id="Gruppe_6239" data-name="Gruppe 6239" transform="translate(0 0)">
          <path id="Pfad_11790" data-name="Pfad 11790" d="M231.5,0C359.354,0,463,103.646,463,231.5S359.354,463,231.5,463,0,359.354,0,231.5,103.646,0,231.5,0Z" fill="rgba(42,105,254,0.75)"/>
          <circle id="Ellipse_2" data-name="Ellipse 2" cx="213" cy="213" r="213" transform="translate(18 18)" fill="#2b6afe" opacity="0.583"/>
          <circle id="Ellipse_1" data-name="Ellipse 1" cx="195.5" cy="195.5" r="195.5" transform="translate(36 36)" fill="#2b6afe" opacity="0.998"/>
        </g>
      </g>
    </g>
    <path id="Polygon_4" data-name="Polygon 4" d="M83.077,31.909a22,22,0,0,1,37.846,0L184.3,138.778A22,22,0,0,1,165.376,172H38.624A22,22,0,0,1,19.7,138.778Z" transform="translate(4118.112 2746.567)" fill="#fff"/>
    <rect id="Rechteck_2969" data-name="Rechteck 2969" width="51" height="171.392" rx="25.5" transform="translate(4254.6 2780.699) rotate(-30)" fill="#fff"/>
  </g>
</svg>
