<svg xmlns="http://www.w3.org/2000/svg" width="463" height="463" viewBox="0 0 463 463">
  <g id="Gruppe_7586" data-name="Gruppe 7586" transform="translate(-3414 -3449)">
    <g id="Gruppe_7585" data-name="Gruppe 7585" transform="translate(139 624)">
      <g id="Gruppe_7498" data-name="Gruppe 7498" transform="translate(3275 2825)">
        <circle id="Ellipse_3" data-name="Ellipse 3" cx="231.5" cy="231.5" r="231.5" transform="translate(0 0)" fill="#3dc8d3" opacity="0.401"/>
        <circle id="Ellipse_2" data-name="Ellipse 2" cx="213" cy="213" r="213" transform="translate(18 19)" fill="#40c8d3" opacity="0.471"/>
        <circle id="Ellipse_1" data-name="Ellipse 1" cx="195.5" cy="195.5" r="195.5" transform="translate(36 36)" fill="#47dae6" opacity="0.998"/>
      </g>
    </g>
    <g id="Layer_x0020_1" transform="translate(3531 3566)">
      <g id="_1747211904080">
        <rect id="Rechteck_3032" data-name="Rechteck 3032" width="229" height="229" fill="none"/>
        <path id="Pfad_11827" data-name="Pfad 11827" d="M156.476,229c-34-.027-61.39-8.107-80.535-22.607C56.578,191.71,46.3,170.871,46.3,147.293c0-22.717,10.25-39.095,21.856-50.169A96.4,96.4,0,0,1,94.262,79.692c-1.576-4.8-3.554-11.084-5.313-17.569-2.363-8.684-4.672-18.87-4.672-26.335,0-8.839,1.942-17.706,7.191-24.6C97.01,3.9,105.355,0,115.394,0a27.949,27.949,0,0,1,19.731,7.85c4.983,4.754,8.308,11.065,10.6,17.642,4.021,11.56,5.6,26.079,6.036,40.57h9.618c.44-14.491,2.006-29.01,6.036-40.57,2.29-6.577,5.606-12.888,10.6-17.642A27.873,27.873,0,0,1,197.724,0c10.039,0,18.384,3.9,23.926,11.184,5.249,6.9,7.191,15.764,7.191,24.6,0,7.465-2.317,17.651-4.672,26.335-1.759,6.485-3.737,12.769-5.313,17.569a96.257,96.257,0,0,1,26.106,17.431c11.6,11.074,21.856,27.453,21.856,50.169,0,23.578-10.277,44.408-29.642,59.091-19.135,14.509-46.533,22.589-80.535,22.607h-.165Z" transform="translate(-42.059)" fill="#633001" fill-rule="evenodd"/>
        <path id="Pfad_11828" data-name="Pfad 11828" d="M211.048,91.7c-14.7,0-21.48,10.974-21.48,26.143,0,12.064,7.868,36.219,11.093,45.617a4.221,4.221,0,0,1-2.492,5.249c-11.789,4.644-46.569,21.663-46.569,60.639,0,41.055,35.348,72.007,100.531,72.053h.147c65.183-.046,100.531-31.007,100.531-72.053,0-38.976-34.781-55.986-46.569-60.639a4.217,4.217,0,0,1-2.492-5.249c3.224-9.407,11.093-33.562,11.093-45.617,0-15.169-6.769-26.143-21.471-26.143-21.169,0-26.445,29.99-26.82,62.169a3.923,3.923,0,0,1-3.911,3.893H241.78a3.929,3.929,0,0,1-3.911-3.893c-.376-32.179-5.652-62.169-26.821-62.169Z" transform="translate(-137.713 -83.3)" fill="#d1884f"/>
        <path id="Pfad_11829" data-name="Pfad 11829" d="M252.287,1654.126c-47.9,0-100.6-25.639-100.687-58.826v.156c0,41.083,35.4,72.053,100.687,72.053s100.687-30.97,100.687-72.053v-.156c-.073,33.187-52.789,58.826-100.687,58.826Z" transform="translate(-137.714 -1449.171)" fill="#fedc90"/>
        <path id="Pfad_11830" data-name="Pfad 11830" d="M725.751,1315.038c0,11.2-5.294,17.037-11.826,17.037s-11.826-5.835-11.826-17.037S707.395,1298,713.926,1298,725.751,1303.835,725.751,1315.038Z" transform="translate(-637.788 -1179.103)" fill="#633001"/>
        <path id="Pfad_11831" data-name="Pfad 11831" d="M1565.051,1315.038c0,11.2-5.294,17.037-11.825,17.037s-11.825-5.835-11.825-17.037,5.294-17.038,11.825-17.038S1565.051,1303.835,1565.051,1315.038Z" transform="translate(-1400.208 -1179.103)" fill="#633001"/>
      </g>
    </g>
  </g>
</svg>
