<svg xmlns="http://www.w3.org/2000/svg" width="463" height="463" viewBox="0 0 463 463">
  <g id="Gruppe_7597" data-name="Gruppe 7597" transform="translate(-2440 -3747)">
    <g id="Gruppe_7590" data-name="Gruppe 7590" transform="translate(-1581 1124)">
      <g id="Gruppe_6344" data-name="Gruppe 6344" transform="translate(-3518 761)">
        <g id="Gruppe_6343" data-name="Gruppe 6343" transform="translate(7539 1862)">
          <g id="Gruppe_6239" data-name="Gruppe 6239" transform="translate(0 0)">
            <path id="Pfad_11790" data-name="Pfad 11790" d="M231.5,0C359.354,0,463,103.646,463,231.5S359.354,463,231.5,463,0,359.354,0,231.5,103.646,0,231.5,0Z" fill="#fca671"/>
            <circle id="Ellipse_2" data-name="Ellipse 2" cx="213" cy="213" r="213" transform="translate(18 18)" fill="#ff6200" opacity="0.601"/>
            <circle id="Ellipse_1" data-name="Ellipse 1" cx="195.5" cy="195.5" r="195.5" transform="translate(36 36)" fill="#ff6200" opacity="0.998"/>
          </g>
        </g>
      </g>
    </g>
    <path id="Pfad_10780" data-name="Pfad 10780" d="M193.321,87.715a21.189,21.189,0,0,0-35.82-15.3,105.532,105.532,0,0,0-56.661-18.018L110.5,9.02l31.478,6.73a15.206,15.206,0,1,0,30.393-1.085A15.087,15.087,0,0,0,156.741.01a15.3,15.3,0,0,0-13.134,8.467L108.439,1.1a3.735,3.735,0,0,0-2.822.543,3.219,3.219,0,0,0-1.52,2.388L93.351,54.609A104.782,104.782,0,0,0,35.822,72.627,21.109,21.109,0,1,0,6.406,102.911a19.444,19.444,0,0,0,6.079,4.125,42.5,42.5,0,0,0-.543,6.4c0,32.563,37.882,59.048,84.665,59.048s84.665-26.376,84.665-59.048a41.33,41.33,0,0,0-.543-6.4,21.375,21.375,0,0,0,12.483-19.43h0ZM48.2,102.8A15.088,15.088,0,1,1,63.284,117.89h0A15.056,15.056,0,0,1,48.2,102.8Zm84.339,40.053c-10.42,10.42-30.176,11.072-35.82,11.072S71.1,153.059,60.9,142.856a3.914,3.914,0,1,1,5.536-5.536,47.288,47.288,0,0,0,30.284,8.792A47.1,47.1,0,0,0,127,137.32a3.8,3.8,0,0,1,5.427,0h0a4.149,4.149,0,0,1,0,5.536Zm-2.822-24.748A15.088,15.088,0,1,1,144.8,103.02h0a15.125,15.125,0,0,1-15.088,15.088Z" transform="translate(2574.84 3892.256)" fill="#fff"/>
  </g>
</svg>
