<svg xmlns="http://www.w3.org/2000/svg" width="463" height="463" viewBox="0 0 463 463">
  <g id="Gruppe_7591" data-name="Gruppe 7591" transform="translate(-1953 -3747)">
    <g id="Gruppe_7589" data-name="Gruppe 7589" transform="translate(-2068 1124)">
      <g id="Gruppe_6344" data-name="Gruppe 6344" transform="translate(-3518 761)">
        <g id="Gruppe_6343" data-name="Gruppe 6343" transform="translate(7539 1862)">
          <g id="Gruppe_6239" data-name="Gruppe 6239" transform="translate(0 0)">
            <path id="Pfad_11790" data-name="Pfad 11790" d="M231.5,0C359.354,0,463,103.646,463,231.5S359.354,463,231.5,463,0,359.354,0,231.5,103.646,0,231.5,0Z" fill="rgba(34,158,217,0.55)"/>
            <circle id="Ellipse_2" data-name="Ellipse 2" cx="213" cy="213" r="213" transform="translate(18 18)" fill="#219ed9" opacity="0.601"/>
            <circle id="Ellipse_1" data-name="Ellipse 1" cx="195.5" cy="195.5" r="195.5" transform="translate(36 36)" fill="#229ed9" opacity="0.998"/>
          </g>
        </g>
      </g>
    </g>
    <path id="Path-3" d="M110.789,226.879Q192.913,191.1,220.313,179.7c52.156-21.693,62.994-25.462,70.057-25.587,1.554-.027,5.028.358,7.278,2.184,3.338,2.709,3.357,8.588,2.987,12.479-2.827,29.7-15.056,101.763-21.275,135.024-2.636,14.072-7.82,18.792-12.838,19.255-10.906,1-19.188-7.208-29.751-14.132-16.529-10.836-25.867-17.581-41.913-28.153-18.542-12.219-6.522-18.935,4.045-29.91,2.766-2.872,50.819-46.581,51.749-50.547a3.833,3.833,0,0,0-.874-3.32c-1.1-.973-2.719-.643-3.888-.377q-2.487.565-79.218,52.36Q155.43,256.7,146.306,256.5c-6.706-.147-19.6-3.791-29.194-6.909-11.761-3.823-21.109-5.845-20.295-12.337q.636-5.074,13.972-10.376Z" transform="translate(1966.719 3739.873)" fill="#fff" fill-rule="evenodd"/>
  </g>
</svg>
