<svg xmlns="http://www.w3.org/2000/svg" width="463" height="463" viewBox="0 0 463 463">
  <g id="Gruppe_7596" data-name="Gruppe 7596" transform="translate(-2927 -3747)">
    <g id="Gruppe_7593" data-name="Gruppe 7593" transform="translate(1461)">
      <g id="Gruppe_7588" data-name="Gruppe 7588" transform="translate(-3555 414)">
        <g id="Gruppe_7500" data-name="Gruppe 7500" transform="translate(712 759)">
          <g id="Gruppe_6254" data-name="Gruppe 6254" transform="translate(2990 2472)">
            <g id="Gruppe_6239" data-name="Gruppe 6239" transform="translate(1307 83)">
              <circle id="Ellipse_3" data-name="Ellipse 3" cx="231.5" cy="231.5" r="231.5" transform="translate(12 19)" opacity="0.548"/>
              <circle id="Ellipse_2" data-name="Ellipse 2" cx="213" cy="213" r="213" transform="translate(30 37)" opacity="0.548"/>
              <circle id="Ellipse_1" data-name="Ellipse 1" cx="195.5" cy="195.5" r="195.5" transform="translate(48 55)" opacity="0.998"/>
            </g>
          </g>
        </g>
      </g>
    </g>
    <g id="tiktok-icon-seeklogo" transform="translate(3077.292 3891.336)">
      <path id="Pfad_11842" data-name="Pfad 11842" d="M64.349,23.519V16.792A52.257,52.257,0,0,0,27.329,111.4,52.254,52.254,0,0,1,64.349,23.519" transform="translate(0 45.318)" fill="#00f2ea" fill-rule="evenodd"/>
      <path id="Pfad_11843" data-name="Pfad 11843" d="M34.8,145A23.9,23.9,0,0,0,58.637,122L58.681,8.129h20.8a39.5,39.5,0,0,1-.672-7.21H50.4L50.353,114.8a23.836,23.836,0,0,1-34.919,20.243A23.85,23.85,0,0,0,34.8,145m83.55-98.215V40.452a39.28,39.28,0,0,1-21.527-6.4A39.549,39.549,0,0,0,118.35,46.781" transform="translate(30.786)" fill="#00f2ea" fill-rule="evenodd"/>
      <path id="Pfad_11844" data-name="Pfad 11844" d="M106.382,28.661A39.356,39.356,0,0,1,96.66,2.745H89.047a39.6,39.6,0,0,0,17.335,25.916m-70.3,55.964a23.877,23.877,0,0,0-11.085,45.029A23.849,23.849,0,0,1,44.358,91.834a23.471,23.471,0,0,1,7.048,1.106V63.931a52.029,52.029,0,0,0-7.048-.514c-.415,0-.822.024-1.233.032V85.731a23.482,23.482,0,0,0-7.048-1.106" transform="translate(21.223 5.388)" fill="#ff004f" fill-rule="evenodd"/>
      <path id="Pfad_11845" data-name="Pfad 11845" d="M132.456,12.531V34.615A67.582,67.582,0,0,1,92.922,21.9V79.647a52.254,52.254,0,0,1-82.27,42.82,52.265,52.265,0,0,0,90.555-35.606V29.115A67.582,67.582,0,0,0,140.74,41.828V13.408a39.481,39.481,0,0,1-8.284-.881" transform="translate(16.677 34.25)" fill="#ff004f" fill-rule="evenodd"/>
      <path id="Pfad_11846" data-name="Pfad 11846" d="M103.412,108.509V50.764a67.567,67.567,0,0,0,39.533,12.713V41.393a39.549,39.549,0,0,1-21.527-12.733A39.6,39.6,0,0,1,104.083,2.745H83.28L83.236,116.62a23.839,23.839,0,0,1-43.2,13.033A23.875,23.875,0,0,1,51.114,84.624a23.385,23.385,0,0,1,7.048,1.106V63.449a52.254,52.254,0,0,0-37.021,87.884,52.258,52.258,0,0,0,82.27-42.824" transform="translate(6.187 5.388)" fill="#fff" fill-rule="evenodd"/>
    </g>
  </g>
</svg>
