<?xml version="1.0" standalone="no"?>
<!DOCTYPE svg PUBLIC "-//W3C//DTD SVG 20010904//EN"
 "http://www.w3.org/TR/2001/REC-SVG-20010904/DTD/svg10.dtd">
<svg version="1.0" xmlns="http://www.w3.org/2000/svg"
 width="500.000000pt" height="500.000000pt" viewBox="0 0 500.000000 500.000000"
 preserveAspectRatio="xMidYMid meet">
<metadata>
Created by potrace 1.14, written by Peter Selinger 2001-2017
</metadata>
<g transform="translate(0.000000,500.000000) scale(0.100000,-0.100000)"
fill="#000000" stroke="none">
<path d="M2280 4890 c-337 -35 -652 -132 -937 -288 -46 -25 -83 -49 -83 -52 0
-4 8 -14 19 -24 17 -15 22 -14 97 29 234 133 537 230 844 271 157 20 514 15
660 -10 269 -47 569 -152 778 -273 89 -52 29 -30 -129 47 -91 44 -221 98 -289
120 -518 169 -1080 155 -1578 -40 -95 -37 -281 -126 -329 -157 l-23 -16 23
-31 c40 -53 42 -63 2 -18 -20 24 -44 41 -53 40 -10 -2 -16 2 -15 8 1 7 -8 20
-20 30 -22 19 -22 19 -5 -1 16 -20 16 -21 -2 -33 -29 -18 -33 -15 -26 23 6 31
4 36 -24 50 -17 9 -35 13 -40 10 -6 -4 -13 1 -16 9 -6 16 -71 42 -81 32 -4 -3
-1 -6 5 -6 7 0 12 -8 12 -17 -1 -14 -6 -11 -25 11 l-23 29 -17 -38 c-8 -22
-21 -86 -27 -143 l-11 -105 -41 -35 c-85 -74 -235 -231 -312 -327 -252 -317
-412 -677 -484 -1086 -28 -158 -38 -478 -20 -641 79 -731 465 -1364 1080
-1771 205 -135 495 -261 741 -320 211 -52 307 -62 569 -62 262 0 358 10 569
62 674 163 1264 631 1573 1247 139 276 215 537 248 844 18 163 8 483 -20 641
-90 514 -314 940 -689 1311 -123 121 -126 124 -129 94 -3 -26 11 -44 120 -154
196 -198 333 -394 455 -647 218 -452 282 -987 177 -1484 -150 -714 -606 -1302
-1259 -1624 -342 -168 -649 -239 -1040 -239 -388 0 -696 71 -1040 239 -702
344 -1187 1023 -1290 1808 -20 154 -20 440 0 594 53 404 205 777 452 1108 93
125 317 364 330 352 3 -4 -34 -46 -83 -94 -346 -341 -580 -779 -664 -1245
-107 -594 18 -1200 349 -1693 241 -360 542 -623 926 -811 329 -161 649 -234
1020 -234 370 0 698 75 1022 234 382 188 686 454 922 806 614 916 492 2137
-292 2924 -66 66 -101 95 -106 87 -4 -7 -11 52 -14 131 -8 160 -20 225 -45
245 -9 8 -11 11 -3 7 10 -5 12 -3 7 5 -6 9 -13 8 -27 -5 -11 -10 -27 -14 -40
-11 -36 10 -141 -49 -227 -126 -49 -44 -41 -27 16 34 l34 37 -46 26 c-110 62
-136 75 -223 114 -194 87 -423 154 -643 187 -125 19 -441 27 -560 15z m80
-160 l0 -60 -30 0 c-25 0 -30 4 -30 25 0 25 -13 31 -44 19 -16 -6 -21 -39 -10
-68 5 -13 18 -15 78 -10 46 3 66 2 56 -4 -8 -5 -45 -12 -82 -15 l-68 -5 0 28
c0 15 -3 41 -6 58 -6 29 -5 30 40 33 42 4 46 2 46 -18 0 -16 6 -23 20 -23 15
0 20 7 20 28 0 50 -10 55 -94 47 -76 -7 -77 -8 -72 -34 3 -14 7 -47 11 -73 7
-53 13 -49 -99 -68 -55 -10 -70 -10 -76 0 -10 16 -22 91 -16 97 2 3 23 7 45
10 37 5 41 3 41 -16 0 -14 6 -21 19 -21 17 0 19 5 14 38 -3 20 -7 39 -9 41 -8
9 -146 -22 -150 -34 -3 -7 1 -40 9 -74 11 -46 12 -64 3 -66 -47 -16 -150 -45
-156 -45 -9 0 -45 99 -39 104 6 5 71 26 80 26 5 0 9 -9 9 -20 0 -14 7 -20 21
-20 16 0 19 5 15 20 -3 11 -9 29 -12 40 -7 25 -7 25 -88 0 -41 -13 -66 -26
-66 -35 0 -8 9 -39 21 -70 12 -31 19 -58 17 -59 -6 -6 -153 -66 -161 -66 -10
0 -48 90 -42 100 2 4 19 13 36 21 30 12 34 11 46 -8 8 -12 21 -19 29 -16 11 4
11 10 -2 41 -8 20 -16 37 -18 39 -3 3 -136 -54 -144 -62 -2 -1 10 -30 27 -64
17 -33 31 -63 31 -66 0 -2 -22 -16 -50 -30 -27 -14 -50 -29 -50 -34 0 -22 31
-15 110 24 425 212 965 266 1435 145 131 -34 290 -92 394 -144 107 -54 81 -54
-34 0 -507 237 -1118 256 -1634 52 -109 -43 -231 -100 -231 -108 0 -4 11 -13
25 -20 22 -12 33 -9 112 27 530 245 1164 246 1691 2 76 -35 83 -41 71 -56 -8
-9 9 0 37 20 71 51 80 63 57 75 -16 10 -16 13 7 61 13 28 26 51 29 51 3 0 23
-11 44 -24 26 -16 35 -26 27 -31 -7 -4 -15 -3 -19 2 -3 6 -15 15 -27 21 -17 9
-23 7 -37 -18 -22 -37 -21 -49 3 -58 18 -7 16 -10 -18 -47 -20 -22 -48 -48
-62 -58 -14 -10 -19 -15 -11 -11 9 5 12 3 7 -5 -4 -6 -11 -9 -16 -6 -18 11
-360 -251 -360 -275 0 -6 -6 -10 -14 -10 -26 0 -29 -21 -6 -45 33 -35 7 -40
-39 -8 -22 16 -40 31 -41 35 0 6 133 106 319 238 l103 73 -27 14 c-136 72
-424 159 -605 184 -124 17 -409 17 -530 0 -184 -25 -454 -106 -594 -178 l-36
-19 182 -132 c180 -130 244 -181 237 -186 -91 -63 -112 -76 -116 -72 -3 3 10
21 29 40 l34 34 -30 23 c-16 13 -33 23 -38 21 -4 -1 -8 2 -8 8 0 15 -112 100
-123 93 -6 -3 -7 -1 -3 5 7 11 -32 38 -47 34 -5 -1 -6 1 -4 5 3 5 -36 37 -86
73 -81 58 -177 145 -177 161 0 3 23 16 50 29 28 13 50 24 50 26 0 1 -14 32
-30 70 -17 37 -29 68 -28 69 9 7 171 75 174 73 3 -4 44 -98 44 -103 0 -2 -13
-8 -30 -13 -26 -9 -31 -8 -41 9 -7 15 -16 18 -32 13 -12 -3 -24 -8 -26 -10 -5
-5 20 -63 30 -69 9 -6 139 45 139 55 0 3 -11 34 -24 68 -23 57 -23 63 -8 71
17 9 153 51 165 51 7 0 39 -102 34 -107 -2 -1 -18 -6 -35 -9 -28 -6 -32 -4
-32 16 0 19 -4 21 -27 15 -16 -4 -30 -8 -31 -10 -6 -5 19 -75 26 -75 13 0 127
33 134 39 4 4 1 31 -7 61 -24 89 -26 85 75 105 50 10 92 16 94 14 3 -2 8 -27
14 -56 8 -48 8 -52 -12 -57 -35 -10 -46 -7 -46 12 0 26 -6 30 -36 24 -24 -4
-26 -8 -21 -40 4 -19 9 -37 12 -40 2 -3 37 0 76 7 l71 13 -7 57 c-3 31 -8 64
-11 73 -4 14 5 18 53 23 32 3 65 8 73 9 8 2 27 4 43 5 27 1 27 0 27 -59z m230
5 l0 -55 -35 0 c-31 0 -35 3 -35 26 0 22 -4 25 -27 22 -25 -3 -28 -7 -28 -43
l0 -40 75 -6 75 -5 -82 -2 -83 -2 0 55 0 55 44 0 c38 0 45 -3 48 -22 2 -12 9
-23 16 -26 8 -2 12 10 12 42 l0 46 -81 0 -82 0 6 -75 c3 -43 2 -75 -4 -75 -5
0 -9 29 -9 64 0 35 -3 71 -6 80 -5 14 7 16 95 16 l101 0 0 -55z m167 46 c29
-4 55 -10 59 -14 3 -3 3 -29 -1 -57 -7 -50 -8 -51 -39 -48 -27 3 -31 6 -28 31
3 24 0 27 -27 27 -23 0 -31 -5 -31 -17 0 -10 -3 -28 -6 -39 -6 -23 -13 -21
115 -40 l39 -5 7 63 c4 35 10 68 14 74 4 8 31 6 93 -6 49 -9 90 -19 93 -22 9
-9 -18 -108 -29 -108 -6 0 -21 3 -33 6 -18 5 -22 11 -17 30 5 19 1 24 -20 30
-32 8 -32 8 -40 -38 -7 -40 -12 -37 83 -58 62 -15 62 -14 80 66 7 29 16 56 20
58 7 5 171 -41 180 -50 3 -3 -3 -29 -13 -58 -18 -54 -19 -54 -48 -44 -25 9
-29 15 -24 34 5 20 1 26 -19 34 -35 13 -33 15 -41 -25 -9 -49 -10 -47 48 -65
29 -10 60 -21 69 -24 13 -6 21 6 39 56 12 35 25 66 29 70 5 5 167 -55 179 -67
2 -2 -8 -26 -22 -54 -25 -48 -27 -50 -51 -39 -22 10 -25 16 -20 40 4 15 3 28
-2 28 -4 0 -17 3 -28 6 -17 4 -23 -2 -34 -31 -7 -20 -11 -37 -9 -38 28 -16
121 -57 128 -57 6 0 25 29 42 65 l32 64 68 -36 c84 -46 91 -65 8 -23 -33 16
-63 30 -68 30 -5 0 -21 -27 -37 -60 -16 -33 -31 -60 -34 -60 -5 0 -150 61
-160 67 -8 5 34 103 43 103 6 -1 25 -7 41 -14 23 -10 30 -19 30 -41 0 -43 20
-41 37 4 l16 39 -62 26 c-33 14 -67 27 -74 28 -8 2 -23 -22 -39 -62 -15 -36
-27 -66 -27 -67 -3 -5 -171 58 -170 64 1 5 7 29 14 56 14 51 12 50 78 26 18
-7 21 -14 16 -34 -4 -18 -2 -25 8 -25 15 0 38 39 38 64 0 13 -137 59 -150 51
-4 -2 -12 -28 -19 -57 -18 -82 -15 -80 -112 -59 -92 20 -88 14 -74 99 6 32 7
32 43 26 50 -9 55 -13 48 -40 -5 -19 -2 -24 14 -24 11 0 20 4 20 9 0 5 3 22 6
39 6 30 6 30 -52 42 -33 6 -68 14 -80 17 -19 4 -22 -2 -33 -72 -11 -63 -15
-75 -29 -71 -9 3 -50 8 -89 12 l-73 7 0 60 0 60 38 -7 c20 -3 43 -6 50 -6 8 0
10 -8 6 -25 -5 -21 -3 -25 15 -25 18 0 21 6 21 39 0 37 -2 39 -37 45 -21 3
-57 6 -80 6 l-43 0 -1 -52 c-1 -79 -17 -108 -18 -33 -1 93 5 105 48 104 20 0
60 -4 88 -8z m1248 -231 c3 -5 1 -10 -4 -10 -6 0 -11 5 -11 10 0 6 2 10 4 10
3 0 8 -4 11 -10z m-2516 -119 c-27 -13 -30 -13 -43 5 -13 16 -18 17 -35 7 -11
-7 -22 -9 -25 -4 -3 4 10 15 29 24 32 15 34 15 40 -3 7 -21 35 -28 35 -10 0
15 -29 70 -36 70 -4 0 -28 -12 -55 -27 -27 -14 -52 -24 -55 -21 -3 3 23 22 58
41 l63 36 27 -52 26 -52 -29 -14z m2395 77 c-22 -24 -62 -74 -89 -112 -73
-101 -114 -145 -155 -166 -53 -27 -174 -160 -252 -276 -36 -54 -77 -109 -91
-122 l-25 -24 1 29 c2 26 29 63 48 63 6 0 34 41 66 98 9 17 9 21 0 16 -7 -4
-5 1 4 12 9 10 20 30 24 43 6 18 9 20 16 10 6 -11 20 -1 58 40 27 29 48 60 47
69 -4 24 55 77 114 102 64 26 92 55 116 119 9 25 23 50 31 54 7 5 10 14 6 20
-4 7 1 6 11 -2 15 -13 22 -10 59 27 54 54 61 54 11 0z m-2754 18 c0 5 5 1 11
-9 17 -30 4 -29 -22 0 -13 15 -16 21 -6 14 9 -7 17 -10 17 -5z m123 -66 c-6
-24 -19 -26 -27 -4 -3 8 -2 12 4 9 6 -3 10 1 10 10 0 9 4 14 9 11 5 -3 7 -15
4 -26z m-117 -7 c78 -85 171 -250 151 -270 -3 -2 -19 13 -36 34 l-31 38 6 -35
c23 -133 61 -203 128 -239 27 -14 64 -44 82 -67 l34 -40 -31 4 c-29 4 -30 3
-20 -17 11 -20 10 -21 -16 -15 -58 14 -142 65 -181 109 -32 36 -41 42 -39 26
3 -43 129 -130 227 -157 30 -8 66 -20 80 -25 18 -7 13 1 -20 30 l-45 41 50
-21 c28 -12 73 -38 100 -57 58 -41 40 -22 -63 68 -74 64 -132 146 -132 187 0
12 -4 25 -10 28 -14 9 -12 -10 4 -50 16 -38 10 -43 -32 -21 -32 17 -77 94 -88
150 l-7 39 33 -23 32 -23 -7 34 c-3 19 -9 43 -12 54 -8 31 61 -38 109 -109 53
-77 110 -178 104 -184 -3 -2 -31 20 -63 49 l-58 54 36 -45 c20 -25 53 -54 74
-65 21 -11 41 -27 44 -35 17 -42 74 -110 92 -110 15 0 49 -68 49 -99 0 -37
-23 -63 -82 -89 -56 -25 -162 -105 -189 -143 -27 -38 -35 -31 -14 13 16 32 15
32 -2 12 -10 -12 -33 -42 -51 -69 -18 -26 -35 -45 -38 -42 -10 9 39 119 73
165 21 27 26 39 13 27 -30 -27 -108 -121 -92 -111 10 6 11 1 6 -21 -14 -60
-48 -124 -76 -144 -33 -24 -37 -23 -40 14 -3 40 -15 32 -21 -14 -3 -23 -14
-51 -25 -62 -20 -19 -20 -19 -16 29 l4 49 -14 -50 c-9 -27 -15 -53 -16 -57 0
-5 -4 -8 -9 -8 -5 0 -10 58 -10 129 l-2 128 41 51 c22 28 40 58 40 67 0 9 -16
47 -35 86 -49 96 -90 225 -110 344 -22 126 -25 365 -7 417 25 70 84 88 128 41z
m39 7 c10 -11 16 -20 13 -20 -3 0 -13 9 -23 20 -10 11 -16 20 -13 20 3 0 13
-9 23 -20z m2785 10 c38 -20 55 -95 54 -240 -1 -218 -49 -431 -130 -578 -19
-34 -34 -72 -34 -83 0 -11 18 -44 40 -73 44 -58 46 -76 31 -241 l-6 -70 -17
60 -18 60 4 -47 c3 -43 2 -46 -15 -35 -12 8 -21 29 -25 59 -7 48 -24 57 -24
12 0 -32 -10 -30 -47 9 -27 28 -80 144 -70 153 2 3 16 -5 31 -17 15 -12 30
-19 33 -16 8 9 -7 28 -17 22 -5 -3 -42 27 -81 67 -39 40 -55 53 -35 29 34 -42
80 -143 74 -163 -2 -5 -24 19 -50 54 -25 35 -59 74 -74 88 l-27 25 25 -35 c46
-64 43 -65 -22 -9 -36 30 -92 77 -125 105 l-60 49 28 -40 c16 -22 74 -85 130
-139 101 -98 105 -107 16 -33 -26 21 -53 37 -60 35 -8 -2 -13 3 -11 11 2 8
-12 30 -31 50 -19 20 -42 47 -51 61 -9 14 -22 25 -28 25 -7 0 -13 16 -15 35
-1 19 -3 44 -5 55 -2 26 20 72 40 80 12 4 13 -1 8 -27 l-6 -33 31 38 c29 35
145 104 156 93 3 -3 -8 -17 -23 -32 l-29 -27 40 7 c48 8 188 77 228 111 16 14
30 34 32 46 2 11 7 30 10 42 3 12 -3 6 -14 -14 -27 -49 -83 -96 -155 -130 -75
-36 -91 -37 -75 -8 10 20 9 21 -19 17 l-30 -4 38 45 c21 24 58 54 82 65 65 32
101 98 123 230 l6 38 -32 -36 c-17 -20 -34 -35 -36 -32 -2 2 1 23 7 46 11 40
125 211 158 238 19 15 47 16 72 2z m-2729 -65 c3 2 10 -4 17 -15 22 -35 -4
-29 -33 8 -16 20 -20 29 -9 19 12 -9 23 -15 25 -12z m104 -27 c6 -4 2 -8 -7
-8 -10 0 -18 7 -18 17 0 9 3 12 8 7 4 -5 12 -12 17 -16z m91 -29 c20 -22 23
-28 8 -19 -18 11 -50 50 -41 50 2 0 16 -14 33 -31z m-69 -1 c0 -13 -1 -17 -4
-10 -7 18 -23 15 -23 -5 0 -15 -2 -16 -10 -3 -14 22 -12 28 13 33 12 2 22 5
22 6 1 0 1 -9 2 -21z m-77 -13 c7 -8 8 -15 2 -15 -5 0 -15 7 -22 15 -7 8 -8
15 -2 15 5 0 15 -7 22 -15z m113 -82 c-3 -7 0 -13 6 -13 6 0 11 -5 11 -12 0
-6 17 -28 38 -47 20 -20 48 -49 62 -66 14 -16 -13 6 -60 50 -89 84 -104 105
-72 102 12 0 18 -6 15 -14z m2318 -59 c-6 -21 -9 -39 -7 -41 2 -2 15 6 30 18
15 12 29 20 30 18 2 -2 -5 -32 -15 -66 -22 -70 -64 -120 -107 -129 -20 -4 -40
-19 -57 -44 -23 -33 -44 -53 -132 -123 -22 -18 -23 -18 -15 0 35 77 45 95 60
100 31 11 71 43 94 76 18 26 12 23 -31 -17 -29 -26 -55 -46 -58 -42 -3 3 5 22
17 43 13 21 32 54 43 73 41 73 149 199 155 181 2 -5 -1 -27 -7 -47z m-318 -15
c-21 -29 -59 -93 -84 -142 -26 -49 -49 -85 -52 -81 -5 10 41 113 63 139 6 8 9
19 5 25 -3 5 -2 10 3 10 6 0 8 10 4 22 -3 13 -1 19 5 15 6 -4 10 1 9 10 0 9 5
18 13 21 8 3 11 0 7 -7 -15 -24 10 -9 33 19 40 51 35 26 -6 -31z m-1838 31
c10 -11 16 -20 13 -20 -3 0 -13 9 -23 20 -10 11 -16 20 -13 20 3 0 13 -9 23
-20z m108 -60 c19 -13 33 -28 30 -33 -10 -16 7 -56 26 -62 11 -3 18 -12 17
-20 -4 -30 -15 -25 -37 17 -12 23 -41 71 -65 104 -24 34 -40 64 -37 68 4 3 12
-6 18 -22 7 -15 28 -38 48 -52z m2396 46 c9 -10 8 -16 -4 -26 -13 -11 -15 -8
-15 14 0 30 3 32 19 12z m-3098 -20 c-7 -8 -8 -17 -3 -20 5 -3 12 -15 15 -26
5 -18 3 -19 -9 -9 -30 25 -37 50 -17 64 22 16 30 11 14 -9z m3227 -196 l-43
-38 -22 21 c-21 19 -22 22 -7 38 18 20 13 46 -12 56 -10 3 -25 -4 -41 -20
l-26 -25 48 -56 c26 -31 51 -56 54 -56 4 0 31 20 60 45 29 25 54 45 56 45 5 0
115 -146 115 -153 0 -3 -20 -20 -44 -36 -42 -29 -44 -29 -60 -12 -20 22 -20
38 0 49 14 8 14 12 3 30 -17 27 -27 27 -61 -1 l-27 -22 46 -62 46 -62 62 43
61 44 39 -61 c22 -34 45 -72 53 -84 12 -20 10 -23 -31 -47 -54 -32 -61 -32
-75 -1 -10 21 -9 26 8 35 17 9 18 14 8 35 -14 31 -25 31 -60 2 l-28 -22 35
-55 c19 -30 36 -59 38 -64 2 -6 33 7 70 27 l66 38 45 -90 45 -89 -52 -21 c-49
-21 -52 -21 -64 -5 -17 24 -16 41 2 48 18 7 20 40 2 54 -10 8 -21 6 -44 -8
l-32 -19 31 -69 31 -70 66 28 c36 16 69 26 72 24 8 -4 71 -175 67 -179 -3 -2
-100 -35 -104 -35 -1 0 -7 14 -13 31 -9 27 -8 32 9 36 21 6 26 28 11 52 -8 12
-14 12 -43 1 -18 -7 -35 -15 -36 -16 -4 -3 39 -126 47 -136 4 -4 36 1 71 12
35 11 68 16 72 12 5 -6 48 -160 48 -175 0 -3 -23 -11 -51 -17 -43 -10 -53 -10
-60 1 -15 24 -10 51 12 56 16 5 19 11 14 32 -9 33 -5 32 -49 20 -32 -9 -37
-14 -32 -32 3 -12 10 -46 16 -75 7 -28 17 -52 23 -52 7 1 40 7 74 14 l62 13 5
-26 c14 -69 28 -162 25 -166 -2 -2 -29 -5 -59 -7 -54 -3 -55 -2 -58 25 -3 22
1 30 17 34 15 4 21 13 21 35 0 27 -3 30 -22 24 -13 -3 -31 -6 -42 -6 -16 0
-17 -6 -11 -72 4 -40 10 -76 14 -79 3 -3 35 -3 71 1 43 4 68 3 72 -4 4 -6 8
-50 8 -98 l0 -88 -55 0 c-54 0 -55 0 -55 30 0 23 5 31 26 36 18 5 24 12 22 28
-2 17 -11 22 -45 24 l-43 3 0 -44 c0 -25 3 -59 6 -76 l7 -31 75 0 75 0 -7 -31
c-3 -17 -6 -62 -6 -100 l0 -69 -29 0 c-16 0 -43 3 -60 6 -27 6 -32 11 -29 33
2 20 9 27 31 29 23 3 27 8 27 33 0 28 -2 29 -44 29 l-44 0 -4 -74 -3 -75 29
-5 c16 -3 46 -6 68 -6 25 0 41 -5 44 -15 8 -19 -17 -185 -27 -185 -4 0 -31 5
-59 11 -39 8 -50 15 -46 26 3 8 6 21 6 29 0 8 10 14 24 14 16 0 27 7 31 21 9
29 -6 41 -46 37 -31 -3 -34 -6 -41 -48 -4 -25 -9 -57 -12 -71 -5 -26 -3 -27
62 -39 37 -7 70 -14 74 -16 5 -4 0 -29 -33 -155 l-9 -37 -53 15 c-28 9 -53 17
-55 18 -2 1 0 14 4 29 5 20 12 26 34 26 22 0 29 5 33 26 5 28 -3 33 -48 37
-26 2 -29 -2 -46 -63 -11 -36 -19 -68 -19 -72 0 -4 31 -16 69 -28 l70 -20 -24
-68 c-12 -37 -28 -79 -34 -94 l-10 -27 -48 21 c-60 26 -55 21 -47 53 6 23 10
26 35 21 16 -3 29 -2 29 2 0 4 3 17 6 28 5 18 0 24 -31 34 -20 7 -38 10 -39 8
-2 -1 -15 -34 -29 -71 l-26 -68 22 -9 c12 -4 43 -17 69 -29 l47 -20 -35 -78
c-50 -109 -48 -107 -103 -76 -25 15 -47 27 -49 28 -1 2 3 14 9 29 10 22 17 26
39 21 21 -5 29 -1 37 18 10 22 8 26 -24 41 -20 9 -37 16 -38 14 -1 -2 -17 -32
-35 -67 -35 -71 -38 -65 43 -107 26 -13 47 -30 47 -37 0 -6 -22 -47 -50 -90
l-50 -78 -45 31 c-48 33 -53 44 -29 75 12 16 18 17 33 8 20 -12 26 -9 45 24 6
10 -39 43 -58 43 -3 0 -23 -26 -45 -59 l-40 -59 59 -41 c33 -23 60 -45 60 -48
0 -12 -112 -153 -121 -153 -5 0 -27 16 -49 36 l-40 36 21 30 c20 28 22 28 40
12 18 -17 20 -16 34 2 13 17 12 21 -11 42 -14 12 -28 22 -32 21 -4 0 -26 -25
-50 -55 l-43 -55 33 -27 c18 -15 44 -37 57 -48 l25 -22 -64 -68 c-35 -38 -68
-70 -74 -72 -6 -1 -29 15 -51 38 l-39 40 24 25 c21 23 25 24 46 10 19 -12 24
-12 38 4 16 18 15 20 -10 40 -15 11 -30 21 -33 21 -4 0 -28 -22 -54 -48 l-47
-48 50 -56 50 -56 -70 -64 c-39 -35 -76 -63 -81 -63 -6 0 -26 20 -44 45 l-35
45 27 22 c25 21 29 21 45 6 17 -15 20 -15 36 0 15 16 15 19 -8 42 l-25 25 -50
-41 c-28 -23 -51 -44 -53 -48 -1 -4 16 -30 38 -58 22 -28 40 -55 40 -59 0 -11
-143 -114 -157 -114 -6 0 -25 21 -42 47 l-31 48 23 17 c28 22 44 22 55 2 9
-15 12 -15 31 -2 l22 16 -24 27 -23 28 -57 -38 c-31 -21 -57 -40 -57 -42 0 -3
17 -32 37 -65 30 -49 34 -61 22 -69 -29 -19 -157 -89 -163 -89 -5 0 -56 94
-56 104 0 10 64 38 67 30 11 -30 21 -36 42 -25 20 11 20 13 6 41 -9 17 -20 30
-27 30 -12 0 -118 -59 -118 -66 0 -3 14 -31 30 -64 34 -68 34 -66 18 -73 -7
-3 -50 -21 -95 -40 l-81 -36 -23 55 c-23 59 -20 69 22 79 19 5 28 2 35 -13 7
-16 14 -18 31 -11 22 8 23 9 7 42 l-17 35 -61 -25 c-33 -14 -63 -27 -65 -28
-1 -2 7 -34 19 -70 12 -36 20 -69 17 -71 -11 -12 -182 -62 -188 -56 -12 13
-30 105 -22 112 4 4 20 10 34 14 21 5 28 2 32 -14 5 -18 36 -28 49 -14 12 11
-15 75 -29 70 -8 -3 -38 -13 -68 -22 -30 -8 -55 -20 -55 -25 0 -5 7 -36 17
-69 9 -33 14 -62 11 -65 -6 -6 -191 -45 -195 -41 -5 5 -25 118 -21 121 2 2 19
5 38 7 30 3 35 0 38 -19 3 -24 18 -29 40 -15 8 6 10 19 6 40 -6 31 -8 32 -43
26 -82 -14 -106 -21 -105 -30 11 -66 14 -133 7 -137 -5 -3 -50 -9 -100 -13
l-90 -7 -6 33 c-4 18 -7 45 -7 61 0 27 3 29 40 29 33 0 40 -3 40 -20 0 -15 7
-20 26 -20 22 0 25 3 20 22 -3 13 -6 29 -6 36 0 13 -76 17 -117 6 -21 -6 -23
-12 -23 -80 l0 -74 -100 0 -100 0 0 65 0 65 35 0 c31 0 35 -3 35 -25 0 -20 5
-25 25 -25 22 0 25 4 25 35 l0 35 -69 0 c-79 0 -81 -3 -81 -97 0 -52 0 -52
-27 -48 -16 2 -63 7 -106 11 -66 5 -77 8 -73 22 2 10 7 37 10 62 7 46 7 46 41
42 29 -3 35 -8 35 -28 0 -19 5 -24 25 -24 22 0 25 4 25 34 l0 34 -66 7 c-78 8
-79 7 -88 -76 -5 -43 -11 -59 -22 -59 -15 0 -160 28 -181 35 -8 3 -7 20 4 64
15 58 17 60 42 55 38 -10 41 -13 41 -40 0 -19 5 -24 24 -24 20 0 25 6 28 34
l4 35 -63 11 c-34 7 -66 12 -70 11 -8 -1 -15 -19 -33 -89 -6 -24 -17 -42 -25
-42 -13 0 -176 49 -183 55 -3 3 38 115 42 115 2 0 17 -5 34 -11 27 -9 31 -15
26 -34 -4 -18 -1 -25 16 -30 26 -8 28 -7 36 32 6 30 5 31 -61 53 -36 12 -67
20 -69 19 -1 -2 -13 -32 -26 -66 -12 -36 -28 -63 -36 -63 -15 0 -154 59 -168
72 -10 8 32 108 45 108 4 0 20 -5 34 -10 22 -8 26 -15 21 -35 -5 -18 -1 -27
14 -35 18 -10 22 -7 30 17 15 43 15 43 -49 73 -67 32 -64 34 -101 -47 -13 -29
-28 -53 -33 -53 -8 0 -129 65 -165 88 -11 7 -7 20 18 60 l32 52 30 -16 c25
-13 29 -20 23 -41 -6 -24 6 -42 27 -43 8 0 42 60 36 64 -11 9 -116 66 -121 66
-3 0 -22 -27 -42 -60 -23 -38 -41 -58 -48 -53 -44 25 -157 105 -157 110 0 12
65 92 75 92 6 0 21 -9 34 -20 23 -18 23 -20 7 -38 -17 -18 -17 -20 5 -31 19
-11 25 -9 40 11 10 13 19 27 19 31 0 3 -26 25 -57 47 l-57 40 -45 -59 -45 -59
-35 29 c-20 15 -56 45 -80 67 l-44 39 37 42 c43 47 55 51 82 21 15 -17 16 -23
5 -40 -9 -16 -9 -24 0 -35 16 -20 22 -18 46 15 l22 28 -55 47 -54 47 -49 -53
-50 -53 -73 73 -73 73 44 40 c24 21 47 39 51 39 4 0 15 -12 25 -26 15 -23 15
-27 1 -43 -15 -16 -15 -19 2 -34 17 -16 20 -15 45 11 l26 27 -50 53 -51 52
-51 -45 c-28 -25 -55 -45 -59 -45 -7 0 -50 51 -102 121 l-27 37 52 33 51 33
19 -25 c23 -29 23 -35 4 -43 -19 -7 -19 -30 -1 -45 11 -9 20 -7 42 12 l28 25
-42 56 c-24 31 -45 56 -47 56 -2 0 -30 -18 -62 -40 -54 -38 -58 -40 -71 -23
-25 33 -95 154 -91 157 2 1 25 15 51 29 l47 27 15 -22 c20 -28 20 -44 1 -52
-18 -7 -19 -17 -3 -39 12 -15 15 -15 45 4 l32 20 -37 62 c-20 34 -37 63 -38
65 0 1 -29 -13 -64 -33 -34 -19 -64 -35 -66 -35 -2 0 -24 40 -49 89 l-44 89
42 17 c23 10 47 19 54 22 6 3 19 -9 27 -26 15 -28 15 -30 -4 -36 -22 -7 -25
-22 -10 -45 8 -12 13 -12 44 2 l35 17 -28 63 c-16 34 -33 64 -39 66 -5 1 -36
-9 -68 -23 -31 -14 -61 -22 -65 -18 -9 9 -71 175 -67 178 2 2 27 10 56 19 l53
15 9 -25 c11 -29 6 -44 -16 -44 -16 0 -19 -27 -5 -49 8 -12 14 -12 43 -1 18 7
35 15 37 16 2 2 -36 124 -45 142 -1 2 -33 -6 -70 -18 -37 -11 -71 -17 -74 -13
-7 7 -50 160 -50 175 0 9 100 29 110 23 4 -2 10 -16 12 -30 4 -20 1 -26 -19
-31 -21 -6 -23 -11 -18 -33 4 -14 8 -27 9 -28 6 -6 76 19 76 28 0 31 -34 139
-44 139 -6 -1 -39 -7 -73 -14 l-62 -13 -11 71 c-6 39 -13 83 -16 99 -5 23 -2
27 18 27 13 0 40 3 60 6 37 7 38 6 38 -26 0 -23 -5 -33 -20 -37 -14 -4 -20
-14 -20 -35 0 -27 3 -30 23 -24 12 3 30 6 41 6 17 0 18 6 12 73 -4 39 -11 75
-14 78 -4 3 -36 3 -72 -1 -43 -4 -68 -3 -72 4 -4 6 -8 50 -8 99 l0 87 55 0
c54 0 55 0 55 -30 0 -23 -5 -31 -25 -36 -26 -6 -29 -12 -19 -38 4 -11 19 -16
45 -16 l39 0 0 75 0 75 -75 0 -75 0 0 100 0 100 29 0 c16 0 43 -3 60 -6 26 -5
31 -11 31 -35 0 -23 -5 -28 -27 -31 -22 -2 -29 -9 -31 -30 -3 -27 -2 -28 42
-28 l46 0 0 64 c0 36 5 68 10 71 12 7 13 -26 4 -102 l-7 -53 -53 0 -54 0 0 51
c0 50 1 51 25 45 20 -5 25 -3 25 14 0 17 -7 20 -39 20 -38 0 -38 0 -45 -46 -3
-26 -6 -62 -6 -80 l0 -34 74 0 74 0 4 -87 c2 -54 0 -91 -7 -95 -5 -4 -31 -8
-57 -8 l-48 0 0 45 c0 41 2 45 25 45 16 0 25 6 25 15 0 11 -12 15 -46 15 l-47
0 7 -52 c3 -29 6 -66 6 -81 l0 -28 74 7 73 7 6 -34 c3 -19 9 -59 12 -90 l7
-56 -54 -11 c-29 -5 -54 -9 -56 -7 -2 1 -4 22 -5 46 -2 38 1 44 20 47 14 2 20
8 16 18 -6 16 -68 20 -78 5 -5 -10 12 -137 20 -152 3 -3 35 0 71 7 37 8 69 13
71 10 3 -3 43 -161 43 -171 0 -2 -18 -9 -41 -15 -22 -6 -46 -13 -53 -16 -18
-7 -40 77 -23 88 7 4 17 8 24 8 7 0 10 7 6 16 -4 12 -14 14 -42 9 -20 -4 -37
-8 -39 -10 -4 -4 30 -139 38 -148 3 -4 35 1 71 12 35 11 66 17 70 13 9 -11 62
-163 58 -166 -8 -6 -90 -36 -98 -36 -9 0 -31 53 -31 75 0 7 9 15 21 18 12 3
19 11 17 19 -5 14 -24 13 -64 -2 l-23 -9 25 -68 c14 -37 27 -70 30 -75 2 -4
35 6 72 22 l67 29 38 -81 c20 -44 37 -82 37 -84 0 -4 -85 -54 -93 -54 -4 0
-16 18 -26 39 l-20 39 21 14 c31 21 15 40 -22 26 -17 -5 -32 -14 -35 -19 -5
-7 47 -123 61 -138 3 -3 34 11 70 30 37 19 68 30 70 24 2 -5 24 -41 48 -80
l44 -69 -50 -34 c-54 -37 -52 -37 -84 22 -15 26 -15 30 0 38 15 8 23 38 10 38
-10 0 -64 -34 -64 -41 0 -3 18 -34 40 -68 l40 -62 61 42 c34 22 64 37 68 33
29 -33 101 -134 101 -141 0 -10 -75 -73 -87 -73 -4 0 -20 17 -35 38 -26 38
-26 38 -6 51 14 8 17 16 10 23 -11 11 -62 -17 -62 -35 0 -5 17 -30 38 -55 20
-25 40 -50 44 -56 4 -5 29 10 61 37 31 26 57 47 60 47 2 0 32 -32 67 -71 l63
-71 -41 -41 -42 -42 -37 38 c-37 37 -37 39 -19 53 13 9 16 18 10 23 -5 6 -20
0 -38 -15 l-29 -25 54 -55 53 -54 53 52 52 52 63 -54 c35 -29 67 -57 72 -61
10 -9 -53 -98 -69 -98 -5 0 -25 13 -44 29 -33 28 -34 30 -17 49 26 29 3 34
-24 6 -23 -24 -23 -25 -4 -46 10 -12 36 -35 57 -51 l37 -30 23 28 c12 16 34
42 49 59 l26 30 24 -21 c13 -12 44 -35 71 -53 26 -18 47 -36 47 -42 0 -7 -29
-57 -57 -98 -4 -6 -83 50 -83 58 0 4 5 12 12 19 8 8 9 15 2 22 -7 7 -17 0 -32
-20 l-22 -29 59 -41 c33 -22 64 -40 68 -40 4 1 25 28 45 60 l37 59 78 -46 c43
-26 80 -48 83 -50 6 -6 -43 -94 -56 -100 -6 -2 -27 6 -47 17 -31 18 -35 25
-27 40 13 25 13 30 -3 30 -8 0 -19 -12 -26 -27 -14 -31 -8 -38 71 -79 l48 -24
31 62 c17 35 32 64 34 66 2 2 158 -65 173 -74 3 -1 -37 -106 -43 -112 -2 -2
-24 6 -50 17 -41 18 -45 23 -36 40 14 24 14 31 1 31 -9 0 -44 -59 -38 -65 14
-13 132 -55 138 -48 4 4 17 34 30 65 12 32 25 58 29 58 8 0 165 -52 170 -56 6
-5 -21 -104 -30 -109 -5 -3 -27 0 -49 6 -34 10 -40 16 -38 35 5 35 -14 33 -28
-3 l-13 -31 61 -21 c34 -12 68 -21 75 -21 7 0 20 26 28 58 9 31 18 62 20 68 2
8 30 5 91 -8 49 -10 90 -21 92 -23 3 -2 1 -29 -3 -60 -7 -59 -10 -61 -74 -49
-24 5 -31 12 -31 30 0 31 -16 39 -24 11 -13 -48 -9 -53 58 -65 35 -7 68 -12
74 -12 5 0 13 26 17 58 10 87 8 86 110 73 48 -6 90 -13 93 -15 2 -3 1 -30 -3
-61 l-7 -56 -46 3 c-43 3 -47 5 -50 31 -2 15 -7 27 -12 27 -10 0 -20 -63 -11
-72 3 -3 38 -8 76 -10 l70 -3 3 73 3 73 97 -3 97 -3 3 -62 3 -63 -51 0 c-47 0
-50 2 -50 25 0 16 -6 25 -15 25 -10 0 -15 -11 -15 -35 l0 -35 75 0 75 0 0 74
0 73 92 7 c50 3 93 4 95 2 5 -5 22 -110 18 -114 -2 -2 -25 -4 -52 -5 -43 -2
-48 0 -51 21 -6 38 -22 24 -22 -18 l0 -41 53 6 c106 12 100 6 92 89 l-7 73 78
14 c111 19 106 20 121 -36 16 -64 16 -63 -4 -69 -66 -18 -81 -17 -85 4 -5 33
-23 22 -20 -13 1 -17 4 -32 6 -34 6 -6 146 28 146 35 0 4 -7 32 -15 62 -8 30
-15 60 -15 66 0 9 146 59 174 59 8 0 19 -25 40 -91 5 -18 1 -24 -25 -33 -46
-16 -67 -14 -74 9 -7 23 -25 27 -25 6 0 -8 4 -26 10 -40 l9 -25 63 21 c35 11
67 24 71 28 4 4 -3 36 -17 72 l-24 66 51 20 c29 11 69 27 89 36 l38 16 25 -50
c14 -27 25 -53 25 -57 0 -4 -19 -16 -42 -26 -42 -17 -43 -17 -60 5 -9 13 -19
20 -22 17 -8 -8 14 -69 24 -69 18 0 130 53 130 62 0 5 -13 35 -30 68 l-30 58
86 47 c47 25 87 45 89 43 17 -22 55 -99 52 -105 -3 -4 -22 -17 -42 -28 -34
-18 -38 -18 -46 -2 -6 9 -16 17 -24 17 -12 0 -12 -5 2 -34 l16 -35 39 20 c22
11 52 28 68 38 l29 17 -38 64 -38 63 80 53 c74 50 81 53 93 36 25 -31 56 -83
53 -86 -80 -60 -77 -59 -89 -37 -12 23 -30 28 -30 9 0 -7 9 -24 19 -37 l19
-25 61 46 61 45 -44 59 c-25 32 -44 59 -43 60 1 1 33 27 70 58 38 32 74 55 81
53 7 -3 27 -23 45 -45 l31 -40 -37 -31 c-35 -29 -38 -29 -55 -14 -10 9 -21 14
-24 10 -7 -7 25 -57 37 -57 10 0 103 79 108 92 2 6 -18 32 -45 59 l-48 49 64
65 c35 36 69 65 75 65 6 0 28 -17 48 -38 l37 -38 -35 -34 c-33 -32 -35 -33
-54 -16 -30 27 -35 1 -5 -29 l27 -27 48 48 c27 27 49 54 49 60 0 7 -23 32 -52
57 l-51 44 53 64 c29 35 56 68 60 73 8 8 100 -49 100 -62 0 -4 -13 -23 -29
-42 -25 -30 -30 -33 -45 -21 -12 10 -20 11 -27 4 -7 -7 -1 -17 20 -32 l30 -22
46 58 c25 32 45 60 45 63 0 3 -12 13 -27 22 -16 10 -41 28 -57 41 l-29 24 48
76 c27 43 50 77 52 77 2 0 26 -13 53 -28 l49 -28 -25 -42 c-22 -37 -27 -40
-44 -30 -14 9 -23 9 -30 2 -8 -8 -2 -17 22 -32 l33 -21 42 66 43 66 -42 25
c-24 14 -53 31 -65 38 l-22 14 41 77 c23 43 42 79 44 81 3 4 104 -39 104 -45
0 -2 -9 -22 -20 -44 -18 -34 -23 -38 -40 -29 -25 13 -30 13 -30 -5 0 -11 46
-45 63 -45 6 0 71 139 66 143 -2 2 -31 15 -64 30 -33 14 -60 30 -60 34 0 7 55
153 61 162 4 5 104 -30 104 -36 0 -3 -5 -23 -11 -44 -11 -35 -14 -37 -40 -32
-44 8 -38 -23 7 -37 19 -7 37 -10 38 -8 2 1 15 35 29 75 l26 72 -70 21 c-64
19 -70 23 -65 43 4 12 14 53 23 90 15 60 19 68 38 63 11 -3 37 -9 58 -12 28
-5 36 -11 33 -23 -3 -9 -8 -29 -12 -44 -5 -23 -11 -28 -33 -25 -45 5 -38 -26
9 -38 l40 -11 11 41 c5 23 14 57 19 76 11 41 9 42 -73 59 l-63 12 15 91 14 90
56 -7 c31 -4 56 -8 57 -8 0 -1 -1 -21 -4 -44 -4 -40 -6 -43 -33 -43 -43 0 -37
-26 7 -35 20 -3 40 -3 45 2 4 4 11 40 14 79 l7 71 -38 6 c-22 4 -54 7 -71 7
-37 0 -38 2 -26 123 l6 67 53 0 54 0 0 -51 c0 -50 -1 -51 -25 -45 -20 5 -25 3
-25 -14 0 -17 7 -20 39 -20 35 0 39 3 45 31 3 17 6 53 6 80 l0 49 -74 0 -75 0
-3 88 c-2 50 1 90 7 94 6 4 31 8 58 8 l47 0 0 -44 c0 -38 -3 -45 -22 -48 -12
-2 -23 -9 -26 -15 -2 -9 10 -13 42 -13 52 0 52 1 40 107 l-7 53 -72 -7 -73 -6
-12 87 c-7 48 -11 89 -9 91 2 2 27 7 56 13 48 8 52 8 57 -12 11 -42 6 -68 -14
-73 -11 -3 -20 -12 -20 -19 0 -17 65 -20 75 -4 5 9 -11 149 -18 156 -1 2 -31
-4 -67 -11 -36 -8 -68 -14 -71 -15 -5 0 -49 156 -49 174 0 3 18 10 41 16 22 6
46 13 54 16 9 4 17 -7 24 -33 14 -50 14 -51 -9 -58 -11 -3 -20 -13 -20 -22 0
-12 7 -14 38 -8 20 4 39 8 41 10 6 6 -30 145 -39 150 -5 3 -37 -4 -71 -15 -35
-10 -67 -16 -70 -12 -4 4 -15 34 -27 67 -11 33 -23 68 -27 77 -6 14 2 22 40
38 60 26 61 26 74 -11 15 -43 14 -59 -3 -59 -19 0 -27 -13 -17 -29 7 -10 15
-9 45 3 l36 15 -25 66 c-13 36 -27 70 -30 75 -3 5 -35 -4 -72 -19 l-66 -29
-39 80 c-21 44 -38 81 -38 84 0 2 22 15 50 29 l50 25 19 -39 20 -39 -22 -15
c-17 -11 -19 -18 -11 -27 9 -9 19 -8 43 5 26 13 31 20 25 38 -11 38 -57 117
-67 117 -6 0 -34 -13 -64 -30 -29 -16 -55 -30 -57 -30 -6 0 -98 152 -94 155
22 17 84 55 90 55 3 0 16 -16 29 -36 18 -30 19 -38 8 -45 -8 -5 -17 -9 -21 -9
-5 0 -8 -5 -8 -10 0 -20 28 -21 58 -3 l31 19 -41 67 c-22 37 -44 67 -48 67 -3
0 -32 -18 -63 -39 l-56 -40 -47 62 c-26 34 -51 67 -55 73 -6 8 6 24 35 48 l45
36 27 -36 c27 -35 27 -37 10 -50 -25 -18 -14 -49 11 -35 58 34 58 36 19 89
-20 27 -43 55 -51 62 -16 14 -17 13 -90 -44 l-37 -30 -57 59 c-65 66 -66 77
-17 124 l32 31 32 -33 c29 -30 31 -35 17 -47 -18 -15 -20 -40 -2 -40 8 0 24
11 37 25 l23 25 -39 47 c-57 67 -68 72 -97 45 -38 -36 -44 -25 -6 14 l34 35
68 -71 68 -71 -43 -39z m-3249 121 c36 -45 37 -48 14 -73 -15 -17 -17 -17 -35
-1 -18 16 -20 16 -39 -3 -19 -20 -19 -20 11 -49 l31 -29 23 29 c14 17 28 27
32 22 7 -7 -43 -67 -55 -67 -3 0 -23 16 -44 36 l-38 35 26 35 c26 34 28 35 46
18 15 -13 22 -15 31 -6 9 9 6 18 -12 37 -13 14 -28 25 -33 25 -10 0 -102 -99
-102 -110 0 -3 23 -27 51 -52 l52 -45 -56 -69 c-30 -38 -59 -68 -64 -66 -4 1
-26 15 -48 31 l-40 29 29 35 c26 34 29 35 50 21 19 -14 22 -14 27 0 6 16 -30
55 -51 56 -11 0 -95 -103 -95 -118 0 -5 25 -26 55 -47 30 -20 55 -40 55 -44 0
-3 -22 -38 -48 -78 l-48 -72 -47 26 c-26 15 -47 29 -47 32 0 3 9 21 20 39 15
25 25 32 38 27 47 -18 55 5 11 36 l-32 22 -18 -24 c-10 -13 -29 -45 -43 -70
l-25 -45 63 -37 64 -36 -41 -78 c-22 -43 -41 -79 -42 -81 -2 -2 -96 37 -103
43 -2 2 6 22 18 44 18 37 23 40 42 30 16 -8 22 -8 29 2 5 9 -2 19 -22 31 -16
10 -33 18 -37 18 -8 0 -72 -124 -72 -138 0 -5 26 -19 58 -32 31 -12 60 -26 65
-30 5 -5 -45 -150 -59 -169 -5 -7 -104 31 -104 40 0 5 6 25 14 43 12 29 18 33
40 29 41 -8 33 23 -10 37 -19 7 -37 10 -38 8 -7 -8 -46 -120 -46 -133 0 -8 27
-22 65 -35 36 -12 65 -24 65 -27 0 -6 -43 -166 -45 -171 -1 -1 -25 3 -54 10
-53 12 -55 15 -45 67 6 27 11 32 33 29 18 -2 27 2 29 14 2 12 -6 19 -33 24
-20 3 -38 4 -41 1 -3 -3 -14 -37 -24 -76 -20 -80 -27 -71 73 -91 39 -8 57 -16
54 -24 -3 -7 -11 -47 -17 -89 -8 -47 -17 -77 -25 -77 -7 0 -32 3 -57 6 l-44 6
5 42 c5 36 10 41 33 44 16 2 28 9 28 17 0 18 -70 30 -80 14 -9 -14 -24 -139
-17 -145 2 -2 34 -7 71 -11 36 -3 66 -9 66 -14 0 -10 -142 0 -153 11 -9 8 11
170 22 183 7 7 97 -6 107 -16 3 -2 2 -16 -2 -31 -4 -18 -13 -26 -29 -26 -15 0
-25 -7 -28 -22 -9 -31 -1 -38 42 -38 l38 0 7 53 c3 28 9 62 12 73 5 20 0 23
-65 35 -83 14 -82 12 -50 130 l21 77 51 -15 c29 -8 53 -16 55 -17 1 -2 -1 -16
-4 -33 -5 -25 -9 -29 -34 -25 -23 3 -28 0 -32 -22 -6 -30 -5 -31 42 -40 l36
-6 17 67 c9 38 17 71 17 75 0 4 -31 17 -70 28 l-70 21 30 81 c17 45 34 86 39
91 14 14 101 -22 101 -42 0 -30 -17 -44 -44 -37 -14 3 -26 3 -26 -1 0 -5 -3
-18 -6 -29 -5 -18 0 -24 31 -34 20 -7 38 -10 40 -8 2 1 15 34 29 71 l25 68
-56 24 c-30 14 -59 25 -64 25 -5 0 -9 5 -9 12 0 20 72 168 82 168 7 0 87 -37
96 -45 1 -1 -3 -14 -9 -29 -10 -22 -17 -26 -39 -21 -21 5 -29 1 -37 -18 -10
-22 -8 -26 23 -41 19 -9 37 -16 39 -16 6 0 65 117 65 129 0 5 -26 24 -57 42
-32 18 -60 34 -62 35 -6 5 92 164 101 164 16 0 88 -53 88 -64 0 -6 -7 -19 -14
-29 -12 -15 -18 -17 -36 -7 -18 10 -24 8 -35 -7 -19 -24 -16 -30 21 -54 l31
-19 43 66 c26 39 39 68 33 72 -5 4 -33 22 -61 40 l-52 34 29 41 c16 23 44 59
62 79 l34 38 42 -38 42 -37 -19 -23 c-16 -20 -22 -21 -39 -11 -15 10 -23 10
-35 0 -23 -19 -20 -34 14 -59 l29 -22 46 56 c25 31 45 60 45 64 0 4 -23 27
-50 50 -28 24 -50 46 -48 51 6 15 119 139 128 139 4 0 22 -18 39 -39z m2451
20 c-5 -11 -15 -23 -21 -27 -6 -3 -3 5 6 20 20 30 30 35 15 7z m-1693 -99 c14
-23 23 -45 21 -48 -3 -2 -17 17 -32 43 -14 27 -34 59 -42 73 l-16 25 22 -25
c12 -13 33 -44 47 -68z m-78 -20 c-9 -4 1 -42 11 -42 5 0 21 -20 36 -44 28
-45 69 -76 114 -87 l25 -7 -26 -1 c-41 -2 -104 52 -158 136 -28 43 -57 85 -66
94 -8 9 -15 22 -15 29 0 7 19 -7 43 -31 23 -24 39 -45 36 -47z m1693 -17 c-5
-16 -14 -31 -20 -33 -9 -3 -7 8 5 32 19 42 26 42 15 1z m-1558 -1 c9 -22 -3
-32 -14 -14 -12 19 -12 30 -1 30 5 0 12 -7 15 -16z m1341 -56 l19 -33 -31 25
c-34 27 -41 40 -20 40 7 0 21 -15 32 -32z m-1145 16 c0 0 -11 -11 -25 -24
l-25 -24 2 25 c1 18 8 24 25 24 13 0 23 0 23 -1z m452 -15 c110 -10 145 -9
265 6 154 19 275 12 257 -16 -3 -5 -14 -4 -27 2 -34 19 -402 -4 -457 -29 -21
-9 -9 -11 68 -11 62 -1 91 -4 87 -11 -4 -7 -23 -8 -48 -5 -23 4 -53 2 -66 -3
-35 -13 -73 7 -68 34 3 20 -2 22 -66 29 -38 3 -71 4 -75 1 -3 -3 10 -6 29 -7
19 0 28 -3 21 -6 -6 -2 -9 -9 -6 -15 5 -7 -2 -9 -20 -4 -15 4 -25 3 -22 -2 2
-4 -22 -6 -54 -4 -32 2 -72 0 -89 -6 -25 -9 -29 -8 -24 4 3 8 13 14 22 15 10
0 7 4 -8 10 -14 5 -27 6 -30 1 -3 -5 -24 -11 -46 -15 l-40 -5 45 20 c49 22
135 37 190 32 19 -1 92 -8 162 -15z m784 4 c-3 -7 -1 -13 4 -13 5 0 11 8 13
18 3 9 5 -4 4 -29 0 -31 -5 -46 -14 -46 -8 0 -12 6 -9 13 3 8 1 16 -4 19 -6 4
-10 15 -10 26 0 11 -4 17 -10 14 -5 -3 -10 -2 -10 4 0 5 9 9 20 8 12 -1 18 -7
16 -14z m956 -123 c657 -805 606 -2006 -117 -2759 -183 -190 -369 -326 -608
-441 -493 -238 -1046 -275 -1566 -104 -780 256 -1330 929 -1431 1748 -14 114
-14 378 0 492 48 387 208 768 447 1064 62 77 113 129 113 116 0 -4 -30 -41
-66 -84 -92 -108 -216 -297 -280 -428 -325 -668 -276 -1435 130 -2048 337
-509 856 -836 1462 -921 126 -18 409 -20 534 -5 797 100 1473 654 1729 1419
119 357 131 808 30 1181 -81 302 -256 624 -456 841 -29 31 -49 59 -45 63 7 8
24 -10 124 -134z m-1337 101 c3 -5 0 -13 -6 -17 -7 -4 -9 -3 -5 4 3 6 -3 12
-16 15 -23 4 -23 4 -1 6 12 0 24 -3 28 -8z m172 -7 c-3 -3 -12 -4 -19 -1 -8 3
-5 6 6 6 11 1 17 -2 13 -5z m-384 -11 c-7 -2 -19 -2 -25 0 -7 3 -2 5 12 5 14
0 19 -2 13 -5z m486 -46 c0 -9 -2 -9 -6 1 -2 6 -9 9 -14 6 -11 -6 -39 13 -39
27 0 5 14 3 30 -6 17 -9 30 -21 29 -28z m989 -64 c222 -257 388 -643 436
-1011 51 -391 -12 -793 -178 -1137 -99 -207 -210 -366 -371 -533 -316 -330
-731 -540 -1185 -603 -123 -17 -409 -17 -530 0 -266 37 -549 136 -765 266
-495 299 -831 775 -950 1346 -32 155 -44 433 -26 609 40 384 198 766 439 1060
34 41 62 81 62 89 0 8 2 12 5 9 8 -7 37 -170 31 -175 -2 -3 -8 16 -11 41 -4
25 -11 46 -15 46 -4 0 -28 -26 -53 -58 -484 -616 -569 -1430 -222 -2122 157
-313 413 -596 708 -783 31 -20 60 -37 63 -37 3 0 -4 13 -15 29 -12 16 -21 37
-21 48 1 12 6 8 18 -15 l18 -33 -4 68 c-2 37 -2 66 1 63 3 -3 21 -33 41 -67
20 -34 42 -65 48 -69 13 -8 3 12 -20 39 -18 21 -6 22 28 2 46 -26 44 -15 -2
14 -26 17 -54 41 -63 55 -17 25 -58 126 -52 126 2 0 23 -18 46 -40 62 -59 71
-48 12 16 -28 30 -51 63 -51 73 0 9 -6 23 -13 31 -6 8 -2 6 10 -4 13 -10 20
-23 16 -29 -3 -5 -2 -7 4 -4 5 3 25 -3 44 -14 l34 -21 -28 27 c-50 48 -28 52
55 9 38 -20 64 -48 83 -89 19 -43 52 -75 94 -92 60 -25 109 -71 150 -141 25
-42 54 -76 78 -92 21 -13 55 -39 75 -57 21 -18 61 -45 90 -60 l53 -28 260 -2
260 -3 60 29 c53 25 111 69 198 148 15 14 39 49 54 77 32 66 76 112 135 142
45 23 88 65 88 88 1 23 57 73 113 100 42 20 68 42 93 76 28 39 43 50 82 60 65
17 122 28 122 23 0 -2 -16 -17 -35 -34 -43 -38 -45 -55 -4 -34 44 23 46 13 3
-25 -20 -17 -48 -45 -61 -60 -21 -26 -22 -28 -3 -23 10 3 22 14 25 24 4 10 9
19 13 19 4 0 18 3 32 7 22 6 24 5 11 -10 -10 -13 -10 -17 -1 -17 10 0 10 -3 0
-15 -6 -8 -8 -20 -4 -27 4 -7 4 -10 -1 -6 -4 4 -29 -11 -54 -35 -25 -23 -62
-55 -81 -70 l-35 -27 45 14 c112 35 171 49 176 43 4 -4 -2 -10 -12 -13 -20 -8
-154 -103 -154 -110 0 -3 9 0 21 6 26 14 36 6 19 -15 -28 -34 7 -11 91 60 49
41 92 75 96 75 4 0 17 11 28 23 11 13 30 29 43 36 12 7 20 16 17 22 -4 5 -1 8
7 7 7 -2 12 4 10 12 -2 8 0 12 4 7 4 -4 20 5 36 20 28 27 39 51 16 37 -7 -4
-8 -3 -4 4 4 6 14 8 23 5 13 -5 15 -2 9 12 -4 11 -4 16 0 12 8 -8 54 31 54 46
0 6 -9 2 -20 -8 -11 -10 -20 -13 -20 -8 0 10 25 25 45 27 26 2 193 274 260
421 41 92 42 98 27 117 -56 69 -82 94 -139 135 -34 24 -63 47 -63 49 0 3 31
-11 68 -31 73 -38 121 -81 146 -130 l15 -29 20 45 c51 115 104 382 116 589 22
345 -88 769 -281 1094 -44 72 -193 276 -203 276 -4 0 -19 -66 -35 -147 -32
-170 -39 -191 -44 -147 -1 16 8 68 21 115 14 46 33 128 43 183 14 76 20 93 25
73 4 -15 30 -52 57 -84z m-2113 77 c-3 -5 -1 -10 4 -10 6 0 11 -6 11 -14 0 -8
5 -16 11 -18 6 -2 -19 -30 -55 -62 -37 -32 -76 -77 -88 -100 -11 -22 -28 -50
-39 -61 -10 -11 -19 -24 -21 -30 -2 -5 -9 -9 -15 -9 -7 1 -13 -2 -13 -6 0 -4
-6 -8 -12 -7 -34 1 -48 -4 -48 -19 0 -13 -3 -14 -14 -5 -20 17 -112 10 -108
-7 1 -8 -2 -11 -8 -7 -6 3 -51 -28 -100 -69 -49 -42 -93 -76 -97 -76 -14 0
143 141 186 167 23 14 68 32 100 39 48 11 63 21 103 66 64 71 109 116 157 157
47 38 53 55 15 41 -14 -6 -37 -10 -52 -9 -21 1 -17 4 21 16 26 8 47 18 47 24
0 5 5 9 11 9 5 0 7 -4 4 -10z m1293 -31 c-3 -8 -7 -3 -11 10 -4 17 -3 21 5 13
5 -5 8 -16 6 -23z m-418 0 c0 -14 -17 -10 -23 5 -4 10 -1 13 9 9 7 -3 14 -9
14 -14z m209 -5 c2 -10 8 -22 13 -25 5 -3 2 -12 -7 -19 -12 -10 -15 -10 -15 4
0 9 -6 16 -12 17 -10 0 -10 2 0 6 6 2 12 9 12 14 0 6 -4 8 -9 5 -5 -3 -11 0
-14 8 -4 9 0 13 11 12 9 -2 19 -11 21 -22z m168 -9 c0 -8 -4 -12 -9 -9 -5 3
-6 10 -3 15 9 13 12 11 12 -6z m-267 -21 c0 -8 -5 -12 -10 -9 -6 4 -8 11 -5
16 9 14 15 11 15 -7z m-830 2 c0 -3 -4 -8 -10 -11 -5 -3 -10 -1 -10 4 0 6 5
11 10 11 6 0 10 -2 10 -4z m765 -6 c3 -5 1 -10 -4 -10 -6 0 -11 5 -11 10 0 6
2 10 4 10 3 0 8 -4 11 -10z m-245 -20 c0 -5 -2 -10 -4 -10 -3 0 -8 5 -11 10
-3 6 -1 10 4 10 6 0 11 -4 11 -10z m657 -22 c-3 -8 -6 -5 -6 6 -1 11 2 17 5
13 3 -3 4 -12 1 -19z m-757 -30 c0 -4 -1 -9 -2 -10 -1 -2 4 -13 11 -25 6 -13
8 -23 4 -23 -5 0 -14 15 -21 33 l-13 32 -15 -27 c-8 -16 -17 -28 -19 -28 -6 0
6 32 16 46 10 13 39 14 39 2z m279 -29 c-18 -11 -19 -8 -12 20 5 21 7 21 16 6
6 -12 5 -20 -4 -26z m-1757 -21 c-3 -14 -1 -19 6 -14 8 5 10 2 6 -8 -8 -20 25
-118 37 -110 6 3 6 -4 0 -18 -5 -13 -13 -32 -16 -43 -5 -13 -14 15 -26 85 -21
123 -22 130 -10 130 5 0 7 -10 3 -22z m2261 -58 c3 -11 1 -18 -4 -14 -5 3 -9
12 -9 20 0 20 7 17 13 -6z m-1468 -20 c-3 -5 -12 -10 -18 -10 -7 0 -6 4 3 10
19 12 23 12 15 0z m-747 -31 c-3 -8 -7 -3 -11 10 -4 17 -3 21 5 13 5 -5 8 -16
6 -23z m1465 -36 c-7 -97 -11 -100 -12 -10 -1 42 3 77 8 77 5 0 7 -30 4 -67z
m-103 -37 c0 -56 -8 -59 -12 -4 -1 25 -6 34 -15 31 -7 -3 -13 1 -13 9 0 7 9
14 20 14 17 0 20 -7 20 -50z m-703 38 c-3 -3 -12 -4 -19 -1 -8 3 -5 6 6 6 11
1 17 -2 13 -5z m-171 -39 c-11 -8 -27 -15 -35 -15 -10 1 -7 6 9 15 33 19 50
18 26 0z m-60 -21 c-4 -11 -2 -15 8 -11 10 4 13 1 9 -9 -3 -9 -10 -11 -17 -6
-7 6 -34 -14 -76 -57 -36 -36 -55 -57 -43 -47 12 10 27 16 34 14 7 -2 -17 -19
-52 -37 l-64 -32 100 100 c55 56 101 101 103 101 2 0 1 -7 -2 -16z m2057 -74
c21 -19 53 -53 70 -75 l31 -40 -40 38 c-41 38 -67 50 -43 20 13 -16 12 -17 -3
-4 -10 7 -16 16 -13 20 2 4 -18 30 -45 56 -28 27 -50 44 -50 37 0 -7 -5 -10
-10 -7 -8 5 -7 11 1 21 13 16 15 15 102 -66z m-1055 9 c-3 -20 -5 -19 -9 9 -3
20 -2 29 4 23 5 -5 7 -19 5 -32z m-938 6 c-8 -9 -6 -15 7 -20 10 -5 24 -7 32
-6 7 1 11 -4 8 -11 -2 -7 2 -21 11 -30 14 -16 12 -21 -21 -52 -20 -18 -51 -39
-69 -44 -27 -9 -29 -9 -14 1 71 45 116 108 65 92 -15 -5 -18 -2 -13 12 3 10
-4 1 -16 -19 -11 -21 -20 -40 -20 -43 1 -7 -44 -44 -48 -40 -4 4 69 118 82
128 6 5 -14 6 -44 4 l-55 -5 48 22 c26 12 44 26 40 30 -4 5 -2 6 5 2 9 -6 10
-11 2 -21z m992 -22 c-5 -76 -10 -83 -11 -15 0 34 2 62 7 62 4 0 6 -21 4 -47z
m-1076 22 c-8 -8 -18 -15 -22 -15 -3 0 -1 7 6 15 7 8 17 15 22 15 5 0 3 -7 -6
-15z m931 -77 c-2 -18 -4 -4 -4 32 0 36 2 50 4 33 2 -18 2 -48 0 -65z m242 64
c0 -11 -3 -12 -6 -4 -2 6 -12 12 -21 12 -14 0 -15 2 -2 9 18 12 30 5 29 -17z
m-212 -14 c-3 -7 -5 -2 -5 12 0 14 2 19 5 13 2 -7 2 -19 0 -25z m993 11 c0 -6
-4 -7 -10 -4 -5 3 -10 11 -10 16 0 6 5 7 10 4 6 -3 10 -11 10 -16z m-963 -81
c-2 -18 -4 -4 -4 32 0 36 2 50 4 33 2 -18 2 -48 0 -65z m60 55 c-3 -10 -5 -4
-5 12 0 17 2 24 5 18 2 -7 2 -21 0 -30z m986 7 c3 -13 1 -17 -10 -13 -7 3 -11
8 -9 11 3 3 1 11 -6 19 -8 11 -7 12 5 8 8 -4 17 -15 20 -25z m-84 -56 c22 -36
41 -67 41 -70 0 -2 -30 16 -67 42 l-68 45 54 -50 c30 -28 51 -55 48 -63 -3 -8
-6 -5 -6 7 -1 17 -3 17 -11 5 -8 -13 -10 -13 -10 1 0 9 -18 28 -40 43 -24 16
-40 34 -40 46 0 29 24 25 67 -12 32 -28 35 -29 20 -8 -31 45 -48 80 -38 80 5
0 27 -30 50 -66z m-1618 18 c-7 -2 -18 1 -23 6 -8 8 -4 9 13 5 13 -4 18 -8 10
-11z m464 -2 c7 0 18 -7 26 -16 11 -13 7 -13 -24 2 -20 9 -33 22 -30 28 4 6 8
6 11 -2 2 -7 9 -12 17 -12z m445 16 c0 -2 -26 -19 -57 -36 -32 -18 -69 -42
-82 -54 -16 -14 -22 -16 -19 -6 2 8 29 29 59 47 30 18 59 37 64 42 10 10 35
15 35 7z m415 -16 c-11 -5 -27 -9 -35 -9 -13 -1 -13 0 0 9 8 5 24 9 35 9 l20
0 -20 -9z m682 -139 c89 -62 182 -179 252 -320 37 -73 35 -93 -3 -29 -14 24
-26 39 -26 34 0 -6 -13 3 -30 19 -16 16 -30 24 -30 18 0 -5 9 -18 21 -29 11
-10 26 -28 31 -39 7 -12 -4 -7 -26 14 l-36 35 4 -31 c2 -23 0 -30 -10 -26 -8
3 -11 9 -8 14 3 5 0 9 -7 9 -8 0 -8 4 1 15 7 8 8 15 3 15 -5 0 -9 8 -10 18 -2
28 55 22 78 -9 32 -41 21 -11 -17 49 -54 83 -105 143 -117 135 -5 -3 -7 -2 -4
4 9 15 -49 67 -81 71 -27 3 -61 36 -62 59 0 7 -6 16 -12 20 -7 4 -31 31 -52
58 l-40 50 60 -55 c32 -31 87 -75 121 -99z m-2242 114 c-39 -32 -58 -32 -22 0
15 14 33 25 40 25 7 -1 -1 -12 -18 -25z m-315 -29 c-18 -25 -54 -59 -80 -77
-27 -18 -46 -37 -44 -41 3 -5 0 -7 -8 -6 -7 2 -12 -3 -10 -10 1 -8 -1 -11 -6
-8 -10 6 -108 -92 -142 -143 -13 -19 -19 -32 -13 -28 17 11 11 -46 -7 -60 -8
-7 -20 -11 -27 -8 -8 2 -10 -2 -6 -12 5 -12 3 -14 -8 -8 -8 4 -11 5 -7 1 3 -4
-2 -17 -12 -29 -11 -12 -26 -31 -35 -42 -29 -38 12 54 63 138 66 110 143 197
237 265 44 33 91 71 104 86 36 39 36 32 1 -18z m221 24 c-13 -11 -18 -20 -12
-20 5 0 1 -16 -11 -37 -12 -20 -24 -31 -26 -24 -2 7 1 18 7 24 6 6 11 17 11
24 0 10 -5 10 -25 1 -13 -6 -23 -14 -21 -17 2 -3 -7 -6 -20 -6 -13 0 -24 1
-24 2 0 3 134 72 140 72 3 0 -6 -9 -19 -19z m459 10 c11 -8 7 -9 -15 -4 -37 8
-45 14 -19 14 10 0 26 -5 34 -10z m333 -9 l28 -18 -24 -5 c-18 -4 -24 -1 -20
9 3 8 -2 13 -17 13 -11 0 -18 5 -15 10 9 14 16 13 48 -9z m656 -15 c-80 -19
-168 -45 -195 -59 -56 -29 -113 -86 -133 -135 -15 -37 -27 -38 -12 -1 5 13 10
29 11 34 1 6 7 19 13 30 6 11 10 23 9 27 -1 5 1 7 6 7 4 -1 14 -1 22 0 13 1
13 2 0 12 -13 9 -13 9 0 7 19 -4 100 32 100 44 0 4 7 8 16 8 9 0 37 7 63 15
53 17 184 43 221 43 14 0 -40 -14 -121 -32z m617 -12 c24 -14 42 -31 41 -37
-1 -7 8 -11 22 -9 15 2 21 0 17 -7 -4 -6 -4 -11 1 -12 26 -2 47 -9 55 -17 5
-5 -4 -7 -22 -4 -17 2 -33 8 -36 13 -3 5 -14 9 -25 9 -14 0 -19 -7 -19 -27 -1
-24 -2 -26 -11 -10 -6 10 -15 14 -22 10 -9 -5 -9 -3 0 8 10 12 10 18 0 28 -9
9 -7 13 12 18 l23 6 -23 12 c-33 18 -50 9 -39 -21 15 -39 -9 -29 -26 11 -8 19
-13 37 -12 40 2 2 -6 11 -17 20 -19 14 -18 15 8 5 16 -6 48 -22 73 -36z m-416
26 c0 -13 -11 -13 -30 0 -12 8 -11 10 8 10 12 0 22 -4 22 -10z m-1223 -6 c-3
-3 -12 -4 -19 -1 -8 3 -5 6 6 6 11 1 17 -2 13 -5z m100 0 c-3 -3 -12 -4 -19
-1 -8 3 -5 6 6 6 11 1 17 -2 13 -5z m78 -4 c-3 -5 2 -10 11 -10 10 0 15 -2 13
-5 -3 -2 -23 -1 -45 2 l-39 7 30 7 c17 4 31 7 33 8 2 0 0 -3 -3 -9z m280 -17
l18 -28 -29 25 c-16 14 -31 26 -33 28 -2 1 3 2 11 2 9 0 24 -12 33 -27z m700
17 c-11 -5 -29 -9 -40 -9 l-20 0 20 9 c11 5 29 9 40 9 l20 0 -20 -9z m-648
-32 c-3 -7 -5 -2 -5 12 0 14 2 19 5 13 2 -7 2 -19 0 -25z m85 7 c-2 -14 -6
-25 -8 -25 -2 0 -4 11 -4 25 0 14 4 25 9 25 4 0 6 -11 3 -25z m48 4 c0 -6 -4
-7 -10 -4 -5 3 -10 11 -10 16 0 6 5 7 10 4 6 -3 10 -11 10 -16z m425 1 c-3 -5
-12 -7 -20 -3 -21 7 -19 13 6 13 11 0 18 -4 14 -10z m-876 -16 c10 -9 -35 -3
-49 6 -11 8 -7 9 15 4 17 -4 32 -8 34 -10z m61 6 c18 -12 2 -12 -25 0 -13 6
-15 9 -5 9 8 0 22 -4 30 -9z m740 -5 l-25 -14 25 -1 c14 -1 19 -4 12 -7 -7 -3
-20 -2 -30 3 -9 4 -28 6 -42 6 -18 -1 -13 2 15 12 53 18 76 19 45 1z m-686
-14 c4 -5 -3 -7 -14 -4 -23 6 -26 13 -6 13 8 0 17 -4 20 -9z m196 -78 c0 -7
-8 -13 -17 -13 -15 0 -16 2 -3 10 13 8 12 10 -4 10 -11 0 -16 5 -13 14 3 8 -3
24 -14 37 -10 12 -19 25 -19 28 1 12 70 -73 70 -86z m-417 70 c-7 -2 -19 -2
-25 0 -7 3 -2 5 12 5 14 0 19 -2 13 -5z m438 -19 c4 -10 8 -26 8 -34 -1 -8 -5
-3 -11 13 -5 15 -13 25 -18 22 -4 -3 -10 1 -13 9 -4 9 0 13 10 12 9 -2 20 -11
24 -22z m364 16 c-3 -5 -12 -10 -18 -10 -7 0 -6 4 3 10 19 12 23 12 15 0z
m-1350 -38 c-6 -8 -35 12 -35 24 0 11 4 10 18 -3 10 -10 18 -19 17 -21z m1630
10 c-2 -3 -12 -1 -22 2 -15 6 -15 9 -3 16 13 8 35 -8 25 -18z m76 9 c7 11 9
10 9 -3 0 -10 5 -18 10 -18 6 0 10 -6 10 -14 0 -10 -10 -5 -30 12 -16 15 -30
31 -30 37 0 5 5 2 11 -9 9 -15 13 -16 20 -5z m-1060 -23 c5 1 9 -2 9 -8 0 -13
-10 -12 -40 5 -14 8 -19 14 -12 15 7 0 10 6 7 13 -4 6 1 3 10 -8 9 -11 21 -19
26 -17z m148 6 c14 -12 -19 -1 -35 12 -18 14 -18 14 6 3 14 -6 27 -13 29 -15z
m45 -3 c-2 -3 -12 3 -22 13 -16 17 -16 18 5 5 12 -7 20 -15 17 -18z m294 15
c-7 -8 -15 -12 -17 -11 -5 6 10 25 20 25 5 0 4 -6 -3 -14z m355 4 c14 -1 3 -8
-27 -20 -27 -11 -65 -34 -85 -52 -34 -31 -34 -30 3 9 22 24 49 46 59 49 16 5
17 8 6 16 -11 8 -10 8 4 4 10 -3 28 -6 40 -6z m54 4 c-3 -3 -12 -4 -19 -1 -8
3 -5 6 6 6 11 1 17 -2 13 -5z m512 -8 c20 -11 21 -14 7 -19 -12 -5 -15 -3 -10
5 5 7 2 9 -9 5 -9 -3 -18 0 -21 9 -7 17 2 17 33 0z m-2309 -26 c-22 -31 -30
-37 -30 -20 0 9 39 50 48 50 2 0 -6 -13 -18 -30z m1140 -2 c0 -9 4 -8 11 2 8
11 9 8 4 -13 -4 -19 -2 -26 5 -22 5 3 10 -2 10 -13 0 -10 3 -21 6 -25 4 -3 8
-25 9 -49 l3 -43 -19 54 c-10 30 -25 61 -32 70 -23 26 -28 51 -12 51 8 0 15
-6 15 -12z m-1095 -8 c-3 -5 -12 -10 -18 -10 -7 0 -6 4 3 10 19 12 23 12 15 0z
m780 -14 c28 -12 64 -39 82 -59 70 -80 83 -255 21 -288 -11 -6 -43 -8 -71 -5
-29 3 -44 3 -34 0 9 -3 15 -9 12 -14 -7 -11 54 -24 112 -25 33 0 48 6 73 30
18 17 39 43 47 59 14 26 14 28 -1 23 -12 -5 -19 1 -26 18 -9 23 -22 35 -19 18
3 -15 -14 -73 -22 -78 -4 -3 -3 10 2 29 5 19 8 46 5 60 -3 14 -1 26 4 26 5 0
7 13 4 28 -5 23 -1 30 20 40 14 6 26 16 26 22 0 6 -4 9 -9 5 -15 -9 -24 14
-11 30 13 16 -3 30 -22 19 -9 -5 -9 -2 1 9 11 14 11 17 0 17 -10 0 -10 3 -1
12 15 15 43 -7 35 -28 -6 -17 18 -19 35 -2 7 7 12 8 12 3 1 -6 12 -46 26 -90
19 -63 24 -71 20 -37 -2 23 -1 42 4 42 9 0 20 -60 20 -114 l0 -38 -21 23 c-11
13 -18 18 -14 12 4 -8 0 -13 -10 -13 -15 0 -16 8 -10 59 5 47 3 64 -10 84 -9
14 -15 30 -13 34 2 4 -7 9 -19 11 -13 2 -23 -1 -23 -7 0 -6 7 -8 15 -5 16 7
17 -19 2 -43 -5 -9 -3 -11 6 -7 8 3 18 0 23 -7 4 -8 3 -10 -4 -5 -7 4 -12 2
-12 -3 0 -6 5 -11 10 -11 6 0 10 -4 10 -10 0 -5 -8 -7 -17 -4 -17 5 -17 5 0
-6 25 -16 23 -111 -4 -168 -42 -85 -112 -102 -216 -53 -83 39 -213 123 -243
158 -24 26 -24 26 15 -4 22 -16 54 -38 70 -49 29 -18 29 -17 -7 24 -21 23 -38
47 -38 53 0 5 -5 7 -12 3 -7 -4 -8 -3 -4 4 3 6 2 31 -5 55 -14 57 1 114 38
149 49 45 77 48 148 14z m1067 -13 c38 -37 53 -93 39 -150 -7 -24 -8 -49 -5
-55 4 -6 3 -8 -4 -4 -6 3 -13 -2 -17 -13 -8 -26 -71 -81 -107 -93 -15 -5 -28
-14 -28 -19 0 -11 49 13 107 53 30 20 41 33 37 46 -4 12 -3 13 3 5 7 -9 19 1
46 36 39 50 53 96 16 51 -18 -22 -19 -22 -10 -3 15 30 30 37 37 19 3 -8 -4
-29 -16 -46 -23 -32 -16 -39 16 -15 22 17 34 19 34 6 0 -5 -11 -12 -25 -15
-14 -4 -42 -21 -63 -40 -99 -88 -280 -186 -343 -186 -47 0 -94 38 -120 95 -12
26 -19 33 -19 20 0 -17 -2 -17 -10 -5 -5 8 -9 38 -8 65 l1 50 7 -45 c4 -25 8
-36 8 -24 1 11 8 21 16 21 8 0 12 -6 9 -13 -2 -7 5 -22 16 -33 12 -12 21 -25
21 -29 0 -14 58 -52 89 -58 33 -7 141 21 141 37 0 7 -19 8 -54 4 -48 -6 -56
-4 -76 17 -13 12 -19 17 -15 9 5 -9 4 -12 -2 -8 -5 3 -9 43 -8 89 3 102 26
161 83 208 77 65 151 74 204 23z m54 28 c-3 -5 0 -24 8 -42 8 -21 10 -42 5
-54 -7 -18 -8 -18 -9 5 0 14 -7 36 -15 50 -19 33 -19 50 1 50 8 0 13 -4 10 -9z
m-989 -32 c4 -12 11 -18 20 -15 8 3 12 2 8 -3 -3 -5 0 -11 7 -13 8 -3 8 -7 2
-11 -6 -3 -26 9 -44 28 -27 28 -30 35 -16 35 10 0 20 -9 23 -21z m163 -33 c0
-12 -5 -7 -19 24 -11 24 -11 24 3 6 9 -11 16 -24 16 -30z m197 12 c-3 -7 -5
-2 -5 12 0 14 2 19 5 13 2 -7 2 -19 0 -25z m319 -16 c-17 -16 -18 -16 -5 5 7
12 15 20 18 17 3 -2 -3 -12 -13 -22z m-412 3 c3 -8 1 -15 -4 -15 -6 0 -10 7
-10 15 0 8 2 15 4 15 2 0 6 -7 10 -15z m51 -67 c4 -40 5 -86 2 -103 -3 -21 -5
-16 -6 20 -1 28 -6 74 -10 103 -4 28 -4 52 0 52 4 0 10 -33 14 -72z m-658 40
c-3 -8 -6 -5 -6 6 -1 11 2 17 5 13 3 -3 4 -12 1 -19z m690 -10 c-3 -7 -5 -2
-5 12 0 14 2 19 5 13 2 -7 2 -19 0 -25z m-157 -26 c0 -23 -17 -4 -23 25 -5 26
-4 26 9 8 8 -10 14 -25 14 -33z m457 9 c-6 -17 -15 -28 -19 -25 -12 8 -10 21
8 38 22 22 24 20 11 -13z m629 -17 c-37 -25 -98 -52 -81 -36 26 25 101 70 108
65 5 -3 -7 -16 -27 -29z m-986 16 c0 -5 -5 -10 -11 -10 -5 0 -7 5 -4 10 3 6 8
10 11 10 2 0 4 -4 4 -10z m-890 -21 c17 -13 18 -17 5 -10 -33 17 -51 31 -40
31 6 0 21 -10 35 -21z m1985 11 c4 -6 -8 -10 -29 -10 -19 0 -43 -3 -53 -6 -12
-5 -15 -4 -8 4 9 9 34 16 72 21 6 0 15 -3 18 -9z m-2242 -7 c-7 -2 -21 -2 -30
0 -10 3 -4 5 12 5 17 0 24 -2 18 -5z m154 1 c-3 -3 -12 -4 -19 -1 -8 3 -5 6 6
6 11 1 17 -2 13 -5z m2246 -1 c-7 -2 -19 -2 -25 0 -7 3 -2 5 12 5 14 0 19 -2
13 -5z m-1886 -25 c-3 -8 -6 -5 -6 6 -1 11 2 17 5 13 3 -3 4 -12 1 -19z m383
-26 c0 -32 -15 -18 -24 22 -6 26 -5 28 8 17 9 -8 16 -25 16 -39z m427 26 c-3
-8 -6 -5 -6 6 -1 11 2 17 5 13 3 -3 4 -12 1 -19z m-1330 -4 c-3 -3 -12 -4 -19
-1 -8 3 -5 6 6 6 11 1 17 -2 13 -5z m1490 -66 c-2 -13 -4 -3 -4 22 0 25 2 35
4 23 2 -13 2 -33 0 -45z m-1373 43 c3 -5 -2 -15 -12 -22 -15 -13 -16 -12 -4 3
11 14 10 17 -5 21 -16 4 -16 5 -1 6 9 0 19 -3 22 -8z m1022 0 c-3 -5 1 -11 9
-15 17 -6 19 -58 5 -91 -6 -15 -9 -6 -9 33 -1 28 -5 52 -11 52 -5 0 -10 -20
-10 -45 0 -35 -3 -43 -15 -39 -11 4 -15 21 -15 58 0 37 3 47 10 36 9 -13 12
-13 21 3 5 9 12 17 15 17 3 0 3 -4 0 -9z m865 -7 c-25 -8 -47 -12 -49 -9 -5 5
56 23 78 23 8 0 -5 -6 -29 -14z m-724 -16 c-3 -8 -6 -5 -6 6 -1 11 2 17 5 13
3 -3 4 -12 1 -19z m40 -10 c-3 -7 -5 -2 -5 12 0 14 2 19 5 13 2 -7 2 -19 0
-25z m-877 12 c18 -12 2 -12 -25 0 -13 6 -15 9 -5 9 8 0 22 -4 30 -9z m793
-73 c2 -32 0 -54 -4 -50 -8 9 -12 51 -9 98 2 41 8 21 13 -48z m24 41 c-3 -7
-5 -2 -5 12 0 14 2 19 5 13 2 -7 2 -19 0 -25z m121 7 c-3 -3 -9 2 -12 12 -6
14 -5 15 5 6 7 -7 10 -15 7 -18z m-1433 -5 c-3 -5 -12 -10 -18 -10 -7 0 -6 4
3 10 19 12 23 12 15 0z m58 -7 c-7 -2 -21 -2 -30 0 -10 3 -4 5 12 5 17 0 24
-2 18 -5z m1464 -55 c-2 -13 -4 -3 -4 22 0 25 2 35 4 23 2 -13 2 -33 0 -45z
m873 53 c0 -5 -10 -13 -22 -16 -13 -4 -35 -19 -50 -32 -16 -15 -33 -23 -42
-20 -20 8 -20 -12 -2 -36 14 -18 14 -17 21 2 8 27 64 69 106 81 l33 10 -40
-43 c-22 -23 -26 -30 -9 -15 50 44 81 51 137 31 26 -9 48 -21 48 -25 0 -4 -19
-9 -42 -9 l-43 -1 50 -9 c28 -5 59 -6 70 -4 11 3 14 2 7 -1 -10 -5 -6 -12 15
-25 32 -21 48 -24 37 -7 -4 6 4 3 18 -8 14 -10 24 -21 22 -23 -2 -2 -12 2 -21
10 -10 7 -5 -1 11 -19 16 -17 32 -29 36 -27 11 7 26 -17 26 -40 -1 -11 10 -28
24 -37 14 -10 20 -18 15 -18 -20 0 -55 31 -49 42 5 7 1 9 -9 5 -10 -4 -16 -2
-14 6 1 7 -6 11 -15 11 -10 -1 -15 2 -13 7 7 10 -69 55 -108 64 -24 6 -18 -2
39 -56 36 -35 70 -63 74 -62 4 1 18 -10 31 -25 13 -14 16 -20 7 -13 -12 9 -18
10 -18 2 0 -6 -3 -10 -7 -10 -5 1 -21 1 -38 0 l-30 -1 33 -20 c18 -11 38 -17
44 -14 7 5 8 2 4 -5 -5 -8 -3 -11 5 -10 21 4 59 -11 59 -23 0 -6 -12 -2 -27 8
-20 13 -25 13 -16 2 7 -8 10 -18 6 -21 -3 -4 1 -7 10 -7 10 0 17 -4 17 -9 0
-14 -31 -6 -44 11 -12 16 -113 44 -123 34 -4 -3 0 -6 9 -6 21 0 100 -59 93
-70 -3 -5 2 -13 12 -19 20 -10 86 -94 85 -108 -1 -4 11 -14 25 -22 21 -10 23
-15 12 -23 -10 -6 3 -8 38 -5 52 4 62 -7 20 -22 -17 -7 -18 -9 -4 -14 10 -4
35 8 68 34 45 37 50 38 44 18 -11 -36 -119 -216 -175 -290 -27 -36 -75 -86
-107 -110 -32 -23 -62 -47 -68 -52 -14 -12 44 3 78 20 26 13 27 13 16 -5 -18
-28 -72 -62 -141 -88 l-63 -23 89 6 c86 6 88 6 78 -14 -6 -11 -27 -34 -47 -52
-30 -26 -33 -31 -15 -31 30 0 24 -15 -22 -55 -64 -55 -126 -88 -188 -101 l-55
-11 50 -6 c28 -4 65 -3 83 2 46 14 40 -2 -16 -37 -56 -37 -104 -58 -175 -77
l-52 -14 45 0 c25 -1 61 3 79 9 52 15 25 -7 -45 -35 -57 -24 -58 -25 -24 -26
l35 -1 -45 -20 c-25 -12 -90 -29 -145 -39 -55 -9 -93 -18 -85 -19 27 -3 105 1
125 7 19 5 19 4 4 -12 -9 -9 -54 -30 -100 -45 -62 -22 -76 -29 -53 -30 17 0
53 7 80 15 27 8 51 15 53 15 3 0 -8 -13 -23 -29 -30 -31 -86 -56 -157 -70 -32
-6 -36 -9 -16 -10 28 -1 36 -14 16 -27 -6 -4 -32 -12 -58 -19 -45 -13 -45 -13
-12 -14 l34 -1 -24 -27 c-13 -15 -16 -21 -6 -14 12 10 17 10 17 2 0 -14 -97
-61 -126 -61 l-21 0 18 78 c10 42 20 86 23 97 4 11 0 7 -8 -10 -8 -16 -22 -65
-32 -107 -9 -43 -21 -75 -25 -72 -5 3 -9 -8 -9 -25 0 -55 -35 -114 -114 -191
-127 -124 -228 -162 -380 -140 -60 8 -99 8 -149 0 -137 -22 -263 24 -383 138
-70 66 -114 132 -114 171 0 11 -6 26 -13 33 -7 7 -19 40 -26 73 -14 61 -41
138 -47 132 -2 -1 5 -30 15 -62 31 -102 33 -125 13 -125 -31 0 -110 31 -124
48 -11 14 -10 15 7 9 17 -6 17 -4 -2 9 -31 22 -29 34 5 35 22 0 18 3 -19 15
-26 7 -52 21 -59 29 -11 13 -8 15 21 16 27 0 20 4 -32 17 -74 20 -142 60 -160
94 -10 20 -10 21 2 12 19 -16 116 -44 148 -43 17 0 -2 10 -50 28 -79 28 -168
78 -119 67 14 -3 52 -8 85 -11 55 -5 51 -3 -50 24 -112 29 -185 55 -185 66 0
3 17 3 38 0 32 -5 30 -3 -23 20 -56 24 -106 58 -60 40 11 -4 49 -9 85 -11 l65
-4 -55 15 c-68 19 -190 78 -213 102 -15 18 -13 18 55 15 50 -3 69 -1 64 7 -4
6 -17 11 -29 11 -35 0 -118 44 -169 89 -27 24 -48 47 -48 52 0 5 12 9 28 9 25
1 26 1 7 12 -29 15 -65 50 -77 72 -10 18 -7 19 83 14 l94 -6 -68 23 c-74 26
-121 56 -138 86 -10 19 -9 20 18 6 15 -8 41 -17 57 -21 24 -6 18 2 -34 43 -77
62 -146 148 -229 286 -85 143 -89 160 -22 107 32 -26 58 -39 68 -35 12 5 10 9
-11 20 -14 7 -26 15 -26 17 0 2 24 1 52 -1 36 -3 49 -1 39 5 -11 8 -9 13 12
23 14 8 25 17 24 21 -1 4 21 33 48 65 28 31 50 62 50 68 0 5 25 24 55 42 60
37 58 38 -24 21 -38 -7 -53 -14 -44 -19 7 -5 9 -9 3 -9 -5 0 -16 4 -24 9 -11
7 -9 11 8 20 12 7 19 16 16 21 -4 6 1 7 11 3 13 -5 15 -3 9 7 -5 9 -4 11 3 6
6 -4 24 0 39 8 l28 15 -30 2 c-16 1 -36 2 -43 2 -6 -1 -12 4 -12 10 0 7 -4 7
-12 -1 -27 -27 -29 -10 -2 19 l29 32 -27 -7 c-16 -3 -28 -5 -28 -3 0 8 122 79
127 74 3 -3 -16 -28 -42 -56 -75 -80 -42 -60 39 24 40 41 67 75 60 75 -15 0
-124 -57 -146 -77 -9 -8 -23 -15 -31 -17 -8 -1 -22 -7 -30 -14 -13 -11 -14 -9
-8 20 4 18 7 41 5 51 -2 15 0 16 12 6 11 -9 14 -8 14 5 0 9 5 16 10 16 6 0 10
-5 10 -10 0 -6 10 -1 23 10 12 12 31 26 42 31 16 8 15 5 -5 -14 -14 -13 -38
-39 -55 -58 -21 -23 -14 -19 21 13 61 55 121 87 183 98 l46 8 -42 1 c-24 0
-43 5 -43 9 0 4 22 16 48 25 58 21 88 13 142 -36 19 -18 28 -23 20 -12 -7 11
-27 32 -44 47 l-31 27 34 -9 c46 -13 79 -36 99 -70 17 -27 19 -28 30 -9 7 10
12 26 12 34 0 8 5 15 10 15 13 0 13 -27 0 -35 -18 -11 -11 -99 13 -145 21 -44
24 -45 77 -50 62 -6 66 -8 135 -66 67 -56 90 -64 193 -64 106 0 189 27 281 89
116 79 132 83 322 83 93 0 169 4 169 8 0 5 7 7 16 3 13 -5 13 -8 2 -15 -9 -7
-7 -8 10 -5 14 3 20 1 15 -6 -4 -7 0 -8 11 -4 10 4 15 3 11 -3 -7 -12 32 -33
47 -24 6 4 8 3 4 -4 -3 -6 4 -18 16 -26 25 -18 42 -21 33 -6 -3 5 25 -5 63
-23 38 -18 65 -33 61 -35 -4 -2 -31 9 -59 23 -29 15 -54 24 -57 21 -4 -3 25
-20 63 -38 61 -29 81 -33 171 -36 88 -4 108 -1 145 17 44 21 121 91 101 91 -6
0 -16 -7 -23 -15 -7 -8 -17 -15 -23 -15 -6 0 4 11 23 25 38 28 45 31 34 13 -5
-8 -2 -9 12 -3 10 5 44 11 74 14 53 6 56 8 78 51 23 45 30 100 12 100 -5 0 -6
7 -3 17 4 10 2 14 -4 10 -8 -5 -9 2 -4 20 5 21 14 29 35 31 16 2 40 14 54 27
14 13 29 22 34 19 4 -3 8 0 8 5 0 6 5 11 10 11 6 0 10 -4 10 -9z m53 2 c-7 -2
-19 -2 -25 0 -7 3 -2 5 12 5 14 0 19 -2 13 -5z m-2333 -13 c8 -5 11 -10 5 -10
-5 0 -17 5 -25 10 -8 5 -10 10 -5 10 6 0 17 -5 25 -10z m1259 -23 c0 -21 -1
-21 -9 -2 -12 28 -12 37 0 30 6 -3 10 -16 9 -28z m-1424 13 c3 -5 -2 -10 -12
-10 -10 0 -35 -9 -56 -20 -31 -17 -37 -17 -37 -5 0 8 6 15 14 15 7 0 27 7 42
15 34 18 41 18 49 5z m1382 -12 c-3 -8 -6 -5 -6 6 -1 11 2 17 5 13 3 -3 4 -12
1 -19z m1203 12 c8 -5 11 -10 5 -10 -5 0 -17 5 -25 10 -8 5 -10 10 -5 10 6 0
17 -5 25 -10z m-2820 -35 c-19 -19 -38 -35 -44 -35 -5 0 5 16 24 35 19 19 38
35 44 35 5 0 -5 -16 -24 -35z m16 -22 c-62 -67 -135 -166 -129 -176 4 -6 1 -7
-7 -2 -10 6 -12 4 -7 -9 4 -10 3 -15 -3 -11 -6 3 -10 -2 -11 -12 -1 -10 -2
-29 -2 -43 -1 -14 -7 -24 -14 -22 -7 1 -13 -3 -13 -8 0 -13 6 -13 32 1 23 13
22 8 -23 -54 -15 -21 -31 -51 -34 -67 -4 -17 -10 -32 -15 -35 -23 -14 30 201
62 255 51 84 156 203 186 209 2 1 -8 -11 -22 -26z m752 21 c24 -5 31 -12 36
-38 17 -90 181 -163 241 -106 21 19 21 19 78 -4 70 -28 59 -36 -53 -36 -140 0
-236 45 -333 157 -31 35 -27 38 31 27z m692 -16 c0 -5 -5 -6 -12 -2 -7 4 -8 3
-4 -4 9 -15 -22 -48 -54 -56 l-25 -7 26 15 c16 9 29 27 32 45 5 22 11 29 22
25 8 -3 15 -10 15 -16z m855 -12 c-42 -55 -129 -116 -196 -137 -59 -19 -218
-27 -232 -13 -4 4 17 18 45 31 l51 24 22 -21 c29 -27 87 -26 150 4 54 24 82
57 91 105 6 30 18 36 72 40 l23 1 -26 -34z m-1825 20 c0 -11 -19 -15 -25 -6
-3 5 1 10 9 10 9 0 16 -2 16 -4z m916 -31 c-3 -8 -10 -15 -15 -15 -7 0 -6 10
1 26 12 26 25 16 14 -11z m1715 -63 c33 -41 70 -95 83 -121 22 -43 49 -142 60
-221 l5 -35 -19 40 c-11 22 -20 54 -20 70 0 18 -3 25 -8 18 -11 -17 -54 49
-46 71 8 21 24 21 24 -1 0 -9 3 -14 6 -10 9 9 -6 48 -17 42 -5 -3 -6 0 -3 8 3
8 -2 17 -11 21 -10 3 -15 12 -12 20 3 8 -1 22 -9 33 -14 17 -14 16 -4 -4 6
-13 7 -23 2 -23 -9 0 -22 29 -26 55 0 6 -8 10 -16 10 -9 0 -14 8 -12 19 2 11
-1 15 -8 11 -6 -3 -9 -1 -8 6 2 7 -4 13 -12 14 -8 0 -15 7 -15 15 -1 8 -7 26
-15 40 -12 23 -12 24 4 11 9 -8 44 -48 77 -89z m-1431 67 c0 -6 -4 -7 -10 -4
-5 3 -10 11 -10 16 0 6 5 7 10 4 6 -3 10 -11 10 -16z m-1541 8 c-2 -1 -13 -9
-24 -17 -19 -14 -19 -14 -6 3 7 9 18 17 24 17 6 0 8 -1 6 -3z m761 -16 c14
-28 -21 -71 -46 -55 -30 18 -39 40 -25 58 18 22 58 20 71 -3z m470 15 c0 -3
-4 -8 -10 -11 -5 -3 -10 -1 -10 4 0 6 5 11 10 11 6 0 10 -2 10 -4z m106 -5
c-4 -5 0 -12 6 -14 8 -4 7 -6 -4 -6 -9 -1 -24 -4 -33 -8 -16 -5 -15 -4 1 15
18 21 41 31 30 13z m704 -1 c0 -5 -4 -10 -10 -10 -5 0 -10 5 -10 10 0 6 5 10
10 10 6 0 10 -4 10 -10z m-70 -50 c0 -28 -33 -43 -56 -25 -10 7 -17 15 -14 17
24 21 55 36 62 32 4 -3 8 -14 8 -24z m-425 0 c3 -5 1 -10 -4 -10 -6 0 -11 5
-11 10 0 6 2 10 4 10 3 0 8 -4 11 -10z m-715 -10 c0 -5 -4 -10 -10 -10 -5 0
-10 5 -10 10 0 6 5 10 10 10 6 0 10 -4 10 -10z m2078 -25 c-3 -3 -9 2 -12 12
-6 14 -5 15 5 6 7 -7 10 -15 7 -18z m-518 -4 c-1 -21 -49 -86 -65 -88 -19 -3
-18 -2 1 6 24 10 49 63 41 85 -4 10 -1 13 9 9 7 -3 14 -8 14 -12z m-921 -7 c2
-2 -45 -3 -105 -3 -75 1 -97 4 -69 9 37 6 165 2 174 -6z m-239 -14 c-8 -5 -19
-10 -25 -10 -5 0 -3 5 5 10 8 5 20 10 25 10 6 0 3 -5 -5 -10z m-590 -10 c0 -5
-2 -10 -4 -10 -3 0 -8 5 -11 10 -3 6 -1 10 4 10 6 0 11 -4 11 -10z m688 3
c-16 -2 -40 -2 -55 0 -16 2 -3 4 27 4 30 0 43 -2 28 -4z m140 0 c-16 -2 -40
-2 -55 0 -16 2 -3 4 27 4 30 0 43 -2 28 -4z m-283 -13 c-3 -5 0 -10 7 -11 7 0
2 -5 -11 -10 -13 -5 -26 -7 -29 -4 -3 3 0 5 6 5 7 0 12 7 12 15 0 8 5 15 11
15 5 0 7 -4 4 -10z m1630 -10 c10 -11 16 -20 13 -20 -3 0 -13 9 -23 20 -10 11
-16 20 -13 20 3 0 13 -9 23 -20z m-2106 -6 c13 -12 -8 -10 -29 2 l-25 15 25
-7 c14 -3 27 -8 29 -10z m604 9 c-7 -2 -21 -2 -30 0 -10 3 -4 5 12 5 17 0 24
-2 18 -5z m757 -8 c-33 -19 -120 -48 -126 -42 -5 4 121 54 141 55 6 1 -1 -5
-15 -13z m860 -1 c0 -8 -5 -12 -10 -9 -6 4 -8 11 -5 16 9 14 15 11 15 -7z
m-2165 -24 c13 -6 15 -9 5 -9 -8 0 -22 4 -30 9 -18 12 -2 12 25 0z m375 5 c0
-2 -13 -11 -30 -20 -38 -19 -40 -11 -2 9 31 17 32 18 32 11z m1120 -15 c-8 -5
-19 -10 -25 -10 -5 0 -3 5 5 10 8 5 20 10 25 10 6 0 3 -5 -5 -10z m-1641 -67
c2 -2 0 -3 -6 -3 -6 0 -21 9 -34 21 l-24 20 30 -17 c17 -10 32 -19 34 -21z
m291 23 c-14 -7 -36 -16 -50 -20 -14 -3 -7 3 15 14 45 22 74 27 35 6z m1057 0
c-20 -9 -18 -10 18 -16 l40 -7 -37 -2 c-20 0 -40 4 -44 10 -4 7 -21 9 -44 5
-22 -3 -43 -1 -53 7 -14 10 -3 12 62 12 59 0 74 -2 58 -9z m-172 -16 c3 -6 -1
-7 -9 -4 -18 7 -21 14 -7 14 6 0 13 -4 16 -10z m-1035 -4 c0 -2 -9 -6 -20 -9
-11 -3 -20 -1 -20 4 0 5 9 9 20 9 11 0 20 -2 20 -4z m2233 -15 c3 -14 1 -18
-9 -14 -15 6 -18 16 -7 26 9 10 10 9 16 -12z m-2003 5 c0 -2 -7 -7 -16 -10 -8
-3 -12 -2 -9 4 6 10 25 14 25 6z m-1145 -30 c-16 -13 -32 -22 -34 -20 -7 7 33
43 49 43 9 1 3 -9 -15 -23z m810 -4 c-3 -3 -11 0 -18 7 -9 10 -8 11 6 5 10 -3
15 -9 12 -12z m88 11 c-13 -2 -33 -2 -45 0 -13 2 -3 4 22 4 25 0 35 -2 23 -4z
m1315 0 c-10 -2 -26 -2 -35 0 -10 3 -2 5 17 5 19 0 27 -2 18 -5z m943 -46 c9
-19 8 -19 -11 3 l-21 25 6 -25 c5 -21 4 -22 -5 -7 -12 19 -4 41 11 32 5 -4 14
-16 20 -28z m-140 6 c13 -16 12 -17 -3 -4 -17 13 -22 21 -14 21 2 0 10 -8 17
-17z m-3001 3 c0 -2 -9 -6 -20 -9 -11 -3 -18 -1 -14 4 5 9 34 13 34 5z m-70
-30 c0 -3 -4 -8 -10 -11 -5 -3 -10 -1 -10 4 0 6 5 11 10 11 6 0 10 -2 10 -4z
m3160 -9 c12 4 12 3 1 -5 -8 -6 -9 -11 -2 -13 6 -2 7 -10 3 -17 -6 -8 -15 -3
-31 19 -19 26 -20 29 -4 21 10 -5 25 -7 33 -5z m-3130 -24 c0 -16 -54 -71 -69
-70 -18 1 -15 11 16 66 2 2 9 -2 17 -8 12 -10 13 -9 9 9 -4 16 -2 19 11 14 9
-3 16 -8 16 -11z m3179 -36 c1 -5 -3 -5 -9 -2 -5 3 -10 16 -9 28 0 21 1 21 9
2 5 -11 9 -24 9 -28z m-399 -1363 c0 -2 -9 -4 -20 -4 -11 0 -20 4 -20 9 0 5 9
7 20 4 11 -3 20 -7 20 -9z m5 -22 c-2 -2 -5 -3 -7 -1 -1 1 -25 -10 -53 -24
-54 -29 -118 -40 -80 -13 25 17 105 44 127 43 9 -1 15 -3 13 -5z"/>
<path d="M1150 3990 c0 -24 55 -133 85 -169 28 -32 28 -33 6 -26 l-23 7 23
-42 c28 -49 101 -120 125 -120 12 0 3 -15 -29 -48 -45 -49 -77 -100 -77 -124
0 -7 13 10 29 37 16 28 48 69 71 92 l42 41 -39 20 c-37 19 -129 109 -121 117
2 3 24 -6 49 -18 35 -18 58 -22 119 -20 86 3 190 20 132 22 -18 1 -64 -4 -101
-9 -45 -8 -76 -8 -94 -1 -61 23 -165 148 -171 206 -3 29 -26 60 -26 35z"/>
<path d="M1485 3680 c-13 -6 2 -7 40 -3 33 3 62 7 64 9 9 8 -85 2 -104 -6z"/>
<path d="M1244 3438 c-10 -16 2 -18 21 -5 16 12 16 14 1 14 -9 0 -19 -4 -22
-9z"/>
<path d="M3844 3988 c-4 -7 -9 -22 -10 -35 -7 -62 -124 -195 -184 -208 -16 -3
-54 -1 -86 4 -32 6 -74 11 -93 10 -35 -1 -35 -1 9 -10 25 -5 79 -10 120 -12
61 -2 84 2 119 20 25 12 46 21 47 20 2 -1 -6 -17 -17 -34 -23 -36 -103 -93
-131 -93 -15 0 -7 -12 30 -48 28 -27 61 -71 76 -98 14 -27 25 -43 26 -36 0 23
-31 74 -77 124 -31 33 -41 48 -29 48 21 0 93 65 122 112 28 44 30 52 8 44 -15
-6 -15 -5 0 16 25 36 72 130 80 161 7 28 2 35 -10 15z"/>
<path d="M3458 3683 c12 -2 30 -2 40 0 9 3 -1 5 -23 4 -22 0 -30 -2 -17 -4z"/>
<path d="M3641 4085 c-2 -5 -4 -17 -6 -26 -1 -9 -6 -27 -9 -40 -6 -21 -5 -20
9 4 9 16 14 38 12 50 -2 12 -5 18 -6 12z"/>
<path d="M2138 3923 c12 -2 30 -2 40 0 9 3 -1 5 -23 4 -22 0 -30 -2 -17 -4z"/>
<path d="M3528 833 c7 -3 16 -2 19 1 4 3 -2 6 -13 5 -11 0 -14 -3 -6 -6z"/>
<path d="M3784 3212 c8 -13 66 -56 66 -49 0 3 -17 17 -37 33 -20 15 -33 23
-29 16z"/>
<path d="M960 2930 c-6 -11 -8 -20 -6 -20 3 0 10 9 16 20 6 11 8 20 6 20 -3 0
-10 -9 -16 -20z"/>
<path d="M2274 2966 c5 -16 4 -17 -8 -7 -12 10 -14 9 -12 -5 2 -10 10 -18 19
-20 19 -3 22 14 6 36 -9 12 -10 12 -5 -4z"/>
<path d="M1960 2834 c0 -2 14 -10 30 -19 17 -9 30 -12 30 -7 0 4 -13 13 -30
19 -16 6 -30 10 -30 7z"/>
<path d="M1203 2783 c9 -2 23 -2 30 0 6 3 -1 5 -18 5 -16 0 -22 -2 -12 -5z"/>
<path d="M3783 2783 c9 -2 23 -2 30 0 6 3 -1 5 -18 5 -16 0 -22 -2 -12 -5z"/>
<path d="M2480 2671 c-8 -5 -34 -11 -57 -15 -40 -6 -153 -50 -153 -59 0 -3 28
7 63 22 54 23 76 26 172 26 96 0 118 -3 173 -26 34 -15 62 -25 62 -22 0 10
-111 52 -161 61 -30 6 -61 13 -69 16 -8 3 -22 2 -30 -3z"/>
<path d="M1415 2594 c-92 -11 -139 -27 -177 -62 -21 -19 -46 -51 -54 -70 -16
-40 -18 -109 -4 -146 7 -18 5 -33 -5 -53 -8 -15 -15 -37 -14 -48 0 -15 3 -13
11 9 8 21 13 25 19 15 7 -11 9 -9 9 6 1 11 7 38 15 60 11 31 11 36 1 23 -19
-25 -24 -23 -31 16 -13 68 31 159 95 195 43 24 183 45 252 39 48 -5 54 -9 127
-87 67 -72 80 -81 111 -81 19 0 42 5 50 10 11 8 8 9 -12 4 -41 -9 -92 21 -139
83 -62 82 -120 102 -254 87z"/>
<path d="M3435 2585 c-22 -8 -40 -15 -41 -15 -1 0 -23 -28 -49 -61 -52 -66
-98 -93 -143 -83 -21 4 -24 3 -12 -5 21 -15 66 -14 99 3 15 8 47 40 70 70 23
31 55 63 71 71 52 27 227 12 300 -25 69 -35 114 -132 96 -205 -6 -22 -9 -25
-22 -14 -13 10 -13 8 -4 -15 5 -15 10 -42 11 -59 1 -30 1 -30 8 -7 l7 25 11
-30 c9 -23 12 -25 12 -10 1 11 -6 30 -14 42 -13 19 -13 25 1 59 13 32 14 47 5
89 -25 111 -86 157 -231 175 -107 13 -126 12 -175 -5z"/>
<path d="M2362 2555 c-74 -16 -167 -57 -200 -88 -78 -73 -65 -169 29 -215 24
-12 36 -22 26 -22 -10 0 -27 5 -39 11 -29 16 -32 6 -14 -47 19 -57 19 -57 4
-48 -7 5 -8 3 -4 -5 5 -7 10 -10 13 -7 3 3 23 -10 45 -28 24 -21 63 -40 101
-51 104 -29 177 -77 177 -118 0 -25 -165 -103 -262 -123 -110 -24 -318 -16
-375 14 -65 34 -109 86 -143 171 -67 163 -111 212 -214 237 l-51 12 51 1 c38
1 66 -7 107 -27 32 -16 51 -22 44 -14 -19 23 -108 62 -144 62 -72 0 -123 -40
-123 -96 0 -20 16 -71 35 -114 20 -43 36 -96 37 -120 1 -32 4 -38 11 -25 13
25 3 73 -33 155 -17 39 -29 74 -27 77 3 2 15 0 26 -7 40 -21 84 -134 141 -359
28 -111 58 -173 121 -246 76 -87 108 -142 115 -197 5 -35 18 -62 50 -103 48
-62 78 -133 100 -239 36 -174 93 -229 248 -243 55 -4 99 0 180 16 l108 22 101
-22 c212 -46 362 3 401 130 7 25 21 82 31 126 23 104 47 160 94 215 26 31 42
62 50 99 14 66 37 104 114 190 72 81 109 152 143 273 54 195 84 275 118 314
19 22 37 36 41 32 5 -4 -5 -36 -20 -70 -19 -42 -30 -83 -31 -123 l-3 -60 8 50
c5 28 23 82 41 120 51 112 40 170 -37 196 -59 19 -166 -11 -204 -57 -12 -16
-9 -15 16 2 17 11 43 25 58 32 32 14 133 16 141 3 3 -4 -5 -6 -18 -4 -12 3
-42 -1 -67 -7 -69 -19 -126 -85 -178 -207 -34 -81 -52 -111 -91 -147 -64 -60
-121 -76 -270 -76 -141 0 -232 21 -349 80 -69 34 -82 44 -79 62 5 35 82 86
166 110 92 27 149 76 170 146 14 46 10 64 -10 44 -7 -7 -23 -12 -37 -12 -22 0
-20 3 15 19 104 47 114 158 22 230 -95 75 -316 110 -476 76z m298 -20 c25 -8
34 -12 20 -9 -14 3 -73 8 -132 11 -128 7 -186 -5 -239 -51 -22 -18 -57 -39
-80 -46 -23 -8 -52 -22 -65 -33 -28 -22 -31 -12 -7 23 27 39 54 58 113 81 128
49 286 59 390 24z m-812 -777 c2 -53 0 -59 -17 -53 -10 3 -24 -1 -31 -10 -17
-20 -27 -19 -39 4 -12 22 17 67 53 81 l21 9 -22 0 c-12 1 -25 -3 -28 -9 -13
-21 -27 -9 -20 17 11 47 23 55 54 37 25 -15 28 -22 29 -76z m1379 70 c6 -7 13
-21 17 -32 5 -16 3 -17 -21 -11 l-28 7 21 -24 c29 -31 34 -51 20 -70 -8 -11
-17 -14 -27 -7 -8 5 -23 8 -34 8 -13 0 -15 -3 -6 -6 23 -9 51 -37 51 -50 0 -7
-5 -22 -12 -32 -9 -15 -16 -17 -29 -10 -15 8 -17 4 -13 -29 6 -45 -9 -73 -28
-54 -19 19 -33 14 -15 -6 18 -20 22 -48 9 -56 -4 -2 -17 3 -29 12 l-22 17 19
40 c11 22 19 45 20 52 0 7 8 17 18 22 11 7 12 10 3 11 -14 0 -14 0 9 105 6 28
11 61 10 74 0 38 47 65 67 39z m-812 -16 c-11 -9 -19 -26 -18 -37 2 -13 1 -15
-3 -5 -4 8 -14 23 -23 33 -15 17 -14 18 11 12 15 -4 29 -2 32 4 4 6 10 11 14
11 4 -1 -2 -8 -13 -18z m185 -65 c0 -7 -9 -25 -19 -40 l-19 -29 -26 35 c-32
41 -32 51 -4 79 l21 21 24 -27 c12 -15 23 -32 23 -39z m-333 36 c1 -10 4 -27
7 -38 5 -15 -1 -24 -25 -38 -37 -21 -49 -15 -49 23 0 21 8 33 33 48 17 11 32
21 32 21 1 1 1 -7 2 -16z m106 -15 l20 -27 -29 -23 c-15 -13 -33 -23 -39 -23
-18 0 -29 52 -17 80 15 32 38 30 65 -7z m102 12 c17 -18 17 -21 -2 -52 -23
-40 -39 -42 -60 -6 -15 24 -15 28 0 52 21 31 38 33 62 6z m213 8 c16 -16 15
-60 -1 -82 -12 -17 -15 -16 -45 9 -35 29 -36 41 -7 67 24 21 37 22 53 6z
m-458 -2 c0 -2 -7 -6 -15 -10 -8 -3 -15 -1 -15 4 0 6 7 10 15 10 8 0 15 -2 15
-4z m580 -6 c8 -5 12 -11 10 -14 -3 -2 -14 2 -24 10 -22 15 -10 19 14 4z
m-800 -4 c0 -2 -9 -6 -20 -9 -11 -3 -20 -1 -20 4 0 5 9 9 20 9 11 0 20 -2 20
-4z m160 -5 c0 -6 -4 -13 -10 -16 -5 -3 -10 -1 -10 5 0 6 -16 9 -40 8 -22 -2
-40 -6 -40 -10 0 -3 -10 -3 -22 0 -23 6 -23 6 2 12 41 11 120 11 120 1z m609
-10 c19 -14 22 -24 17 -45 -8 -31 -22 -32 -53 -7 -26 21 -29 41 -11 59 16 16
18 15 47 -7z m261 9 c0 -4 -9 -6 -20 -3 -11 3 -33 0 -50 -5 -21 -8 -39 -8 -61
0 -24 8 -37 8 -52 -1 -10 -7 -16 -8 -13 -3 3 6 0 12 -6 15 -7 2 35 5 95 5 59
0 107 -3 107 -8z m-963 -34 c17 -1 30 1 27 6 -3 4 4 8 15 8 26 0 26 3 0 -73
-14 -40 -19 -77 -16 -104 4 -37 2 -41 -12 -34 -49 27 -110 128 -111 182 0 34
7 40 38 28 15 -6 41 -11 59 -13z m943 -17 c0 -52 -62 -153 -111 -179 -14 -8
-15 -3 -12 38 4 32 -1 64 -16 101 -11 30 -18 58 -15 62 3 5 24 6 47 3 23 -3
53 -1 67 4 33 13 40 7 40 -29z m-1166 -45 c9 -8 16 -27 16 -40 0 -21 -4 -24
-20 -19 -11 4 -20 2 -20 -4 0 -6 3 -10 8 -10 22 4 33 -4 42 -26 8 -20 5 -30
-12 -50 -21 -25 -21 -25 -36 -4 -8 11 -12 31 -10 44 4 16 0 25 -13 28 -9 3
-22 14 -28 26 -10 18 -8 25 13 46 29 29 39 31 60 9z m1039 -308 c14 -31 24
-56 21 -56 -3 0 -19 29 -35 65 -21 44 -32 85 -35 128 l-4 62 14 -72 c8 -39 25
-97 39 -127z m-747 70 c-9 -29 -41 -91 -71 -137 -55 -84 -64 -113 -44 -150 10
-20 12 -20 30 -3 10 9 16 20 14 25 -3 4 -1 10 5 14 5 3 10 2 10 -3 0 -17 69 5
106 33 19 14 60 62 90 106 31 44 71 91 88 104 36 27 93 34 114 13 9 -9 15 -9
24 0 19 19 82 14 112 -9 15 -11 45 -49 68 -82 80 -120 137 -167 205 -167 37
-1 37 -1 14 -14 -12 -7 -35 -11 -50 -9 -22 3 -23 2 -6 -6 19 -8 18 -9 -7 -16
-15 -4 -33 -5 -40 -2 -8 4 -7 6 5 6 21 1 23 27 1 35 -8 3 -12 2 -9 -4 3 -6 -3
-10 -15 -10 -12 0 -18 5 -15 10 3 6 -1 10 -10 10 -9 0 -13 -4 -10 -10 8 -13 4
-13 -38 5 -20 8 -56 15 -79 15 -40 1 -41 2 -24 15 10 8 23 12 29 8 5 -3 24 -6
41 -5 22 1 26 -2 16 -8 -13 -8 18 -8 70 0 3 0 -2 5 -10 10 -8 5 -15 13 -15 19
0 5 -11 19 -25 31 -14 12 -19 19 -12 15 6 -3 12 -3 12 0 0 11 -79 123 -92 132
-13 8 -18 9 -53 12 -17 1 -18 3 -5 11 12 8 12 10 -5 10 -25 -1 -55 -23 -55
-41 0 -9 -7 -5 -18 9 -12 16 -24 21 -37 17 -16 -6 -17 -5 -5 4 13 9 12 11 -6
11 -38 0 -88 -44 -147 -130 -31 -46 -69 -96 -83 -111 -22 -23 -23 -27 -8 -24
11 2 25 4 32 4 7 1 11 5 8 9 -5 9 41 9 50 0 10 -11 -67 -30 -97 -24 -15 3 -31
1 -34 -4 -3 -5 -13 -6 -22 -3 -11 4 -14 3 -9 -5 9 -15 1 -15 -25 1 -17 10 -22
9 -35 -7 -8 -11 -14 -31 -14 -44 0 -13 -5 -22 -12 -20 -19 7 -49 72 -45 100 2
15 -1 24 -5 21 -13 -7 -37 28 -38 53 0 12 -7 27 -15 34 -34 28 -27 138 9 124
16 -6 27 -62 14 -70 -18 -11 -6 -19 33 -21 22 0 43 -3 45 -6 3 -3 -2 -19 -10
-36 -27 -52 -18 -48 20 8 50 74 83 147 91 206 6 37 9 43 11 22 2 -15 -4 -51
-12 -81z m-239 68 c6 -18 -32 -58 -47 -49 -14 8 -13 38 2 53 17 17 37 15 45
-4z m1197 -50 c12 -12 13 -20 6 -35 -13 -24 -16 -24 -42 1 -17 16 -19 22 -8
35 16 19 25 19 44 -1z m-1168 -9 c3 -8 -1 -22 -10 -31 -18 -18 -46 -12 -46 9
0 32 46 50 56 22z m771 -39 l2 -27 -19 23 c-19 23 -17 42 3 35 7 -2 13 -16 14
-31z m-394 2 c-11 -13 -44 -58 -73 -100 -48 -72 -112 -129 -127 -114 -4 3 -1
6 6 6 18 0 83 70 138 149 44 61 61 80 72 81 3 0 -5 -10 -16 -22z m753 -12 c9
-37 1 -61 -21 -61 -11 0 -21 8 -23 18 -6 30 7 67 23 67 8 0 17 -11 21 -24z
m-741 -96 c-21 -22 -41 -38 -43 -35 -8 7 52 74 68 74 8 1 -3 -16 -25 -39z
m336 23 c13 -17 13 -17 -6 -3 -11 8 -22 16 -24 17 -2 2 0 3 6 3 6 0 17 -8 24
-17z m353 -40 c-5 -20 -13 -38 -19 -40 -9 -3 -60 66 -53 72 2 1 17 7 33 12 40
14 51 2 39 -44z m-644 34 c0 -2 -15 -16 -32 -33 l-33 -29 29 33 c28 30 36 37
36 29z m312 -51 c10 -19 8 -18 -16 3 -14 14 -26 29 -26 34 0 13 29 -12 42 -37z
m231 -31 c-3 -9 -8 -14 -10 -11 -3 3 -2 9 2 15 9 16 15 13 8 -4z m-28 -5 c3
-5 15 -15 26 -21 17 -9 20 -7 17 7 -4 21 27 27 43 8 7 -8 9 -17 6 -20 -13 -13
-95 -16 -113 -4 -16 10 -16 11 -1 6 20 -6 24 19 5 27 -10 4 -10 6 -1 6 6 1 15
-3 18 -9z m-831 -41 c-10 -4 -13 -8 -6 -8 7 -1 10 -5 7 -11 -11 -18 -25 -10
-23 14 2 18 7 22 22 18 20 -5 20 -5 0 -13z m334 4 c-10 -2 -26 -2 -35 0 -10 3
-2 5 17 5 19 0 27 -2 18 -5z m197 -15 l60 -1 -50 -13 c-27 -8 -68 -13 -90 -12
l-40 1 45 7 45 7 -47 1 c-37 2 -46 5 -42 16 5 12 11 13 32 5 15 -6 54 -11 87
-11z m370 -18 c-9 -10 -15 -26 -12 -34 4 -9 2 -18 -3 -21 -6 -4 -10 5 -10 19
0 14 -6 26 -12 26 -7 0 0 9 17 20 35 23 45 18 20 -10z m-803 -76 c15 -21 28
-48 29 -59 1 -17 2 -17 6 -2 5 21 4 21 48 0 33 -16 36 -21 31 -47 -10 -48 -56
-64 -76 -26 -9 18 -13 18 -25 7 -19 -19 -62 -10 -80 16 -15 22 -20 112 -9 155
6 21 8 21 28 9 11 -8 33 -32 48 -53z m31 49 c-7 -2 -19 -2 -25 0 -7 3 -2 5 12
5 14 0 19 -2 13 -5z m731 -15 c13 -50 6 -115 -15 -142 -22 -28 -66 -35 -87
-14 -9 9 -12 8 -12 -5 0 -21 -45 -33 -65 -17 -8 7 -15 24 -15 39 0 21 8 29 40
43 37 15 40 15 41 0 0 -10 4 -6 9 9 9 32 39 80 59 97 22 18 38 15 45 -10z
m-583 -128 c27 0 26 -46 -1 -55 -27 -9 -50 11 -50 42 0 19 4 24 16 19 9 -3 24
-6 35 -6z m89 -19 c0 -28 -26 -47 -45 -31 -8 7 -15 21 -15 31 0 14 7 19 30 19
23 0 30 -5 30 -19z m67 3 c7 -19 -20 -49 -36 -40 -6 4 -11 18 -11 32 0 17 5
24 20 24 11 0 23 -7 27 -16z m139 -10 c-7 -36 -12 -39 -42 -25 -18 8 -30 8
-38 1 -17 -13 -51 12 -43 32 4 12 21 16 66 17 61 1 61 0 57 -25z m84 7 c0 -25
-25 -45 -51 -38 -17 5 -18 3 -7 -10 11 -14 11 -15 -2 -11 -13 4 -17 28 -11 71
1 4 17 7 36 7 28 0 35 -4 35 -19z m-260 -47 c0 -2 -7 -4 -15 -4 -8 0 -15 4
-15 10 0 5 7 7 15 4 8 -4 15 -8 15 -10z m68 4 c10 -10 17 -10 32 0 10 6 22 8
25 3 3 -5 2 -11 -2 -14 -5 -2 -2 -2 6 0 7 2 19 -1 25 -6 6 -5 20 -10 30 -12
10 -2 -58 -4 -152 -4 -123 0 -173 3 -176 12 -3 7 2 10 12 8 53 -12 66 -15 55
-9 -29 13 -10 20 31 11 37 -8 49 -7 68 6 28 20 31 20 46 5z m-368 -7 c0 -5 8
-12 18 -14 13 -4 14 -5 1 -6 -8 0 -24 6 -35 14 -17 13 -17 14 -1 15 9 0 17 -4
17 -9z m713 2 c-7 -2 -19 -2 -25 0 -7 3 -2 5 12 5 14 0 19 -2 13 -5z m-48 -24
c-29 -11 -65 -11 -65 1 0 5 7 7 15 4 8 -4 15 -2 15 4 0 5 12 7 27 4 25 -5 25
-6 8 -13z m-592 -6 c-7 -2 -19 -2 -25 0 -7 3 -2 5 12 5 14 0 19 -2 13 -5z
m500 -10 c-7 -2 -19 -2 -25 0 -7 3 -2 5 12 5 14 0 19 -2 13 -5z m-95 -27 c40
-8 76 -17 79 -20 9 -9 -11 -7 -115 8 -79 13 -106 13 -194 0 -137 -19 -148 -10
-18 15 70 14 168 12 248 -3z"/>
<path d="M2950 1220 c0 -5 5 -10 11 -10 5 0 7 5 4 10 -3 6 -8 10 -11 10 -2 0
-4 -4 -4 -10z"/>
<path d="M3413 2518 c-12 -13 -35 -47 -53 -76 -36 -59 -56 -73 -120 -83 l-45
-6 47 -2 c55 -1 97 28 128 89 10 20 31 51 45 69 31 36 29 42 -2 9z"/>
<path d="M1636 2453 c49 -84 75 -103 132 -102 l47 2 -47 6 c-54 8 -78 26 -124
99 -45 70 -51 66 -8 -5z"/>
<path d="M1875 2368 l-40 -43 43 40 c39 36 47 45 39 45 -2 0 -21 -19 -42 -42z"/>
<path d="M1340 2338 c-64 -33 -84 -66 -88 -146 -2 -37 1 -78 6 -92 8 -19 9 -9
5 41 -6 71 10 105 21 44 10 -51 24 -52 19 0 -12 106 13 139 120 160 l62 13
-50 1 c-35 1 -65 -6 -95 -21z"/>
<path d="M3140 2356 c0 -2 8 -10 18 -17 15 -13 16 -12 3 4 -13 16 -21 21 -21
13z"/>
<path d="M3531 2356 c2 -3 24 -7 48 -10 73 -9 108 -25 119 -54 21 -53 23 -89
8 -133 -13 -39 -13 -42 0 -24 8 11 18 32 21 48 3 15 10 30 16 34 7 4 8 -20 5
-73 -3 -43 -2 -68 2 -54 5 14 8 55 9 91 1 53 -3 73 -22 100 -30 46 -98 79
-161 79 -27 0 -47 -2 -45 -4z"/>
<path d="M1870 2181 c-12 -24 -13 -31 -2 -31 5 0 14 11 20 25 14 29 -2 34 -18
6z"/>
<path d="M3120 2193 c0 -19 11 -43 21 -43 13 0 11 14 -6 36 -8 10 -15 14 -15
7z"/>
<path d="M1970 2170 c0 -5 5 -10 11 -10 5 0 7 5 4 10 -3 6 -8 10 -11 10 -2 0
-4 -4 -4 -10z"/>
<path d="M1880 2085 c0 -12 24 -55 32 -55 11 0 10 4 -4 35 -9 21 -28 35 -28
20z"/>
<path d="M3105 2061 c-8 -17 -12 -31 -7 -31 10 0 35 50 28 57 -2 3 -12 -9 -21
-26z"/>
<path d="M2054 2025 c-8 -21 4 -35 24 -28 20 8 33 24 26 35 -9 14 -44 9 -50
-7z"/>
<path d="M2910 2021 c0 -23 39 -36 46 -16 8 20 -4 35 -27 35 -12 0 -19 -7 -19
-19z"/>
<path d="M2165 1989 c-4 -6 -4 -13 -1 -16 8 -8 36 5 36 17 0 13 -27 13 -35 -1z"/>
<path d="M2812 1988 c3 -7 13 -15 22 -16 12 -3 17 1 14 10 -3 7 -13 15 -22 16
-12 3 -17 -1 -14 -10z"/>
<path d="M1977 1984 c-11 -11 5 -34 24 -34 22 0 24 11 7 28 -13 13 -22 15 -31
6z"/>
<path d="M3000 1975 c-10 -12 -9 -16 5 -21 19 -8 40 9 31 25 -10 15 -21 14
-36 -4z"/>
<path d="M2090 1940 c0 -5 6 -10 14 -10 8 0 18 5 21 10 3 6 -3 10 -14 10 -12
0 -21 -4 -21 -10z"/>
<path d="M2885 1940 c3 -5 15 -10 26 -10 11 0 17 5 14 10 -3 6 -15 10 -26 10
-11 0 -17 -4 -14 -10z"/>
<path d="M3601 1774 c0 -11 3 -14 6 -6 3 7 2 16 -1 19 -3 4 -6 -2 -5 -13z"/>
<path d="M1391 1724 c0 -11 3 -14 6 -6 3 7 2 16 -1 19 -3 4 -6 -2 -5 -13z"/>
<path d="M3082 1005 c0 -16 2 -22 5 -12 2 9 2 23 0 30 -3 6 -5 -1 -5 -18z"/>
<path d="M1913 955 c0 -22 2 -30 4 -17 2 12 2 30 0 40 -3 9 -5 -1 -4 -23z"/>
<path d="M2283 733 c9 -2 23 -2 30 0 6 3 -1 5 -18 5 -16 0 -22 -2 -12 -5z"/>
<path d="M2708 733 c7 -3 16 -2 19 1 4 3 -2 6 -13 5 -11 0 -14 -3 -6 -6z"/>
<path d="M801 2514 c0 -11 3 -14 6 -6 3 7 2 16 -1 19 -3 4 -6 -2 -5 -13z"/>
<path d="M4191 2544 c0 -11 3 -14 6 -6 3 7 2 16 -1 19 -3 4 -6 -2 -5 -13z"/>
<path d="M3938 4613 c7 -3 16 -2 19 1 4 3 -2 6 -13 5 -11 0 -14 -3 -6 -6z"/>
<path d="M600 4175 c0 -8 9 -15 19 -15 10 0 21 7 25 15 4 11 -1 15 -19 15 -16
0 -25 -6 -25 -15z"/>
</g>
</svg>
