<svg width="49" height="38" viewBox="0 0 49 38" fill="none" xmlns="http://www.w3.org/2000/svg">
<path fill-rule="evenodd" clip-rule="evenodd" d="M4.47234 10.5076C17.3291 7.19614 25.8959 5.02755 30.1729 4.00188C42.3844 1.07336 44.8958 0.627136 46.4508 0.848138C46.7928 0.896746 47.5418 1.10338 47.9715 1.58328C48.3344 1.98849 48.3759 2.46403 48.3795 2.79369C48.383 3.12335 48.3343 3.86523 48.1885 4.42766C46.5241 10.8471 41.3062 26.2366 38.7712 33.319C37.6986 36.3159 36.3948 37.1695 35.2769 37.0945C32.8476 36.9314 31.3183 34.8378 29.2429 32.9464C25.9954 29.9869 24.1827 28.178 21.0324 25.293C17.3916 21.9589 20.2663 20.9073 22.9718 18.8695C23.6798 18.3362 35.7647 10.4309 36.1082 9.59324C36.1512 9.48848 36.2399 9.08651 36.0331 8.83366C35.8264 8.5808 35.4589 8.59709 35.1928 8.61424C34.8157 8.63856 28.4056 11.5415 15.9628 17.3232C14.1366 18.1895 12.5581 18.5013 11.2275 18.2586C9.76064 17.9911 7.05733 16.7371 5.06197 15.7158C2.61459 14.4631 0.633698 13.6908 1.04063 12.2941C1.25258 11.5667 2.39648 10.9712 4.47234 10.5076Z" fill="white"/>
</svg>
