<svg width="198" height="199" viewBox="0 0 198 199" fill="none" xmlns="http://www.w3.org/2000/svg">
<path d="M46.467 73.2132L50.1276 71.5381L48.8689 67.7143C47.5139 63.598 45.8303 58.2296 44.3286 52.7032C42.2786 45.1584 40.4325 36.8497 40.4325 31.0429C40.4325 23.9598 42.0031 17.355 45.7524 12.4282C49.6193 7.34697 55.4673 4.5 62.9264 4.5C68.5399 4.5 73.216 6.52876 76.9294 10.0677L80.0263 6.81805L76.9294 10.0677C80.5499 13.5181 83.1189 18.2649 84.9731 23.5884C88.2364 32.9573 89.5801 45.0027 89.9572 57.431L90.0896 61.7945H94.4551H102.796H107.161L107.294 57.4312C107.672 45.0026 109.015 32.9573 112.279 23.5885L112.279 23.5884C114.133 18.265 116.702 13.5182 120.323 10.0677L120.323 10.0675C124.035 6.52878 128.711 4.5 134.325 4.5C141.784 4.5 147.632 7.34704 151.499 12.4281L151.499 12.4282C155.248 17.355 156.819 23.9598 156.819 31.0429C156.819 36.8497 154.973 45.1586 152.923 52.7028L152.922 52.7033C151.421 58.2297 149.738 63.5981 148.383 67.7143L147.124 71.538L150.784 73.2132C156.562 75.8573 164.788 80.4258 172.193 87.4937C181.588 96.4613 189.752 109.556 189.752 127.748C189.752 146.773 181.512 163.521 165.826 175.412C150.231 187.232 127.529 194.085 98.6962 194.107H98.5554C69.7221 194.085 47.0199 187.232 31.4263 175.412C15.7403 163.521 7.5 146.773 7.5 127.748C7.5 109.556 15.6637 96.4612 25.0588 87.4937C32.4638 80.4257 40.689 75.8573 46.467 73.2132Z" stroke="black" stroke-width="9"/>
<path d="M98.6931 177.755C57.1551 177.755 11.4397 155.52 11.3681 126.737C11.368 126.781 11.3679 126.826 11.3679 126.871C11.3679 162.503 42.0734 189.362 98.6931 189.362C155.313 189.362 186.018 162.503 186.018 126.871C186.018 126.826 186.018 126.781 186.018 126.737C185.946 155.52 140.231 177.755 98.6931 177.755Z" fill="black"/>
<path d="M75.6135 117.896C75.6135 127.614 71.021 132.675 65.3558 132.675C59.6907 132.675 55.0981 127.614 55.0981 117.896C55.0981 108.178 59.6907 103.117 65.3558 103.117C71.021 103.117 75.6135 108.178 75.6135 117.896Z" fill="black"/>
<path d="M142.288 117.896C142.288 127.614 137.696 132.675 132.031 132.675C126.365 132.675 121.773 127.614 121.773 117.896C121.773 108.178 126.365 103.117 132.031 103.117C137.696 103.117 142.288 108.178 142.288 117.896Z" fill="black"/>
</svg>
