<svg width="400" height="398" viewBox="0 0 400 398" fill="none" xmlns="http://www.w3.org/2000/svg">
<path d="M293 39C299.075 40.743 304.561 43.6152 310.188 46.4375C311.185 46.928 312.182 47.4185 313.209 47.9238C314.643 48.6402 314.643 48.6402 316.105 49.3711C316.973 49.8035 317.841 50.2359 318.735 50.6814C320.874 51.9269 322.359 53.1641 324 55C323.043 57.6108 322.378 58.7821 319.938 60.1875C315.994 61.2782 312.069 61.6631 308 62C307.685 62.9842 307.685 62.9842 307.363 63.9883C305.49 68.1276 302.883 71.5457 300.188 75.1875C299.013 76.7942 297.838 78.401 296.664 80.0078C296.06 80.8306 295.456 81.6533 294.833 82.501C291.893 86.5094 288.977 90.5352 286.062 94.5625C285.544 95.2749 285.025 95.9874 284.491 96.7214C280.854 101.739 277.444 106.834 274 112C283.57 112.33 293.14 112.66 303 113C303.99 111.02 303.99 111.02 305 109C305.85 107.733 306.725 106.482 307.625 105.25C308.071 104.636 308.517 104.023 308.977 103.391C309.314 102.932 309.652 102.473 310 102C313.219 102.619 315.342 103.723 318.004 105.617C318.744 106.142 319.485 106.666 320.248 107.207C321.012 107.757 321.776 108.308 322.562 108.875C323.714 109.689 323.714 109.689 324.889 110.52C331.865 115.494 331.865 115.494 334 118C334 120.5 334 120.5 333 123C330.105 125.21 328.668 126 325 126C325.022 127.25 325.044 128.5 325.067 129.787C325.27 141.572 325.42 153.357 325.518 165.144C325.57 171.203 325.641 177.261 325.754 183.32C325.863 189.169 325.923 195.016 325.949 200.865C325.967 203.096 326.003 205.326 326.057 207.555C326.463 224.993 326.463 224.993 322.852 229.946C318.087 233.446 313.85 234.89 308 234C306.774 231.547 306.886 229.949 306.902 227.211C306.905 226.363 306.907 225.515 306.91 224.642C306.919 223.564 306.928 222.486 306.938 221.375C306.958 217.951 306.979 214.527 307 211C298.75 211 290.5 211 282 211C282.108 225.325 282.22 239.65 282.339 253.975C282.395 260.626 282.448 267.277 282.497 273.927C282.545 280.34 282.597 286.753 282.653 293.165C282.673 295.618 282.692 298.07 282.709 300.523C282.733 303.945 282.763 307.367 282.795 310.789C282.8 311.814 282.806 312.839 282.812 313.895C282.827 315.285 282.827 315.285 282.842 316.704C282.848 317.514 282.855 318.324 282.861 319.159C282.8 321.017 282.8 321.017 284 322C285.441 322.109 286.888 322.149 288.333 322.161C289.254 322.171 290.176 322.18 291.125 322.19C292.129 322.194 293.133 322.199 294.168 322.203C295.196 322.209 296.223 322.215 297.282 322.22C299.463 322.23 301.645 322.236 303.826 322.24C307.156 322.25 310.485 322.281 313.814 322.312C315.932 322.319 318.05 322.324 320.168 322.328C321.659 322.347 321.659 322.347 323.18 322.366C328.508 322.348 332.454 322.121 337 319C338.401 316.234 338.401 316.234 339 312.75C339.147 312.09 339.294 311.431 339.445 310.751C340.002 308.174 340.504 305.59 341 303C341.238 301.761 341.475 300.522 341.72 299.245C341.982 297.869 342.245 296.493 342.508 295.117C342.641 294.423 342.774 293.728 342.911 293.013C343.587 289.475 344.252 285.935 344.895 282.39C345.141 281.064 345.387 279.739 345.633 278.414C345.848 277.228 346.064 276.041 346.286 274.819C347 272 347 272 349 270C351.125 270.375 351.125 270.375 353 271C353.001 271.578 353.003 272.155 353.004 272.751C353.024 278.77 353.078 284.787 353.153 290.806C353.176 293.051 353.19 295.297 353.196 297.542C353.205 300.772 353.246 304.001 353.293 307.23C353.287 308.734 353.287 308.734 353.281 310.268C353.401 316.128 353.401 316.128 356.4 321.083C358.908 322.985 358.908 322.985 361.312 324.438C363 326 363 326 363.75 328.75C362.771 332.991 361.128 334.78 357.72 337.418C348.781 342.616 335.747 341.313 325.695 341.301C324.277 341.305 322.859 341.309 321.441 341.314C318.498 341.321 315.555 341.321 312.612 341.316C308.86 341.31 305.109 341.327 301.357 341.35C298.44 341.365 295.523 341.366 292.606 341.363C291.222 341.363 289.839 341.368 288.456 341.378C281 341.426 274.734 341.389 268 338C264.032 333.931 262.874 330.712 262.88 325.122C262.878 323.613 262.878 323.613 262.876 322.075C262.879 320.973 262.883 319.871 262.886 318.736C262.886 317.574 262.886 316.413 262.886 315.217C262.887 311.37 262.895 307.523 262.902 303.676C262.904 301.012 262.906 298.348 262.907 295.685C262.91 289.384 262.918 283.084 262.928 276.783C262.939 269.611 262.945 262.438 262.95 255.265C262.96 240.51 262.978 225.755 263 211C255.08 211 247.16 211 239 211C239.052 213.775 239.052 213.775 239.105 216.605C239.514 247.541 236.497 280.189 216 305C215.374 305.777 214.747 306.555 214.102 307.355C195.597 329.296 168.043 341.664 142 352C141.12 352.368 140.241 352.736 139.334 353.115C136.779 354.084 134.905 354.206 132.188 354.125C131.397 354.107 130.607 354.089 129.793 354.07C128.905 354.036 128.905 354.036 128 354C127.505 352.515 127.505 352.515 127 351C130.518 346.809 134.613 345.149 139.5 343C155.681 335.585 170.355 326.408 184 315C184.668 314.496 185.335 313.992 186.023 313.473C204.356 299.315 214.33 273.536 217.696 251.409C218.752 243.04 219.222 234.6 219.778 226.186C220.131 221.119 220.567 216.06 221 211C214.4 211 207.8 211 201 211C201.128 212.712 201.255 214.424 201.387 216.188C202.385 235.192 202.385 235.192 198.762 239.441C193.834 243.062 190.128 244.355 184 244C181.981 240.642 181.753 238.093 181.759 234.204C181.757 233.021 181.754 231.837 181.751 230.618C181.758 229.323 181.766 228.028 181.773 226.694C181.774 225.314 181.773 223.935 181.772 222.555C181.771 218.811 181.783 215.068 181.797 211.324C181.81 207.411 181.811 203.498 181.813 199.585C181.819 192.176 181.836 184.767 181.856 177.358C181.878 168.923 181.889 160.488 181.899 152.053C181.92 134.702 181.955 117.351 182 100C187.394 102.588 192.435 105.151 197.224 108.77C203.805 113.024 209.764 112.9 217.418 112.684C218.77 112.671 220.122 112.661 221.474 112.654C224.994 112.627 228.513 112.559 232.033 112.481C235.639 112.408 239.246 112.377 242.854 112.342C249.903 112.267 256.951 112.148 264 112C266.052 106.748 268.104 101.496 270.155 96.2429C270.883 94.3773 271.612 92.5118 272.34 90.6462C276.144 80.9077 279.943 71.1673 283.699 61.4102C283.979 60.6842 284.259 59.9583 284.547 59.2103C285.853 55.8191 287.157 52.4269 288.456 49.033C288.913 47.8465 289.369 46.66 289.84 45.4375C290.433 43.8887 290.433 43.8887 291.039 42.3086C292 40 292 40 293 39ZM201 122C201 148.4 201 174.8 201 202C235.98 202 270.96 202 307 202C307 175.6 307 149.2 307 122C272.02 122 237.04 122 201 122Z" fill="#CE0909"/>
<path d="M141.451 51.656C143.931 52.9635 146.228 54.348 148.539 55.9336C149.781 56.7834 149.781 56.7834 151.047 57.6504C152.323 58.535 152.323 58.535 153.625 59.4375C154.484 60.0234 155.342 60.6093 156.227 61.2129C164.159 66.6722 164.159 66.6722 166 69C166 70.32 166 71.64 166 73C162.934 74.0221 160.828 73.8924 157.655 73.6817C144.786 72.9901 133.465 77.0635 121.442 81.2657C119 82 119 82 116 82C116 102.13 116 122.26 116 143C131.335 143.75 131.335 143.75 141.647 136.936C142.155 136.276 142.664 135.617 143.188 134.938C143.77 134.274 144.352 133.611 144.951 132.928C146.347 131.324 147.681 129.667 149 128C154.162 129.666 158.254 132.764 162.625 135.875C163.388 136.405 164.151 136.935 164.938 137.48C165.672 138 166.407 138.519 167.164 139.055C168.161 139.758 168.161 139.758 169.178 140.476C171.179 142.15 172.594 143.805 174 146C173.735 149.004 173.167 149.833 171 152C168.672 152.241 168.672 152.241 165.724 152.227C164.623 152.227 163.522 152.227 162.388 152.227C161.195 152.216 160.003 152.206 158.774 152.195C157.556 152.193 156.338 152.19 155.083 152.187C151.18 152.176 147.278 152.15 143.375 152.125C140.735 152.115 138.094 152.106 135.453 152.098C128.969 152.077 122.485 152.038 116 152C116 166.19 116 180.38 116 195C118.64 195.33 121.28 195.66 124 196C127.503 196.87 130.896 198.029 134.313 199.188C135.238 199.499 136.164 199.811 137.117 200.132C143.815 202.451 150.048 205.105 156 209C157.423 209.928 157.423 209.928 158.875 210.875C163.638 215.638 166.859 221.091 167.188 227.875C167.129 232.455 166.304 235.696 163 239C159.463 240.045 157.554 240.204 154.067 238.922C150.44 236.649 148.754 234.059 146.688 230.438C139.792 219.105 130.995 209.476 119.341 202.888C118.238 202.265 117.136 201.642 116 201C116.008 201.736 116.015 202.471 116.023 203.229C116.199 221.14 116.332 239.051 116.415 256.963C116.456 265.625 116.512 274.287 116.604 282.949C116.684 290.499 116.735 298.05 116.753 305.601C116.763 309.598 116.788 313.595 116.846 317.592C116.901 321.357 116.917 325.121 116.905 328.886C116.907 330.266 116.923 331.645 116.954 333.024C117.174 343.421 117.174 343.421 114.228 347.383C109.107 351.96 105.884 353.128 99.0002 353C97.4504 348.859 96.7457 345.416 96.7217 341.002C96.7106 339.824 96.6994 338.646 96.6879 337.432C96.6858 336.154 96.6836 334.876 96.6814 333.559C96.6721 332.189 96.6619 330.818 96.6509 329.448C96.6237 325.74 96.6085 322.032 96.5955 318.324C96.5798 314.444 96.5531 310.564 96.5275 306.684C96.4807 299.343 96.444 292.001 96.4108 284.66C96.3725 276.299 96.3231 267.939 96.2728 259.579C96.1696 242.386 96.0803 225.193 96.0002 208C95.6121 208.618 95.224 209.236 94.8242 209.873C93.03 212.725 91.23 215.573 89.4299 218.422C88.8198 219.394 88.2096 220.365 87.581 221.367C82.3009 229.707 76.5307 237.55 70.3811 245.265C69.1734 246.782 67.9837 248.314 66.7971 249.848C61.5597 256.565 55.8412 262.811 50.0002 269C49.5426 269.492 49.085 269.983 48.6135 270.49C47.296 271.9 45.9609 273.294 44.6252 274.688C43.8544 275.496 43.0835 276.304 42.2893 277.137C39.7904 279.171 38.169 279.67 35.0002 280C34.2823 274.027 36.48 271.139 39.8752 266.563C40.8957 265.132 41.9152 263.701 42.9338 262.27C43.4506 261.552 43.9673 260.835 44.4997 260.096C65.9419 230.141 84.5623 196.939 94.3652 161.297C95.2234 158.193 96.1153 155.097 97.0002 152C80.1702 152 63.3402 152 46.0002 152C46.0002 149.03 46.0002 146.06 46.0002 143C62.8302 143 79.6602 143 97.0002 143C97.0002 124.85 97.0002 106.7 97.0002 88C92.7102 88.99 88.4202 89.98 84.0002 91C79.4134 91.9747 74.8165 92.8913 70.2143 93.7898C68.1708 94.1908 66.1296 94.6023 64.0881 95.0137C57.6645 96.2836 51.564 97.3782 45.0002 97C44.5052 95.515 44.5052 95.515 44.0002 94C46.9122 90.7074 49.1647 89.3121 53.3752 88.1055C54.4329 87.7935 55.4906 87.4816 56.5803 87.1602C57.7089 86.8392 58.8374 86.5182 60.0002 86.1875C62.3656 85.4859 64.7302 84.7814 67.094 84.0742C68.2657 83.7254 69.4375 83.3765 70.6448 83.0171C88.5561 77.5879 105.517 70.4785 122.125 61.875C122.895 61.4795 123.665 61.084 124.457 60.6765C129.137 58.2001 133.107 55.4648 137.074 51.9458C139 51 139 51 141.451 51.656Z" fill="#CE0909"/>
<path d="M182 41C189.059 41.3914 193.806 42.9426 199.875 46.5C200.657 46.9478 201.438 47.3956 202.243 47.8569C216.152 56.0138 226.787 65.8844 233 81C234.968 88.7646 234.834 95.9218 231 103C228.339 105.661 226.729 105.785 223 106C219.875 105.188 219.875 105.188 217 103C215.213 99.8239 214.131 96.4553 213 93C207.049 74.8442 198.068 59.0852 183.301 46.5586C182 45 182 45 182 41Z" fill="#CE0909"/>
</svg>
