<svg width="400" height="398" viewBox="0 0 400 398" fill="none" xmlns="http://www.w3.org/2000/svg">
<path d="M257 44C283 48 283 48 289 51C289 53.25 289 53.25 288 56C284.077 58.8098 280.832 60 276 60C276 81.45 276 102.9 276 125C304.382 127.11 304.382 127.11 316.375 115.438C318.714 112.63 320.918 109.966 323 107C328.901 110.152 334.056 113.937 339.312 118.062C340.123 118.687 340.933 119.312 341.768 119.955C342.542 120.559 343.316 121.163 344.113 121.785C344.812 122.331 345.511 122.876 346.232 123.438C348 125 348 125 350 128C349.459 132.541 349.459 132.541 348 134C345.761 134.094 343.518 134.117 341.277 134.114C340.206 134.114 340.206 134.114 339.114 134.114C336.793 134.113 334.473 134.106 332.152 134.098C330.724 134.096 329.295 134.095 327.866 134.095C322.557 134.089 317.247 134.075 311.938 134.062C294.148 134.032 294.148 134.032 276 134C276 165.68 276 197.36 276 230C315.107 233.348 315.107 233.348 329.875 219.375C332.776 215.568 332.776 215.568 335.468 211.615C335.974 211.082 336.479 210.549 337 210C341.141 210.264 344.201 213.051 347.438 215.438C348.044 215.882 348.651 216.326 349.276 216.784C350.546 217.717 351.813 218.653 353.079 219.592C354.959 220.97 356.862 222.308 358.773 223.641C359.954 224.489 361.134 225.337 362.312 226.188C363.381 226.944 364.45 227.701 365.551 228.48C368.595 231.612 368.806 233.713 369 238C366.082 239.663 364 240.249 360.65 240.246C359.782 240.25 358.914 240.254 358.019 240.258C357.07 240.252 356.12 240.247 355.142 240.241C354.13 240.242 353.118 240.244 352.075 240.246C348.674 240.249 345.273 240.238 341.872 240.227C339.438 240.226 337.004 240.227 334.57 240.228C329.324 240.228 324.079 240.223 318.834 240.211C311.25 240.195 303.666 240.19 296.082 240.187C283.777 240.183 271.473 240.17 259.168 240.151C247.216 240.133 235.263 240.118 223.31 240.11C222.205 240.109 222.205 240.109 221.078 240.108C217.382 240.106 213.686 240.103 209.99 240.101C179.326 240.08 148.663 240.045 118 240C118 236.7 118 233.4 118 230C138.13 230 158.26 230 179 230C179 198.32 179 166.64 179 134C159.86 134 140.72 134 121 134C121 131.03 121 128.06 121 125C140.14 125 159.28 125 179 125C179 99.26 179 73.52 179 47C205.462 50.3077 205.462 50.3077 211 54C211.062 56.25 211.062 56.25 210 59C206.212 61.3569 202.481 63 198 63C198 83.46 198 103.92 198 125C217.47 125 236.94 125 257 125C257 98.27 257 71.54 257 44ZM198 134C198 165.68 198 197.36 198 230C217.47 230 236.94 230 257 230C257 198.32 257 166.64 257 134C237.53 134 218.06 134 198 134Z" fill="#CE0909"/>
<path d="M108 40C114.075 41.743 119.561 44.6152 125.188 47.4375C126.185 47.928 127.182 48.4185 128.209 48.9238C129.643 49.6402 129.643 49.6402 131.105 50.3711C132.407 51.0197 132.407 51.0197 133.735 51.6814C135.898 52.9407 137.425 54.0621 139 56C138.953 58.0781 138.953 58.0781 138 60C136.109 61.0469 136.109 61.0469 133.75 61.75C132.598 62.1135 132.598 62.1135 131.422 62.4844C128.877 63.0262 126.594 63.0356 124 63C123.86 63.5442 123.719 64.0885 123.574 64.6492C121.294 72.8676 117.889 80.539 114.438 88.3125C113.813 89.7304 113.188 91.1484 112.564 92.5664C107.594 103.816 102.4 114.951 97 126C97.892 126.326 98.7841 126.652 99.7031 126.988C100.874 127.425 102.044 127.862 103.25 128.312C104.41 128.742 105.57 129.171 106.766 129.613C109.594 130.826 111.665 132.029 114 134C113.68 136.96 113.41 138.575 111.312 140.75C108.558 142.239 106.08 142.545 103 143C103.007 144.024 103.015 145.049 103.022 146.104C103.2 171.025 103.331 195.946 103.414 220.868C103.456 232.92 103.512 244.971 103.604 257.023C103.683 267.527 103.735 278.03 103.753 288.535C103.763 294.097 103.788 299.659 103.846 305.221C103.9 310.457 103.917 315.692 103.905 320.928C103.907 322.849 103.923 324.77 103.954 326.69C104.174 341.164 104.174 341.164 101.299 345.661C99.2629 347.509 97.452 348.775 95 350C94.3077 350.375 93.6153 350.75 92.902 351.136C90.4538 352.248 88.659 352.28 86 352C83.5001 349.5 83.7526 347.997 83.7157 344.586C83.7176 343.825 83.7195 343.064 83.7215 342.281C83.7128 341.071 83.7128 341.071 83.704 339.838C83.6869 337.121 83.6841 334.405 83.6812 331.689C83.6719 329.748 83.6617 327.807 83.6507 325.865C83.6233 320.583 83.6082 315.3 83.5953 310.017C83.5797 304.501 83.5529 298.985 83.5273 293.469C83.4804 283.018 83.4437 272.567 83.4106 262.116C83.3724 250.22 83.323 238.324 83.2726 226.428C83.1692 201.952 83.0799 177.476 83 153C82.6109 153.531 82.2218 154.063 81.821 154.61C80.0216 157.066 78.2198 159.519 76.418 161.973C75.8063 162.808 75.1946 163.644 74.5643 164.505C65.412 176.956 55.6562 188.805 45 200C44.4599 200.598 43.9198 201.196 43.3633 201.812C42 203 42 203 39.3125 203.188C38.5494 203.126 37.7862 203.064 37 203C37.5139 198.554 38.5056 195.7 41.0273 192.016C41.6496 191.09 42.2719 190.164 42.9131 189.211C43.5811 188.234 44.2492 187.257 44.9375 186.25C51.5024 176.408 57.5199 166.48 63 156C63.4217 155.204 63.8434 154.409 64.2778 153.589C83.2343 117.64 96.5808 78.9141 108 40Z" fill="#CE0909"/>
<path d="M191 254C195.135 254.566 197.762 255.896 201.195 258.238C202.158 258.894 203.121 259.549 204.113 260.225C205.107 260.914 206.101 261.603 207.125 262.312C208.627 263.329 208.627 263.329 210.16 264.365C218.646 270.191 218.646 270.191 221 274C220.812 276.188 220.812 276.188 220 278C218 279 218 279 214.973 278.43C209.083 277.594 204.563 277.197 199.515 280.748C194.327 285.347 189.747 290.484 185.154 295.667C182.007 299.076 178.559 302.034 175 305C173.746 306.084 172.492 307.169 171.238 308.254C154.725 322.27 132.602 340.809 111 346C110.01 345.67 109.02 345.34 108 345C108.008 342.859 108.008 342.859 109 340C111.406 337.765 114.13 336.041 116.875 334.25C118.441 333.187 120.005 332.12 121.566 331.051C122.33 330.531 123.093 330.011 123.879 329.475C132.927 323.182 140.989 315.538 149 308C149.659 307.384 150.317 306.768 150.996 306.133C155.265 302.011 158.977 297.49 162.691 292.867C164.159 291.044 165.644 289.235 167.152 287.445C171.799 281.916 176.082 276.209 180.25 270.312C180.745 269.612 181.241 268.911 181.751 268.189C184.993 263.554 188.049 258.825 191 254Z" fill="#CE0909"/>
<path d="M256 257C261.743 257.537 266.283 259.154 271.5 261.562C272.679 262.099 272.679 262.099 273.882 262.647C290.883 270.483 306.706 279.833 321 292C322.28 293.062 322.28 293.062 323.586 294.145C331.938 301.305 340.52 310.837 342.344 322.129C342.556 326.779 341.469 330.106 339 334C335.773 335.613 332.499 335.44 329 335C322.686 332.165 319.697 326.573 316 321C300.437 298.482 281.168 281.923 259.328 265.777C257 264 257 264 255 262C255.375 259.375 255.375 259.375 256 257Z" fill="#CE0909"/>
</svg>
