<svg width="400" height="398" viewBox="0 0 400 398" fill="none" xmlns="http://www.w3.org/2000/svg">
<path d="M225.562 44.1718C228.118 45.4684 229.872 47.0718 232 48.9999C233.278 49.9073 234.569 50.7979 235.867 51.6757C243.533 56.9346 243.533 56.9346 247 59.9999C247 61.3199 247 62.6399 247 63.9999C245.052 65.9479 242.055 65.0351 239.458 65.0373C225.292 65.163 212.824 68.7802 199.47 73.2814C197 73.9999 197 73.9999 194 73.9999C194 85.5499 194 97.0999 194 109C212.278 110.768 212.278 110.768 228.57 104.113C232.232 100.515 235.467 96.6112 238.446 92.4311C239.215 91.7227 239.215 91.7227 240 90.9999C243.409 91.1586 245.691 93.0027 248.371 94.9843C249.604 95.8931 249.604 95.8931 250.861 96.8203C251.711 97.4571 252.562 98.0939 253.438 98.7499C254.284 99.3713 255.13 99.9926 256.002 100.633C267.685 109.306 267.685 109.306 268.5 113.687C268 116 268 116 265 118C261.944 118.24 261.944 118.24 258.142 118.227C257.449 118.227 256.756 118.228 256.042 118.228C253.753 118.226 251.465 118.211 249.176 118.195C247.588 118.192 246.001 118.189 244.413 118.187C240.236 118.179 236.058 118.159 231.881 118.137C227.618 118.117 223.355 118.108 219.092 118.098C210.728 118.076 202.364 118.041 194 118C194 126.25 194 134.5 194 143C198.506 143.102 202.994 143.134 207.5 143.125C208.768 143.161 210.037 143.197 211.344 143.234C218.604 143.231 218.604 143.231 224.691 139.698C226.679 137.214 228.41 134.753 230 132C233.355 133.232 236.074 134.59 238.918 136.75C239.615 137.276 240.311 137.802 241.029 138.344C241.742 138.89 242.454 139.437 243.188 140C243.911 140.547 244.635 141.093 245.381 141.656C250.674 145.674 250.674 145.674 253 148C253.125 150.625 253.125 150.625 253 153C247.25 156 247.25 156 245 156C245.03 157.442 245.03 157.442 245.061 158.914C245.243 167.991 245.378 177.068 245.466 186.147C245.513 190.814 245.577 195.48 245.679 200.147C245.777 204.653 245.831 209.158 245.854 213.666C245.87 215.382 245.903 217.099 245.952 218.815C246.316 232.189 246.316 232.189 243.097 236.619C238.318 240.519 234.121 241.889 228 242C226 239 226 239 226 231C215.44 231 204.88 231 194 231C194 240.24 194 249.48 194 259C208.638 260.242 208.638 260.242 221.645 254.816C225.127 251.485 228.125 247.861 231 244C234.488 245.279 237.344 246.765 240.355 248.934C241.142 249.5 241.929 250.067 242.74 250.65C243.548 251.24 244.355 251.83 245.188 252.437C246.007 253.023 246.826 253.609 247.67 254.213C253.746 258.618 253.746 258.618 256 262C255.75 264.625 255.75 264.625 255 267C252.341 268.329 250.334 268.12 247.357 268.113C246.176 268.113 244.995 268.113 243.778 268.113C242.498 268.108 241.217 268.103 239.898 268.098C238.592 268.096 237.285 268.095 235.939 268.093C232.463 268.089 228.988 268.08 225.513 268.069C221.967 268.058 218.421 268.054 214.875 268.049C207.917 268.039 200.958 268.019 194 268C194 276.58 194 285.16 194 294C196.988 293.567 199.976 293.134 203.055 292.687C205.977 292.269 208.9 291.853 211.822 291.436C213.84 291.148 215.857 290.857 217.874 290.563C220.788 290.14 223.702 289.725 226.617 289.312C227.506 289.181 228.395 289.05 229.311 288.915C235.243 288.086 241.013 287.848 247 288C247.688 289.812 247.688 289.812 248 292C245.02 295.727 241.053 296.268 236.604 297.312C235.318 297.628 235.318 297.628 234.006 297.949C231.165 298.643 228.321 299.322 225.477 300C223.494 300.481 221.512 300.963 219.529 301.445C214.299 302.716 209.065 303.974 203.831 305.229C198.548 306.499 193.268 307.781 187.988 309.062C177.746 311.544 167.502 314.022 157.25 316.464C155.798 316.81 154.346 317.157 152.894 317.505C151.058 317.944 149.221 318.379 147.384 318.812C146.401 319.046 145.417 319.279 144.404 319.519C142 320 142 320 139 320C138.897 321.237 138.794 322.475 138.688 323.75C138.262 327.279 137.519 329.372 135 332C129.966 331.322 128.176 327.936 125.238 324.113C122.734 320.63 120.336 317.097 118 313.5C117.403 312.583 117.403 312.583 116.794 311.648C114 307.251 114 307.251 114 305C133.8 302.36 153.6 299.72 174 297C174.33 287.43 174.66 277.86 175 268C155.2 268 135.4 268 115 268C115 265.03 115 262.06 115 259C134.8 259 154.6 259 175 259C175 249.76 175 240.52 175 231C165.1 231 155.2 231 145 231C145 234.3 145 237.6 145 241C143.32 243.473 143.32 243.473 141.125 245.062C140.406 245.61 139.686 246.158 138.945 246.723C135.17 249.202 132.534 249.324 128 249C125.88 245.819 125.751 245.063 125.759 241.425C125.757 240.487 125.754 239.549 125.751 238.582C125.758 237.555 125.766 236.528 125.773 235.47C125.773 234.387 125.772 233.304 125.772 232.188C125.773 228.6 125.789 225.013 125.805 221.426C125.808 218.941 125.811 216.457 125.813 213.973C125.82 208.097 125.836 202.222 125.856 196.346C125.881 189.001 125.891 181.656 125.902 174.31C125.924 161.207 125.958 148.103 126 135C130.637 135.681 133.936 136.9 138.125 139C149.506 144.165 162.773 142.983 175 143C175 134.75 175 126.5 175 118C154.54 118 134.08 118 113 118C113 115.03 113 112.06 113 109C133.46 109 153.92 109 175 109C174.67 98.7699 174.34 88.5399 174 77.9999C171.482 78.4937 168.965 78.9874 166.371 79.496C163.915 79.9764 161.46 80.4561 159.004 80.9357C157.305 81.2678 155.607 81.6005 153.909 81.9338C151.459 82.4145 149.009 82.893 146.559 83.371C145.807 83.519 145.056 83.667 144.282 83.8194C137.521 85.1342 130.973 86.1337 124.062 86.0624C122.919 86.0534 121.776 86.0444 120.598 86.0351C119.74 86.0235 118.883 86.0119 118 85.9999C117.812 83.6249 117.812 83.6249 118 80.9999C121.09 78.9402 123.104 78.3633 126.688 77.5546C127.847 77.2868 129.007 77.019 130.201 76.7431C131.455 76.4566 132.708 76.1701 134 75.8749C160.952 69.5434 188.535 62.2571 212.891 48.7663C221.693 43.9123 221.693 43.9123 225.562 44.1718ZM145 152C145 161.57 145 171.14 145 181C154.9 181 164.8 181 175 181C175 171.43 175 161.86 175 152C165.1 152 155.2 152 145 152ZM194 152C194 161.57 194 171.14 194 181C204.56 181 215.12 181 226 181C226 171.43 226 161.86 226 152C215.44 152 204.88 152 194 152ZM145 190C145 200.56 145 211.12 145 222C154.9 222 164.8 222 175 222C175 211.44 175 200.88 175 190C165.1 190 155.2 190 145 190ZM194 190C194 200.56 194 211.12 194 222C204.56 222 215.12 222 226 222C226 211.44 226 200.88 226 190C215.44 190 204.88 190 194 190Z" fill="#CE0909"/>
<path d="M279 40C294.75 42.25 294.75 42.25 300.875 43.625C302.048 43.8854 303.221 44.1458 304.43 44.4141C305.278 44.6074 306.126 44.8008 307 45C307.495 46.98 307.495 46.98 308 49C305.034 51.4719 302.488 53.2562 299 55C298.67 80.74 298.34 106.48 298 133C307.24 132.67 316.48 132.34 326 132C328.64 128.7 331.28 125.4 334 122C339.425 124.972 344.45 128.282 349.437 131.938C350.169 132.45 350.901 132.962 351.654 133.49C356.855 137.312 356.855 137.312 357.582 140.766C357 143 357 143 355.25 144.812C353 146 353 146 349 146C349.002 146.649 349.004 147.299 349.006 147.968C349.05 163.908 349.083 179.849 349.104 195.79C349.114 203.5 349.128 211.209 349.151 218.918C349.171 225.653 349.184 232.388 349.188 239.122C349.191 242.674 349.197 246.227 349.211 249.779C349.268 263.953 349.102 278.066 348.113 292.212C348.035 293.326 347.957 294.44 347.877 295.588C346.647 311.345 344.445 327.485 332.156 338.68C325.278 344.166 317.853 347.705 309 348C305.612 347.247 304.43 346.558 302.312 343.812C301 341 301 341 300.5 337.438C299.376 333.958 299.376 333.958 296.957 332.77C289.28 329.81 281.073 328.438 273 327C272.618 325.344 272.286 323.675 272 322C274.039 319.961 278.286 320.815 281.094 320.789C282.781 320.761 284.469 320.732 286.156 320.703C288.818 320.662 291.479 320.625 294.141 320.599C296.709 320.571 299.276 320.525 301.844 320.477C302.625 320.473 303.407 320.47 304.212 320.467C310.783 320.323 317.525 319.409 322.375 314.688C332.191 296.438 329.332 269.544 329.405 249.511C329.421 245.719 329.447 241.927 329.473 238.136C329.519 230.986 329.556 223.836 329.589 216.686C329.628 208.534 329.677 200.381 329.727 192.228C329.83 175.486 329.918 158.743 330 142C319.44 142 308.88 142 298 142C298.052 148.586 298.052 148.586 298.105 155.305C298.125 158.888 298.141 162.472 298.155 166.056C298.171 169.793 298.191 173.53 298.226 177.268C298.436 200.433 298.054 223.61 292.187 246.188C291.93 247.216 291.672 248.244 291.406 249.304C289.267 257.551 286.593 265.272 283 273C282.466 274.186 281.933 275.372 281.383 276.594C268.068 304.818 242.661 325.02 216 340C214.814 340.673 214.814 340.673 213.603 341.359C211.079 342.78 208.543 344.175 206 345.562C205.211 346.005 204.421 346.447 203.608 346.903C198.781 349.481 195.476 350.517 190 350C189.753 347.685 189.753 347.685 190 345C191.663 343.399 191.663 343.399 193.957 342.043C194.781 341.538 195.606 341.033 196.456 340.513C197.295 340.014 198.135 339.514 199 339C200.446 338.066 201.888 337.125 203.324 336.176C204.035 335.711 204.746 335.246 205.479 334.767C240.776 311.527 264.783 283.358 273.63 241.336C277.851 219.709 278.514 198.174 278.669 176.225C278.7 172.348 278.746 168.472 278.791 164.596C278.876 157.064 278.942 149.532 279 142C270.42 142 261.84 142 253 142C253 139.03 253 136.06 253 133C261.58 133 270.16 133 279 133C279 102.31 279 71.62 279 40Z" fill="#CE0909"/>
<path d="M98.9999 38C105.425 38.8408 111.282 41.9184 117.187 44.4375C118.388 44.9409 119.589 45.4443 120.826 45.9629C121.97 46.4482 123.114 46.9336 124.293 47.4336C125.34 47.8776 126.387 48.3216 127.465 48.7791C130 50 130 50 132 52C132.125 54.625 132.125 54.625 132 57C123.571 60.4286 123.571 60.4286 119 60C118.443 61.7364 118.443 61.7364 117.875 63.5078C115.471 70.7111 112.717 77.7855 110 84.875C109.717 85.6147 109.435 86.3544 109.144 87.1165C104.679 98.7968 100.057 110.404 95.2519 121.949C94.607 123.506 94.607 123.506 93.9491 125.094C93.571 125.998 93.1929 126.902 92.8034 127.834C91.884 129.927 91.884 129.927 91.9999 132C92.843 132.303 93.686 132.606 94.5546 132.918C95.6503 133.337 96.746 133.756 97.8749 134.188C99.5107 134.797 99.5107 134.797 101.18 135.418C104 137 104 137 105.383 139.676C105.688 140.826 105.688 140.826 106 142C102.769 144.858 100.218 145.405 95.9999 146C96.01 147.034 96.0202 148.067 96.0306 149.132C96.2749 174.287 96.4556 199.442 96.5698 224.598C96.6266 236.763 96.7039 248.928 96.8297 261.093C96.9394 271.696 97.0104 282.299 97.0349 292.903C97.0492 298.517 97.0829 304.13 97.1629 309.745C97.2377 315.031 97.2606 320.315 97.2441 325.602C97.2471 327.54 97.2689 329.479 97.3112 331.417C97.6119 345.936 97.6119 345.936 93.678 350.973C89.7581 354.024 86.7382 355.806 81.7626 356.362C80.8509 356.242 79.9392 356.123 78.9999 356C76.5669 352.351 76.7103 349.645 76.7214 345.426C76.7156 344.648 76.7098 343.869 76.7039 343.067C76.6868 340.451 76.684 337.835 76.6811 335.218C76.6718 333.346 76.6616 331.473 76.6506 329.601C76.6233 324.51 76.6081 319.42 76.5952 314.329C76.5796 309.012 76.5528 303.695 76.5272 298.378C76.4803 288.306 76.4436 278.233 76.4105 268.161C76.3723 256.696 76.3229 245.23 76.2725 233.765C76.1691 210.177 76.0799 186.588 75.9999 163C75.4532 163.964 74.9064 164.927 74.3432 165.92C73.6174 167.196 72.8916 168.472 72.1657 169.747C71.8063 170.381 71.447 171.015 71.0768 171.668C63.1263 185.625 52.9001 198.172 41.7499 209.688C41.1592 210.313 40.5685 210.938 39.9599 211.582C35.6742 215.909 35.6742 215.909 32.078 216.395C31.0494 216.199 31.0494 216.199 29.9999 216C29.1238 213.081 28.7343 211.579 30.0287 208.759C30.8304 207.631 30.8304 207.631 31.6483 206.48C32.2373 205.631 32.8262 204.782 33.433 203.907C34.3942 202.561 34.3942 202.561 35.3749 201.188C36.6812 199.295 37.9833 197.399 39.2812 195.5C39.9205 194.565 40.5599 193.631 41.2187 192.668C45.2201 186.675 48.6498 180.374 51.9999 174C52.3262 173.384 52.6525 172.769 52.9887 172.135C74.5665 131.142 87.5719 86.388 97.4025 41.312C97.9999 39 97.9999 39 98.9999 38Z" fill="#CE0909"/>
</svg>
