<svg id="Gruppe_11183" data-name="Gruppe 11183" xmlns="http://www.w3.org/2000/svg" xmlns:xlink="http://www.w3.org/1999/xlink" width="611.865" height="212.836" viewBox="0 0 611.865 212.836">
  <defs>
    <clipPath id="clip-path">
      <rect id="Rechteck_4982" data-name="Rechteck 4982" width="611.865" height="212.836" fill="#fdf7e9"/>
    </clipPath>
  </defs>
  <g id="Gruppe_11101" data-name="Gruppe 11101" transform="translate(0 0)" clip-path="url(#clip-path)">
    <path id="Pfad_14757" data-name="Pfad 14757" d="M611.865,102.668c-3.322,1.753-7.761,1.168-11.638,1.754a5.332,5.332,0,0,1-2.464-.975c-.883-.507-.123-1.044.112-1.6,1.424-3.375-.115-4.612-5.846-4.815-.256-.009-.518.037-.774.027-3.052-.122-3.62-.546-2.974-2.258a14.212,14.212,0,0,0,1.023-2.581c.607-3.928,2.558-7.745,2.92-11.688a4.044,4.044,0,0,1,1.089-2.059c1.587-2,1.324-2.214-2.365-3.194-2.735-.726-3.122-.884-2.27-2.244,1.971-3.147,1.569-6.7,5.2-9.269-2.649-3.106-6.348-3.888-11.507-2.631a21.977,21.977,0,0,1-4.612.259c-2.38.025-4.367-1.087-3.517-2.216,1.645-2.183,1.652-4.6,3.269-6.741a4.331,4.331,0,0,0,1-3.433,7.358,7.358,0,0,1,.336-3.09c1.151-4.061,1.186-4.058-5.795-4.425-2.966-.156-3.509-.556-3.229-2.224.175-1.039.222-2.065,1.76-2.838A5.343,5.343,0,0,0,573.7,34.1c1.268-1.872,1.675-4.054,5.165-5.233a1,1,0,0,0,.663-.777c.025-1.2-.9-2.272-1.886-3.275-.562-.569-1.879-.38-2.878-.313-4.326.291-8.647-1.06-13,.01a7.216,7.216,0,0,1-2.254-.218c-3.883-.568-5.086-1.639-4.3-3.885.2-.577.893-1.132.877-1.694a21.232,21.232,0,0,1,5.39-15.483c.787-.891-.393-1.818-2.126-1.831-3.064-.022-6.305.407-9.157-.028-4.352-.664-8.763-.334-13.092-.789a49.664,49.664,0,0,0-6.97-.012c-3.292.128-5.69.737-6.682,2.933-.816,1.806-3.094,3.38-4.39,5.137-1.092,1.479-3,2.023-5.486,1.973-4.388-.086-8.77-.291-13.152-.466-8.046-.321-5.622-.691-5.92-4.38-.079-.971,1.3-1.579,1.943-2.369,1.177-1.435.406-2.259-2.387-2.436-3.077-.2-6.179-.312-9.274-.365-5.414-.093-10.962.3-16.22-.251-8.717-.908-16.369-.115-23.286,3.031-5.946.925-9.322,3.665-12.458,6.3a21.737,21.737,0,0,0-3.859,3.782,4.13,4.13,0,0,1-5.33,1.127c-2.589-1.532-5.527-1.413-8.582-1.382-5.41.055-10.819.2-16.228.283-4.8.073-6.518-.918-6.481-3.7a2.433,2.433,0,0,1,.363-.863c.564-1.193-.909-1.614-2.4-1.886a27.592,27.592,0,0,0-3.8-.307c-7.455-.294-14.917-.537-22.368-.862-4.112-.18-8.2-.534-12.312-.72a12.312,12.312,0,0,0-7.415,1.991c-1.411.883-.622,2.624-2.965,2.9-1.926.23-4.074-.211-6.13-.248-1.278-.023-2.565.216-3.85.226-2.574.02-5.152.006-7.723-.071-6.185-.184-12.364-.465-18.553-.6a15.144,15.144,0,0,0-8.328,1.848,15.147,15.147,0,0,1-7.848,2.628q-11.59.082-23.185-.129c-2.712-.046-3.39-.6-3.876-2.175-.09-.291-.181-.581-.266-.872-.851-2.91-2.513-3.75-7.589-3.779-5.946-.033-11.895-.1-17.837-.038-2.218.023-4.614-.141-6.563.767l-2.25-.033c-7.058-1.288-14.129-1.59-21.028.232a37.268,37.268,0,0,1-9.075.976c-6.18.081-12.367.132-18.548.079a15.47,15.47,0,0,0-7.182,1.256c-2.244,1.115-5.047,1.342-7.954,1.445a130.939,130.939,0,0,1-18.537-.4,39.04,39.04,0,0,0-5.414-.127c-8.226.288-16.429.387-24.682.09-4.429-.159-9.41-.469-12.387,2.368a9.218,9.218,0,0,1-2.6.938c-1.987.684-3.755,1.327-4.362,2.867-.535,1.355-2.894,2.064-5.271,2.331a49.558,49.558,0,0,1-6.147.343c-4.391-.059-8.78-.208-13.159-.408-1.958-.089-2.876.012-3.98,1.282-2.812,3.237-5.733,6.418-11,8.841a63.924,63.924,0,0,1-16.493,4.648c-8.517,1.394-13.807,4.288-14.515,9.527l.958.513-.958-.513c-1.608.186-3.348.677-3.632,1.475-.648,1.82-3.06,2.619-5.2,3.631-1.783.842-3.6,1.665-5.314,2.551-2.675,1.38-2.706,2.371-.152,3.66.769.388,1.778.624,2.528,1.022,1.56.828,1.659,2.653-.188,3.059a5.128,5.128,0,0,0-4.159,3.195c-.537,1.02-1.885,1.729-3.266,2.429-1.738.88-3.39,1.824-4.959,2.8C-.37,68.4-.2,69.391,1,70.073a20.643,20.643,0,0,0,5.885,2.1c1.235.263,2.826.661,2.854,1.363.093,2.3,3.161,3.255,5.56,4.552,2.68,1.449,2.505,1.435,1.047,3.733-1.564,2.466-3.675,5.055,1.462,7.11a1.572,1.572,0,0,1,.469.345c.51.462.176,1.009-.464,1.1-2.877.428-3.731,1.308-2.535,2.89.267.353.572.913-.344,1.178-2.417.7-1.711,2.73-4.452,3.326-1.062.231-1.335.855-.649,1.464,2.134,1.9,1.06,3.58-.82,5.3-1.177,1.079-.524,2.573-2.154,3.6a14.323,14.323,0,0,0,5.1,3.67c.976.494,2.144.8,3.062,1.25,6.931,3.388,14.971,6.3,16.8,12.037.08.248.51.522.908.663,1.769.628.714,1.267-.06,1.775-2.241,1.47-2.624,1.967-3.2,4.719a7.327,7.327,0,0,1-.717,2.166c-1.675,2.969-1.9,3.023.1,5.133.783.826.777,1.264-.19,1.888a2.781,2.781,0,0,0-1.4,2c-.348,2.5,1.375,4.8,2.026,7.195.127.469,1.413.8,1.943,1.276,1.8,1.616,5.176,1.836,7.58,2.9q1.823.811,3.642,1.625c-1.3,2.068,3.672,4.525-1.207,6.392-.323.124-.616.624-.449.766,2.3,1.947,1.884,3.424-2.116,4.348-.578,1.979.616,4.148-1.932,5.922-.1.07.068.284.16.421a1.16,1.16,0,0,0,.373.379c1.045.61,1.075,1.014-.006,1.8-4.011,2.919-4.175,4.083-1.807,7.219.351.465.187.843-.392,1.168a12.53,12.53,0,0,1-5.063,1.165c3.43,1.541,2.39,4.284,5.413,5.808.806.406.269.8-.014,1.174-.687.9-.13,2.279-2.358,2.6-1.751.252-.252.517-.086.6,1.926.963,3.665,2.081,6.759,1.15a6.771,6.771,0,0,1,4.341.579c1.977.907,3.719,1.979,5.61,2.95,1.953,1,4.824.28,7.041,1.485,2.691,1.463,9.25.894,11.024-.808a9.079,9.079,0,0,1,5.135-2.822c2.38-2.947,8.082-3.958,11.369-6.385.782-.577,1.876-1.011,2.711-1.569a3.827,3.827,0,0,1,2.661-.628c1.964.17,3.749.127,5.562,1.079a26.6,26.6,0,0,0,14.848,2.886,10.531,10.531,0,0,1,2.238.31l.006,0c.018.008.205.113.205.113l-.184-.108c.345-.364.58-.985,1.052-1.051,3.944-.547,6.924-1.959,8.786-3.839,1.975-1.995,5.732-2.824,7.893-4.668a5.989,5.989,0,0,1,5.58-.48c2.8,1.416,6.589,1.763,9.384,3.029,5.148,2.331,11.109,2.035,16.994,2.085,1.981.017,3.453-.543,3.869-1.76h0c2.011-.587,4.01-1.13,5.133-2.4a5.049,5.049,0,0,1,4.305-1.378,3.349,3.349,0,0,1,2.618-.489c.433.1,1.015.273,1.128.483.219.409-.033.822-.869.974-.464.084-.961.11-1.44.164.492.8.108,1.753,1.6,2.386.836.354,1.237,1.085.291,1.528-1.971.922-1.379,1.842-.036,2.62,1.852,1.073-.753,1.917-.172,2.847a3.164,3.164,0,0,0,1.42.97c1.255.505,2.578.965,3.935,1.375,4.046,1.224,8.025,2.545,12.219,3.578,2.987.736,4.758,3.369,9.179,2.038a2.46,2.46,0,0,1,1.311.38,7.866,7.866,0,0,0,4.417,1.617c2.421,0,3.11-1.323,4.2-2.3a7.1,7.1,0,0,1,1.744-.856c3.617-1.549,6-3.586,7.354-6.037,2.9-.506,4.916-1.459,5.108-3.328,1.2,0,2.5-.5,3.583.2-2.138,1.547,1.147,2.908.35,4.573-1.149,2.4-2.306,4.985.581,7.392.308.257-.144.84-.334,1.258-.8,1.752.705,2.85,3.232,3.565s5.392,1.132,7.722,2.013a35.456,35.456,0,0,0,12.15,1.907,19.331,19.331,0,0,0,11.116-2.846c2.166-1.259,3.271-2.9,5.659-4.132,4.447-2.289,7.555-5.194,8.9-8.632a23.975,23.975,0,0,1,1.849-3.36c.818-1.375,2.562-2.212,4.993-2.507a4.588,4.588,0,0,1,4.24,1.546c1.422,1.5,5.713,1.491,5.771,3.684,0,.139.83.39,1.274.39,8.7.013,15.339,4.163,24.146,3.938,2.835,1.971,5.8.935,9.058.331,3.659-.679,4.9-1.956,4.635-3.972,2.834-.01,2.835-.011,3.06-1.868l1.789-2.423c1.122-.021,1.793-.27,1.537-.991l-.221-.243.26.229h0c1.278.068,1.5-.363,1.387-.958.866-.056,1.348-.353,1.563-.817a13.955,13.955,0,0,0,2.668-.783,4.56,4.56,0,0,1,4.762.124,46.661,46.661,0,0,0,15.133,5.816,16.892,16.892,0,0,1,5.185,1.9,20.185,20.185,0,0,0,7.2,2.519,22.659,22.659,0,0,1,4.695,1.507c2.8,1.083,7.957.656,9.559-1.043,1.78-1.886,4.885-3.062,6.8-4.736,5.06-4.425,11.6-8.243,15.908-12.967,1.553-1.706,2.614-1.966,5.29-1.432a29.2,29.2,0,0,1,4.185,1.145,41.489,41.489,0,0,0,9.053,2.417c1.239.16,2.93.4,3.458.915,1.768,1.742,5.15,1.768,7.725,2.555,2.46.751,5.028,1.141,6.088,2.865.381.619,2.556.45,2.591,1.445a7.668,7.668,0,0,1,2.278-.454c2.626.412,4.63,1.788,7.832,1.405,3.129-.374,4.462,1.907,7.508,1.963a13.411,13.411,0,0,1,1.18-1.673c1.559-1.656,4.69-2.735,5.3-4.755a1.366,1.366,0,0,1,.979-.64c2.611-.253,2.672-1.624,3.592-2.6.734-.782,1.07-1.742,2.065-2.375a33.6,33.6,0,0,1,6.126-3.151c1.361-.516,2.766.558,4.286.725,2.323.254,4.054-.023,5.332-1.117a2.247,2.247,0,0,0,.862-1.2c.164-1.393,1.1-2.224,3.8-2.193a2.452,2.452,0,0,0,2.567-1.389c.192-.415.593-1.134.925-1.139,3.245-.047,3.28-1.644,4.316-2.762.474-.512.886-1.347,1.573-1.441,3.413-.463,4.648-2.178,6.475-3.5,1.649-1.194,3.924-1.429,6.133-1.547,1.753-.094,2.063,1.137,3.024,1.791a26.274,26.274,0,0,0,4.11,2,2.541,2.541,0,0,0,3.1-.41c1.876-1.84,3.8-2.82,8.1-4.391a1.043,1.043,0,0,0,.489-.336c1.356-2.092,5.014-1.827,7.766-2.376,2.439-.486,3.215-.006,5.062,1.908a5.276,5.276,0,0,0,2.182,1.178,3.767,3.767,0,0,0,2.1-.171c.912-.495-.33-.595-.734-.869-1.412-.959-1.448-1.756.01-2.09,1.624-.373,3.094-1.126,5.108-.777,1.941.336,2.824-.35,3.34-1.284a.812.812,0,0,0,.126-.437c-.092-1.249.446-1.839,3.11-1.7,2.077.1,1.575-1.671,3.142-2.211,4.367-1.5,6.607-4.052,9.543-6.28,3.7-2.812,6.636-5.948,11.153-8.432a6.606,6.606,0,0,0,3.445-3.933c.57-2.343,3.349-4.251,3.654-6.654.105-.831,1.6-1.036,3.007-.62v-3.564c-2.159-.647-2.159-1.531,0-2.673ZM563.739,56.423a2,2,0,0,1,.013.772c1.058.012,2.052.089,2.175.859-.124-.77-1.118-.847-2.176-.859a1.983,1.983,0,0,0-.012-.773m1.773-11.774q-.581-1.729-1.167-3.455.586,1.727,1.17,3.454c.491-.069.987-.129,1.473-.208-.486.079-.983.139-1.476.209m-.153-6.94.021.03c-.058.883.2,1.8-.275,2.64.476-.842.216-1.757.273-2.641l-.019-.029m1.379-9.942c.994-.143,1.98-.314,2.987-.422-1.007.108-1.992.279-2.987.422l-3.22-.069,3.22.069m-17-2.4a1.662,1.662,0,0,0-1.795,1.325q-1.964.013-3.929.03l3.928-.032a1.664,1.664,0,0,1,1.8-1.323M518.529,35.717c1.622-1.155,1.794-2.605,2.357-3.963-.564,1.358-.735,2.809-2.357,3.965q-1.544.045-3.088.094l3.088-.1M473.4,3.7a40.089,40.089,0,0,0,6.748.262A40.163,40.163,0,0,1,473.4,3.7h0M431.2,20.19a7.691,7.691,0,0,0,.007,1.378q.738-.135,1.4-.309a14.107,14.107,0,0,0,2.4-.85,14.107,14.107,0,0,1-2.4.85q-.666.174-1.4.309l-1.582.749,1.581-.749a7.7,7.7,0,0,1-.006-1.378m-6.567,3.9c.429-1.465,2.133-1.752,4.123-1.773-1.99.021-3.694.308-4.119,1.775a4.389,4.389,0,0,0-1.2.053,4.412,4.412,0,0,1,1.193-.054M415.679,24a4.86,4.86,0,0,1,3.556-.619,4.846,4.846,0,0,0-3.555.621,4.174,4.174,0,0,0-.655.028,4.31,4.31,0,0,1,.654-.031M353.413,182.7c.033-.6.027-1.193.08-1.782a6.613,6.613,0,0,1,.1-.7,6.613,6.613,0,0,0-.1.7c-.053.589-.047,1.186-.08,1.782m-252.2,6.618c.073.211.112.433.184.636-.072-.2-.111-.425-.184-.636M21.407,56.256l.193-1.363a17.806,17.806,0,0,1-5.386-1.261A17.745,17.745,0,0,0,21.6,54.89c-.067.457-.131.912-.2,1.366M17.228,72.034a2.479,2.479,0,0,0-.083-.871,2.479,2.479,0,0,1,.083.871m9.4,31.517h0c-.719,1.41-1.44,2.819-2.154,4.23.714-1.411,1.435-2.82,2.154-4.23m118.3,68.645a5.972,5.972,0,0,0,.244,1.567A5.972,5.972,0,0,1,144.919,172.2ZM323.558,20.8a4.562,4.562,0,0,1,.52.106,4.686,4.686,0,0,0-.52-.106m-1.242,1.651-1.749-.017a13.227,13.227,0,0,0-3.959.4,13.236,13.236,0,0,1,3.957-.4ZM255.453,165.959a17.042,17.042,0,0,1,1.288,1.947,2.9,2.9,0,0,1,.315,1,2.9,2.9,0,0,0-.315-1,17.042,17.042,0,0,0-1.288-1.947M221.219,12.685h0a7.582,7.582,0,0,1,1.382-1.474,7.582,7.582,0,0,0-1.382,1.474m1.982-1.7a1.7,1.7,0,0,1,.464.016,1.7,1.7,0,0,0-.464-.016m-1.983,1.7-4.689-.01,4.689.01m-5.157-.356c.153.113.3.233.457.343-.159-.11-.3-.229-.457-.343m15.4,173.719c0,.013.01.026.012.039,0-.012-.009-.026-.012-.039m116.395-.985c.454-.62,1.527-.838,3.98-1.337-2.453.5-3.526.717-3.98,1.337M350.427,9.99l0,0,0,0M303.7,14.455a7.626,7.626,0,0,1,1.366-.113,9.043,9.043,0,0,1,6.852-2.649,9.031,9.031,0,0,0-6.85,2.65,7.532,7.532,0,0,0-1.368.112,8.376,8.376,0,0,0-2.829.348,8.376,8.376,0,0,1,2.829-.348M200.565,11.629a2.57,2.57,0,0,1,2.3-1.338,2.563,2.563,0,0,0-2.3,1.34q-2.91.187-5.813.378l5.81-.379M133.84,14.377a4.835,4.835,0,0,1,4.142-1.454,4.827,4.827,0,0,0-4.14,1.454,9.464,9.464,0,0,0-3.944.828,9.467,9.467,0,0,1,3.942-.829M65.472,33.14c.108-.5-.071-1.163.258-1.546-.329.384-.15,1.043-.257,1.546a17.076,17.076,0,0,0,4.355-.283,17.076,17.076,0,0,1-4.355.283l-3.031.232,3.03-.232M38.725,37.485c.512-1.988,2.679-2.5,5.442-2.49-2.764-.014-4.929.5-5.438,2.491a5.991,5.991,0,0,0-1.213.071,6.051,6.051,0,0,1,1.209-.072M25.219,45.811a3.068,3.068,0,0,1,.454-.966,3.068,3.068,0,0,0-.454.966,9.654,9.654,0,0,0-.135,2.491h0a9.654,9.654,0,0,1,.136-2.491M15.983,72.334c.343.076.781.09,1.151.15v0c-.369-.06-.806-.074-1.149-.15M42.371,187.3l-.353,1.612c-2.6.08-1.79-.784-1.377-1.537l1.73-.075m-2.981-.277c-.6-.383-.185-.732.467-.929a1.54,1.54,0,0,1,.816.5c.105.21-.035.461-.106.7a4.061,4.061,0,0,1-1.177-.276M76.5,191.771c-.048.324-.015.692-.034,1.045.019-.353-.014-.721.034-1.045a10.2,10.2,0,0,0,1.445-.206,10.2,10.2,0,0,1-1.445.206m146.926,3.037h0l.315.18-.315-.18m115.15,1.057a1.767,1.767,0,0,1,1.013-.334,1.767,1.767,0,0,0-1.013.334m5.2-5.219h0l.371.211Zm59.761.368c-.447,1.584-1.976,2.49-4.862,2.546a3.3,3.3,0,0,1-.161,1.318,3.3,3.3,0,0,0,.161-1.318c2.886-.055,4.415-.962,4.86-2.547l.032-.017Zm4.653-2.755a3.878,3.878,0,0,1-2.8,2.42,3.872,3.872,0,0,0,2.8-2.421c-.978.092-1.727.17-2.309.271.581-.1,1.331-.18,2.309-.271,1.581-2.135,3.619-4.2,4.638-6.423-1.02,2.22-3.057,4.287-4.636,6.423M446.1,179.4c-.4-.249-.8-.5-1.2-.747l.253-.146-.253.146c.4.248.8.5,1.21.747.418.356.848.71,1.266,1.068-.418-.359-.848-.712-1.274-1.068m32.156,6.2a1.891,1.891,0,0,1-1.437,1.6,1.886,1.886,0,0,0,1.435-1.606c.043-1.534,2.1-2.351,3.873-2.987-1.775.636-3.829,1.454-3.871,2.988m43.7-21.318c-.153,1.1-1.052,1.772-3.1,1.8l-.1.052c-.164,1.065-1.123,1.67-3.038,1.723l-.1.05a3.321,3.321,0,0,1-1.732,2.018,3.311,3.311,0,0,0,1.73-2.02s.1-.047.1-.047c1.915-.053,2.875-.657,3.035-1.725,0,0,.107-.05.107-.05,2.047-.028,2.946-.7,3.095-1.8,1.316-1.349,4.1-2.026,5.458-3.375-1.354,1.349-4.14,2.027-5.454,3.377" transform="translate(0 0)" fill="#fdf7e9"/>
    <path id="Pfad_14758" data-name="Pfad 14758" d="M349.717,297.047l-1.789,2.423c-2.937.175-2.937.175-3.062,1.867-4.358-.095-8.62-.33-13,.52a20.13,20.13,0,0,1-11.035-1.328c-2.476-.963-4.738-2.175-7.883-2.438-.706-2.2-4.807-1.941-6.988-3.117-2.033-1.1-4.9-1.675-6.366-3.168-.625-.639-1.488-.557-2.584-.545-3.334.037-4.476,1.891-6.857,2.564-3.338.944-4.276,2.4-4.5,4.26-.09.734.235,1.776-.472,2.141-2.642,1.36-2.177,3.243-3.161,4.874a6.174,6.174,0,0,1-2.417,2.216c-2.141,1.108-3.323,3.218-7.352,2.592-.7,2.326-5.154,1.59-7.175,2.885-1.8,1.155-4.231.954-6.514.6-1.724-.268-3.367-.7-5.273-1.115a9.834,9.834,0,0,0,.56-2.182,11.555,11.555,0,0,0-.58-2.577c-.461-2.159.254-3.954,2.262-5.813,1.553-1.438,2.418-3.2,0-4.81-.948-.631-1.13-1.368-.2-2.02,3.165-2.23,3.813-4.478,2.463-7.407-1.167-2.529-2.088-5.742,4.038-7.279.75-1.353,5.682-2.577.376-4.127-.587-.172-.514-.48-.092-.738,2.921-1.792,1.173-3.574-.056-5.355a12.493,12.493,0,0,0,2.152-.266,4.79,4.79,0,0,0,1.408-.887c.051-.036-.141-.249-.3-.3a2.661,2.661,0,0,0-2.566.306c-.378.334-.419.792-.612,1.194a9.33,9.33,0,0,0-2.6.629c-1.426,1.042-3.269,1.106-5.263,1.061-.062-1.651-.162-3.362,2.579-4.418,4.867-1.873,6.609-4.809,8.3-7.758.4-.7.364-1.506,1.643-1.906,2.2-.686,2.958-2.021,4.411-3.042,3.371-2.368,5.749-5.211,9.911-7.183a11.632,11.632,0,0,0,5.936-5.517,41.008,41.008,0,0,1,2.881-4.582,4.317,4.317,0,0,1,2.4-1.687,3.956,3.956,0,0,1,2.876.049c.5.248.922.8.806,1.156-.418,1.3-1.4,2.526-1.338,3.9.038.808-.884,1.289-2.166,1.651-2.914.824-4.121,2.064-2.932,3.972,1.239,1.988.195,3.612-2.212,5.276a17.82,17.82,0,0,0-6.561,8.333c-.474,1.178-1.106,1.893-3.288,2.035-1.04.068-2.114.315-1.783,1.1,1.009,2.381.025,4.366-3.2,6.02-.42.215-.565,1.081-.283,1.194,3.746,1.5,2.874,4.392,5.728,6.128a2.229,2.229,0,0,1,1.136,2.929c-1.092,2.858-1.072,5.892-3.831,8.507-.4.379-.64.812-1.021,1.2-1.776,1.8-1.394,3.72-.98,5.634.048.212.609.484,1.019.547a2.349,2.349,0,0,0,1.329-.19,24.693,24.693,0,0,0,2.093-2.355,2.361,2.361,0,0,1,2.074-1.164c3.891.052,6.042-1.648,8.471-2.866,3.724-1.868,6.974-4.155,6.42-7.225-.484-2.687,2.066-4.1,5.373-5.407.838-.331,2.249.025,2.292.629.16,2.21.861,4.469-.553,6.6-2.288,3.454.989,6,4.052,8.565a6.347,6.347,0,0,0,3.159,1.16c2.517.2,4.319.778,5.621,2.03a4.3,4.3,0,0,0,2.251,1.17,74.665,74.665,0,0,1,12.174,2.129c2.276-.669,4.457-.182,6.745.064,4.051.436,7.836.1,10.043-2.236,1.028-1.089,2.841-1.165,4.555-1.435l.374.212.511,1.121-.263-.231.222.243c-1.3-.07-1.789.273-1.537.991" transform="translate(-6.641 -104.067)" fill="#fdf7e9"/>
    <path id="Pfad_14759" data-name="Pfad 14759" d="M235.454,13.61c4.631,2.489,10.209,1.553,15.484,1.255a27.54,27.54,0,0,1,5.244.047c2.811.358,4.882,1.108,5.487,2.732.962,2.585,3.967,3.4,8.174,3.907,6.9.837,13.686.535,20.542.144,1.8-.1,3.6-.157,5.409-.167,1.736-.009,2.486.576,1.588,1.362-1.008.883-2.637,1.76-.4,2.577,1.653.6,2.594-.531,3.791-1.039a14.171,14.171,0,0,0,4.655-2.912c.818-.831,2.37-1.093,4.026-1.057a4.713,4.713,0,0,1-1.387,4.3c-1.689,1.617-2.3,3.286-.612,5.054a.925.925,0,0,1,.224.862c-.066.247-.391.489-.692.687a1.3,1.3,0,0,1-.727-.062c-.553-.3-1-.672-1.562-.966-1.988-1.033-3.825-1.03-5.173.028a19.524,19.524,0,0,0-1.551,1.535c-2.428,2.364-2.43,2.364-7,3.193-.556.779,2.966.472,1.11,1.559-1.247.73-1.142,1.585-1.282,2.464-.242,1.514-.272,1.564-3.927,1.939a15.734,15.734,0,0,0-4.049,1.224,20.679,20.679,0,0,1-6.466,1.378c-3.223.1-5.067-.195-5.432-1.035-.531-1.221.873-1.963,2.178-2.656,6.123-3.253,9.7-7.557,14.4-11.393A6,6,0,0,0,289,26.531c.735-1.418-.567-2.238-3.141-1.957-3.847.421-7.843.936-11.324-.358-5.832-2.168-12.011-.941-18.041-.843-1.912.031-4.22.7-4.412,2.122-.32,2.383-3.276,3.752-6.141,4.88a16.07,16.07,0,0,0-6.786,4.675,27.308,27.308,0,0,1-3.646,3.391c-1.46,1.183-1.611,3.374-4.163,3.461-2.1.073-4.527-.966-7.082-1.095-1.12-.057-1.7-.642-1.278-1.323a3.793,3.793,0,0,1,1.3-1.6c4.222-2.346,6.661-5.544,12.026-7.415,4.336-1.513,7.139-4.264,11.8-5.7a3.881,3.881,0,0,0,1.531-.99c1.948-1.908,3.3-4.012,5.885-5.719.41-.271-.15-.89-1.007-.976-2.043-.2-4.426-.529-6.023.235a9.938,9.938,0,0,1-6.36.629,18.491,18.491,0,0,0-6.884.19,5.986,5.986,0,0,1-4.116-.581c-2.395-.965-2.554-.842-4.149,1.126v0l-4.7-.009a5.943,5.943,0,0,0-.972-.656c-1.018-.456-2.023-.909-1.65-1.765s1.618-1.034,2.916-1.058c2.529-.046,5.061-.032,7.59-.079,1.716-.031,2.852-.494,3.035-1.542l2.251.033M292.392,30.3c-2.072.119-3.914.4-3.935,1.9,0,.1.323.29.494.289,2.578-.013,3.113-1.054,3.358-2.23a3.718,3.718,0,0,0,2.48-1.451c.093-.188-.231-.561-.545-.661a2.176,2.176,0,0,0-1.2.124,14.465,14.465,0,0,0-.654,2.028" transform="translate(-5.761 -6.003)" fill="#fdf7e9"/>
    <path id="Pfad_14760" data-name="Pfad 14760" d="M356.394,337.317l.47,2.027c-.215.464-.7.761-1.564.817L353.4,340l-.371-.211c.445-1.124.5-2.422,3.36-2.471" transform="translate(-9.263 -149.143)" fill="#fdf7e9"/>
    <path id="Pfad_14761" data-name="Pfad 14761" d="M347.557,191.105c-2.86.05-2.915,1.347-3.36,2.471-1.719.268-3.532.344-4.56,1.433-2.208,2.337-5.992,2.673-10.042,2.236-2.289-.246-4.47-.733-6.745-.064a74.713,74.713,0,0,0-12.173-2.129,4.3,4.3,0,0,1-2.252-1.169c-1.3-1.252-3.1-1.835-5.621-2.03a6.347,6.347,0,0,1-3.159-1.16c-3.062-2.564-6.34-5.111-4.052-8.565,1.414-2.134.712-4.393.553-6.6-.044-.6-1.454-.96-2.292-.629-3.307,1.3-5.857,2.72-5.373,5.407.554,3.07-2.7,5.357-6.42,7.225-2.428,1.218-4.58,2.919-8.471,2.866a2.363,2.363,0,0,0-2.074,1.165,24.685,24.685,0,0,1-2.093,2.355,2.355,2.355,0,0,1-1.329.19c-.409-.063-.972-.335-1.018-.547-.416-1.914-.8-3.837.979-5.634.382-.386.622-.818,1.022-1.2,2.758-2.616,2.736-5.649,3.83-8.507a2.229,2.229,0,0,0-1.136-2.929c-2.854-1.736-1.982-4.626-5.728-6.128-.281-.113-.135-.979.283-1.194,3.224-1.655,4.208-3.639,3.2-6.02-.332-.783.743-1.03,1.782-1.1,2.182-.142,2.814-.857,3.288-2.036a17.822,17.822,0,0,1,6.561-8.332c2.407-1.665,3.451-3.289,2.212-5.277-1.189-1.907.019-3.147,2.932-3.971,1.28-.362,2.2-.843,2.166-1.651-.065-1.372.92-2.6,1.338-3.9.115-.356-.307-.909-.806-1.156a3.956,3.956,0,0,0-2.876-.049,4.317,4.317,0,0,0-2.4,1.687,40.874,40.874,0,0,0-2.881,4.582,11.632,11.632,0,0,1-5.936,5.517c-4.162,1.972-6.54,4.815-9.911,7.184-1.453,1.021-2.215,2.356-4.411,3.042-1.279.4-1.241,1.208-1.643,1.906-1.7,2.949-3.438,5.885-8.3,7.758-2.742,1.056-2.643,2.767-2.581,4.418a36.554,36.554,0,0,0-9.52,8.942c-3.014.165-2.911,1.443-2.918,2.68l-.02.012a9.913,9.913,0,0,0-2.135.295c-2.2.9-3.858,4.015-3.021,5.6.1.193.807.282,1.233.419.489.69.213,1.25-.869,1.672-1.942.184-4.742-.423-5.544.93-1.673,2.826-6.45,3.715-9.733,5.485-3.4,1.832-8.488.845-10.68-1.667-.343-.393-.306-1.09-.788-1.216-5.059-1.324-7.194-4.012-9.632-6.568-4.189-.712-5.441-3.5-9.446-4.375a2.43,2.43,0,0,1-2.05-1.766c-.371-1.681-1.273-1.787-4.134-1.622-3.215.185-5.407.561-5.777,2.681-.164.94-1.98,1.388-3.288,1.752-3.643,1.012-7.381,1.933-11.191,2.715-1.488.306-3.312-.037-3.557-1.132-.3-1.34-1.4-2.1-3.536-2.6-1.224-.292-.859-1.024-.2-1.5.633-.452,1.676-.717,2.3-1.172,1.919-1.391,1.63-3.092-1.131-4.076-1.944-.692-2.49-1.38-1.752-2.514.468-.72.808-1.476-.272-2.059a13.633,13.633,0,0,0-6.945-1.659,2.948,2.948,0,0,0-2.734,1.316,7.764,7.764,0,0,1-4.58,3.979c-1.526.514-1.679,1.454-2.147,2.274a13.5,13.5,0,0,1-5.7,5.68,2.361,2.361,0,0,0-1.453,2.833,2.39,2.39,0,0,1-.242.741,9.853,9.853,0,0,0-5.436,1.327c-2.571,1.247-3.782-1.125-6.058-.935-.5.042-.986.157-1.485.221-4.6.591-9.247.286-13.873.194-1.738-.035-2.754-.971-2.194-1.89,1.051-1.724,2.3-3.335,6.2-3.425a2.772,2.772,0,0,0,1.752-.648c.45-.784-.991-.823-1.736-1.164-2.311-1.059-2.568-2.144-.552-3.265a12.447,12.447,0,0,0,3.509-2.308c1.287-1.533,2.317-3.217.263-4.582-1.749-1.161-1.379-2-.523-3.166,1.6-2.176.625-4.544,1.213-6.809.168-.649-1.111-1-2.175-.913a2.693,2.693,0,0,0-1.716.732,4.749,4.749,0,0,0-.412,2.186,2.784,2.784,0,0,1-1.947,2.778c-3.087,1.267-3.829,3.445-6.23,4.96-.952.6-1.251,1.311-.659,2.04,1.482,1.824-.188,3.227-2.126,4.385-4.842,2.894-7.433,6.284-7.777,10.255a3.364,3.364,0,0,1-1.922,2.83c-2.718,1.376-3.409,3.22-4.35,5.04a10.273,10.273,0,0,1-1.446.206c-1.251.122-2.952-.008-3.672.412-2.2,1.287-3.89,1.261-5.614-.208a2.737,2.737,0,0,0-3.221-.168,5.208,5.208,0,0,1-1.225.533,7.7,7.7,0,0,1-5.58-1.009c-1.359-.745-.74-1.639.224-2.406.841-.671,1.035-1.187-.138-1.9-2.255-1.375-3.31-3.014-1.923-4.895a2.012,2.012,0,0,0,.05-2.152c-.575-1.471.492-2.605,2.828-3.266,1.113-.315,1.258-.5.777-1.245-2.011-3.119-1.672-3.545,2.923-4.87.9-.259,1.863-.444,2.619-.621.394-.851-.422-1.231-1.063-1.694-1.045-.753-1.524-1.809-.455-2.465,1.672-1.026.276-1.727.077-2.641-.242-1.111,1.341-2.243.835-3.459-.229-.55-.515-1.3-1.216-1.543-2.828-.988-3.388-2.45-3.526-4.174-.1-1.209-1.1-1.286-3.047-.345-2.237,1.082-2.243,1.084-3.756-.18-.584-.488-.949-1.142-1.736-1.455-2.394-.953-1.519-1.954-.592-3.1.839-1.036,3.026-1.7,2.537-3.112-.957-2.764.8-5.189,2.947-7.577.852-.947,1.862-1.285,3.7-.969.986.169,2.478.045,2.646-.568.482-1.771,3.568-2.436,4.645-3.909a.321.321,0,0,0-.1-.42c-3.038-2-.857-4.562-2.188-6.767-.63-1.044-.077-2.092,2.192-2.441,2.007-.308,2.489-1.443,3.7-2.181.789-.48.737-.975.381-1.609-1.211-2.157-1.157-2.184,1.615-2.942.929-.254,1.99-.353,2.9-.623,1.667-.494,2.124-1.188,1.043-2.557-.639-.808-.529-1.332.2-2.013.662-.618,1.6-1.32,1.566-1.969-.178-2.954,2.532-5.205,5.807-7.049,2.918-1.643,3.293-4,6.018-5.607.536-.316-.038-.833-.586-1.174a3.228,3.228,0,0,0-2.775-.288c-.629.215-1.361.577-1.525.949-.676,1.527-2.248,2.071-4.992,2.187-4.387.186-6.975,1.867-7.91,4.2-.588,1.467-1.9,2.055-4.282,1.933-3.412-.176-5.375.76-6.389,2.516-1.162,2.014-4.076,3.366-5.921,5.131-1.058,1.011-3.748,1.308-5.453.6-2.666-1.106-3.958-.864-5.083.875-.486.75-2.2.771-3.413.389a76.684,76.684,0,0,0-9.728-1.975c1.27-2.221,3.044-4.186,1.51-6.5-.795-1.2.915-2.284,3.144-2.63a28.724,28.724,0,0,1,3.084-.2c2.527-.11,3.221-1.472,2.429-2.653-.179-.266-.619-.471-.872-.726-2.554-2.568-2.5-2.843.752-4.91A10.277,10.277,0,0,0,44.045,95.9c.822-.895,2.213-1.853,1.09-2.89-1.167-1.076-3.124-.779-4.9-.48-.5.084-.961.226-1.455.315a4.9,4.9,0,0,1-4.037-.794,6.724,6.724,0,0,0-2.855-1.418c-3.039-.444-3.311-1.659-3.223-3.072.18-2.893-.551-5.578-4.405-7.759-1.28-.724-1.738-1.742-1.058-2.889.723-1.217-.812-1.536-2.543-1.569-1.031-.02-2.067.049-3.1.077l0-.011c.392-1.213-.43-2.3-.918-3.443-.8-1.886-.626-3.59,1.911-5.327a41.569,41.569,0,0,1,4.481-2.88c2.623-1.362,2.694-1.95.621-3.807a7.489,7.489,0,0,0-1.824-.769c.065-.454.13-.909.2-1.366.36-1.894.6-3.791,3.04-5.316.437-.274.315-.84.451-1.272l-.01.007a7.737,7.737,0,0,0,2.14-.394c3.1-1.992,3.7-5.161,8.937-6.167.238-.046.419-.532.312-.766-.566-1.244,1.368-2.221,1.041-3.426a6.036,6.036,0,0,1,1.213-.07c3.1-.04,5.919-.324,6.657-2.456l3.1-.022c2.158,1.312,4.785,1.007,7.194.476A25.287,25.287,0,0,0,62.867,36.3l3.031-.232c4.351.212,7.433-.806,9.159-3.115a9.5,9.5,0,0,1,5.156-3.135c2.033-.591,3.578-1.655,6.017-1.889a1.622,1.622,0,0,0,1.552-1.385l1.866-.173c1.67-.1,2.7-.584,2.934-1.565,2.068-.341,3.787-1.278,6.116-1.173,1.237.008,2.478.064,3.708.016,3.394-.13,3.392-.147,4.1-2.658l.04-.014a6.467,6.467,0,0,0,1.513-.146c5.571-2.229,11.78-2.861,18.414-2.474l.18.068a2.238,2.238,0,0,0,3.164-.089,10.3,10.3,0,0,1,4.445-1.033c2.113.117,4.309.337,5.012-1.31a15.318,15.318,0,0,1,5.973-.14c.078,1.061,0,2.065-2.262,2.431-1.075.174-1.928.614-1.358,1.242.487.538,1.757.62,2.747.494a26.694,26.694,0,0,0,8.721-2.5l9.359-.042c.175.712.341,1.449,1.915,1.584,1.966.169,2.576-.571,2.877-1.484,1.6-.322,3.489-.2,4.734-1.042,3.2-.023,6.4-.021,9.6-.078,1.8-.032,2.473-.764,2.732-1.671l7.755.016c.029.435.023.873.1,1.307.078.465.5.836,1.344.885.883.052,1.392-.279,1.511-.756a9.167,9.167,0,0,0,.153-1.3q2.905-.19,5.813-.378c1.834.234,3.136-.072,3.663-1.171q1.392,0,2.785,0c.093.872.594,1.926-.583,2.538-4.309,2.241-4.85,5.838-9.093,8.089a.923.923,0,0,0-.26,1.2c1.488,2.645,6.024,3.324,9.389,1.518a9.616,9.616,0,0,0,3.524-2.836c.458-.675.558-1.616,1.878-1.814,3-.451,2.991-1.714,3.236-3.084a16.7,16.7,0,0,1,1.425-3.4l-.01,0,4.7.01c.26.438.506.511.633.205a3.323,3.323,0,0,0-.633-.2c1.6-1.968,1.756-2.09,4.15-1.126a5.985,5.985,0,0,0,4.116.581,18.486,18.486,0,0,1,6.883-.19,9.944,9.944,0,0,0,6.361-.63c1.6-.764,3.98-.438,6.022-.235.858.086,1.418.705,1.008.976-2.589,1.707-3.937,3.811-5.885,5.719a3.874,3.874,0,0,1-1.531.99c-4.659,1.435-7.462,4.186-11.8,5.7-5.364,1.872-7.8,5.069-12.026,7.415a3.79,3.79,0,0,0-1.294,1.6c-.419.681.159,1.266,1.279,1.323,2.555.129,4.981,1.167,7.082,1.095,2.552-.088,2.7-2.278,4.163-3.461a27.271,27.271,0,0,0,3.646-3.391A16.075,16.075,0,0,1,240.6,27.3c2.865-1.128,5.82-2.5,6.141-4.88.192-1.425,2.5-2.091,4.412-2.122,6.03-.1,12.209-1.324,18.041.843,3.481,1.294,7.477.779,11.324.358,2.575-.282,3.877.539,3.141,1.956a6,6,0,0,1-1.488,2.036c-4.7,3.836-8.28,8.14-14.4,11.393-1.3.693-2.709,1.435-2.177,2.657.365.84,2.208,1.136,5.432,1.035a20.666,20.666,0,0,0,6.465-1.379,15.752,15.752,0,0,1,4.05-1.224c3.656-.374,3.686-.425,3.927-1.939.14-.879.035-1.733,1.282-2.464,1.856-1.087-1.666-.78-1.11-1.559,4.573-.829,4.576-.828,7-3.192a19.516,19.516,0,0,1,1.551-1.535c1.348-1.058,3.184-1.06,5.172-.028.566.294,1.01.663,1.563.966a1.3,1.3,0,0,0,.727.062c.3-.2.626-.44.692-.687a.925.925,0,0,0-.224-.862c-1.689-1.768-1.077-3.437.613-5.054a4.714,4.714,0,0,0,1.387-4.3,7.528,7.528,0,0,1,1.367-.112c1.752.584,2.866,2.6,5.549,1.172A10.314,10.314,0,0,1,320.421,18a12.7,12.7,0,0,0,2.21.311c3.159.525,3.182.589,1.925,2.39-.657.943-1.206,1.91-1.8,2.866q-.006.933-.013,1.865l.087-.051-1.837-.018a10.646,10.646,0,0,0-4.441.606,66.857,66.857,0,0,0-7.883,4.234c-2.53,1.779-6.576,3.07-6.559,5.841,0,.287-1.03.576-1.581.865-3.4,1.782-7.027,3.509-4.394,6.62.193.228-.125.582-.094.874.145,1.392.59,1.645,2.5,1.275,2.931-.568,5.84-1.627,8.883-1.406,5.09.369,10.092,1.162,15.1,1.846,1.5.2,1.83,1.033,1.676,1.785a2.1,2.1,0,0,1-1.1,1.589c-3.779,1.575-4.448,4.2-6.577,6.306-1.778,1.761-2.37,3.9-5.213,5.36a1.466,1.466,0,0,0-.633,1.228c-.031.248.269.608.623.745a2.391,2.391,0,0,0,1.362-.006c2.5-1.637,5.675-2.926,6.819-5.227.663-1.335,1.587-2.928,4.872-3.082,2.566-.12,2.819-.942,2.188-2.167-.325-.633.214-1.209,1.516-1.193.672.008,1.79.241,1.924.5,1,1.961,3.086,2.9,6.73,3.033,1.707.062,3.316.8,5.03,1.123a4.119,4.119,0,0,0,2.121-.121c2.944-2.123,7.441-1.775,11.282-2.491a13.6,13.6,0,0,1,8,.624c2.6,1.016,4.676.761,5.834-.7,2.283-2.874,7.777-4.8,7.579-8.4-.015-.264.416-.535.634-.8,2.9-3.578,4.64-7.5,9.571-10.477a3.155,3.155,0,0,0,1.5-2.472c.226-1.145,1.361-1.931,3.294-2.226,2.139-.327,2.912-1.144,2.822-2.3-.178-2.317,2.5-3,5.768-3.45,3.864-.538,6.705.179,8.33,2.437.71.986,1.731,1.41,3.445,1.409,1.032,0,2.065-.069,3.1-.107a4.15,4.15,0,0,1,1.091-.1c1.121.974,2.172,1.975,3.383,2.908a3.091,3.091,0,0,0,3.718-.214,2.7,2.7,0,0,0,.663-2.559,4.367,4.367,0,0,1,1.2-.053c4.122.123,4.122.123,4.987-1.771l1.582-.749c3.936-.716,6.31-2.309,7.715-4.465,1.073-1.645,2.132-3.3,3.322-4.913,1.982-2.7,4.693-4.915,10.56-4.879a9.525,9.525,0,0,0,4.247-.883,13.344,13.344,0,0,1,5.808-.879c1.539,0,3.08-.011,4.614-.072,1.89-.075,2.549-.819,2.729-1.78h3.2c.091.769.377,1.486,1.871,1.743,4.858.835,5.812,3.545,8.171,5.576.248.214.375.722.158.83-3.269,1.626-.532,3.586-.968,5.358a1.642,1.642,0,0,1-1.424,1.462A6.339,6.339,0,0,0,476.7,25.28a9.92,9.92,0,0,1-3.232,3.971c-2.059,1.344-1.529,3.056-.558,4.622a3.312,3.312,0,0,0,3.018,1.158c3.029-.261,6.322-.365,8.92-1.16,2.2-.674,2.324-2.508,2.93-3.942a26.529,26.529,0,0,1,2.169-4.244,1.51,1.51,0,0,0-.6-2.454c-1.893-1.117-1.022-2.2.094-3.225a21.1,21.1,0,0,1,2.874-2.075c1.622-1.038,2.908-1.077,3.761.432.356.631,1.523.75,2.571.784,1.806.059,3.622.043,5.423.127,1.166.055,2.185.585,1.7,1.163-2.632,3.117-4.086,6.734-10.084,8.53-2.377.711-3.3,1.787-3.206,3.251.037.592-.024,1.185,0,1.778.155,3.71,4.866,6.195,11.041,5.429a15.278,15.278,0,0,1,6.625.382,20.9,20.9,0,0,0,2.124.538c1.624.306,2.336-.03,3.522-1.6q1.585-.049,3.17-.1c.107.967.692,1.682,2.6,1.86,2.988.278,6.368-.107,8-1.13,2.118-1.33,5.629-2.154,6.311-4.046.628-1.739,2.157-1.684,4.4-1.346a1.832,1.832,0,0,0,1.208-.377c.129-.189-.156-.581-.476-.741-1.03-.515-3.392-.437-2.661-1.712.529-.924,2.132-1.2,3.75-1.294.768-.046,1.527-.139,2.29-.21q2-.017,4-.031c.379.531.491,1.3,1.177,1.547a28.068,28.068,0,0,0,12.576,1.2,1.771,1.771,0,0,0,1.825-1.743l3.22.069c.293.784,3.505,1.289.689,2.369-1.23,2.476-2.909,4.911-2.068,7.572l.018.03a4.277,4.277,0,0,0-3.559,1.138c-1.4,1.472-1.08,1.811,2.526,2.317q.584,1.727,1.167,3.455c-1.164.437-1.772,1.058-1.834,1.845-.194,2.5.209,5.013-1.349,7.455-.544.854.777,1.671,1.411,2.474a2,2,0,0,1,.012.772c-1.466,1.179-3.029,2.323-4.359,3.549-.959.884-.166,2.027,1.531,2.6q6.3,2.14,12.6,4.284c.864.3,2.294.678,1.895,1.231-1.355,1.876,1.292,3.671-.165,5.622-1.184,1.585-.247,2.072,2.71,2.308,1.02.081,2.072.037,3.1.11,1.835.132,2.621.813,2.716,1.819.055.591.121,1.182.182,1.773-.324,2.348-1.927,4.593-1.678,6.993a1.313,1.313,0,0,1-.572,1.251c-2.672,1.583-1.9,3.561-2.237,5.444-.471,2.673,1.019,4.419,5.525,5.573,3.828.98,3.707,1.3,3.015,3.872-.652,2.424-.2,2.8,3.879,3.265,1.244.141,2.951.066,3.628.5,2,1.3,4.564,1.165,7.088,1.358,2.427.186,3.123.694,3.2,2.034.049.888.2,1.834-1.149,2.469-2.593,1.217-2.291,2.734-1.909,4.4a4.44,4.44,0,0,1-1.456,4.707,2.159,2.159,0,0,0-.761,2.521c.946,2.674-.534,5.2-2.281,7.619-.691.954-1.677,1.8-1.587,2.883.394,4.746-4.842,7.895-9.715,11.136a12.135,12.135,0,0,1-1.864.79c-2.757,1.151-2.778,3.612-6.186,4.391-2.916.666-5.77,1.27-7.572,2.891a3.408,3.408,0,0,1-1.961.494c-6.013-.519-11.489,1.235-17.373,1.294a10.6,10.6,0,0,0-5.308,1.672c-1.449.844-2.806.664-3.555-.4-.726-1.031-1.844-1.277-3.636-1.017a59.842,59.842,0,0,0-9.783,2.359c-.636.2-1.525.514-1.627.843-.663,2.132-4.51,2.774-6.131,4.434-2.96.131-2.979.142-3.1,1.8,0,0-.1.052-.106.05-2.87.078-2.87.078-3.035,1.725l-.1.047c-3.081-.234-6.437-.619-7.738,1.609-.935,1.6-2.364,1.432-4.648,1.106s-2.989.14-3.351,1.652a7.166,7.166,0,0,0,0,1.751c-5.126,1.12-9.3,2.859-12.128,5.648a13.505,13.505,0,0,1-4.886,2.677c-1.883.679-4.56,1.5-4.61,3.25-2.874.084-4.584-.565-5.471-2.249a2.118,2.118,0,0,0-3.346-.224c-1.442,1.409-4.732,1.78-5.48,3.477a7.455,7.455,0,0,1-3.3-.891,6.471,6.471,0,0,0-3.06-1.12c-5.788.46-7.749-2-10.219-4.123-.418-.359-.849-.712-1.266-1.069,2.4-.735,2.423-.793.787-1.893.535-.316,1.053-.641,1.606-.947,2.195-1.214,3.752-2.456,1.337-4.192-.8-.572.267-1.044.808-1.525.683-.606.209-1.121-.658-1.534a2.468,2.468,0,0,0-2.1-.19c-1.983,1.228-4.5,1.259-7.122,1.3-3.129.049-4.718,1.015-4.641,2.832a10.74,10.74,0,0,0-1.376,1.5c-1.209,2.009-1.329,2.107-4.207.523a7.583,7.583,0,0,0-6.171-.517c-5.613,1.452-9.87,3.434-11.542,7.076-1.019,2.22-3.057,4.287-4.638,6.423-3.911.366-4.174.523-4.621,2.737l-.031.017c-3.893.3-3.893.3-4.865,2.547l0,0c-1.251-.136-2.827-.046-3.686-.452-1.768-.837-3.225-1.526-5.277-.329a2.608,2.608,0,0,1-1.338.39c-4.175-.724-8.769-.1-12.784-1.351-2.769-.864-3.074-1.154-2.291-3.182.445-1.15.972-2.291,1.513-3.427.731-1.534,3.187-2.96.682-4.69-.358-.246-.044-.867.121-1.294.72-1.867,1.818-3.707,2.15-5.593.247-1.409.659-2.36,3.04-3.151,2.626-.872,5.181-2.285,4.64-4.193-.393-1.386.056-2.254,1.671-3.137,1.133-.619,2.4-1.375,1.926-2.3-1.522-2.991.2-6.153-1.412-9.07-1.379-2.489,1.051-4.8.278-7.215a1.171,1.171,0,0,1,.634-1.23c3.119-1.616,2.432-4.15,4.6-6.013,1.5-1.285.75-2.895.884-4.363.15-1.636,4-2.269,3.611-3.764-.562-2.159,1.507-3.666,2.777-5.4,2.2-3,1.805-6.111.7-9.158-.763-2.116-2.6-2.236-6.064-1.039-2.563.886-4.254,1.685-4.381,3.7a12.474,12.474,0,0,1-2.7,6.822c-1.486,1.9-2.594,3.844-3.863,5.77-1.22,1.853-4.32,3.361-2.951,5.708.214.366-.77,1.076-1.462,1.481-3.09,1.807-4.165,4.06-4.374,6.464a8.242,8.242,0,0,1-3.167,5.849c-1.227,1.016-1.188,1.846-.287,2.863.556.628,1.432,1.418.237,2.036-2.691,1.391-2.782,3.467-4.409,5.128-1.388,1.418-3.21,2.751-4.078,4.265s1.53,3.108.625,4.761c0,0-.174.084-.17.085-4.238,1.561-7.52,3.459-7.512,6.625a2.331,2.331,0,0,1-.807,2.109c-2.534,1.621-2.238,3.542-2.345,5.448l-1.571,1.023c-4.362.888-4.362.888-4.269,3.833a1.173,1.173,0,0,1-.441.618M294.748,130.24a2.587,2.587,0,0,0-2.709-2.835c-2.446.135-1.957,1.514-2.662,2.346a3.471,3.471,0,0,0-.58,2.108c-.062.775,1.377,1.19,2.74.884,2.1-.472,3.441-1.223,3.212-2.5" transform="translate(-0.425 -2.931)" fill="#fdf7e9"/>
    <path id="Pfad_14762" data-name="Pfad 14762" d="M330.272,27.223c.6-.956,1.146-1.923,1.8-2.866,1.256-1.8,1.234-1.865-1.925-2.39a12.7,12.7,0,0,1-2.211-.311,10.315,10.315,0,0,0-9.383.448c-2.684,1.429-3.8-.589-5.549-1.172,1.953-2.057,5.075-3.127,8.947-2.447a68.228,68.228,0,0,0,13.7.722,21.751,21.751,0,0,1,2.3.1c1.78.145,2.827,1.091,1.663,1.777-2,1.182-1.374,2.794-2.663,4.079-.99.987.083,1.978,1.1,2.863a3.145,3.145,0,0,0,2.562.692c1-.118,1.962-.412,2.964-.455,3.538-.151,4.925-1.349,4.846-3.212-.027-.634-.095-1.114,1.137-1.385,3.258-.717,4.426-2.77,7.347-3.772,2.05-.7,1.079-2.152,1.4-3.275l.069-.04a12.431,12.431,0,0,0,5.1-.837c2.195-1.091,4.585-.938,7.276-.538,4.956.737,9.9,1.663,15.179,1.329,2.044-.129,3.513.389,3.731,1.694.128.764.581,1.39,1.789,1.849,5.908,2.246,12.123,4.264,19.429,3.342,2.7-.341,4.113.861,6.579.644,4.321-.379,4.584-.136,3.687,1.986-.73,1.728-.225,3.209,1.388,4.645-1.029.037-2.062.1-3.095.106-1.713,0-2.734-.422-3.444-1.409-1.626-2.258-4.467-2.975-8.33-2.437-3.264.454-5.946,1.133-5.768,3.45.09,1.161-.683,1.978-2.822,2.305-1.933.3-3.068,1.082-3.294,2.226a3.159,3.159,0,0,1-1.5,2.472c-4.93,2.974-6.665,6.9-9.57,10.477-.219.269-.648.541-.634.8.2,3.6-5.3,5.526-7.58,8.4-1.157,1.456-3.234,1.711-5.833.7a13.6,13.6,0,0,0-8-.624c-3.841.716-8.338.368-11.282,2.491a4.118,4.118,0,0,1-2.121.121c-1.714-.326-3.324-1.061-5.031-1.123-3.643-.132-5.726-1.072-6.73-3.033-.134-.262-1.252-.495-1.923-.5-1.3-.016-1.842.561-1.516,1.193.631,1.225.377,2.047-2.188,2.167-3.284.154-4.208,1.747-4.873,3.082-1.144,2.3-4.322,3.59-6.818,5.227a2.391,2.391,0,0,1-1.362.006c-.354-.137-.654-.5-.624-.745a1.468,1.468,0,0,1,.633-1.228c2.844-1.462,3.435-3.6,5.214-5.36,2.129-2.108,2.8-4.731,6.577-6.306a2.1,2.1,0,0,0,1.1-1.589c.154-.753-.177-1.58-1.676-1.785-5.01-.684-10.011-1.477-15.1-1.846-3.043-.221-5.953.838-8.884,1.406-1.909.37-2.354.118-2.5-1.275-.03-.292.287-.646.094-.874-2.632-3.111.991-4.838,4.395-6.62.551-.289,1.582-.577,1.58-.865-.016-2.771,4.029-4.062,6.56-5.841a66.837,66.837,0,0,1,7.882-4.234,10.66,10.66,0,0,1,4.445-.606c.4.375-.036,1.116,1.232,1.054.25-.012.4-.674.6-1.036l-.086.051c.966-.078,2.232-.114,2.426-.712.321-1-1.287-.977-2.413-1.153m4.669,8.926a8.138,8.138,0,0,0,1.848-.164c2.636-.814,3.952-2.174,4.158-3.839.077-.62-.815-1.094-1.93-1.093-3.3,0-6.09,1.379-6.966,3.338-.362.809.941,1.715,2.89,1.758" transform="translate(-7.943 -6.59)" fill="#fdf7e9"/>
    <path id="Pfad_14763" data-name="Pfad 14763" d="M374.039,257.863c.9-1.653-1.5-3.236-.625-4.761s2.69-2.847,4.078-4.265c1.626-1.661,1.718-3.737,4.409-5.128,1.2-.618.319-1.407-.237-2.036-.9-1.018-.94-1.848.286-2.863a8.24,8.24,0,0,0,3.168-5.849c.209-2.4,1.284-4.658,4.374-6.464.691-.405,1.676-1.115,1.462-1.481-1.369-2.348,1.731-3.856,2.951-5.708,1.269-1.926,2.377-3.873,3.863-5.77a12.474,12.474,0,0,0,2.7-6.822c.127-2.011,1.818-2.809,4.381-3.7,3.462-1.2,5.3-1.077,6.064,1.039,1.1,3.047,1.5,6.156-.7,9.158-1.27,1.732-3.339,3.239-2.777,5.4.39,1.5-3.461,2.129-3.611,3.764-.135,1.468.613,3.078-.884,4.363-2.171,1.862-1.485,4.4-4.6,6.012a1.171,1.171,0,0,0-.634,1.23c.773,2.413-1.656,4.726-.278,7.215,1.615,2.917-.11,6.079,1.412,9.07.473.929-.793,1.685-1.926,2.3-1.614.883-2.064,1.751-1.671,3.137.541,1.908-2.014,3.321-4.64,4.193-2.381.79-2.793,1.742-3.04,3.151-.332,1.886-1.43,3.726-2.15,5.593-.164.427-.478,1.048-.121,1.294,2.506,1.73.05,3.156-.682,4.689-.541,1.137-1.068,2.278-1.513,3.428-.783,2.027-.478,2.318,2.291,3.182,4.015,1.253,8.609.628,12.784,1.351a2.611,2.611,0,0,0,1.338-.39c2.052-1.2,3.508-.508,5.277.329.859.406,2.434.317,3.686.452a3.319,3.319,0,0,1-.161,1.321c-.9,1.665-2.356,2.4-4.978,2.039a94.66,94.66,0,0,0-12.242-.81,4.06,4.06,0,0,1-2.615-.8c-1.852-1.58-4.606-2.334-7.742-2.657-3.028-.312-4.787-.939-3.156-2.919.4-.48-.734-.578-1.362-.729-.8-.193-1.3-.525-.608-.95,1.11-.686,3.174-1.129.345-2.144-1.882-.676-1.428-1.77-.126-2.7,1.408-1.007,2.03-1.889.117-3.088-1.746-1.094,2.178-2.352.3-3.648.87-2.089,2.815-4.047,1.6-6.369-.476-.912,2.842-1.344,1.9-2.612-2.3-.4-3.761.732-5.7.94" transform="translate(-9.792 -89.428)" fill="#fdf7e9"/>
    <path id="Pfad_14764" data-name="Pfad 14764" d="M528.066,38.646c-1.186,1.571-1.9,1.907-3.522,1.6a20.974,20.974,0,0,1-2.124-.538,15.277,15.277,0,0,0-6.625-.382c-6.175.766-10.886-1.719-11.04-5.429-.024-.592.037-1.186,0-1.778-.093-1.464.829-2.54,3.206-3.251,6-1.8,7.452-5.412,10.084-8.53.488-.578-.531-1.108-1.7-1.163-1.8-.084-3.617-.068-5.423-.127-1.048-.035-2.214-.153-2.571-.784-.852-1.509-2.137-1.469-3.761-.432a21.063,21.063,0,0,0-2.874,2.075c-1.116,1.028-1.986,2.108-.093,3.224a1.51,1.51,0,0,1,.6,2.454,26.538,26.538,0,0,0-2.17,4.244c-.606,1.434-.727,3.268-2.93,3.942-2.6.8-5.89.9-8.92,1.16a3.312,3.312,0,0,1-3.018-1.158c-.971-1.566-1.5-3.278.558-4.622a9.918,9.918,0,0,0,3.232-3.971,6.341,6.341,0,0,1,4.939-3.682,1.643,1.643,0,0,0,1.424-1.462c.436-1.772-2.3-3.732.968-5.358.217-.108.091-.615-.158-.83-2.358-2.031-3.313-4.741-8.171-5.576-1.495-.257-1.78-.974-1.872-1.743a36.306,36.306,0,0,0,9.063.044c5.007-.671,9.225.613,6.481,4.563-1.365,1.965-1.159,1.99,1.789,3.19a16.562,16.562,0,0,0,9.941.856c3.148-.581,6.971-.146,10.442.09,2.19.148,3.176,1.01,2.967,2.223a10.458,10.458,0,0,1-3.352,6.72,18.155,18.155,0,0,0-4.62,5.6c-.254.542-.878,1.135.371,1.515,4.135,1.254,2.483,3.039,1.289,4.736-.278.4-1,.782-.451,1.151a3.95,3.95,0,0,0,2.893.26,15.532,15.532,0,0,0,2.443-1.015,3.477,3.477,0,0,1,2.826.011c1.76.763-.226,1.2-.45,1.793-.041.108.209.252.325.379" transform="translate(-12.708 -2.831)" fill="#fdf7e9"/>
    <path id="Pfad_14765" data-name="Pfad 14765" d="M599.018,125.826c-.062-.591-.127-1.182-.182-1.773-.094-1-.881-1.686-2.716-1.819-1.023-.073-2.074-.028-3.095-.11-2.957-.236-3.895-.724-2.71-2.309,1.457-1.951-1.191-3.745.164-5.621.4-.554-1.03-.935-1.895-1.231q-6.285-2.156-12.6-4.284c-1.7-.576-2.489-1.719-1.531-2.6,1.331-1.226,2.895-2.369,4.359-3.549,1.059.012,2.053.089,2.177.859.022.136-.146.281-.224.422-1.877,3.418-1.828,3.358,3.4,4.767a28.376,28.376,0,0,0,12.034.749c.747-.118,1.471-.3,2.23-.374,2.509-.258,3.978.5,3.552,2.031a14.861,14.861,0,0,1-3.115,6.319c-.115.129-.35.225-.463.354-1.726,1.982-1.715,2.19,2.1,3.8,1.5.635,1.729,1.37,1.677,2.282-.068,1.193-.967,1.96-3.166,2.086" transform="translate(-15.061 -45.332)" fill="#fdf7e9"/>
    <path id="Pfad_14766" data-name="Pfad 14766" d="M557.914,45.264c-.763.072-1.522.165-2.289.211-1.618.1-3.222.369-3.751,1.294-.729,1.275,1.631,1.2,2.661,1.713.32.16.606.552.476.741a1.825,1.825,0,0,1-1.207.377c-2.24-.338-3.768-.393-4.4,1.347-.684,1.891-4.194,2.716-6.312,4.045-1.629,1.023-5.011,1.408-8,1.13-1.9-.177-2.49-.892-2.6-1.859,1.854-1.322,1.812-3.027,2.629-4.54,1.521-2.818,3.65-4.919,10.534-4.321-1.4-.438-1.811-.619-2.273-.7-1.182-.2-2.746-.156-2.671-1.2.061-.853,1.736-1.741,3.186-1.534,3.771.537,7.626.578,11.438.859,2.328.171,2.131,1.474,2.571,2.439" transform="translate(-13.972 -18.542)" fill="#fdf7e9"/>
    <path id="Pfad_14767" data-name="Pfad 14767" d="M481.82,5.98c-.178.961-.837,1.7-2.728,1.78-1.534.061-3.076.072-4.614.072a13.346,13.346,0,0,0-5.809.879,9.509,9.509,0,0,1-4.247.883c-5.868-.036-8.579,2.184-10.56,4.88-1.19,1.618-2.248,3.268-3.32,4.913-1.406,2.156-3.78,3.748-7.715,4.465.058-.586-.276-1.344.24-1.729,3.475-2.6,4.216-5.958,7.484-8.605a5.009,5.009,0,0,0,1.621-1.957c.785-2.235,3.585-3.1,7.005-3.546,3.238-.42,6.5-.8,9.777-1.091,2.29-.2,4.5-.28,6.44-1.217,2.124-1.026,4.354-.406,6.426.276" transform="translate(-11.617 -2.282)" fill="#fdf7e9"/>
    <path id="Pfad_14768" data-name="Pfad 14768" d="M362.936,316.266c.106-1.906-.19-3.828,2.345-5.447a2.337,2.337,0,0,0,.807-2.109c-.009-3.166,3.273-5.063,7.511-6.625.881,1.5-.576,2.9-.574,4.312,0,1.486.334,2.838-1.481,4.088a1.277,1.277,0,0,0-.342,2.093c1.23,1.272.144,1.948-1.751,2.38-2.136.487-4.341.876-6.515,1.308" transform="translate(-9.523 -133.565)" fill="#fdf7e9"/>
    <path id="Pfad_14769" data-name="Pfad 14769" d="M447.868,307.154c-.078-1.816,1.512-2.784,4.641-2.832,2.617-.04,5.139-.071,7.121-1.3a2.472,2.472,0,0,1,2.1.19c.868.413,1.341.928.658,1.534-.541.481-1.606.952-.809,1.525,2.416,1.736.858,2.977-1.336,4.192-.552.305-1.072.63-1.606.947l-.007,0-1.533.878-.461.267a6.741,6.741,0,0,1-1.384-.3c-1.337-.659.618-1.7-.714-2.344-1.523-.738-3.139-1.413-4.745-2.092-.6-.255-1.284-.446-1.931-.666" transform="translate(-11.751 -133.905)" fill="#fdf7e9"/>
    <path id="Pfad_14770" data-name="Pfad 14770" d="M578.887,91.205c-.634-.8-1.956-1.62-1.411-2.474,1.559-2.442,1.156-4.957,1.35-7.455.061-.788.67-1.409,1.834-1.845.495-.07.991-.131,1.477-.21,1.664-.273,3.531-1,5-.167,1.941,1.1,1.049,2.425-.112,3.6-1.85,1.877-3.741,3.67-3.84,5.991-.052,1.2-1.346,2.545-4.3,2.557" transform="translate(-15.148 -34.782)" fill="#fdf7e9"/>
    <path id="Pfad_14771" data-name="Pfad 14771" d="M513.34,306.956a7.107,7.107,0,0,1,0-1.751c.362-1.512,1.054-1.979,3.351-1.652s3.712.493,4.648-1.107c1.3-2.227,4.657-1.843,7.738-1.609a3.619,3.619,0,0,1-2.927,2.452c-.927.232-2.406.37-2.655.758-1.833,2.847-5.908,2.942-10.158,2.909" transform="translate(-13.467 -132.933)" fill="#fdf7e9"/>
    <path id="Pfad_14772" data-name="Pfad 14772" d="M476.452,331.184c.749-1.7,4.038-2.067,5.481-3.477a2.117,2.117,0,0,1,3.345.224c.888,1.685,2.6,2.333,5.472,2.249a1.989,1.989,0,0,1-1.933,1.719,24.889,24.889,0,0,1-12.365-.715" transform="translate(-12.501 -144.583)" fill="#fdf7e9"/>
    <path id="Pfad_14773" data-name="Pfad 14773" d="M580.587,59.341c-.84-2.661.838-5.1,2.069-7.572,2.815-1.081-.4-1.585-.69-2.369.994-.143,1.98-.315,2.987-.422,2.3-.247,3.874.4,3.275,1.518a28.464,28.464,0,0,1-6.96,8.646,2.428,2.428,0,0,1-.68.2" transform="translate(-15.227 -21.632)" fill="#fdf7e9"/>
    <path id="Pfad_14774" data-name="Pfad 14774" d="M578.283,47.8a1.772,1.772,0,0,1-1.826,1.743,28.081,28.081,0,0,1-12.575-1.2c-.688-.243-.8-1.017-1.177-1.547.253-.756.716-1.554,2.356-1.267,2.648.463,5.734.776,7.638,1.775,2.039,1.07,3.729.425,5.583.5" transform="translate(-14.764 -20.104)" fill="#fdf7e9"/>
    <path id="Pfad_14775" data-name="Pfad 14775" d="M434.644,42.611a2.7,2.7,0,0,1-.663,2.559,3.091,3.091,0,0,1-3.718.214c-1.211-.933-2.262-1.934-3.383-2.908a5.261,5.261,0,0,1,4.138-.523c1.2.234,2.416.44,3.625.658" transform="translate(-11.2 -18.47)" fill="#fdf7e9"/>
    <path id="Pfad_14776" data-name="Pfad 14776" d="M356.937,333.172c-.092-2.946-.092-2.946,4.269-3.833.026.276.067.551.078.827.066,1.732.009,2.7-4.347,3.006" transform="translate(-9.365 -145.615)" fill="#fdf7e9"/>
    <path id="Pfad_14777" data-name="Pfad 14777" d="M579.462,71.1c-3.606-.507-3.929-.846-2.526-2.317a4.275,4.275,0,0,1,3.559-1.139c-.076,1.179.412,2.412-1.033,3.455" transform="translate(-15.117 -29.902)" fill="#fdf7e9"/>
    <path id="Pfad_14778" data-name="Pfad 14778" d="M414.436,340.2c.448-2.215.71-2.37,4.62-2.737-.537,1.468-1.839,2.511-4.62,2.737" transform="translate(-10.874 -149.209)" fill="#fdf7e9"/>
    <path id="Pfad_14779" data-name="Pfad 14779" d="M409.408,344.951c.971-2.252.971-2.252,4.863-2.547-.443,1.586-1.974,2.492-4.863,2.547" transform="translate(-10.742 -151.392)" fill="#fdf7e9"/>
    <path id="Pfad_14780" data-name="Pfad 14780" d="M441.069,40c-.866,1.893-.866,1.893-4.988,1.77.487-1.676,2.642-1.811,4.988-1.77" transform="translate(-11.442 -17.683)" fill="#fdf7e9"/>
    <path id="Pfad_14781" data-name="Pfad 14781" d="M532.834,296.287c.117-1.661.135-1.672,3.1-1.8-.15,1.1-1.049,1.774-3.1,1.8" transform="translate(-13.98 -130.205)" fill="#fdf7e9"/>
    <path id="Pfad_14782" data-name="Pfad 14782" d="M529.607,299.531c.165-1.647.165-1.647,3.035-1.725-.161,1.068-1.12,1.672-3.035,1.725" transform="translate(-13.895 -131.673)" fill="#fdf7e9"/>
    <path id="Pfad_14783" data-name="Pfad 14783" d="M458.878,318.192c1.636,1.1,1.612,1.158-.788,1.893-.406-.249-.805-.5-1.208-.747l.457-.265,1.533-.878Z" transform="translate(-11.987 -140.687)" fill="#fdf7e9"/>
    <path id="Pfad_14784" data-name="Pfad 14784" d="M359.783,17.647l-.639-.417a1.548,1.548,0,0,1,.457.055c.13.084.17.214.249.324l-.067.039" transform="translate(-9.423 -7.618)" fill="#fdf7e9"/>
    <path id="Pfad_14785" data-name="Pfad 14785" d="M17.593,129.887c1.033-.029,2.071-.1,3.1-.078,1.731.034,3.266.353,2.542,1.57-.68,1.147-.223,2.165,1.058,2.889,3.854,2.181,4.585,4.866,4.405,7.759-.088,1.413.183,2.628,3.222,3.072a6.731,6.731,0,0,1,2.855,1.418,4.9,4.9,0,0,0,4.037.795c.494-.089.959-.232,1.455-.315,1.773-.3,3.731-.6,4.9.48,1.124,1.037-.269,1.995-1.09,2.89a10.263,10.263,0,0,1-1.957,1.357c-3.254,2.067-3.306,2.342-.752,4.911.253.254.694.459.872.726.793,1.18.1,2.543-2.428,2.653a28.56,28.56,0,0,0-3.084.2c-2.23.346-3.94,1.433-3.145,2.631,1.534,2.313-.241,4.279-1.51,6.5a76.737,76.737,0,0,1,9.728,1.976c1.209.382,2.927.361,3.414-.389,1.124-1.738,2.415-1.98,5.083-.875,1.705.707,4.394.412,5.453-.6,1.845-1.764,4.759-3.117,5.921-5.13,1.014-1.756,2.977-2.692,6.388-2.516,2.384.123,3.693-.465,4.283-1.933.935-2.335,3.522-4.015,7.91-4.2,2.743-.117,4.317-.659,4.991-2.187a2.874,2.874,0,0,1,1.526-.949,3.232,3.232,0,0,1,2.776.288c.547.341,1.121.859.585,1.175-2.724,1.611-3.1,3.964-6.018,5.606-3.275,1.844-5.984,4.1-5.807,7.049.039.648-.9,1.352-1.566,1.969-.73.682-.841,1.2-.2,2.014,1.082,1.368.624,2.062-1.042,2.557-.911.27-1.973.369-2.9.623-2.774.757-2.827.784-1.615,2.942.355.634.407,1.129-.381,1.609-1.212.738-1.693,1.873-3.7,2.181-2.27.348-2.821,1.4-2.192,2.44,1.331,2.2-.85,4.762,2.189,6.767a.322.322,0,0,1,.1.42c-1.077,1.474-4.163,2.138-4.646,3.91-.166.612-1.659.737-2.645.567-1.836-.315-2.846.022-3.7.969-2.15,2.389-3.9,4.814-2.948,7.577.491,1.417-1.7,2.076-2.536,3.112-.927,1.144-1.8,2.144.592,3.1.787.313,1.152.967,1.736,1.454,1.514,1.265,1.519,1.263,3.756.18,1.945-.941,2.95-.864,3.048.345.137,1.725.7,3.186,3.525,4.175.7.245.987.992,1.216,1.543.506,1.216-1.077,2.347-.835,3.459.2.914,1.6,1.615-.076,2.641-1.07.656-.591,1.712.453,2.465.644.462,1.459.843,1.064,1.694-.756.177-1.72.362-2.619.621-4.594,1.325-4.934,1.752-2.923,4.871.481.746.337.93-.777,1.245-2.335.661-3.4,1.8-2.828,3.266a2.013,2.013,0,0,1-.05,2.152c-1.388,1.881-.331,3.519,1.923,4.895,1.173.715.98,1.232.138,1.9-.964.767-1.584,1.66-.224,2.406a7.7,7.7,0,0,0,5.58,1.009,5.269,5.269,0,0,0,1.226-.532,2.736,2.736,0,0,1,3.22.168c1.725,1.469,3.409,1.495,5.614.208.72-.421,2.42-.291,3.672-.413-.126.863.32,2.04-1.192,2.419a30.09,30.09,0,0,0-8.3,3.772,3.924,3.924,0,0,1-1.96.359,6.715,6.715,0,0,0-6.111-.433,2.434,2.434,0,0,1-1.431-.146c-2.429-1.8-4.693-1.067-7.16,0-.788.341-2.329.177-2.613-.437-1.1-2.4-4.192-2.105-7.276-1.935-.089,0-.208-.18-.331-.292.682-.859,2.2-.53,3.324-.754,2.039-.406,2.628-1.059,1.2-1.883a4.517,4.517,0,0,1-2.631-3.532q.177-.806.354-1.612c2.435-.649.661-2.321,2.225-3.1,1.588-.789,2.089-1.557,1.265-2.694-.228-.314.249-.83.529-1.222.479-.673,2.713-.7,2.345-1.5-.306-.66-.99-1.227-.9-2.007.428-3.76,2.428-7.234,6.1-10.322.991-.832,1.669-1.387.783-2.31-1.06-1.1-1.611-2.142.62-3.1.973-.419.237-1.068-.156-1.616-.627-.874-1.974-1.3-3.124-1.893-2.672-1.371-5.353-2.765-8.017-4.121-2.6-1.324-2.993-2.65-2.355-4.235a13.48,13.48,0,0,1,3.077-5.184c1.268-1.189.1-1.013-.965-1.39-1.433-.508-.062-1,.37-1.451s.4-.848-.2-1.178a1.794,1.794,0,0,0-1.888.142c-.764.44-2.056.74-1.671-.259.5-1.3-.3-3.139,3.4-3.527.982-.1.636-.708.427-1.112-.583-1.12.035-1.945,1.452-2.782,2.037-1.2,1.914-1.264-1-2.187a6.338,6.338,0,0,1-.931-.428c1.6-1.353,3.208-2.684,4.752-4.042,1.331-1.168,3.4-2.406-.784-3.2-.459-.086-.568-.774-.843-1.182-.686-1.02-.4-1.547,1.783-1.829,2.732-.354,2.847-.9.937-1.978-.184-.1-.4-.189-.583-.293-1.192-.68-2.313-1.16-3.856-.189-1.176.739-2.614,1.342-3.878,1.977-4.264-1.583-8.321-3.1-12.388-4.6-4.9-1.809-6.044-3.526-4.43-6.715q1.076-2.121,2.161-4.24a3.184,3.184,0,0,0,.544-.119c.089-.037.086-.145.126-.222l-.594.385c-.668-.255-1.319-.652-.965-1.057.554-.634,1.78-1.112,2.124-1.76a3.3,3.3,0,0,0,.308-2.636c-.686-1.847,3.323.107,3.259-1.449-.033-.753,1.488-1.5,2.118-2.3.513-.649.039-1.185-1.293-1.153a3.664,3.664,0,0,1-2.67-.539,4.09,4.09,0,0,0-1.4-1.047c-6.282-2.143-7.287-5.056-4.01-8.639.689-.753.291-1.424-.53-2.056a7.691,7.691,0,0,0-1.863-1.411c-4.416-1.754-4.9-4.311-4.646-7.048M51.819,233.419c-.773.194-1.091.549-.7.955a1.965,1.965,0,0,0,1.206.3c.79-.118,1.082-.534.7-.938-.167-.178-.8-.214-1.21-.312" transform="translate(-0.46 -57.393)" fill="#fdf7e9"/>
    <path id="Pfad_14786" data-name="Pfad 14786" d="M129.826,315.255a2.359,2.359,0,0,1,1.453-2.833,13.494,13.494,0,0,0,5.7-5.681c.468-.82.62-1.759,2.147-2.273a7.767,7.767,0,0,0,4.58-3.979,2.947,2.947,0,0,1,2.734-1.317,13.632,13.632,0,0,1,6.945,1.66c1.08.583.74,1.338.272,2.058-.738,1.134-.192,1.821,1.752,2.514,2.76.984,3.05,2.685,1.131,4.076-.626.454-1.669.72-2.3,1.172-.661.472-1.026,1.205.2,1.5,2.132.508,3.238,1.265,3.537,2.6.245,1.1,2.069,1.438,3.557,1.132,3.81-.782,7.549-1.7,11.191-2.715,1.309-.363,3.124-.812,3.288-1.752.37-2.12,2.562-2.5,5.777-2.681,2.861-.165,3.763-.059,4.134,1.622a2.429,2.429,0,0,0,2.05,1.766c4,.879,5.257,3.663,9.447,4.375,2.438,2.556,4.574,5.244,9.632,6.568.482.127.445.823.787,1.216,2.192,2.512,7.285,3.5,10.681,1.668,3.283-1.77,8.06-2.659,9.733-5.485.8-1.354,3.6-.747,5.544-.93.372,1.544-.653,2.833-2.246,4.016-2.341.841-3.178,2.339-4.717,3.531-1.7.64-4.06.811-4.98,2.011-1.568,2.044-4.528,1.969-7.776,2.075-5.681.184-10.734-.465-15.314-2.442-1.707-.737-2.462-1.518-1.553-2.638,1.158-1.427,1-2.549-1.728-3.311-.643-.179-1.4-.6-.9-1.069,2.3-2.2-.726-3.583-3.008-4.3a47.547,47.547,0,0,1-7.867-3.469,6.537,6.537,0,0,0-5.066-.319c-4.065,1.515-8.747,2.714-10.389,5.695a32.174,32.174,0,0,1-4-1.28c-1.076-.509-1.546-.153-2.513.061-6.795,1.5-14.6-1.025-15.743-5.03-.118-.414-.191-1.126.172-1.246,2.72-.9.262-3.218,3.471-3.964.893-.208.494-.668-.13-.974-1.364-.671-1-1.613-1.177-2.47.778-.142.908-.27.369-.335-.049-.006-.192.247-.291.38-3.16.2-4.789,1.476-5.778,2.969-2.408,3.633-6.27,6.424-12.792,7.823" transform="translate(-3.405 -132.276)" fill="#fdf7e9"/>
    <path id="Pfad_14787" data-name="Pfad 14787" d="M80.042,315.481c.941-1.82,1.633-3.664,4.35-5.04a3.359,3.359,0,0,0,1.922-2.83c.346-3.971,2.936-7.361,7.777-10.255,1.938-1.158,3.608-2.561,2.126-4.385-.592-.729-.293-1.438.66-2.04,2.4-1.515,3.143-3.693,6.23-4.96a2.786,2.786,0,0,0,1.947-2.778,4.749,4.749,0,0,1,.411-2.186,2.7,2.7,0,0,1,1.717-.732c1.064-.085,2.343.263,2.174.913-.588,2.265.384,4.633-1.213,6.809-.856,1.166-1.225,2,.523,3.166,2.055,1.365,1.024,3.049-.262,4.582a12.473,12.473,0,0,1-3.509,2.308c-2.017,1.121-1.76,2.206.551,3.265.745.341,2.186.38,1.736,1.165a2.771,2.771,0,0,1-1.752.647c-3.9.091-5.146,1.7-6.2,3.426-.56.918.455,1.855,2.193,1.889,4.627.092,9.273.4,13.873-.194.5-.064.983-.179,1.486-.22,2.275-.191,3.486,2.182,6.058.935a9.844,9.844,0,0,1,5.436-1.327c-.462.524-.685,1.237-1.423,1.54a53.221,53.221,0,0,0-9.415,4.966,2.176,2.176,0,0,1-2.931-.573,3.894,3.894,0,0,0-.785-.7c-1.573.525-3.05,1.065-4.84.168-2.133-1.069-2.9.914-4.672.755a3.787,3.787,0,0,0-.755.089l.052.031c-.215-.565-.126-1.31-1.3-1.5a30.67,30.67,0,0,1-6.985-1.693,7.2,7.2,0,0,0-6.885.661c-1.193.762-2.033,1.7-3.128,2.517a7,7,0,0,1-5.175,1.583" transform="translate(-2.1 -123.916)" fill="#fdf7e9"/>
    <path id="Pfad_14788" data-name="Pfad 14788" d="M21.63,100.843a7.488,7.488,0,0,1,1.824.769c2.073,1.858,2,2.446-.622,3.807a41.549,41.549,0,0,0-4.48,2.88c-2.538,1.737-2.715,3.441-1.912,5.328.489,1.146,1.311,2.23.919,3.443a6.147,6.147,0,0,1-1.458-.251c-1.865-.929-2.88-2.231-5.3-3.008-2.7-.869-2.781-2.558-.464-3.718,3.183-1.592,4.842-3.815,7.71-5.511,1.8-1.062,1.15-2.946,3.78-3.74" transform="translate(-0.223 -44.587)" fill="#fdf7e9"/>
    <path id="Pfad_14789" data-name="Pfad 14789" d="M38.191,67.3c.326,1.2-1.607,2.182-1.041,3.426.106.234-.074.721-.312.766C31.6,72.494,31,75.664,27.9,77.655a7.732,7.732,0,0,1-2.141.393c.017-1.337-.249-2.7.985-3.933,2.967-1.18,3.675-3.164,5.173-4.853,1.357-1.53,3.372-2.158,6.273-1.967" transform="translate(-0.676 -29.74)" fill="#fdf7e9"/>
    <path id="Pfad_14790" data-name="Pfad 14790" d="M25.513,86.574c-.136.431-.014,1-.451,1.272-2.436,1.524-2.68,3.422-3.04,5.316a15.986,15.986,0,0,1-6.039-1.588c2.221-2.263,3.28-5.253,9.53-5" transform="translate(-0.419 -38.272)" fill="#fdf7e9"/>
    <path id="Pfad_14791" data-name="Pfad 14791" d="M104.08,340.521l-.324.31.376-.28-.052-.031" transform="translate(-2.722 -150.559)" fill="#fdf7e9"/>
    <path id="Pfad_14792" data-name="Pfad 14792" d="M237.447,327.678c-.426-.137-1.132-.226-1.233-.42-.837-1.587.823-4.7,3.021-5.6a9.88,9.88,0,0,1,2.136-.294c.656,2.505-.639,4.613-3.923,6.316" transform="translate(-6.192 -142.089)" fill="#fdf7e9"/>
    <path id="Pfad_14793" data-name="Pfad 14793" d="M241.536,319.216c.008-1.238-.094-2.515,2.918-2.68-.2,2.192-.2,2.192-2.918,2.68" transform="translate(-6.337 -139.955)" fill="#fdf7e9"/>
    <path id="Pfad_14794" data-name="Pfad 14794" d="M221.839,20.834a16.642,16.642,0,0,0-1.424,3.4c-.245,1.37-.232,2.633-3.237,3.084-1.319.2-1.421,1.139-1.878,1.814a9.615,9.615,0,0,1-3.524,2.836c-3.365,1.806-7.9,1.127-9.389-1.518a.923.923,0,0,1,.261-1.2c4.242-2.252,4.784-5.849,9.093-8.089,1.177-.613.676-1.666.582-2.538,1-.16,2.386-.372,2.7.3,1.046,2.207,4.07,1.837,6.812,1.908" transform="translate(-5.307 -8.164)" fill="#fdf7e9"/>
    <path id="Pfad_14795" data-name="Pfad 14795" d="M89.121,41.4a1.621,1.621,0,0,1-1.552,1.384c-2.439.235-3.983,1.3-6.016,1.89A9.495,9.495,0,0,0,76.4,47.806c-1.726,2.308-4.808,3.326-9.159,3.115.122-.576-.129-1.354.431-1.693A11.817,11.817,0,0,0,73.1,42.845c.6-1.679,2.935-2.7,6.2-2.628,2.778.057,5.561.123,8.32.3.554.035,1.01.575,1.511.883" transform="translate(-1.764 -17.78)" fill="#fdf7e9"/>
    <path id="Pfad_14796" data-name="Pfad 14796" d="M128.8,26.178c-6.634-.387-12.843.245-18.414,2.474a6.439,6.439,0,0,1-1.513.145,10.464,10.464,0,0,0-1.77-.81c-1.134-.305-2.659-.4-2.153-1.429.292-.594,1.229-.91,2.246-1.1a4.171,4.171,0,0,1,.743-.114c4.907,0,9.7-.542,14.522-.958a24.424,24.424,0,0,1,4.619.062c1.494.162,1.789.937,1.721,1.726" transform="translate(-2.751 -10.748)" fill="#fdf7e9"/>
    <path id="Pfad_14797" data-name="Pfad 14797" d="M156.475,24.785a26.692,26.692,0,0,1-8.722,2.5c-.99.126-2.259.044-2.746-.494-.57-.629.283-1.069,1.358-1.243,2.257-.365,2.339-1.369,2.262-2.431,1.818-.309,2.661.595,3.96.96,1.159.326,3.063-.487,3.887.7" transform="translate(-3.8 -10.195)" fill="#fdf7e9"/>
    <path id="Pfad_14798" data-name="Pfad 14798" d="M63.749,59.693a25.3,25.3,0,0,1-6.76,2.113c-2.408.531-5.035.836-7.193-.476,4.189-1.836,8.972-2.013,13.953-1.637" transform="translate(-1.307 -26.321)" fill="#fdf7e9"/>
    <path id="Pfad_14799" data-name="Pfad 14799" d="M188.519,21.256c-.259.907-.93,1.638-2.731,1.671-3.2.058-6.4.055-9.6.078.084-.978.888-1.665,2.655-1.7,3.223-.068,6.453-.036,9.68-.046" transform="translate(-4.623 -9.398)" fill="#fdf7e9"/>
    <path id="Pfad_14800" data-name="Pfad 14800" d="M108.733,32.354c-.713,2.51-.711,2.528-4.1,2.658-1.231.047-2.472-.008-3.709-.016.087-.9.784-1.553,2.229-1.97a15.813,15.813,0,0,1,5.584-.672" transform="translate(-2.648 -14.29)" fill="#fdf7e9"/>
    <path id="Pfad_14801" data-name="Pfad 14801" d="M46.429,62.765c-.739,2.132-3.56,2.415-6.657,2.455.582-2.272,3.328-2.622,6.657-2.455" transform="translate(-1.044 -27.735)" fill="#fdf7e9"/>
    <path id="Pfad_14802" data-name="Pfad 14802" d="M199.919,20.853a9.33,9.33,0,0,1-.153,1.3c-.12.476-.628.808-1.511.756-.847-.05-1.267-.421-1.345-.885a13.072,13.072,0,0,1-.094-1.307c1.173-1.016,2.2-.929,3.1.134" transform="translate(-5.164 -8.844)" fill="#fdf7e9"/>
    <path id="Pfad_14803" data-name="Pfad 14803" d="M171.192,26.179c-.3.913-.91,1.653-2.877,1.484-1.574-.135-1.74-.872-1.915-1.584l4.793.1" transform="translate(-4.366 -11.531)" fill="#fdf7e9"/>
    <path id="Pfad_14804" data-name="Pfad 14804" d="M142.461,23.28c-.7,1.647-2.9,1.427-5.013,1.31a4.986,4.986,0,0,1,5.013-1.31" transform="translate(-3.606 -10.214)" fill="#fdf7e9"/>
    <path id="Pfad_14805" data-name="Pfad 14805" d="M94.561,39.188c-.232.981-1.265,1.469-2.934,1.565-.229-1.263.806-1.749,2.934-1.565" transform="translate(-2.403 -17.31)" fill="#fdf7e9"/>
    <path id="Pfad_14806" data-name="Pfad 14806" d="M209.635,18.615c-.527,1.1-1.83,1.406-3.663,1.171.622-1,1.576-1.67,3.663-1.171" transform="translate(-5.404 -8.155)" fill="#fdf7e9"/>
    <path id="Pfad_14807" data-name="Pfad 14807" d="M132.8,27.623a2.237,2.237,0,0,1-3.163.089q1.582-.043,3.163-.089" transform="translate(-3.401 -12.213)" fill="#fdf7e9"/>
    <path id="Pfad_14808" data-name="Pfad 14808" d="M302.093,225.961c.23,1.279-1.115,2.031-3.212,2.5-1.363.307-2.8-.109-2.74-.884a3.472,3.472,0,0,1,.58-2.108c.7-.832.216-2.211,2.662-2.346a2.587,2.587,0,0,1,2.709,2.835" transform="translate(-7.77 -98.652)" fill="#fdf7e9"/>
    <path id="Pfad_14809" data-name="Pfad 14809" d="M227.179,22.738a3.278,3.278,0,0,1,.632.2c-.126.306-.372.233-.632-.205Z" transform="translate(-5.961 -10.052)" fill="#fdf7e9"/>
    <path id="Pfad_14810" data-name="Pfad 14810" d="M458.884,318.2l-1.533.879,1.533-.879" transform="translate(-12 -140.69)" fill="#fdf7e9"/>
  </g>
</svg>
