<svg xmlns="http://www.w3.org/2000/svg" width="632.7" height="155.85" viewBox="0 0 632.7 155.85">
  <g id="Certik" transform="translate(-84 -222.15)">
    <path id="Pfad_3762" data-name="Pfad 3762" d="M214.2,246.2l.8,5a91.84,91.84,0,0,1,.8,13.9,130.446,130.446,0,0,1-3.6,30.5,118.04,118.04,0,0,1-16.5,38c-8.9,13.2-21.8,26.1-40.5,36.7l-2.3,1.3-2.3-1.3c-18.7-10.4-31.6-23.4-40.5-36.7a114.993,114.993,0,0,1-16.5-38A130.446,130.446,0,0,1,90,265.1a107.983,107.983,0,0,1,.8-13.9l.7-5a2.438,2.438,0,0,0,0-1.2,2.22,2.22,0,0,0-.5-1.1,3.043,3.043,0,0,0-.8-.8,4.179,4.179,0,0,0-1-.4,2.437,2.437,0,0,0-1.2,0,3.7,3.7,0,0,0-1.1.5,3.043,3.043,0,0,0-.8.8,5.638,5.638,0,0,0-.4,1.2l-.8,5a122.891,122.891,0,0,0-.9,14.9,137.945,137.945,0,0,0,3.8,32,126.793,126.793,0,0,0,6.9,20.8,119.095,119.095,0,0,0,53.1,57.7l3.7,2.1a3.9,3.9,0,0,0,3,0l3.7-2.1c19.5-10.9,33.2-24.6,42.6-38.5a120.864,120.864,0,0,0,17.4-40,137.847,137.847,0,0,0,3.7-32,125.789,125.789,0,0,0-.9-15l-.8-5a5.638,5.638,0,0,0-.4-1.2,3.043,3.043,0,0,0-.8-.8,3.7,3.7,0,0,0-1.1-.5,2.437,2.437,0,0,0-1.2,0,5.638,5.638,0,0,0-1.2.4,3.043,3.043,0,0,0-.8.8,3.7,3.7,0,0,0-.5,1.1Z" fill="#fff" fill-rule="evenodd"/>
    <path id="Pfad_3763" data-name="Pfad 3763" d="M108.3,242.8l44.8-14.1,45.7,14.4a4.868,4.868,0,0,0,1.2.1,2.663,2.663,0,0,0,1.2-.3,2.539,2.539,0,0,0,1-.8,1.606,1.606,0,0,0,.5-1.1,4.868,4.868,0,0,0,.1-1.2,2.663,2.663,0,0,0-.3-1.2,3.592,3.592,0,0,0-.7-1,1.606,1.606,0,0,0-1.1-.5L154,222.3a2.775,2.775,0,0,0-1.8,0l-45.6,14.4a5.36,5.36,0,0,0-1.1.5,2.286,2.286,0,0,0-.7,1,2.663,2.663,0,0,0-.3,1.2,4.869,4.869,0,0,0,.1,1.2,3.7,3.7,0,0,0,.5,1.1,2.723,2.723,0,0,0,1,.8,2.133,2.133,0,0,0,1.2.3A1.668,1.668,0,0,0,108.3,242.8Z" fill="#fff" fill-rule="evenodd"/>
    <path id="Pfad_3764" data-name="Pfad 3764" d="M86.2,247.1l64.1,129.2a2.94,2.94,0,0,0,1,1.2,3.069,3.069,0,0,0,3.2,0,3.447,3.447,0,0,0,1.2-1.2l39.1-75.5.1-.1,25-53.7a2.663,2.663,0,0,0,.3-1.2,2.537,2.537,0,0,0-.2-1.2,2.384,2.384,0,0,0-.6-1.1,3.45,3.45,0,0,0-.9-.8,2.133,2.133,0,0,0-1.2-.3,4.868,4.868,0,0,0-1.2.1,2.384,2.384,0,0,0-1.1.6,2.286,2.286,0,0,0-.7,1l-25,53.7-36.4,70.3-61.4-124c-.2-.3-.5-.7-.7-1a2.384,2.384,0,0,0-1.1-.6,1.672,1.672,0,0,0-1.2-.1,2.663,2.663,0,0,0-1.2.3,3.45,3.45,0,0,0-.9.8,3.7,3.7,0,0,0-.5,1.1,2.462,2.462,0,0,0-.1,1.2A4.951,4.951,0,0,0,86.2,247.1Z" fill="#fff" fill-rule="evenodd"/>
    <path id="Pfad_3765" data-name="Pfad 3765" d="M116.9,304.7h71.4a5.019,5.019,0,0,0,1.2-.2,1.6,1.6,0,0,0,.9-.7,2.075,2.075,0,0,0,.6-1,3.355,3.355,0,0,0-.6-3.4,5.5,5.5,0,0,0-.9-.7,5.019,5.019,0,0,0-1.2-.2H116.9a5.019,5.019,0,0,0-1.2.2,1.6,1.6,0,0,0-.9.7,2.075,2.075,0,0,0-.6,1,3.312,3.312,0,0,0,0,2.4,2.075,2.075,0,0,0,.6,1,5.5,5.5,0,0,0,.9.7C116.1,304.6,116.5,304.6,116.9,304.7Zm199-26.9H269.5a5.019,5.019,0,0,0-1.2.2,1.6,1.6,0,0,0-.9.7,2.075,2.075,0,0,0-.6,1,5.019,5.019,0,0,0-.2,1.2v38.5a5.019,5.019,0,0,0,.2,1.2,2.075,2.075,0,0,0,.6,1,5.5,5.5,0,0,0,.9.7,5.019,5.019,0,0,0,1.2.2h46.4V329H269.5a11.018,11.018,0,0,1-1.8-.2,12.089,12.089,0,0,1-1.8-.5,7.974,7.974,0,0,1-1.6-.8c-.5-.4-.9-.8-1.4-1.2a9.847,9.847,0,0,1-2-3,12.091,12.091,0,0,1-.5-1.8,11.019,11.019,0,0,1-.2-1.8V281a11.018,11.018,0,0,1,.2-1.8,12.089,12.089,0,0,1,.5-1.8,8.866,8.866,0,0,1,.8-1.7,5.262,5.262,0,0,1,1.2-1.4,17.415,17.415,0,0,1,1.4-1.2,7.972,7.972,0,0,1,1.6-.8,12.091,12.091,0,0,1,1.8-.5,11.019,11.019,0,0,1,1.8-.2h46.4v6.2Zm87.1-6.5v6.5H358.3v19.1h35.9v6.6H358.3v19.1H403v6.5H352.1V271.3H403Z" fill="#fff" fill-rule="evenodd"/>
    <path id="Pfad_3766" data-name="Pfad 3766" d="M495.1,281.1V298a11.018,11.018,0,0,1-.2,1.8,12.089,12.089,0,0,1-.5,1.8,8.866,8.866,0,0,1-.8,1.7,8.063,8.063,0,0,1-1.2,1.4,17.415,17.415,0,0,1-1.4,1.2,7.972,7.972,0,0,1-1.6.8l-1.8.6a11.019,11.019,0,0,1-1.8.2h-8.5L494.8,329h-8.4L469,307.5H448.6a15.264,15.264,0,0,1-3-.3V329h-6.3V271.4h46.6a11.018,11.018,0,0,1,1.8.2,12.089,12.089,0,0,1,1.8.5,5.072,5.072,0,0,1,1.6.9,10.3,10.3,0,0,1,2.5,2.6,8.864,8.864,0,0,1,.8,1.7,12.091,12.091,0,0,1,.5,1.8A15.033,15.033,0,0,1,495.1,281.1Zm-46.6,20h37.3a5.019,5.019,0,0,0,1.2-.2,1.272,1.272,0,0,0,.9-.7,2.075,2.075,0,0,0,.6-1,5.019,5.019,0,0,0,.2-1.2V281.1a3.5,3.5,0,0,0-.8-2.2,2.814,2.814,0,0,0-2.1-1H448.5a5.019,5.019,0,0,0-1.2.2,1.6,1.6,0,0,0-.9.7,2.075,2.075,0,0,0-.6,1,5.019,5.019,0,0,0-.2,1.2v16.9a2.836,2.836,0,0,0,1,2.2A2.417,2.417,0,0,0,448.5,301.1Z" fill="#fff"/>
    <path id="Pfad_3767" data-name="Pfad 3767" d="M528.5,271.3h55.8v6.5H559.6V329h-6.3V277.8H528.5Zm89.8,57.8V271.4h6.3v57.7Zm90.2-57.8h8.1l-23.3,28.9,23.4,28.9h-8.2l-20.8-25.6h-18v25.6h-6.3V271.4h6.4V297h18Z" fill="#fff" fill-rule="evenodd"/>
  </g>
</svg>
