<svg xmlns="http://www.w3.org/2000/svg" width="1133" height="1150" viewBox="0 0 1133 1150" fill="none"><g opacity="0.8"><path d="M573.839 564.453H560.133L518.257 0H615.716L573.839 564.453Z" fill="url(#paint0_radial_34_11)"></path><path d="M572.611 568.361L561.361 560.545L826.119 64.5775L933.884 118.584L572.611 568.361Z" fill="url(#paint1_radial_34_11)"></path><path d="M570.698 564.453H566.986L695.812 10.6327L734.948 22.8006L570.698 564.453Z" fill="url(#paint2_radial_34_11)"></path><path d="M570.698 564.453L567.621 562.379L984.494 175.127L1010.13 207.066L570.698 564.453Z" fill="url(#paint3_radial_34_11)"></path><path d="M569.527 570.808L564.445 558.098L1073.85 309.948L1109.99 400.332L569.527 570.808Z" fill="url(#paint4_radial_34_11)"></path><path d="M565.438 571.118L568.534 557.788L1128.61 644.579L1118.35 764.551L565.438 571.118Z" fill="url(#paint5_radial_34_11)"></path><path d="M568.363 567.897L566.986 564.453L1129.8 478.559L1133 519.366L568.363 567.897Z" fill="url(#paint6_radial_34_11)"></path><path d="M568.363 567.897L569.149 564.272L1083.87 807.286L1063.68 842.904L568.363 567.897Z" fill="url(#paint7_radial_34_11)"></path><path d="M562.018 569.166L571.953 559.74L991.63 940.152L920.975 1007.19L562.018 569.166Z" fill="url(#paint8_radial_34_11)"></path><path d="M560.213 565.489L573.759 563.417L700.734 1115.03L585.357 1150L560.213 565.489Z" fill="url(#paint9_radial_34_11)"></path><path d="M564.294 567.007L566.986 564.453L855.572 1054.57L818.807 1072.67L564.294 567.007Z" fill="url(#paint10_radial_34_11)"></path><path d="M564.294 567.007L567.956 566.393L532.829 1133.88L492.215 1128.35L564.294 567.007Z" fill="url(#paint11_radial_34_11)"></path><path d="M560.76 561.593L573.211 567.313L375.058 1097.6L286.518 1056.93L560.76 561.593Z" fill="url(#paint12_radial_34_11)"></path><path d="M563.511 558.555L570.462 570.351L104.553 892.661L29.2474 798.626L563.511 558.555Z" fill="url(#paint13_radial_34_11)"></path><path d="M563.613 562.903L566.986 564.453L218.198 1013.84L187.736 986.455L563.613 562.903Z" fill="url(#paint14_radial_34_11)"></path><path d="M563.613 562.903L565.542 566.072L24.7639 743.931L14.8405 704.216L563.613 562.903Z" fill="url(#paint15_radial_34_11)"></path><path d="M567.338 557.619L566.635 571.287L0 584.158L4.9887 486.961L567.338 557.619Z" fill="url(#paint16_radial_34_11)"></path><path d="M571.182 559.043L562.791 569.862L90.2749 257.29L149.803 152.579L571.182 559.043Z" fill="url(#paint17_radial_34_11)"></path><path d="M567.177 560.75L566.986 564.453L19.7211 407.623L33.8943 369.218L567.177 560.75Z" fill="url(#paint18_radial_34_11)"></path><path d="M567.177 560.75L564.945 563.714L199.005 128.139L232.259 104.21L567.177 560.75Z" fill="url(#paint19_radial_34_11)"></path><path d="M573.472 562.245L560.501 566.661L338.409 45.925L430.65 14.5084L573.472 562.245Z" fill="url(#paint20_radial_34_11)"></path></g><defs><radialGradient id="paint0_radial_34_11" cx="0" cy="0" r="1" gradientUnits="userSpaceOnUse" gradientTransform="translate(562.631 561.855) rotate(87.9801) scale(536.557 562.979)"><stop stop-color="#FFE86F"></stop><stop offset="1" stop-color="#FFE86F" stop-opacity="0"></stop></radialGradient><radialGradient id="paint1_radial_34_11" cx="0" cy="0" r="1" gradientUnits="userSpaceOnUse" gradientTransform="translate(562.631 561.855) rotate(87.9801) scale(536.557 562.979)"><stop stop-color="#FFE86F"></stop><stop offset="1" stop-color="#FFE86F" stop-opacity="0"></stop></radialGradient><radialGradient id="paint2_radial_34_11" cx="0" cy="0" r="1" gradientUnits="userSpaceOnUse" gradientTransform="translate(562.631 561.855) rotate(87.9801) scale(536.557 562.979)"><stop stop-color="#FFE86F"></stop><stop offset="1" stop-color="#FFE86F" stop-opacity="0"></stop></radialGradient><radialGradient id="paint3_radial_34_11" cx="0" cy="0" r="1" gradientUnits="userSpaceOnUse" gradientTransform="translate(562.631 561.855) rotate(87.9801) scale(536.557 562.979)"><stop stop-color="#FFE86F"></stop><stop offset="1" stop-color="#FFE86F" stop-opacity="0"></stop></radialGradient><radialGradient id="paint4_radial_34_11" cx="0" cy="0" r="1" gradientUnits="userSpaceOnUse" gradientTransform="translate(562.631 561.855) rotate(87.9801) scale(536.557 562.979)"><stop stop-color="#FFE86F"></stop><stop offset="1" stop-color="#FFE86F" stop-opacity="0"></stop></radialGradient><radialGradient id="paint5_radial_34_11" cx="0" cy="0" r="1" gradientUnits="userSpaceOnUse" gradientTransform="translate(562.631 561.855) rotate(87.9801) scale(536.557 562.979)"><stop stop-color="#FFE86F"></stop><stop offset="1" stop-color="#FFE86F" stop-opacity="0"></stop></radialGradient><radialGradient id="paint6_radial_34_11" cx="0" cy="0" r="1" gradientUnits="userSpaceOnUse" gradientTransform="translate(562.631 561.855) rotate(87.9801) scale(536.557 562.979)"><stop stop-color="#FFE86F"></stop><stop offset="1" stop-color="#FFE86F" stop-opacity="0"></stop></radialGradient><radialGradient id="paint7_radial_34_11" cx="0" cy="0" r="1" gradientUnits="userSpaceOnUse" gradientTransform="translate(562.631 561.855) rotate(87.9801) scale(536.557 562.979)"><stop stop-color="#FFE86F"></stop><stop offset="1" stop-color="#FFE86F" stop-opacity="0"></stop></radialGradient><radialGradient id="paint8_radial_34_11" cx="0" cy="0" r="1" gradientUnits="userSpaceOnUse" gradientTransform="translate(562.631 561.855) rotate(87.9801) scale(536.557 562.979)"><stop stop-color="#FFE86F"></stop><stop offset="1" stop-color="#FFE86F" stop-opacity="0"></stop></radialGradient><radialGradient id="paint9_radial_34_11" cx="0" cy="0" r="1" gradientUnits="userSpaceOnUse" gradientTransform="translate(562.631 561.855) rotate(87.9801) scale(536.557 562.979)"><stop stop-color="#FFE86F"></stop><stop offset="1" stop-color="#FFE86F" stop-opacity="0"></stop></radialGradient><radialGradient id="paint10_radial_34_11" cx="0" cy="0" r="1" gradientUnits="userSpaceOnUse" gradientTransform="translate(562.631 561.855) rotate(87.9801) scale(536.557 562.979)"><stop stop-color="#FFE86F"></stop><stop offset="1" stop-color="#FFE86F" stop-opacity="0"></stop></radialGradient><radialGradient id="paint11_radial_34_11" cx="0" cy="0" r="1" gradientUnits="userSpaceOnUse" gradientTransform="translate(562.631 561.855) rotate(87.9801) scale(536.557 562.979)"><stop stop-color="#FFE86F"></stop><stop offset="1" stop-color="#FFE86F" stop-opacity="0"></stop></radialGradient><radialGradient id="paint12_radial_34_11" cx="0" cy="0" r="1" gradientUnits="userSpaceOnUse" gradientTransform="translate(562.631 561.855) rotate(87.9801) scale(536.557 562.979)"><stop stop-color="#FFE86F"></stop><stop offset="1" stop-color="#FFE86F" stop-opacity="0"></stop></radialGradient><radialGradient id="paint13_radial_34_11" cx="0" cy="0" r="1" gradientUnits="userSpaceOnUse" gradientTransform="translate(562.631 561.855) rotate(87.9801) scale(536.557 562.979)"><stop stop-color="#FFE86F"></stop><stop offset="1" stop-color="#FFE86F" stop-opacity="0"></stop></radialGradient><radialGradient id="paint14_radial_34_11" cx="0" cy="0" r="1" gradientUnits="userSpaceOnUse" gradientTransform="translate(562.631 561.855) rotate(87.9801) scale(536.557 562.979)"><stop stop-color="#FFE86F"></stop><stop offset="1" stop-color="#FFE86F" stop-opacity="0"></stop></radialGradient><radialGradient id="paint15_radial_34_11" cx="0" cy="0" r="1" gradientUnits="userSpaceOnUse" gradientTransform="translate(562.631 561.855) rotate(87.9801) scale(536.557 562.979)"><stop stop-color="#FFE86F"></stop><stop offset="1" stop-color="#FFE86F" stop-opacity="0"></stop></radialGradient><radialGradient id="paint16_radial_34_11" cx="0" cy="0" r="1" gradientUnits="userSpaceOnUse" gradientTransform="translate(562.631 561.855) rotate(87.9801) scale(536.557 562.979)"><stop stop-color="#FFE86F"></stop><stop offset="1" stop-color="#FFE86F" stop-opacity="0"></stop></radialGradient><radialGradient id="paint17_radial_34_11" cx="0" cy="0" r="1" gradientUnits="userSpaceOnUse" gradientTransform="translate(562.631 561.855) rotate(87.9801) scale(536.557 562.979)"><stop stop-color="#FFE86F"></stop><stop offset="1" stop-color="#FFE86F" stop-opacity="0"></stop></radialGradient><radialGradient id="paint18_radial_34_11" cx="0" cy="0" r="1" gradientUnits="userSpaceOnUse" gradientTransform="translate(562.631 561.855) rotate(87.9801) scale(536.557 562.979)"><stop stop-color="#FFE86F"></stop><stop offset="1" stop-color="#FFE86F" stop-opacity="0"></stop></radialGradient><radialGradient id="paint19_radial_34_11" cx="0" cy="0" r="1" gradientUnits="userSpaceOnUse" gradientTransform="translate(562.631 561.855) rotate(87.9801) scale(536.557 562.979)"><stop stop-color="#FFE86F"></stop><stop offset="1" stop-color="#FFE86F" stop-opacity="0"></stop></radialGradient><radialGradient id="paint20_radial_34_11" cx="0" cy="0" r="1" gradientUnits="userSpaceOnUse" gradientTransform="translate(562.631 561.855) rotate(87.9801) scale(536.557 562.979)"><stop stop-color="#FFE86F"></stop><stop offset="1" stop-color="#FFE86F" stop-opacity="0"></stop></radialGradient></defs></svg>