<svg xmlns="http://www.w3.org/2000/svg" width="82" height="82" viewBox="0 0 82 82">
  <g id="Gruppe_11380" data-name="Gruppe 11380" transform="translate(-756 -885)">
    <circle id="Ellipse_95" data-name="Ellipse 95" cx="38" cy="38" r="38" transform="translate(759 888)" fill="#1d1d1d" stroke="#fdf7e9" stroke-width="6"/>
    <g id="_38540428-b30a-494f-bb35-54e18468e4c5" data-name="38540428-b30a-494f-bb35-54e18468e4c5" transform="translate(777.9 907.73)">
      <path id="Pfad_3768" data-name="Pfad 3768" d="M103.215,50.507l.152.917A17.247,17.247,0,0,1,103.532,54a23.781,23.781,0,0,1-.681,5.649A21.193,21.193,0,0,1,99.7,66.678a21.856,21.856,0,0,1-7.74,6.782l-.44.233-.438-.237a21.878,21.878,0,0,1-7.74-6.782,21.194,21.194,0,0,1-3.154-7.023A23.79,23.79,0,0,1,79.5,54a17.26,17.26,0,0,1,.166-2.578l.152-.917a.576.576,0,1,0-1.137-.187l-.152.917A18.333,18.333,0,0,0,78.35,54a24.937,24.937,0,0,0,.718,5.928,22.344,22.344,0,0,0,3.326,7.4,23.054,23.054,0,0,0,8.138,7.138l.711.384a.574.574,0,0,0,.546,0l.711-.384a23.038,23.038,0,0,0,8.138-7.137,22.343,22.343,0,0,0,3.326-7.4A24.937,24.937,0,0,0,104.683,54a18.387,18.387,0,0,0-.181-2.765l-.152-.917a.576.576,0,1,0-1.137.188l0,0Z" transform="translate(-72.416 -46.094)" fill="#fdf7e9" fill-rule="evenodd"/>
      <path id="Pfad_3769" data-name="Pfad 3769" d="M130.144,4.308,138.7,1.7l8.745,2.67a.576.576,0,0,0,.336-1.1L138.866.543a.573.573,0,0,0-.336,0l-8.72,2.663a.576.576,0,0,0,.336,1.1Z" transform="translate(-119.597 -0.518)" fill="#fdf7e9" fill-rule="evenodd"/>
      <path id="Pfad_3770" data-name="Pfad 3770" d="M82.716,50.736,94.982,74.672a.576.576,0,0,0,1.02.009l7.479-13.988.011-.022,4.787-9.948a.576.576,0,1,0-1.037-.5l-4.782,9.933L95.5,73.165,83.741,50.211a.576.576,0,1,0-1.024.525Z" transform="translate(-76.393 -46.154)" fill="#fdf7e9" fill-rule="evenodd"/>
      <path id="Pfad_3771" data-name="Pfad 3771" d="M12.283,187.471H25.921a.576.576,0,1,0,0-1.151H12.283a.576.576,0,1,0,0,1.151M4.755,204.617H.869a.255.255,0,0,0-.253.253v3.119a.256.256,0,0,0,.253.253H4.755v.526H.869a.776.776,0,0,1-.779-.779V204.87a.776.776,0,0,1,.779-.779H4.755Zm7.3-.526v.526H8.309v1.546h3.008v.531H8.309v1.546h3.742v.526H7.783V204.09Z" transform="translate(-0.09 -172.231)" fill="#fdf7e9" fill-rule="evenodd"/>
      <path id="Pfad_3772" data-name="Pfad 3772" d="M202.4,421.539v1.371a.776.776,0,0,1-.779.779h-.714l1.468,1.744h-.7l-1.462-1.744H198.5a2.49,2.49,0,0,1-.253-.026v1.767h-.526V420.76h3.9a.776.776,0,0,1,.779.779Zm-3.9,1.618h3.119a.244.244,0,0,0,.247-.247v-1.371a.25.25,0,0,0-.071-.179.234.234,0,0,0-.175-.076H198.5a.255.255,0,0,0-.253.253v1.371a.234.234,0,0,0,.076.175A.249.249,0,0,0,198.5,423.157Z" transform="translate(-182.735 -388.895)" fill="#fdf7e9"/>
      <path id="Pfad_3773" data-name="Pfad 3773" d="M296.3,420.68h4.678v.526h-2.072v4.151h-.526v-4.151H296.3Zm7.511,4.678V420.68h.526v4.678Zm7.549-4.678h.676l-1.958,2.337,1.962,2.339h-.682l-1.744-2.072h-1.507v2.072h-.531V420.68h.531v2.072h1.507Z" transform="translate(-273.84 -388.821)" fill="#fdf7e9" fill-rule="evenodd"/>
    </g>
  </g>
</svg>
