<svg xmlns="http://www.w3.org/2000/svg" width="82" height="82" viewBox="0 0 82 82">
  <g id="Gruppe_11381" data-name="Gruppe 11381" transform="translate(-670 -885)">
    <circle id="Ellipse_94" data-name="Ellipse 94" cx="38" cy="38" r="38" transform="translate(673 888)" fill="#01ff6c" stroke="#fdf7e9" stroke-width="6"/>
    <g id="coingecko-1" transform="translate(675.667 890.336)">
      <path id="Pfad_11848" data-name="Pfad 11848" d="M93.089,55.2A35.374,35.374,0,1,1,57.554,19.979,35.374,35.374,0,0,1,93.089,55.2Z" transform="translate(-22.341 -19.979)" fill="#8dc63f"/>
      <path id="Pfad_11849" data-name="Pfad 11849" d="M94.909,59.689a32.709,32.709,0,1,1-32.858-32.56,32.709,32.709,0,0,1,32.858,32.56Z" transform="translate(-26.826 -24.464)" fill="#f9e988"/>
      <path id="Pfad_11850" data-name="Pfad 11850" d="M118.85,32.351a17.89,17.89,0,0,1,6.288,0,19.131,19.131,0,0,1,6,2.013,34.38,34.38,0,0,1,5.08,3.727c1.6,1.312,3.2,2.639,4.722,4.1a23.943,23.943,0,0,1,4.025,4.864,27.579,27.579,0,0,1,2.821,5.684,25.825,25.825,0,0,1,1.159,12.437h-.209a58.333,58.333,0,0,0-3.064-11.688,45.819,45.819,0,0,0-2.4-5.456,54.282,54.282,0,0,0-3.183-5.106,18.58,18.58,0,0,0-4.271-4.312,24.819,24.819,0,0,0-5.415-2.676c-1.849-.727-3.7-1.45-5.617-2.005s-3.884-.969-5.93-1.372Z" transform="translate(-82.88 -27.565)" fill="#fff"/>
      <path id="Pfad_11851" data-name="Pfad 11851" d="M89.16,72.714c-2.374-.69-4.845-1.662-7.327-2.646a5,5,0,0,0-1.815-2.356c-1.629-1.413-4.685-1.375-7.327-.745a18.486,18.486,0,0,0-8.572-.265c-22.6,6.224-9.784,21.442-18.088,36.723,1.181,2.5,13.917,17.145,32.344,13.205,0,0-6.3-15.143,7.92-22.411C97.829,88.3,106.167,77.354,89.16,72.714Z" transform="translate(-37.201 -49.042)" fill="#8bc53f"/>
      <path id="Pfad_11852" data-name="Pfad 11852" d="M164.623,107.91a1.372,1.372,0,1,1-1.375-1.36A1.372,1.372,0,0,1,164.623,107.91Z" transform="translate(-109.872 -74.284)" fill="#fff"/>
      <path id="Pfad_11853" data-name="Pfad 11853" d="M117.56,67.176a34.278,34.278,0,0,1,9.143,3.108C125.432,66.557,121.112,66.072,117.56,67.176Z" transform="translate(-82.071 -49.259)" fill="#009345"/>
      <path id="Pfad_11854" data-name="Pfad 11854" d="M100.442,82.606a6.336,6.336,0,1,1-6.336-6.336A6.336,6.336,0,0,1,100.442,82.606Z" transform="translate(-63.384 -55.29)" fill="#fff"/>
      <path id="Pfad_11855" data-name="Pfad 11855" d="M101.76,85.936a4.45,4.45,0,1,1-4.45-4.446A4.45,4.45,0,0,1,101.76,85.936Z" transform="translate(-66.577 -58.564)" fill="#58595b"/>
      <path id="Pfad_11856" data-name="Pfad 11856" d="M96.468,112.975a31.622,31.622,0,0,1-19.221,6.336c-3.869,0-4.651-4.1-7.208-2.095-1.323,1.04-5.963,3.354-9.672,3.19s-9.69-2.344-11.349-10.227c-.66,7.883-1,13.69-3.958,20.346,5.9,9.441,19.951,16.72,32.705,13.589-1.368-9.571,7-18.949,11.711-23.745,1.782-1.815,5.218-4.782,6.992-7.409Z" transform="translate(-36.592 -76.561)" fill="#8bc53f"/>
      <path id="Pfad_11857" data-name="Pfad 11857" d="M142.228,118.188a23.016,23.016,0,0,1-5.412,3.47,34.4,34.4,0,0,1-6.075,2.214,19.036,19.036,0,0,1-6.481.745,8.869,8.869,0,0,1-5.93-2.609l.071-.082a11.3,11.3,0,0,0,5.922,1.636,27.953,27.953,0,0,0,6.228-.518,34.03,34.03,0,0,0,6.053-1.864,22.737,22.737,0,0,0,5.557-3.071Z" transform="translate(-82.554 -81.535)" fill="#58595b"/>
    </g>
  </g>
</svg>
