<svg id="Gruppe_11253" data-name="Gruppe 11253" xmlns="http://www.w3.org/2000/svg" xmlns:xlink="http://www.w3.org/1999/xlink" width="33.798" height="34.182" viewBox="0 0 33.798 34.182">
  <defs>
    <clipPath id="clip-path">
      <rect id="Rechteck_5009" data-name="Rechteck 5009" width="33.798" height="34.182" fill="none"/>
    </clipPath>
  </defs>
  <g id="Gruppe_11252" data-name="Gruppe 11252" clip-path="url(#clip-path)">
    <path id="Pfad_15594" data-name="Pfad 15594" d="M31.718,24.158C30.231,29.1,25.3,32.543,20.175,33.124S9.867,31.766,5.725,28.688a13.985,13.985,0,0,1-5.2-6.416,12.938,12.938,0,0,1,.245-7.964C2.5,8.811,4.665,3.6,10.794,1.21A16.217,16.217,0,0,1,15.26.181c5.926-.522,9.5-.021,12.617,2.87,3.471,3.218,3.989,8.433,4.284,13.157a22.633,22.633,0,0,1-.443,7.951" transform="translate(0 0.001)" fill="#83d864"/>
    <path id="Pfad_15595" data-name="Pfad 15595" d="M49.085,27.849a12.208,12.208,0,0,1-5.8,6.906,14.354,14.354,0,0,1-4.425,1.618,14.55,14.55,0,0,1-2.5.243,16.776,16.776,0,0,1-2.731-.176,22.438,22.438,0,0,1-10.115-4.431,16.1,16.1,0,0,1-3.608-3.63,9.963,9.963,0,0,1-1.185-2.266,9.7,9.7,0,0,1-.549-2.848,15.991,15.991,0,0,1,.923-5.618,38.957,38.957,0,0,1,1.574-4.195c.3-.66.63-1.308,1-1.935q.277-.476.583-.935.147-.22.3-.434.077-.107.155-.213l.079-.106.07-.092a13.983,13.983,0,0,1,1.49-1.64A12.328,12.328,0,0,1,26.07,6.741,14.686,14.686,0,0,1,31.009,4.7a20.6,20.6,0,0,1,2.937-.382c.866-.062,1.735-.1,2.6-.107a21.851,21.851,0,0,1,2.339.107c.368.038.616.072,1,.14q.505.09,1,.219a9.94,9.94,0,0,1,3.435,1.616c.264.191.471.357.745.6A10.542,10.542,0,0,1,45.9,7.7a9.985,9.985,0,0,1,1.369,1.917,15.623,15.623,0,0,1,1.574,4.528,38.009,38.009,0,0,1,.6,4.916,40.923,40.923,0,0,1,.143,5.946,13.471,13.471,0,0,1-.509,2.843.409.409,0,0,0,.789.217,18.971,18.971,0,0,0,.558-6.269c-.08-1.813-.194-3.634-.412-5.437a23.347,23.347,0,0,0-1.1-5.046,12.134,12.134,0,0,0-2.541-4.3A11.1,11.1,0,0,0,42.946,4.54a13.056,13.056,0,0,0-4.123-1.05,29.109,29.109,0,0,0-5.133.026,20.644,20.644,0,0,0-3.107.44,16.182,16.182,0,0,0-2.88.969A14.062,14.062,0,0,0,23.675,7.61,15.926,15.926,0,0,0,20.9,11.217a27.263,27.263,0,0,0-1.9,4.2,27.408,27.408,0,0,0-1.463,5.077,11.723,11.723,0,0,0,.473,6.035A12.649,12.649,0,0,0,21.088,31a23.531,23.531,0,0,0,4.474,3.358,23.277,23.277,0,0,0,5.316,2.315,18.671,18.671,0,0,0,5.687.759,15.151,15.151,0,0,0,9.3-3.462,12.852,12.852,0,0,0,3.082-3.7,11.652,11.652,0,0,0,.926-2.205.409.409,0,0,0-.789-.217" transform="translate(-16.671 -3.253)" fill="#1d1d1b"/>
    <path id="Pfad_15596" data-name="Pfad 15596" d="M238.372,275.437q.177.12.349.247l.166.124.039.03-.025-.019.1.075q.323.256.63.532c.387.346.756.713,1.109,1.094q.447.482.86.995.087.108.172.217l.037.047.018.023-.037-.049c.026.032.051.066.076.1q.124.163.244.329c.079.109.157.218.231.331a.414.414,0,0,0,.706,0c.593-.913,1.182-1.828,1.78-2.737.634-.965,1.276-1.924,1.938-2.87q.508-.727,1.033-1.442.259-.352.523-.7.135-.179.272-.357c.018-.023.086-.11.012-.016l.061-.079.145-.186c.709-.9,1.447-1.786,2.231-2.626a25.133,25.133,0,0,1,2.364-2.25q.15-.124.3-.245a.409.409,0,0,0,.12-.289.416.416,0,0,0-.12-.289.412.412,0,0,0-.289-.12.475.475,0,0,0-.289.12,23.808,23.808,0,0,0-2.4,2.209c-.79.827-1.534,1.7-2.247,2.591-.75.941-1.468,1.908-2.163,2.89-.672.95-1.324,1.914-1.965,2.885-.608.921-1.206,1.848-1.807,2.773l-.212.327h.706c-.239-.363-.508-.709-.778-1.049a18.045,18.045,0,0,0-1.929-2.084,13.81,13.81,0,0,0-1.549-1.234.411.411,0,0,0-.559.147.419.419,0,0,0,.147.559" transform="translate(-228.755 -254.813)" fill="#1d1d1b" stroke="#000" stroke-linejoin="bevel" stroke-width="1"/>
  </g>
</svg>
