<svg xmlns="http://www.w3.org/2000/svg" width="82" height="82" viewBox="0 0 82 82">
  <g id="Gruppe_11382" data-name="Gruppe 11382" transform="translate(-584 -885)">
    <circle id="Ellipse_93" data-name="Ellipse 93" cx="38" cy="38" r="38" transform="translate(587 888)" fill="#2a6aff" stroke="#fdf7e9" stroke-width="6"/>
    <path id="coinmarketcap-seeklogo.com_2" data-name="coinmarketcap-seeklogo.com 2" d="M-265.3-279.164a1.932,1.932,0,0,1-1.964.131,2.912,2.912,0,0,1-1.116-2.675v-4.009c0-1.927-.761-3.292-2.039-3.666-2.151-.63-3.76,2.008-4.377,3l-3.81,6.167v-7.526c-.044-1.733-.6-2.775-1.677-3.086-.7-.206-1.765-.125-2.793,1.447l-8.517,13.674a14.963,14.963,0,0,1-1.715-7.021,14.834,14.834,0,0,1,14.7-14.946,14.85,14.85,0,0,1,14.722,14.946v.087a3.71,3.71,0,0,1-1.415,3.479Zm4.708-3.567v-.081A18.189,18.189,0,0,0-278.6-301a18.174,18.174,0,0,0-18,18.27,18.15,18.15,0,0,0,18,18.27,17.79,17.79,0,0,0,12.234-4.876,1.676,1.676,0,0,0,.087-2.351,1.616,1.616,0,0,0-2.282-.112l-.006.006a14.55,14.55,0,0,1-20.57-.542c-.137-.143-.268-.287-.4-.436l7.663-12.327v5.687c0,2.731,1.06,3.616,1.945,3.878s2.251.081,3.673-2.232l4.24-6.859c.131-.218.256-.411.374-.574v3.486c0,2.556,1.023,4.6,2.825,5.606a5.18,5.18,0,0,0,5.275-.212,7.011,7.011,0,0,0,2.943-6.41Z" transform="translate(903.595 1208.73)" fill="#fdf7e9"/>
  </g>
</svg>
