<svg xmlns="http://www.w3.org/2000/svg" width="82" height="82" viewBox="0 0 82 82">
  <g id="Gruppe_11379" data-name="Gruppe 11379" transform="translate(-842 -885)">
    <circle id="Ellipse_97" data-name="Ellipse 97" cx="38" cy="38" r="38" transform="translate(845 888)" fill="#6200ff" stroke="#fdf7e9" stroke-width="6"/>
    <path id="Pfad_15597" data-name="Pfad 15597" d="M84.41,202.364l1.461,4.52a.168.168,0,0,0,.319,0l1.461-4.52a7.743,7.743,0,0,1,4.994-4.994l4.52-1.461a.168.168,0,0,0,0-.32l-4.52-1.461a7.744,7.744,0,0,1-4.994-4.994l-1.461-4.52a.168.168,0,0,0-.319,0l-1.461,4.52a7.743,7.743,0,0,1-4.994,4.994L74.9,195.59a.168.168,0,0,0,0,.32l4.52,1.461A7.751,7.751,0,0,1,84.41,202.364Z" transform="translate(783.33 730.252)" fill="#fdf7e9"/>
    <path id="Pfad_15598" data-name="Pfad 15598" d="M303.847,202.364l1.461,4.52a.168.168,0,0,0,.319,0l1.461-4.52a7.743,7.743,0,0,1,4.994-4.994l4.52-1.461a.168.168,0,0,0,0-.32l-4.52-1.461a7.743,7.743,0,0,1-4.994-4.994l-1.461-4.52a.168.168,0,0,0-.319,0l-1.461,4.52a7.743,7.743,0,0,1-4.994,4.994l-4.52,1.461a.168.168,0,0,0,0,.32l4.52,1.461A7.751,7.751,0,0,1,303.847,202.364Z" transform="translate(591.172 730.252)" fill="#fdf7e9"/>
  </g>
</svg>
