<svg xmlns="http://www.w3.org/2000/svg" width="82" height="82" viewBox="0 0 82 82">
  <g id="Gruppe_11384" data-name="Gruppe 11384" transform="translate(-413 -885)">
    <circle id="Ellipse_91" data-name="Ellipse 91" cx="38" cy="38" r="38" transform="translate(416 888)" fill="#219ed9" stroke="#fdf7e9" stroke-width="6"/>
    <path id="Path-3" d="M99.8,169.844q17.753-7.735,23.676-10.2c11.274-4.689,13.617-5.5,15.144-5.531a2.67,2.67,0,0,1,1.573.472c.722.585.726,1.856.646,2.7-.611,6.42-3.255,22-4.6,29.188-.57,3.042-1.69,4.062-2.775,4.162-2.358.217-4.148-1.558-6.431-3.055-3.573-2.342-5.592-3.8-9.06-6.086-4.008-2.641-1.41-4.093.874-6.466.6-.621,10.985-10.069,11.186-10.927a.829.829,0,0,0-.189-.718.937.937,0,0,0-.84-.082q-.538.122-17.124,11.319a7.707,7.707,0,0,1-4.4,1.626,29,29,0,0,1-6.311-1.493c-2.542-.826-4.563-1.263-4.387-2.667q.137-1.1,3.02-2.243Z" transform="translate(333.373 753.617)" fill="#fdf7e9" fill-rule="evenodd"/>
  </g>
</svg>
